<svg xmlns="http://www.w3.org/2000/svg" enable-background="new 0 0 66 66" viewBox="0 0 66 66"><path d="M26.23,26.23v13.53h13.54V26.23H26.23z M33.73,37.3l-0.55-1.77H30l-0.6,1.77h-1.9l3.08-8.61h2.07l3.03,8.61H33.73z
			 M38.5,37.3h-1.8v-8.61h1.8V37.3z"/><path d="M41.74,22.35H24.26c-1.05,0-1.91,0.85-1.91,1.91v17.48c0,1.05,0.86,1.91,1.91,1.91h17.48c1.05,0,1.91-0.86,1.91-1.91
			v-17.48C43.65,23.2,42.79,22.35,41.74,22.35z M41.77,40.7599c0,0.56-0.45,1-1,1H25.23c-0.55,0-1-0.44-1-1V25.23c0-0.55,0.45-1,1-1
			h15.54c0.55,0,1,0.45,1,1V40.7599z"/><path d="M54.57,22.3799c-0.31-4.23-2.98-7.6899-6.47-8.49c0.01-0.25,0.02-0.51,0.02-0.78c0-5.25-3.62-9.53-8.06-9.53
			c-3.04,0-5.69,2-7.06,4.94c-1.38-2.94-4.02-4.94-7.06-4.94c-4.45,0-8.07,4.28-8.07,9.53c0,0.27,0.01,0.53,0.03,0.78
			c-3.48,0.8-6.14,4.25-6.47,8.49c-4.65,0.89-8.17,5.7-8.17,11.39s3.52,10.51,8.17,11.4c0.32,4.2,2.99,7.71,6.47,8.52
			c0.36,4.8799,3.83,8.72,8.04,8.72c3.04,0,5.68-2,7.06-4.94c1.37,2.94,4.02,4.94,7.06,4.94c4.2,0,7.67-3.83,8.03-8.72
			c3.48-0.8101,6.15-4.3,6.48-8.52c4.65-0.89,8.17-5.71,8.17-11.4S59.22,23.27,54.57,22.3799z M48.85,25.92h-3.2v3.39h3.2v2h-3.2
			v3.38h3.2v2h-3.2v3.3799h3.2v2h-3.23c-0.17,1.89-1.66,3.38-3.54,3.54v3.23h-2v-3.19h-3.39v3.19h-2v-3.19h-3.38v3.19h-2v-3.19
			h-3.39v3.19h-2v-3.23c-1.88-0.16-3.37-1.65-3.54-3.54h-3.23v-2h3.2V36.69h-3.2v-2h3.2v-3.38h-3.2v-2h3.2v-3.39h-3.2v-2h3.23
			c0.17-1.88,1.66-3.38,3.54-3.54v-3.23h2v3.2h3.39v-3.2h2v3.2h3.38v-3.2h2v3.2h3.39v-3.2h2v3.23c1.88,0.16,3.37,1.66,3.54,3.54
			h3.23V25.92z"/><polygon points="31.607 30.634 31.583 30.634 30.48 34.041 32.674 34.041"/><path d="M5.91 11.47v6.74c0 .33.16.64.4301.83l2.78 1.94c.17-.07.34-.13.51-.19.1-.55.24-1.09.42-1.6l-2.14-1.5v-6.22c1.38-.43 2.38-1.71 2.38-3.22 0-1.86-1.52-3.38-3.38-3.38C5.05 4.87 3.53 6.39 3.53 8.25 3.53 9.7599 4.53 11.04 5.91 11.47zM53.5 58.4v-2.11c0-.33-.16-.63-.43-.82l-1.58-1.1c-.5.32-1.02.6-1.57.83-.03.15-.06.29-.1.44l1.68 1.17v1.59c-1.38.43-2.38 1.71-2.38 3.22 0 1.86 1.52 3.38 3.38 3.38s3.37-1.52 3.37-3.38C55.87 60.11 54.87 58.83 53.5 58.4zM7.91 54.54V48.3l1.79-1.24c-.03-.1-.05-.2-.07-.3C9 46.54 8.39 46.27 7.81 45.94l-1.47 1.02C6.07 47.15 5.91 47.45 5.91 47.78v6.76C4.54 54.97 3.53 56.23 3.53 57.75c0 1.86 1.52 3.37 3.3799 3.37 1.86 0 3.38-1.51 3.38-3.37C10.29 56.23 9.28 54.97 7.91 54.54zM14.24 58.4v-1.59l1.9-1.32c-.02-.09-.04-.19-.06-.29-.59-.25-1.16-.55-1.7-.92l-1.71 1.19c-.27.19-.43.49-.43.82v2.11c-1.37.43-2.37 1.71-2.37 3.22 0 1.86 1.51 3.38 3.37 3.38s3.38-1.52 3.38-3.38C16.62 60.11 15.62 58.83 14.24 58.4zM51.5 7.6v1.58l-1.67 1.16c.14.68.24 1.39.27 2.11.04.02.08.04.12.06l2.85-1.99c.27-.18.43-.49.43-.82V7.6c1.37-.43 2.37-1.72 2.37-3.23 0-1.86-1.51-3.37-3.37-3.37s-3.38 1.5099-3.38 3.37C49.12 5.8799 50.12 7.17 51.5 7.6zM12.24 7.6v2.1c0 .33.16.64.43.82l2.96 2.07c.08-.05.17-.09.26-.13.03-.67.12-1.32.25-1.96l-1.9-1.32V7.6c1.38-.43 2.38-1.72 2.38-3.23 0-1.86-1.52-3.37-3.38-3.37S9.87 2.5099 9.87 4.37C9.87 5.8799 10.87 7.17 12.24 7.6zM57.83 11.47v6.22l-1.93 1.34c.21.57.37 1.16.48 1.77.11.04.21.07.32.12l2.7-1.88c.27-.19.43-.5.43-.83v-6.74c1.38-.43 2.38-1.71 2.38-3.22 0-1.86-1.52-3.38-3.38-3.38-1.86 0-3.37 1.52-3.37 3.38C55.46 9.7599 56.46 11.04 57.83 11.47zM59.83 54.52v-6.74c0-.33-.16-.63-.43-.82l-1.35-.94c-.54.29-1.1.54-1.68.74-.03.15-.06.3-.1.45l1.56 1.09v6.22c-1.37.43-2.37 1.71-2.37 3.23 0 1.86 1.5099 3.37 3.37 3.37 1.86 0 3.38-1.51 3.38-3.37C62.21 56.23 61.21 54.95 59.83 54.52z"/></svg>