<svg xmlns="http://www.w3.org/2000/svg" enable-background="new 0 0 550 550" viewBox="0 0 550 550"><path d="M369.993,234.041c-2.868,0-5.403-2.062-5.906-4.984c-0.562-3.266,1.63-6.369,4.896-6.93
				c28.611-4.921,49.378-29.607,49.378-58.697c0-25.582-16.287-48.265-40.528-56.445c-2.789-0.941-4.483-3.766-4.001-6.669
				c0.536-3.227,0.809-6.506,0.809-9.746c0-32.847-26.723-59.57-59.569-59.57c-13.307,0-25.893,4.299-36.396,12.434
				c-2.164,1.675-5.185,1.675-7.347,0C260.822,35.299,248.236,31,234.93,31c-32.847,0-59.57,26.723-59.57,59.57
				c0,3.238,0.272,6.517,0.809,9.746c0.482,2.903-1.212,5.728-4,6.669c-24.241,8.18-40.528,30.864-40.528,56.445
				c0,28.182,20.002,52.726,47.562,58.361c3.247,0.664,5.34,3.834,4.676,7.081c-0.665,3.246-3.833,5.339-7.081,4.676
				c-33.119-6.772-57.158-36.261-57.158-70.118c0-29.071,17.506-55.026,44.047-66.068c-0.218-2.265-0.327-4.536-0.327-6.792
				c0-39.464,32.106-71.57,71.57-71.57c14.468,0,28.228,4.231,40.07,12.279C286.842,23.231,300.603,19,315.07,19
				c39.464,0,71.569,32.106,71.569,71.57c0,2.256-0.109,4.527-0.327,6.792c26.541,11.042,44.048,36.998,44.048,66.068
				c0,34.949-24.957,64.608-59.343,70.523C370.673,234.012,370.33,234.041,369.993,234.041z"/><path d="M235,181c-3.313,0-6-2.687-6-6v-60c0-6.617-5.383-12-12-12s-12,5.383-12,12v60c0,3.313-2.687,6-6,6s-6-2.687-6-6v-60
				c0-13.234,10.766-24,24-24s24,10.766,24,24v60C241,178.313,238.313,181,235,181z"/><path d="M235 145h-36c-3.313 0-6-2.687-6-6s2.687-6 6-6h36c3.313 0 6 2.687 6 6S238.313 145 235 145zM265 181c-3.313 0-6-2.687-6-6V97c0-3.313 2.687-6 6-6s6 2.687 6 6v78C271 178.313 268.313 181 265 181z"/><path fill="none" stroke="#000" stroke-linecap="round" stroke-linejoin="round" stroke-miterlimit="10" stroke-width="12" d="
				M265,97"/><path d="M283 139h-18c-3.313 0-6-2.687-6-6V97c0-3.313 2.687-6 6-6h18c13.233 0 24 10.767 24 24 0 6.399-2.493 12.425-7.021 16.966C295.424 136.507 289.398 139 283 139zM271 127h12c3.201 0 6.218-1.25 8.495-3.52 2.255-2.263 3.505-5.279 3.505-8.48 0-6.617-5.383-12-12-12h-12V127zM337 181c-3.313 0-6-2.687-6-6V97c0-3.313 2.687-6 6-6s6 2.687 6 6v78C343 178.313 340.313 181 337 181z"/><path d="M349 103h-24c-3.313 0-6-2.687-6-6s2.687-6 6-6h24c3.313 0 6 2.687 6 6S352.313 103 349 103zM349 181h-24c-3.313 0-6-2.687-6-6s2.687-6 6-6h24c3.313 0 6 2.687 6 6S352.313 181 349 181zM358.79 235H191.21c-4.836 0-9.684-.488-14.408-1.451-3.247-.662-5.343-3.831-4.681-7.078.662-3.247 3.832-5.338 7.078-4.681 3.938.803 7.979 1.209 12.012 1.209h167.58c3.416 0 6.843-.293 10.187-.872 3.268-.568 6.37 1.624 6.936 4.889.565 3.265-1.624 6.37-4.889 6.935C367.006 234.647 362.89 235 358.79 235z"/><path d="M289,343h-30c-3.313,0-6-2.687-6-6v-14.919c-7.504-2.027-14.634-5.073-21.291-9.094l-10.747,10.746
				c-2.343,2.342-6.142,2.343-8.485-0.001l-21.21-21.21c-2.343-2.342-2.343-6.14-0.001-8.483l11.004-11.012
				c-3.833-6.611-6.715-13.653-8.607-21.027H178c-3.313,0-6-2.687-6-6v-28.33c0-1.801,0.81-3.507,2.205-4.647
				c1.395-1.14,3.229-1.593,4.994-1.232c3.938,0.803,7.979,1.209,12.012,1.209h167.58c3.416,0,6.843-0.293,10.187-0.872
				c1.747-0.304,3.534,0.182,4.888,1.322c1.354,1.14,2.136,2.82,2.136,4.59V256c0,3.313-2.687,6-6,6h-13.664
				c-2.017,7.866-5.148,15.331-9.351,22.29l9.747,9.748c2.344,2.343,2.344,6.142,0,8.484l-21.21,21.21
				c-2.342,2.344-6.14,2.344-8.483,0.002l-10.013-10.006c-6.905,3.999-14.281,6.963-22.026,8.849V337
				C295,340.313,292.313,343,289,343z M265,331h18v-13.28c0-2.9,2.075-5.386,4.929-5.903c9.571-1.736,18.547-5.335,26.679-10.696
				c2.379-1.566,5.53-1.246,7.544,0.766l9.127,9.121l12.727-12.727l-8.927-8.928c-2.046-2.045-2.341-5.258-0.702-7.642
				c5.598-8.142,9.392-17.178,11.274-26.857c0.549-2.819,3.018-4.854,5.89-4.854H364v-15.189c-1.733,0.125-3.474,0.189-5.21,0.189
				H191.21c-2.406,0-4.815-0.121-7.21-0.361V250h14.46c2.873,0,5.343,2.037,5.89,4.856c1.787,9.208,5.329,17.871,10.528,25.749
				c1.569,2.378,1.25,5.531-0.764,7.546l-10.121,10.127l12.726,12.727l9.928-9.928c2.046-2.045,5.26-2.34,7.644-0.699
				c7.868,5.414,16.594,9.148,25.935,11.099c2.781,0.58,4.774,3.032,4.774,5.873V331z"/><path d="M275,481c-3.313,0-6-2.687-6-6V337c0-3.313,2.687-6,6-6s6,2.687,6,6v138C281,478.313,278.313,481,275,481z"/><path d="M275 529c-16.542 0-30-13.458-30-30s13.458-30 30-30 30 13.458 30 30S291.542 529 275 529zM275 481c-9.925 0-18 8.075-18 18s8.075 18 18 18c9.925 0 18-8.075 18-18S284.925 481 275 481zM91 529c-16.542 0-30-13.458-30-30s13.458-30 30-30 30 13.458 30 30S107.542 529 91 529zM91 481c-9.925 0-18 8.075-18 18s8.075 18 18 18 18-8.075 18-18S100.925 481 91 481zM457 529c-16.542 0-30-13.458-30-30s13.458-30 30-30 30 13.458 30 30S473.542 529 457 529zM457 481c-9.925 0-18 8.075-18 18s8.075 18 18 18 18-8.075 18-18S466.925 481 457 481z"/><path d="M91 481c-3.313 0-6-2.687-6-6v-51c0-1.592.632-3.117 1.757-4.243l115.12-115.11c2.344-2.343 6.143-2.342 8.485.001 2.343 2.343 2.343 6.142 0 8.485L97 426.485V475C97 478.313 94.313 481 91 481zM457 481c-3.313 0-6-2.687-6-6v-48.515L337.647 313.132c-2.344-2.343-2.344-6.142 0-8.484 2.342-2.344 6.143-2.344 8.484 0l115.11 115.11c1.126 1.125 1.758 2.651 1.758 4.242v51C463 478.313 460.313 481 457 481zM277 289c-23.159 0-42-18.841-42-42 0-7.387 1.946-14.651 5.628-21.007 1.661-2.867 5.333-3.844 8.199-2.185 2.867 1.661 3.846 5.332 2.185 8.199C248.387 236.538 247 241.723 247 247c0 16.542 13.458 30 30 30s30-13.458 30-30c0-5.277-1.388-10.462-4.012-14.992-1.661-2.867-.684-6.539 2.184-8.2 2.87-1.66 6.539-.682 8.199 2.184C317.054 232.349 319 239.613 319 247 319 270.159 300.159 289 277 289z"/></svg>