<svg width="164" height="161" viewBox="0 0 164 161" fill="none" xmlns="http://www.w3.org/2000/svg">
<g filter="url(#filter0_d_555_122)">
<ellipse cx="79" cy="76.5" rx="73" ry="71.5" fill="#BD4918"/>
</g>
<path d="M96.3778 70.2766C98.897 70.2766 101.313 69.2888 103.094 67.5303M96.3778 70.2766C93.8585 70.2766 91.4425 69.2888 89.6611 67.5303M96.3778 70.2766V77.3084M103.094 67.5303C104.876 65.7718 105.877 63.3869 105.877 60.9M103.094 67.5303L108.131 72.5022M105.877 60.9C105.877 58.4132 104.876 56.0282 103.094 54.2698M105.877 60.9H113M103.094 54.2698C101.313 52.5113 98.897 51.5234 96.3778 51.5234M103.094 54.2698L108.131 49.2978M96.3778 51.5234C93.8585 51.5234 91.4425 52.5113 89.6611 54.2698M96.3778 51.5234V44.4917M89.6611 54.2698C87.8797 56.0282 86.8789 58.4132 86.8789 60.9M89.6611 54.2698L84.6244 49.2978M86.8789 60.9C86.8789 63.3869 87.8797 65.7718 89.6611 67.5303M86.8789 60.9H79.7556M89.6611 67.5303L84.6244 72.5022M94.7941 44.4917H97.9614M107.013 48.194L109.249 50.4017M113 59.3368V62.4633M109.249 71.3984L107.013 73.606M97.9614 77.3084H94.7941M85.7426 73.606L83.5061 71.3984M79.7556 62.4633V59.3368M83.5061 50.4017L85.7426 48.194M65.4 85.5125L70.4562 81.7684C70.9723 81.3869 71.5617 81.1132 72.1885 80.964C72.8154 80.8148 73.4664 80.7933 74.1019 80.9008C74.7374 81.0083 75.3441 81.2425 75.8849 81.5892C76.4256 81.9358 76.8891 82.3876 77.2471 82.917C77.7656 83.6859 78.0422 84.5889 78.0422 85.5125C78.0422 86.4362 77.7656 87.3392 77.2471 88.108L72.2756 95.4679C70.7478 97.7285 68.5611 99.4783 66.0044 100.486L58.6 103.413M67.6667 69.85L56.8018 74.4474C53.5917 75.8046 51.0336 78.3288 49.6572 81.497L46.1001 89.6892C45.3739 91.3615 44.9996 93.1621 45 94.9816V110.125" stroke="white" stroke-width="5" stroke-linecap="round" stroke-linejoin="round"/>
<path d="M113 83.275V103.413C113 105.193 112.284 106.9 111.008 108.159C109.733 109.418 108.003 110.125 106.2 110.125H74.4667C72.6632 110.125 70.9336 109.418 69.6584 108.159C68.3831 106.9 67.6667 105.193 67.6667 103.413V99.6982M67.6667 83.8329V49.7125C67.6667 47.9322 68.3831 46.2249 69.6584 44.966C70.9336 43.7072 72.6632 43 74.4667 43H79.7556" stroke="white" stroke-width="5" stroke-linecap="round" stroke-linejoin="round"/>
<defs>
<filter id="filter0_d_555_122" x="0.8" y="0.8" width="162.4" height="159.4" filterUnits="userSpaceOnUse" color-interpolation-filters="sRGB">
<feFlood flood-opacity="0" result="BackgroundImageFix"/>
<feColorMatrix in="SourceAlpha" type="matrix" values="0 0 0 0 0 0 0 0 0 0 0 0 0 0 0 0 0 0 127 0" result="hardAlpha"/>
<feOffset dx="3" dy="4"/>
<feGaussianBlur stdDeviation="4.1"/>
<feComposite in2="hardAlpha" operator="out"/>
<feColorMatrix type="matrix" values="0 0 0 0 0 0 0 0 0 0 0 0 0 0 0 0 0 0 0.25 0"/>
<feBlend mode="normal" in2="BackgroundImageFix" result="effect1_dropShadow_555_122"/>
<feBlend mode="normal" in="SourceGraphic" in2="effect1_dropShadow_555_122" result="shape"/>
</filter>
</defs>
</svg>
