<svg xmlns="http://www.w3.org/2000/svg" enable-background="new 0 0 64 64" viewBox="0 0 64 64"><path d="M32 42c4.547 0 7-1.419 7-2v-2.4c-1.736.923-4.374 1.4-7 1.4s-5.264-.477-7-1.4V40C25 40.581 27.453 42 32 42zM32 32c4.547 0 7-1.419 7-2v-2.4c-1.736.923-4.374 1.4-7 1.4s-5.264-.477-7-1.4V30C25 30.581 27.453 32 32 32zM32 37c4.547 0 7-1.419 7-2v-2.4c-1.736.923-4.374 1.4-7 1.4s-5.264-.477-7-1.4V35C25 35.581 27.453 37 32 37z"/><ellipse cx="32" cy="25" rx="7" ry="2"/><path d="M8.586,47L4,51.586v4.598C2.839,56.598,2,57.698,2,59c0,1.654,1.346,3,3,3s3-1.346,3-3c0-1.302-0.839-2.402-2-2.816v-3.77
	L9.414,49h12.119c0.726,0.448,1.468,0.867,2.24,1.216L24,50.318v4.267L20.586,58h-1.77c-0.414-1.161-1.514-2-2.816-2
	c-1.654,0-3,1.346-3,3s1.346,3,3,3c1.302,0,2.402-0.839,2.816-2h2.598L26,55.414V48.83l0.661-0.706
	c0.619,0.205,1.251,0.374,1.892,0.506l0.747,3.2l0.713,0.07c0.336,0.033,0.657,0.033,0.987,0.05v4.235c-1.161,0.414-2,1.514-2,2.816
	c0,1.654,1.346,3,3,3s3-1.346,3-3c0-1.302-0.839-2.402-2-2.816V51.95c0.33-0.017,0.652-0.017,0.987-0.05l0.713-0.07l0.747-3.2
	c0.64-0.132,1.273-0.301,1.891-0.506L38,48.831v6.583L42.586,60h2.598c0.414,1.161,1.514,2,2.816,2c1.654,0,3-1.346,3-3
	s-1.346-3-3-3c-1.302,0-2.402,0.839-2.816,2h-1.77L40,54.586v-4.267l0.227-0.102c0.771-0.349,1.513-0.767,2.24-1.216h12.119
	L58,52.414v3.77c-1.161,0.414-2,1.514-2,2.816c0,1.654,1.346,3,3,3s3-1.346,3-3c0-1.302-0.839-2.402-2-2.816v-4.598L55.414,47
	H44.003l-0.7-2.304c0.491-0.437,0.957-0.903,1.393-1.393l3.107,0.945l0.418-0.58c0.388-0.538,0.749-1.096,1.081-1.668h3.882
	c0.414,1.161,1.514,2,2.816,2c1.654,0,3-1.346,3-3s-1.346-3-3-3c-1.302,0-2.402,0.839-2.816,2h-2.865l0.192-0.425l-2.387-2.236
	c0.205-0.619,0.374-1.251,0.506-1.892l3.2-0.747l0.07-0.713c0.033-0.336,0.033-0.657,0.05-0.987h4.235c0.414,1.161,1.514,2,2.816,2
	c1.654,0,3-1.346,3-3s-1.346-3-3-3c-1.302,0-2.402,0.839-2.816,2H51.95c-0.017-0.33-0.017-0.652-0.05-0.987l-0.07-0.713l-3.2-0.747
	c-0.132-0.64-0.301-1.273-0.506-1.891l2.387-2.236L50.319,24h2.866c0.414,1.161,1.514,2,2.816,2c1.654,0,3-1.346,3-3s-1.346-3-3-3
	c-1.302,0-2.402,0.839-2.816,2h-3.882c-0.332-0.572-0.692-1.129-1.08-1.667l-0.418-0.58l-3.108,0.944
	c-0.437-0.491-0.903-0.957-1.393-1.393L44.004,17h11.41L60,12.414V7.816C61.161,7.402,62,6.302,62,5c0-1.654-1.346-3-3-3
	s-3,1.346-3,3c0,1.302,0.839,2.402,2,2.816v3.77L54.586,15H42.467c-0.726-0.449-1.469-0.867-2.24-1.216L40,13.681V9.414L43.414,6
	h1.77C45.598,7.161,46.698,8,48,8c1.654,0,3-1.346,3-3s-1.346-3-3-3c-1.302,0-2.402,0.839-2.816,2h-2.598L38,8.586v6.584
	l-0.661,0.706c-0.619-0.205-1.251-0.374-1.892-0.506l-0.747-3.2l-0.713-0.07c-0.336-0.033-0.659-0.033-0.987-0.049V7.816
	C34.161,7.402,35,6.302,35,5c0-1.654-1.346-3-3-3s-3,1.346-3,3c0,1.302,0.839,2.402,2,2.816v4.235
	c-0.328,0.017-0.652,0.016-0.987,0.049l-0.713,0.07l-0.747,3.2c-0.64,0.132-1.273,0.301-1.891,0.506L26,15.169V8.586L21.414,4
	h-2.598C18.402,2.839,17.302,2,16,2c-1.654,0-3,1.346-3,3s1.346,3,3,3c1.302,0,2.402-0.839,2.816-2h1.77L24,9.414v4.267
	l-0.227,0.102c-0.771,0.349-1.513,0.767-2.24,1.216H9.414L6,11.586v-3.77C7.161,7.402,8,6.302,8,5c0-1.654-1.346-3-3-3S2,3.346,2,5
	c0,1.302,0.839,2.402,2,2.816v4.598L8.586,17h11.411l0.7,2.304c-0.49,0.437-0.957,0.903-1.393,1.393l-3.107-0.944l-0.418,0.58
	C15.391,20.87,15.03,21.427,14.697,22h-3.882C10.402,20.839,9.302,20,8,20c-1.654,0-3,1.346-3,3s1.346,3,3,3
	c1.302,0,2.402-0.839,2.816-2h2.865l-0.192,0.425l2.387,2.236c-0.205,0.619-0.374,1.251-0.506,1.892l-3.2,0.747l-0.07,0.713
	c-0.033,0.336-0.033,0.657-0.05,0.987H7.816C7.402,29.839,6.302,29,5,29c-1.654,0-3,1.346-3,3s1.346,3,3,3
	c1.302,0,2.402-0.839,2.816-2h4.235c0.017,0.33,0.017,0.651,0.05,0.987l0.07,0.713l3.2,0.747c0.132,0.64,0.301,1.273,0.506,1.891
	l-2.387,2.236L13.681,40h-2.866C10.402,38.839,9.302,38,8,38c-1.654,0-3,1.346-3,3s1.346,3,3,3c1.302,0,2.402-0.839,2.816-2h3.882
	c0.332,0.572,0.692,1.129,1.08,1.667l0.418,0.58l3.108-0.944c0.437,0.491,0.903,0.957,1.393,1.393L19.996,47H8.586z M23,35v-5v-5
	c0-2.626,4.527-4,9-4s9,1.374,9,4v5v5v5c0,2.626-4.527,4-9,4s-9-1.374-9-4V35z"/></svg>