<svg width="104" height="106" viewBox="0 0 104 106" fill="none" xmlns="http://www.w3.org/2000/svg">
<g filter="url(#filter0_d_242_249)">
<path d="M15.9 18.3651C15.9 13.4944 17.7806 8.82315 21.1281 5.37902C24.4757 1.93489 29.0159 0 33.75 0H81.35C86.0841 0 90.6243 1.93489 93.9719 5.37902C97.3194 8.82315 99.2 13.4944 99.2 18.3651V67.3388C99.2 72.2095 97.3194 76.8807 93.9719 80.3249C90.6243 83.769 86.0841 85.7039 81.35 85.7039H63.3512C63.4474 84.9426 63.4971 84.1759 63.5 83.4082C63.5 77.7824 60.0133 72.683 54.8904 70.9934C56.8867 68.2515 57.8182 64.8427 57.5031 61.4322C57.1881 58.0217 55.649 54.8544 53.1863 52.5485C50.7237 50.2427 47.5142 48.9639 44.1844 48.9617C40.8547 48.9594 37.6436 50.234 35.178 52.5365C33.5309 48.9198 30.6876 46.0234 27.1561 44.3648C23.6246 42.7062 19.635 42.3935 15.9 43.4825V18.3651ZM57.55 21.426C57.55 20.6142 57.2366 19.8356 56.6786 19.2616C56.1207 18.6876 55.364 18.3651 54.575 18.3651C53.786 18.3651 53.0293 18.6876 52.4714 19.2616C51.9134 19.8356 51.6 20.6142 51.6 21.426V45.9128C51.6 46.7246 51.9134 47.5031 52.4714 48.0772C53.0293 48.6512 53.786 48.9737 54.575 48.9737H72.425C73.214 48.9737 73.9707 48.6512 74.5286 48.0772C75.0866 47.5031 75.4 46.7246 75.4 45.9128C75.4 45.101 75.0866 44.3225 74.5286 43.7484C73.9707 43.1744 73.214 42.8519 72.425 42.8519H57.55V21.426ZM20.3625 70.3996C21.7299 70.3996 23.0839 70.1225 24.3472 69.5841C25.6105 69.0458 26.7584 68.2567 27.7252 67.2619C28.6921 66.2671 29.4591 65.0861 29.9824 63.7863C30.5057 62.4866 30.775 61.0935 30.775 59.6866C30.775 58.2798 30.5057 56.8867 29.9824 55.587C29.4591 54.2872 28.6921 53.1062 27.7252 52.1114C26.7584 51.1166 25.6105 50.3275 24.3472 49.7891C23.0839 49.2508 21.7299 48.9737 20.3625 48.9737C17.6009 48.9737 14.9525 50.1023 12.9998 52.1114C11.047 54.1205 9.95 56.8454 9.95 59.6866C9.95 62.5279 11.047 65.2528 12.9998 67.2619C14.9525 69.2709 17.6009 70.3996 20.3625 70.3996ZM21.85 97.9473C34.6008 97.9473 39.7 91.2257 39.7 84.5591C39.7 80.1209 36.2728 76.5213 32.0483 76.5213H11.6517C7.4272 76.5213 4 80.1209 4 84.5591C4 91.2502 9.09915 97.9473 21.85 97.9473ZM42.675 94.8865H42.5382C44.5762 91.8518 45.6622 88.2478 45.65 84.5591C45.65 81.5962 44.7694 78.817 43.2462 76.5213H51.1835C54.7059 76.5213 57.556 79.6067 57.556 83.4082C57.556 89.1259 53.3017 94.8865 42.675 94.8865ZM44.1684 70.3996C46.141 70.3996 48.0328 69.5934 49.4276 68.1584C50.8224 66.7233 51.6059 64.777 51.6059 62.7475C51.6059 60.718 50.8224 58.7717 49.4276 57.3366C48.0328 55.9016 46.141 55.0954 44.1684 55.0954C42.1959 55.0954 40.3041 55.9016 38.9093 57.3366C37.5145 58.7717 36.7309 60.718 36.7309 62.7475C36.7309 64.777 37.5145 66.7233 38.9093 68.1584C40.3041 69.5934 42.1959 70.3996 44.1684 70.3996Z" fill="black"/>
</g>
<defs>
<filter id="filter0_d_242_249" x="0" y="0" width="103.2" height="105.947" filterUnits="userSpaceOnUse" color-interpolation-filters="sRGB">
<feFlood flood-opacity="0" result="BackgroundImageFix"/>
<feColorMatrix in="SourceAlpha" type="matrix" values="0 0 0 0 0 0 0 0 0 0 0 0 0 0 0 0 0 0 127 0" result="hardAlpha"/>
<feOffset dy="4"/>
<feGaussianBlur stdDeviation="2"/>
<feComposite in2="hardAlpha" operator="out"/>
<feColorMatrix type="matrix" values="0 0 0 0 0 0 0 0 0 0 0 0 0 0 0 0 0 0 0.25 0"/>
<feBlend mode="normal" in2="BackgroundImageFix" result="effect1_dropShadow_242_249"/>
<feBlend mode="normal" in="SourceGraphic" in2="effect1_dropShadow_242_249" result="shape"/>
</filter>
</defs>
</svg>
