<?xml version="1.0" standalone="no"?>
<!DOCTYPE svg PUBLIC "-//W3C//DTD SVG 20010904//EN"
 "http://www.w3.org/TR/2001/REC-SVG-20010904/DTD/svg10.dtd">
<svg version="1.0" xmlns="http://www.w3.org/2000/svg"
 width="500.000000pt" height="500.000000pt" viewBox="0 0 500.000000 500.000000"
 preserveAspectRatio="xMidYMid meet">

<g transform="translate(0.000000,500.000000) scale(0.100000,-0.100000)"
fill="#000000" stroke="none">
<path d="M0 2500 l0 -2500 2500 0 2500 0 0 2500 0 2500 -2500 0 -2500 0 0
-2500z m3205 1100 c4 -6 -11 -7 -42 -3 -63 8 -67 13 -10 13 25 0 49 -4 52 -10z
m-229 -9 c-7 -10 -85 -31 -117 -31 -37 0 -16 10 52 25 35 7 65 14 67 14 2 1 1
-3 -2 -8z m159 -10 c8 -14 -7 -20 -58 -27 -76 -11 -127 13 -62 29 36 9 114 7
120 -2z m247 -22 c35 -19 5 -24 -58 -10 -73 17 -84 36 -16 28 28 -3 62 -11 74
-18z m-93 -24 c14 -14 14 -17 1 -25 -38 -24 -150 -2 -150 30 0 24 124 20 149
-5z m-419 -3 c0 -13 -66 -41 -113 -49 -40 -6 -41 -5 -27 12 8 10 28 24 45 31
33 15 95 18 95 6z m148 -10 c6 -20 -84 -55 -124 -48 -41 8 -36 31 10 52 37 16
108 14 114 -4z m-313 -22 c-42 -26 -108 -53 -100 -40 8 14 96 59 115 59 8 1 1
-8 -15 -19z m814 -7 c31 -24 38 -43 16 -43 -28 0 -113 41 -119 57 -5 13 0 15
35 10 23 -3 54 -14 68 -24z m97 -31 c-6 -5 -96 46 -96 54 0 3 23 -7 50 -22 28
-15 48 -29 46 -32z m-452 19 c15 -17 16 -20 1 -34 -37 -37 -145 -28 -145 12 0
29 22 41 75 41 38 0 56 -5 69 -19z m254 -11 c44 -27 40 -54 -10 -58 -20 -2
-50 4 -67 13 -31 16 -55 48 -44 59 14 14 90 5 121 -14z m-673 -20 c9 -15 -75
-70 -107 -70 -15 0 -28 4 -28 8 0 14 33 40 70 56 41 18 57 19 65 6z m132 -17
c11 -27 -42 -65 -86 -61 -48 4 -49 34 -1 59 43 23 79 24 87 2z m-272 -13 c-12
-19 -87 -70 -103 -70 -22 0 31 54 72 74 32 16 42 15 31 -4z m693 -6 c43 -30
18 -74 -43 -74 -28 0 -66 16 -77 34 -30 44 67 77 120 40z m312 6 c16 0 80 -62
80 -77 0 -12 -7 -14 -32 -9 -36 7 -98 51 -98 70 0 18 12 27 28 21 7 -3 18 -5
22 -5z m101 -22 c41 -32 60 -58 42 -58 -14 0 -109 89 -96 90 6 0 31 -15 54
-32z m-683 -20 c4 -22 -54 -59 -87 -56 -37 4 -49 32 -26 58 25 27 108 26 113
-2z m512 0 c64 -44 67 -88 6 -88 -59 0 -121 72 -89 103 13 14 51 6 83 -15z
m-1075 -26 c-22 -20 -49 -43 -60 -51 -11 -7 4 10 33 38 29 28 56 51 60 51 4 0
-11 -17 -33 -38z m145 -37 c0 -17 -61 -65 -83 -65 -24 0 -21 23 6 47 45 41 77
49 77 18z m527 9 c27 -7 36 -29 23 -54 -12 -23 -41 -33 -73 -25 -43 11 -45 58
-3 75 26 11 27 11 53 4z m278 -8 c38 -16 56 -56 35 -81 -20 -24 -77 -19 -105
10 -30 29 -31 39 -5 65 24 24 30 24 75 6z m-915 -8 c0 -13 -76 -88 -90 -88
-22 0 -8 30 30 64 41 37 60 45 60 24z m237 -5 c8 -21 -40 -63 -73 -63 -33 0
-32 32 2 59 32 25 62 27 71 4z m1099 -33 c38 -39 64 -48 29 -10 -10 11 -16 20
-12 20 3 0 20 -19 38 -42 24 -32 27 -38 9 -23 -19 16 -22 17 -17 3 16 -46 -32
-24 -73 34 -51 69 -35 81 26 18z m-69 -2 c35 -38 55 -73 46 -82 -24 -23 -83
14 -112 72 -26 50 21 57 66 10z m-1395 -35 c-25 -36 -62 -69 -62 -56 0 13 71
95 77 89 3 -3 -4 -17 -15 -33z m498 17 c0 -17 -39 -50 -60 -50 -23 0 -27 29
-8 48 14 14 68 16 68 2z m809 -19 c32 -30 44 -90 19 -92 -49 -5 -102 32 -111
76 -9 51 44 61 92 16z m-383 -46 c7 -18 -13 -55 -31 -55 -32 0 -66 24 -63 44
6 43 79 52 94 11z m243 -10 c48 -24 56 -78 16 -97 -22 -10 -30 -8 -53 9 -33
25 -42 71 -16 90 22 16 19 16 53 -2z m-1049 -10 c0 -18 -43 -65 -60 -65 -20 0
-10 39 16 59 32 25 44 26 44 6z m498 -7 c-3 -26 -36 -37 -49 -17 -10 17 8 39
33 39 14 0 19 -6 16 -22z m-607 -19 c-5 -13 -21 -35 -35 -48 -25 -24 -26 -24
-26 -4 0 21 56 90 66 81 2 -3 0 -16 -5 -29z m1564 -22 c20 -31 39 -87 31 -94
-16 -16 -86 83 -86 122 0 21 34 3 55 -28z m-1345 23 c0 -5 -9 -19 -20 -30 -11
-11 -24 -20 -30 -20 -15 0 -12 27 6 44 17 18 44 21 44 6z m1267 -22 c55 -61
59 -138 4 -109 -25 14 -61 76 -61 107 0 31 29 32 57 2z m118 -24 c15 -25 24
-48 22 -51 -3 -3 -17 18 -31 46 -33 63 -27 67 9 5z m-1685 21 c0 -13 -30 -62
-44 -74 -22 -18 -20 -6 6 40 19 34 38 51 38 34z m1481 -44 c28 -28 36 -61 23
-95 -17 -46 -94 19 -94 79 0 30 9 42 33 44 5 1 22 -12 38 -28z m-1071 9 c0
-13 -28 -25 -38 -16 -3 4 0 11 8 16 20 13 30 12 30 0z m698 -22 c7 -7 12 -22
12 -35 0 -27 -42 -42 -65 -23 -28 23 -11 70 25 70 9 0 21 -5 28 -12z m-290
-15 c-5 -26 -38 -29 -38 -4 0 15 6 21 21 21 14 0 19 -5 17 -17z m-905 -28 c-9
-19 -18 -33 -21 -31 -4 5 26 66 33 66 3 0 -3 -16 -12 -35z m1449 -22 c25 -22
24 -69 -2 -83 -17 -9 -25 -6 -45 14 -24 24 -33 65 -18 79 12 12 46 7 65 -10z
m-1298 -41 c-16 -23 -19 -24 -22 -9 -2 10 4 27 14 39 25 27 31 5 8 -30z m-70
16 c-7 -25 -35 -61 -41 -54 -2 2 3 20 11 40 16 40 42 51 30 14z m1734 -47 c15
-47 15 -81 2 -81 -17 0 -50 77 -50 116 0 35 1 36 18 20 11 -9 24 -34 30 -55z
m-1813 -7 c-8 -20 -18 -34 -22 -31 -3 4 2 25 13 48 22 51 31 36 9 -17z m259
31 c-5 -13 -34 -30 -34 -19 0 3 5 14 11 25 11 22 31 17 23 -6z m1590 -44 c9
-30 14 -56 12 -58 -5 -5 -46 102 -46 119 0 25 19 -9 34 -61z m-120 40 c35 -38
41 -121 10 -121 -20 0 -54 60 -54 96 0 47 16 56 44 25z m-706 -38 c-4 -22 -22
-20 -26 1 -2 10 3 16 13 16 10 0 15 -7 13 -17z m642 -71 c0 -45 -14 -58 -44
-43 -38 21 -48 77 -19 107 16 15 18 15 40 -10 13 -15 23 -39 23 -54z m-370 53
c19 -23 8 -50 -20 -50 -16 0 -26 6 -28 18 -4 18 14 47 28 47 4 0 13 -7 20 -15z
m229 -79 c7 -8 11 -27 9 -43 -2 -22 -8 -28 -28 -28 -20 0 -26 6 -28 28 -3 27
12 57 28 57 4 0 13 -6 19 -14z m-1504 -28 c-11 -36 -25 -45 -25 -17 0 27 7 39
22 39 5 0 6 -10 3 -22z m1835 -75 c0 -29 -4 -53 -9 -53 -22 0 -43 125 -24 144
13 13 32 -40 33 -91z m28 7 c0 -41 -1 -42 -8 -15 -4 17 -8 46 -8 65 -1 28 1
31 8 15 5 -11 8 -40 8 -65z m-1927 29 l-10 -24 0 26 c-1 14 2 29 6 33 12 12
14 -9 4 -35z m209 27 c0 -3 -4 -8 -10 -11 -5 -3 -10 -1 -10 4 0 6 5 11 10 11
6 0 10 -2 10 -4z m1620 -25 c12 -24 13 -81 1 -100 -8 -12 -12 -12 -25 -2 -22
18 -23 121 -1 121 8 0 19 -9 25 -19z m-650 -1 c0 -5 -7 -10 -15 -10 -8 0 -15
5 -15 10 0 6 7 10 15 10 8 0 15 -4 15 -10z m245 -65 c0 -11 -8 -21 -17 -23
-14 -3 -18 3 -18 23 0 20 4 26 18 23 9 -2 17 -12 17 -23z m313 13 c14 -14 16
-57 3 -77 -17 -26 -41 -4 -41 37 0 51 13 65 38 40z m-115 -97 c5 -22 -11 -54
-24 -46 -5 4 -9 16 -9 29 0 37 24 50 33 17z m287 -48 c0 -17 -5 -44 -11 -60
l-11 -28 -9 23 c-5 13 -7 35 -4 48 16 78 16 78 26 63 5 -7 9 -28 9 -46z m21
-14 l-9 -54 -1 47 c0 25 2 54 6 64 11 30 14 1 4 -57z m-1954 29 c-3 -8 -6 -5
-6 6 -1 11 2 17 5 13 3 -3 4 -12 1 -19z m1283 2 c0 -5 -2 -10 -4 -10 -3 0 -8
5 -11 10 -3 6 -1 10 4 10 6 0 11 -4 11 -10z m590 -46 c0 -38 -15 -74 -30 -74
-14 0 -12 94 2 108 17 17 28 5 28 -34z m-2620 -49 l0 -75 80 0 80 0 0 75 0 75
35 0 35 0 0 -185 0 -185 -35 0 -35 0 0 80 0 80 -80 0 -80 0 0 -80 0 -80 -35 0
-35 0 0 185 0 185 35 0 35 0 0 -75z m2250 26 c0 -6 -4 -13 -10 -16 -5 -3 -10
1 -10 9 0 9 5 16 10 16 6 0 10 -4 10 -9z m280 -30 c0 -9 -6 -26 -14 -37 -14
-18 -15 -18 -22 -1 -8 22 12 71 26 62 6 -3 10 -14 10 -24z m-2078 -31 c64 -18
78 -47 78 -161 0 -98 0 -99 -24 -99 -13 0 -27 7 -30 16 -6 15 -8 15 -24 2 -28
-24 -52 -29 -94 -18 -65 18 -85 97 -34 139 9 7 45 16 81 18 58 5 63 7 55 24
-6 10 -19 20 -30 24 -18 6 -59 -9 -70 -26 -3 -4 -16 1 -30 11 -24 18 -24 19
-6 39 16 17 53 34 86 40 3 1 22 -4 42 -9z m316 -28 c17 -22 15 -30 -9 -42 -16
-9 -24 -8 -39 5 -20 18 -61 17 -67 -2 -2 -6 18 -18 45 -27 60 -20 85 -46 85
-86 0 -59 -73 -102 -137 -80 -37 12 -81 53 -72 68 12 19 45 20 62 1 21 -23 57
-25 74 -4 16 20 7 29 -45 45 -55 17 -75 37 -75 75 0 36 32 71 70 77 35 5 93
-11 108 -30z m280 12 c52 -34 66 -140 27 -200 -9 -14 -33 -32 -52 -41 -32 -13
-41 -13 -75 0 l-38 15 0 -69 0 -69 -35 0 -35 0 0 190 0 190 35 0 c19 0 35 -4
35 -10 0 -5 15 -3 33 5 35 16 69 12 105 -11z m324 -15 c93 -98 2 -274 -116
-225 l-36 15 0 -70 0 -69 -35 0 -35 0 0 190 0 190 35 0 c19 0 35 -4 35 -10 0
-5 15 -3 33 5 43 18 86 9 119 -26z m245 26 c38 -11 73 -62 73 -106 l0 -39 -90
0 c-49 0 -90 -4 -90 -8 0 -35 84 -58 115 -32 13 11 19 10 35 -5 27 -25 25 -32
-12 -51 -41 -21 -106 -21 -147 0 -99 52 -71 228 40 249 25 4 39 3 76 -8z m306
-5 c15 -14 -17 -50 -44 -50 -45 0 -64 -32 -68 -121 l-3 -79 -29 0 -29 0 0 130
0 130 30 0 c20 0 30 -5 30 -15 0 -12 6 -11 32 5 31 19 61 19 81 0z m487 -29
c0 -6 -4 -13 -10 -16 -5 -3 -10 1 -10 9 0 9 5 16 10 16 6 0 10 -4 10 -9z m245
-28 c-4 -21 -13 -49 -21 -63 -15 -24 -15 -23 -9 19 6 43 20 81 31 81 4 0 3
-17 -1 -37z m22 5 c-3 -8 -6 -5 -6 6 -1 11 2 17 5 13 3 -3 4 -12 1 -19z m-80
-45 c-4 -20 -13 -44 -22 -52 -13 -14 -15 -13 -15 11 0 32 19 78 33 78 6 0 7
-16 4 -37z m-87 -51 c0 -5 -7 -17 -15 -28 -14 -19 -14 -19 -15 2 0 11 3 24 7
27 9 10 23 9 23 -1z m79 -106 c-12 -26 -23 -45 -26 -42 -2 2 6 25 18 50 12 26
23 45 26 42 2 -2 -6 -25 -18 -50z m-48 -28 c-9 -25 -41 -57 -41 -42 0 14 41
77 46 72 2 -3 0 -16 -5 -30z m-81 -42 c0 -2 -7 -9 -15 -16 -13 -11 -14 -10 -9
4 5 14 24 23 24 12z m10 -99 c0 -2 -10 -12 -22 -23 l-23 -19 19 23 c18 21 26
27 26 19z m-99 -70 c-10 -9 -11 -8 -5 6 3 10 9 15 12 12 3 -3 0 -11 -7 -18z"/>
<path d="M1770 2265 c-15 -18 2 -45 30 -45 20 0 70 37 70 51 0 15 -86 10 -100
-6z"/>
<path d="M2350 2373 c-37 -13 -53 -80 -30 -124 14 -25 71 -26 93 -1 17 19 23
78 9 98 -7 10 -47 35 -54 33 -2 0 -10 -3 -18 -6z"/>
<path d="M2660 2373 c-40 -14 -56 -96 -24 -127 21 -22 67 -20 87 2 17 19 23
78 9 98 -7 10 -47 35 -54 33 -2 0 -10 -3 -18 -6z"/>
<path d="M2929 2361 c-32 -26 -22 -33 47 -29 l59 3 -22 23 c-28 27 -53 28 -84
3z"/>
</g>
</svg>
