<svg xmlns="http://www.w3.org/2000/svg" enable-background="new 0 0 48 48" viewBox="0 0 48 48"><path d="M46.38574,36.35693L41.75,33.5755V32c0-1.5166-1.2334-2.75-2.75-2.75H24.75v-2.8255l4.63574-2.78143
		C29.61133,23.50781,29.75,23.26367,29.75,23v-6c0-0.26367-0.13867-0.50781-0.36426-0.64307l-5-3
		c-0.2373-0.14258-0.53418-0.14258-0.77148,0l-5,3C18.38818,16.49219,18.25,16.73633,18.25,17v6
		c0,0.26367,0.13818,0.50781,0.36426,0.64307L23.25,26.4245V29.25H9c-1.5166,0-2.75,1.2334-2.75,2.75v1.5755l-4.63574,2.78143
		C1.38818,36.49219,1.25,36.73633,1.25,37v6c0,0.26367,0.13818,0.50781,0.36426,0.64307c0,0,4.99978,2.99987,5.00001,3.00001
		c0.2357,0.14141,0.5357,0.1433,0.77147-0.00001c0,0,5-3,5-3C12.61182,43.50781,12.75,43.26367,12.75,43v-6
		c0-0.26367-0.13818-0.50781-0.36426-0.64307L7.75,33.5755V32c0-0.68945,0.56055-1.25,1.25-1.25h14.25v2.8255l-4.63574,2.78143
		C18.38818,36.49219,18.25,36.73633,18.25,37v6c0,0.26367,0.13818,0.50781,0.36426,0.64307c0,0,5,3,5.00003,3.00002
		c0.23691,0.14233,0.53494,0.14208,0.77145-0.00002l5-3C29.61133,43.50781,29.75,43.26367,29.75,43v-6
		c0-0.26367-0.13867-0.50781-0.36426-0.64307L24.75,33.5755V30.75H39c0.68945,0,1.25,0.56055,1.25,1.25v1.5755l-4.63574,2.78143
		C35.38867,36.49219,35.25,36.73633,35.25,37v6c0,0.26367,0.13867,0.50781,0.36426,0.64307c0,0,5,3,5.00003,3.00002
		c0.25219,0.15213,0.51934,0.12604,0.77145-0.00002l5-3C46.61133,43.50781,46.75,43.26367,46.75,43v-6
		C46.75,36.73633,46.61133,36.49219,46.38574,36.35693z M24.75,24.67542V20.4245l3.5-2.09998v4.25067L24.75,24.67542z M24,14.87451
		l3.5423,2.12561L24,19.12549l-3.5423-2.12537L24,14.87451z M19.75,18.32452l3.5,2.09998v4.25092l-3.5-2.10022V18.32452z
		 M7,39.12549l-3.5423-2.12537L7,34.87451l3.5423,2.12561L7,39.12549z M2.75,38.32452l3.5,2.09998v4.25092l-3.5-2.10022V38.32452z
		 M7.75,44.67542V40.4245l3.5-2.09998v4.25067L7.75,44.67542z M24,39.12549l-3.5423-2.12537L24,34.87451l3.5423,2.12561L24,39.12549
		z M19.75,38.32452l3.5,2.09998v4.25092l-3.5-2.10022V38.32452z M24.75,44.67542V40.4245l3.5-2.09998v4.25067L24.75,44.67542z
		 M41,39.12549l-3.5423-2.12537L41,34.87451l3.5423,2.12561L41,39.12549z M36.75,38.32452l3.5,2.09998v4.25092l-3.5-2.10022
		V38.32452z M41.75,44.67542V40.4245l3.5-2.09998v4.25067L41.75,44.67542z"/><path d="M13,21.75c0.00268,0,2.98438,0,2.99994,0c0.96094,0,0.98088-1.5,0.00006-1.5h-3
		c-2.45496,0-4.52252-2.33649-4.21582-4.77698c0.27887-2.21869,2.23688-3.85144,4.46973-3.71472
		c0.51599,0.03076,0.91461-0.46716,0.76361-0.96594c-0.92371-3.05127,0.59631-6.2934,3.53571-7.54187
		c3.01855-1.2832,6.53955-0.00146,8.01807,2.91846c0.2099,0.41449,0.73267,0.51782,1.08221,0.28699
		c1.35345-0.89392,3.06824-0.94568,4.4715-0.13611c1.63867,0.94434,2.44434,2.81152,2.00586,4.646
		c-0.12885,0.53918,0.36377,1.03259,0.90369,0.90369c2.08386-0.49731,4.21942,0.65552,4.96057,2.67542
		C39.96667,17.23645,37.86774,20.25,35,20.25c-0.00492,0-2.97703,0-2.99987,0c-0.9599,0-0.97456,1.5-0.00013,1.5h3
		c3.85553,0,6.73932-4.07739,5.4043-7.71832c-0.87897-2.39697-3.21387-3.88324-5.66602-3.77045
		c0.0957-2.10645-0.99219-4.16211-2.86328-5.24121c-1.66992-0.96094-3.65625-1.0249-5.35449-0.20898
		c-2.00879-3.13574-6.05371-4.42773-9.5542-2.94141c-3.34424,1.4209-5.20703,4.92383-4.60693,8.41602
		c-2.58984,0.29004-4.72852,2.33105-5.06348,4.99951C6.87384,18.60364,9.65424,21.75,13,21.75z"/></svg>