<svg width="105" height="100" viewBox="0 0 105 100" fill="none" xmlns="http://www.w3.org/2000/svg">
<g filter="url(#filter0_d_242_250)">
<path d="M91.3 28.4626H71.9C69.3282 28.4651 66.8624 29.4655 65.0439 31.2442C63.2254 33.0229 62.2026 35.4346 62.2 37.9501V56.9251C62.2 58.6026 62.8813 60.2114 64.094 61.3976C65.3068 62.5838 66.9516 63.2502 68.6667 63.2502V85.3877C68.6667 87.0652 69.348 88.674 70.5607 89.8602C71.7734 91.0463 73.4183 91.7127 75.1333 91.7127H88.0667C89.7817 91.7127 91.4266 91.0463 92.6393 89.8602C93.852 88.674 94.5333 87.0652 94.5333 85.3877V63.2502C96.2484 63.2502 97.8932 62.5838 99.106 61.3976C100.319 60.2114 101 58.6026 101 56.9251V37.9501C100.997 35.4346 99.9746 33.0229 98.1561 31.2442C96.3376 29.4655 93.8718 28.4651 91.3 28.4626ZM94.5333 56.9251H88.0667V85.3877H75.1333V56.9251H68.6667V37.9501C68.6667 37.1113 69.0073 36.3069 69.6137 35.7139C70.2201 35.1208 71.0425 34.7876 71.9 34.7876H91.3C92.1575 34.7876 92.9799 35.1208 93.5863 35.7139C94.1927 36.3069 94.5333 37.1113 94.5333 37.9501V56.9251ZM68.6667 12.65C68.6667 10.1481 69.4252 7.70234 70.8463 5.62206C72.2675 3.54177 74.2874 1.92038 76.6506 0.962932C79.0139 0.00548102 81.6143 -0.245032 84.1232 0.243072C86.632 0.731177 88.9365 1.93598 90.7452 3.70511C92.554 5.47425 93.7858 7.72827 94.2848 10.1821C94.7839 12.636 94.5277 15.1795 93.5488 17.491C92.57 19.8025 90.9122 21.7781 88.7854 23.1681C86.6585 24.5582 84.158 25.3001 81.6 25.3001C78.1709 25.2967 74.8833 23.9629 72.4585 21.5913C70.0338 19.2196 68.6701 16.004 68.6667 12.65ZM75.1333 12.65C75.1333 13.901 75.5126 15.1239 76.2232 16.164C76.9337 17.2042 77.9437 18.0149 79.1253 18.4936C80.3069 18.9723 81.6072 19.0976 82.8616 18.8535C84.116 18.6095 85.2682 18.0071 86.1726 17.1225C87.077 16.2379 87.6929 15.1109 87.9424 13.884C88.1919 12.6571 88.0639 11.3853 87.5744 10.2296C87.085 9.07381 86.2561 8.08598 85.1927 7.39098C84.1292 6.69598 82.879 6.32502 81.6 6.32502C79.8849 6.32502 78.2401 6.9914 77.0274 8.17757C75.8146 9.36374 75.1333 10.9725 75.1333 12.65ZM49.2667 47.4376V37.9501C49.2641 35.4346 48.2413 33.0229 46.4228 31.2442C44.6042 29.4655 42.1385 28.4651 39.5667 28.4626H20.1667C17.5949 28.4651 15.1291 29.4655 13.3106 31.2442C11.492 33.0229 10.4692 35.4346 10.4667 37.9501V47.4376H4V53.7626H55.7333V47.4376H49.2667ZM16.9333 37.9501C16.9333 37.1113 17.274 36.3069 17.8804 35.7139C18.4867 35.1208 19.3091 34.7876 20.1667 34.7876H39.5667C40.4242 34.7876 41.2466 35.1208 41.853 35.7139C42.4593 36.3069 42.8 37.1113 42.8 37.9501V47.4376H16.9333V37.9501ZM16.9333 12.65C16.9333 10.1481 17.6919 7.70234 19.113 5.62206C20.5341 3.54177 22.554 1.92038 24.9173 0.962932C27.2806 0.00548102 29.881 -0.245032 32.3898 0.243072C34.8987 0.731177 37.2032 1.93598 39.0119 3.70511C40.8207 5.47425 42.0525 7.72827 42.5515 10.1821C43.0505 12.636 42.7944 15.1795 41.8155 17.491C40.8366 19.8025 39.1789 21.7781 37.052 23.1681C34.9252 24.5582 32.4246 25.3001 29.8667 25.3001C26.4376 25.2967 23.1499 23.9629 20.7252 21.5913C18.3005 19.2196 16.9368 16.004 16.9333 12.65ZM23.4 12.65C23.4 13.901 23.7793 15.1239 24.4898 16.164C25.2004 17.2042 26.2104 18.0149 27.392 18.4936C28.5736 18.9723 29.8738 19.0976 31.1283 18.8535C32.3827 18.6095 33.5349 18.0071 34.4393 17.1225C35.3437 16.2379 35.9596 15.1109 36.2091 13.884C36.4586 12.6571 36.3305 11.3853 35.8411 10.2296C35.3516 9.07381 34.5228 8.08598 33.4594 7.39098C32.3959 6.69598 31.1457 6.32502 29.8667 6.32502C28.1516 6.32502 26.5068 6.9914 25.294 8.17757C24.0813 9.36374 23.4 10.9725 23.4 12.65Z" fill="black"/>
</g>
<defs>
<filter id="filter0_d_242_250" x="0" y="0" width="105" height="99.7128" filterUnits="userSpaceOnUse" color-interpolation-filters="sRGB">
<feFlood flood-opacity="0" result="BackgroundImageFix"/>
<feColorMatrix in="SourceAlpha" type="matrix" values="0 0 0 0 0 0 0 0 0 0 0 0 0 0 0 0 0 0 127 0" result="hardAlpha"/>
<feOffset dy="4"/>
<feGaussianBlur stdDeviation="2"/>
<feComposite in2="hardAlpha" operator="out"/>
<feColorMatrix type="matrix" values="0 0 0 0 0 0 0 0 0 0 0 0 0 0 0 0 0 0 0.25 0"/>
<feBlend mode="normal" in2="BackgroundImageFix" result="effect1_dropShadow_242_250"/>
<feBlend mode="normal" in="SourceGraphic" in2="effect1_dropShadow_242_250" result="shape"/>
</filter>
</defs>
</svg>
