<svg width="96" height="101" viewBox="0 0 96 101" fill="none" xmlns="http://www.w3.org/2000/svg">
<path d="M48.2861 94.6875L55.1611 101H0V12.625H27.5C27.5 10.8825 27.8581 9.25505 28.5742 7.74268C29.2904 6.23031 30.2751 4.88232 31.5283 3.69873C32.7816 2.51514 34.2318 1.611 35.8789 0.986328C37.526 0.361654 39.3164 0.0328776 41.25 0C43.1478 0 44.9202 0.328776 46.5674 0.986328C48.2145 1.64388 49.6826 2.54801 50.9717 3.69873C52.2607 4.84945 53.2454 6.18099 53.9258 7.69336C54.6061 9.20573 54.9642 10.8496 55 12.625H82.5V63.2729L75.625 69.5854V18.9375H68.75V31.5625H13.75V18.9375H6.875V94.6875H48.2861ZM20.625 18.9375V25.25H61.875V18.9375H48.125V12.625C48.125 11.7373 47.946 10.9154 47.5879 10.1592C47.2298 9.403 46.7464 8.74544 46.1377 8.18652C45.529 7.6276 44.7949 7.16732 43.9355 6.80566C43.0762 6.44401 42.181 6.27962 41.25 6.3125C40.2832 6.3125 39.388 6.47689 38.5645 6.80566C37.7409 7.13444 37.0247 7.57829 36.416 8.13721C35.8073 8.69613 35.306 9.37012 34.9121 10.1592C34.5182 10.9482 34.3392 11.7702 34.375 12.625V18.9375H20.625ZM95.2295 71.6567L65.3125 99.1753L50.8643 85.8599L55.6982 81.4214L65.3125 90.1997L90.3955 67.2183L95.2295 71.6567Z" fill="black"/>
</svg>
