<?xml version="1.0" standalone="no"?>
<!DOCTYPE svg PUBLIC "-//W3C//DTD SVG 20010904//EN"
 "http://www.w3.org/TR/2001/REC-SVG-20010904/DTD/svg10.dtd">
<svg version="1.0" xmlns="http://www.w3.org/2000/svg"
 width="612.000000pt" height="398.000000pt" viewBox="0 0 612.000000 398.000000"
 preserveAspectRatio="xMidYMid meet">

<g transform="translate(0.000000,398.000000) scale(0.100000,-0.100000)"
fill="#000000" stroke="none">
<path d="M2010 2701 c0 -23 3 -40 8 -38 9 6 8 64 -1 74 -4 3 -7 -13 -7 -36z"/>
<path d="M1870 2672 c0 -16 40 -56 48 -48 3 4 -6 19 -21 34 -15 14 -27 21 -27
14z"/>
<path d="M2488 2615 l-11 -25 -243 0 -243 0 -20 -27 c-21 -26 -21 -31 -21
-722 l1 -696 -128 -5 c-119 -5 -128 -6 -131 -25 -2 -12 8 -38 22 -58 l25 -37
-349 0 c-227 0 -350 -4 -350 -10 0 -7 680 -10 2020 -10 1340 0 2020 3 2020 10
0 6 -123 10 -350 10 l-349 0 25 37 c14 20 24 46 22 58 -3 19 -12 20 -131 25
l-128 5 1 696 c0 691 0 696 -21 722 l-20 27 -245 0 c-143 0 -244 4 -244 9 0 5
-7 17 -16 25 -14 14 -79 16 -570 16 l-554 0 -12 -25z m1126 -7 c9 -12 16 -33
16 -45 l0 -23 -570 0 -570 0 0 23 c0 12 7 33 16 45 l15 22 539 0 539 0 15 -22z
m-1134 -93 l0 -55 -213 0 c-152 0 -216 -3 -225 -12 -9 -9 -12 -160 -12 -620
l0 -608 1030 0 1030 0 0 608 c0 460 -3 611 -12 620 -9 9 -73 12 -225 12 l-213
0 0 55 0 55 243 0 c176 0 246 -3 255 -12 17 -17 17 -1389 0 -1406 -16 -16
-2119 -18 -2149 -2 -18 10 -19 29 -19 703 0 526 3 696 12 705 9 9 79 12 255
12 l243 0 0 -55z m1150 -595 l0 -600 -570 0 -570 0 0 593 c0 327 3 597 7 600
3 4 260 7 570 7 l563 0 0 -600z m-1148 -47 l3 -568 575 0 575 0 3 568 2 567
215 0 c165 0 215 -3 215 -12 0 -7 1 -277 3 -600 l2 -587 -30 -3 c-16 -2 -472
-2 -1012 0 l-983 2 0 600 0 600 215 0 215 0 2 -567z m323 -763 c13 -43 51 -50
254 -50 104 0 201 4 215 10 15 5 31 21 38 35 l11 25 545 0 545 0 -7 -32 c-3
-18 -17 -43 -32 -55 l-25 -23 -1285 0 c-862 0 -1292 3 -1305 10 -21 12 -49 60
-49 85 0 13 59 15 544 15 537 0 545 0 551 -20z m495 13 c0 -3 -7 -15 -17 -25
-15 -16 -35 -18 -221 -18 -177 0 -208 2 -224 17 -10 9 -18 20 -18 25 0 4 108
8 240 8 132 0 240 -3 240 -7z"/>
<path d="M2534 2589 c-10 -17 13 -36 27 -22 12 12 4 33 -11 33 -5 0 -12 -5
-16 -11z"/>
<path d="M2612 2586 c1 -10 8 -17 13 -17 15 1 12 24 -3 29 -9 3 -13 -2 -10
-12z"/>
<path d="M2685 2590 c-8 -13 4 -32 16 -25 12 8 12 35 0 35 -6 0 -13 -4 -16
-10z"/>
<path d="M2726 2367 c3 -10 9 -15 12 -12 3 3 0 11 -7 18 -10 9 -11 8 -5 -6z"/>
<path d="M1813 2528 c-2 -5 12 -8 31 -8 20 0 36 4 36 9 0 10 -60 9 -67 -1z"/>
</g>
</svg>
