<svg width="459" height="395" viewBox="0 0 459 395" fill="none" xmlns="http://www.w3.org/2000/svg">
<ellipse cx="229.5" cy="373.5" rx="229.5" ry="21.5" fill="#DBEEF9" fill-opacity="0.5"/>
<g clip-path="url(#clip0_323_168)">
<path d="M200.105 198.532H261.101C250.377 175.069 239.903 152.167 228.702 127.654C218.861 152.063 209.603 174.996 200.105 198.532Z" fill="#337AB7"/>
<path d="M223.236 29.334C225.948 28.3572 229.44 27.7026 232.006 28.617C282.808 46.5623 333.537 64.7571 384.984 83.1493C351.659 33.0332 294.696 0 230.001 0C165.306 0 108.322 33.0436 75.0078 83.1597C99.9775 74.1818 124.968 65.2559 149.907 56.1845C174.367 47.2897 198.755 38.156 223.247 29.334H223.236Z" fill="#337AB7"/>
<path d="M103.946 300.374C99.6026 297.911 97.462 295.199 97.0672 289.682C96.1112 276.34 94.1577 263.081 92.6198 249.79C87.9958 209.91 83.4237 170.029 78.7269 130.158C77.0228 115.694 75.0173 101.261 73.1469 86.817V85.9961C54.6924 114.873 44 149.184 44 186C44 287.998 126.11 370.805 227.828 371.968C226.135 370.742 224.524 369.35 222.716 368.311C183.147 345.617 143.588 322.902 103.936 300.374H103.946Z" fill="#337AB7"/>
<path d="M330.938 294.899C347.907 285.1 347.46 285.069 349.663 265.191C353.84 227.461 358.599 189.793 363.14 152.105C365.27 134.367 367.442 116.63 369.832 96.9281C368.461 96.024 366.59 94.1848 364.366 93.3847C320.745 77.7669 277.102 62.2011 233.377 46.8847C230.322 45.8144 226.29 45.9079 223.235 47.0302C183.759 61.5257 144.377 76.3018 104.974 91.0155C90.2087 96.5228 90.375 96.502 92.1414 112.161C98.3761 167.66 104.528 223.169 110.554 278.689C111.136 284.05 112.882 287.5 117.724 290.264C153.023 310.381 188.165 330.789 223.245 351.301C227.017 353.504 229.709 353.587 233.553 351.332C265.932 332.358 298.446 313.644 330.928 294.888L330.938 294.899ZM192.956 228.572C188.799 228.541 186.586 229.674 185.079 233.945C180.476 246.965 175.249 259.735 170.584 272.734C168.921 277.358 166.562 279.281 161.668 279.073C152.389 278.678 143.089 278.959 132.698 278.959C164.557 204.985 196.26 131.374 228.441 56.6523C262.139 131.645 295.214 205.234 328.58 279.478C317.638 279.478 307.662 279.728 297.729 279.25C295.941 279.166 293.593 276.361 292.689 274.262C286.953 260.92 281.415 247.474 276.115 233.924C274.525 229.84 272.354 228.52 268.135 228.552C243.072 228.77 218.019 228.749 192.956 228.562V228.572Z" fill="#337AB7"/>
<path d="M385.077 83.2842C383.103 100.845 381.18 118.24 379.175 135.624C375.091 171.109 370.966 206.595 366.872 242.091C364.939 258.852 363.225 275.633 360.876 292.332C360.533 294.742 357.53 297.371 355.151 298.764C314.241 322.621 273.238 346.292 232.256 370.015C231.237 370.607 230.292 371.335 229.305 372C229.533 372 229.762 372 229.991 372C332.717 372 415.99 288.726 415.99 186C415.99 148.031 404.602 112.722 385.067 83.2842H385.077Z" fill="#337AB7"/>
<path d="M227.87 372H229.304C229.304 372 229.304 372 229.314 372C228.815 372 228.327 371.99 227.828 371.979C227.839 371.979 227.849 372 227.87 372.011V372Z" fill="#337AB7"/>
</g>
<defs>
<clipPath id="clip0_323_168">
<rect width="372" height="372" fill="white" transform="translate(44)"/>
</clipPath>
</defs>
</svg>
