<svg xmlns="http://www.w3.org/2000/svg" enable-background="new 0 0 600 500" viewBox="18.075 51.403 563.75 397.149"><path fill="#f5f5f5" d="M556.2 378.9h-512c20.8-8.3 25.5-18.1 38.8-35.1 21.4-27.4 54.7 27.8 95.7-13 12-11.9 65.8-40.7 96.9-9.2 13.2 13.3 23-14.2 51.6 3.8 32.3 20.3 78.1 39.2 112.6 18.8 10.6-6.3 19.9-14.4 31-20 11-5.6 40.1-2.3 56.7 20 10.8 14.7 17.2 20.4 28.7 34.7z" class="colorf5f5f5 svgShape"/><path fill="#e5e2e1" d="M44.2 155.1c0 15 12.2 27.1 27.3 27.1h119.7V75.8c-3.1-1.8-6.5-3.3-10.1-4.3v-1.6h-11.6c-20.1 0-36.8 13.7-41.3 32.3-5.9-6.9-14.7-11.2-24.6-11.2-18.3 0-33.1 14.8-33.1 33 0 1.3.1 2.7.3 4-14.8.3-26.6 12.4-26.6 27.1z" class="colore1e5e2 svgShape"/><path fill="#fff" d="M54.3 155.1c0 15 12.2 27.1 27.3 27.1h151.1c19.2 0 34.8-15.5 34.8-34.8 0-19.2-15.6-34.9-34.8-34.9-3.7 0-7.2.6-10.5 1.6.1-.5.1-1.1.1-1.6 0-23.6-19.2-42.6-42.6-42.6-20.1 0-36.8 13.7-41.4 32.3-5.9-6.9-14.7-11.2-24.6-11.2-18.3 0-33.1 14.8-33.1 33 0 1.4.1 2.7.3 4-14.7.3-26.6 12.4-26.6 27.1z" class="colorffffff svgShape"/><path fill="#c6c3c2" d="M262.1 239.1h-2c-.2 0-.3-.2-.3-.3s.2-.3.3-.3h2c.2 0 .3.2.3.3s-.1.3-.3.3zm-5 0h-2c-.2 0-.3-.2-.3-.3s.2-.3.3-.3h2c.2 0 .3.2.3.3s-.1.3-.3.3zm-5 0h-2c-.2 0-.3-.2-.3-.3s.2-.3.3-.3h2c.2 0 .3.2.3.3s-.1.3-.3.3zm-5 0h-2c-.2 0-.3-.2-.3-.3s.2-.3.3-.3h2c.2 0 .3.2.3.3s-.1.3-.3.3zm-5 0h-2c-.2 0-.3-.2-.3-.3s.2-.3.3-.3h2c.2 0 .3.2.3.3s-.1.3-.3.3zm-5 0h-2c-.2 0-.3-.2-.3-.3s.2-.3.3-.3h2c.2 0 .3.2.3.3s-.1.3-.3.3zm-5 0h-2c-.2 0-.3-.2-.3-.3s.2-.3.3-.3h2c.2 0 .3.2.3.3s-.1.3-.3.3zm-5 0h-2c-.2 0-.3-.2-.3-.3s.2-.3.3-.3h2c.2 0 .3.2.3.3s-.1.3-.3.3zm-5 0h-2c-.2 0-.3-.2-.3-.3s.2-.3.3-.3h2c.2 0 .3.2.3.3s-.1.3-.3.3zm-5 0h-2c-.2 0-.3-.2-.3-.3s.2-.3.3-.3h2c.2 0 .3.2.3.3s-.1.3-.3.3zm-5 0h-2c-.2 0-.3-.2-.3-.3s.2-.3.3-.3h2c.2 0 .3.2.3.3s-.1.3-.3.3zm-5 0h-2c-.2 0-.3-.2-.3-.3s.2-.3.3-.3h2c.2 0 .3.2.3.3s-.1.3-.3.3zm-5 0h-2c-.2 0-.3-.2-.3-.3s.2-.3.3-.3h2c.2 0 .3.2.3.3s-.1.3-.3.3zm-5 0h-2c-.2 0-.3-.2-.3-.3s.2-.3.3-.3h2c.2 0 .3.2.3.3s-.1.3-.3.3zm-5 0h-2c-.2 0-.3-.2-.3-.3s.2-.3.3-.3h2c.2 0 .3.2.3.3s-.1.3-.3.3zm-5 0h-2c-.2 0-.3-.2-.3-.3s.2-.3.3-.3h2c.2 0 .3.2.3.3s-.1.3-.3.3zm-4.1-.8c-.2 0-.3-.2-.3-.3v-2c0-.2.2-.3.3-.3s.3.2.3.3v2c.1.1-.1.3-.3.3zm0-5c-.2 0-.3-.2-.3-.3v-2c0-.2.2-.3.3-.3s.3.2.3.3v2c.1.1-.1.3-.3.3zm0-5c-.2 0-.3-.2-.3-.3v-2c0-.2.2-.3.3-.3s.3.2.3.3v2c.1.1-.1.3-.3.3zm0-5c-.2 0-.3-.2-.3-.3v-2c0-.2.2-.3.3-.3s.3.2.3.3v2c.1.1-.1.3-.3.3zm0-5c-.2 0-.3-.2-.3-.3v-2c0-.2.2-.3.3-.3s.3.2.3.3v2c.1.1-.1.3-.3.3zm0-5c-.2 0-.3-.2-.3-.3v-2c0-.2.2-.3.3-.3s.3.2.3.3v2c.1.1-.1.3-.3.3zm0-5c-.2 0-.3-.2-.3-.3v-2c0-.2.2-.3.3-.3s.3.2.3.3v2c.1.1-.1.3-.3.3zm0-5c-.2 0-.3-.2-.3-.3v-2c0-.2.2-.3.3-.3s.3.2.3.3v2c.1.1-.1.3-.3.3zm0-5c-.2 0-.3-.2-.3-.3v-2c0-.2.2-.3.3-.3s.3.2.3.3v2c.1.1-.1.3-.3.3zM269.6 257h-.3c-.2 0-.3-.2-.3-.3s.2-.3.3-.3h.3c.2 0 .3.2.3.3s-.1.3-.3.3zm-3.3 0h-2c-.2 0-.3-.2-.3-.3s.2-.3.3-.3h2c.2 0 .3.2.3.3s-.1.3-.3.3zm-5 0h-2c-.2 0-.3-.2-.3-.3s.2-.3.3-.3h2c.2 0 .3.2.3.3s-.1.3-.3.3zm-5 0h-2c-.2 0-.3-.2-.3-.3s.2-.3.3-.3h2c.2 0 .3.2.3.3s-.1.3-.3.3zm-5 0h-2c-.2 0-.3-.2-.3-.3s.2-.3.3-.3h2c.2 0 .3.2.3.3s-.1.3-.3.3zm-5 0h-2c-.2 0-.3-.2-.3-.3s.2-.3.3-.3h2c.2 0 .3.2.3.3s-.1.3-.3.3zm-5 0h-2c-.2 0-.3-.2-.3-.3s.2-.3.3-.3h2c.2 0 .3.2.3.3s-.1.3-.3.3zm-5 0h-2c-.2 0-.3-.2-.3-.3s.2-.3.3-.3h2c.2 0 .3.2.3.3s-.1.3-.3.3zm-5 0h-2c-.2 0-.3-.2-.3-.3s.2-.3.3-.3h2c.2 0 .3.2.3.3s-.1.3-.3.3zm-5 0h-2c-.2 0-.3-.2-.3-.3s.2-.3.3-.3h2c.2 0 .3.2.3.3s-.1.3-.3.3zm-5 0h-2c-.2 0-.3-.2-.3-.3s.2-.3.3-.3h2c.2 0 .3.2.3.3s-.1.3-.3.3zm-5 0h-2c-.2 0-.3-.2-.3-.3s.2-.3.3-.3h2c.2 0 .3.2.3.3s-.1.3-.3.3zm-5 0h-2c-.2 0-.3-.2-.3-.3s.2-.3.3-.3h2c.2 0 .3.2.3.3s-.1.3-.3.3zm-5 0h-2c-.2 0-.3-.2-.3-.3s.2-.3.3-.3h2c.2 0 .3.2.3.3s-.1.3-.3.3zm-5 0h-2c-.2 0-.3-.2-.3-.3s.2-.3.3-.3h2c.2 0 .3.2.3.3s-.1.3-.3.3zm-5 0h-2c-.2 0-.3-.2-.3-.3s.2-.3.3-.3h2c.2 0 .3.2.3.3s-.1.3-.3.3zm-5 0h-2c-.2 0-.3-.2-.3-.3s.2-.3.3-.3h2c.2 0 .3.2.3.3s-.1.3-.3.3zm-5 0h-2c-.2 0-.3-.2-.3-.3s.2-.3.3-.3h2c.2 0 .3.2.3.3s-.1.3-.3.3zm-5 0h-2c-.2 0-.3-.2-.3-.3s.2-.3.3-.3h2c.2 0 .3.2.3.3s-.1.3-.3.3zm-5 0h-2c-.2 0-.3-.2-.3-.3s.2-.3.3-.3h2c.2 0 .3.2.3.3s-.1.3-.3.3zm-5 0h-2c-.2 0-.3-.2-.3-.3s.2-.3.3-.3h2c.2 0 .3.2.3.3s-.1.3-.3.3zm-5 0h-2c-.2 0-.3-.2-.3-.3s.2-.3.3-.3h2c.2 0 .3.2.3.3s-.1.3-.3.3zm-5 0h-2c-.2 0-.3-.2-.3-.3s.2-.3.3-.3h2c.2 0 .3.2.3.3s-.1.3-.3.3zm-5 0h-2c-.2 0-.3-.2-.3-.3s.2-.3.3-.3h2c.2 0 .3.2.3.3s-.1.3-.3.3zm-5 0h-2c-.2 0-.3-.2-.3-.3s.2-.3.3-.3h2c.2 0 .3.2.3.3s-.1.3-.3.3zm-5 0H145c-.2 0-.3-.2-.3-.3v-.7c0-.2.2-.3.3-.3s.3.2.3.3v.4h.9c.2 0 .3.2.3.3s0 .3-.2.3zm-1.3-3.7c-.2 0-.3-.2-.3-.3v-2c0-.2.2-.3.3-.3s.3.2.3.3v2c.1.1-.1.3-.3.3zm0-5c-.2 0-.3-.2-.3-.3v-2c0-.2.2-.3.3-.3s.3.2.3.3v2c.1.1-.1.3-.3.3zm0-5c-.2 0-.3-.2-.3-.3v-2c0-.2.2-.3.3-.3s.3.2.3.3v2c.1.1-.1.3-.3.3zm0-5c-.2 0-.3-.2-.3-.3v-2c0-.2.2-.3.3-.3s.3.2.3.3v2c.1.1-.1.3-.3.3zm0-5c-.2 0-.3-.2-.3-.3v-2c0-.2.2-.3.3-.3s.3.2.3.3v2c.1.1-.1.3-.3.3zm0-5c-.2 0-.3-.2-.3-.3v-2c0-.2.2-.3.3-.3s.3.2.3.3v2c.1.1-.1.3-.3.3zm0-5c-.2 0-.3-.2-.3-.3v-2c0-.2.2-.3.3-.3s.3.2.3.3v2c.1.1-.1.3-.3.3zm0-5c-.2 0-.3-.2-.3-.3v-2c0-.2.2-.3.3-.3s.3.2.3.3v2c.1.1-.1.3-.3.3zm0-5c-.2 0-.3-.2-.3-.3v-2c0-.2.2-.3.3-.3s.3.2.3.3v2c.1.1-.1.3-.3.3zm0-5c-.2 0-.3-.2-.3-.3v-2c0-.2.2-.3.3-.3s.3.2.3.3v2c.1.1-.1.3-.3.3zm0-5c-.2 0-.3-.2-.3-.3v-2c0-.2.2-.3.3-.3s.3.2.3.3v2c.1.1-.1.3-.3.3zm0-5c-.2 0-.3-.2-.3-.3v-2c0-.2.2-.3.3-.3s.3.2.3.3v2c.1.1-.1.3-.3.3zM274.4 274.4h-.5c-.2 0-.3-.2-.3-.3s.2-.3.3-.3h.5c.2 0 .3.2.3.3s-.2.3-.3.3zm-3.5 0h-2c-.2 0-.3-.2-.3-.3s.2-.3.3-.3h2c.2 0 .3.2.3.3s-.2.3-.3.3zm-5 0h-2c-.2 0-.3-.2-.3-.3s.2-.3.3-.3h2c.2 0 .3.2.3.3s-.2.3-.3.3zm-5 0h-2c-.2 0-.3-.2-.3-.3s.2-.3.3-.3h2c.2 0 .3.2.3.3s-.2.3-.3.3zm-5 0h-2c-.2 0-.3-.2-.3-.3s.2-.3.3-.3h2c.2 0 .3.2.3.3s-.2.3-.3.3zm-5 0h-2c-.2 0-.3-.2-.3-.3s.2-.3.3-.3h2c.2 0 .3.2.3.3s-.2.3-.3.3zm-5 0h-2c-.2 0-.3-.2-.3-.3s.2-.3.3-.3h2c.2 0 .3.2.3.3s-.2.3-.3.3zm-5 0h-2c-.2 0-.3-.2-.3-.3s.2-.3.3-.3h2c.2 0 .3.2.3.3s-.2.3-.3.3zm-5 0h-2c-.2 0-.3-.2-.3-.3s.2-.3.3-.3h2c.2 0 .3.2.3.3s-.2.3-.3.3zm-5 0h-2c-.2 0-.3-.2-.3-.3s.2-.3.3-.3h2c.2 0 .3.2.3.3s-.2.3-.3.3zm-5 0h-2c-.2 0-.3-.2-.3-.3s.2-.3.3-.3h2c.2 0 .3.2.3.3s-.2.3-.3.3zm-5 0h-2c-.2 0-.3-.2-.3-.3s.2-.3.3-.3h2c.2 0 .3.2.3.3s-.2.3-.3.3zm-5 0h-2c-.2 0-.3-.2-.3-.3s.2-.3.3-.3h2c.2 0 .3.2.3.3s-.2.3-.3.3zm-5 0h-2c-.2 0-.3-.2-.3-.3s.2-.3.3-.3h2c.2 0 .3.2.3.3s-.2.3-.3.3zm-5 0h-2c-.2 0-.3-.2-.3-.3s.2-.3.3-.3h2c.2 0 .3.2.3.3s-.2.3-.3.3zm-5 0h-2c-.2 0-.3-.2-.3-.3s.2-.3.3-.3h2c.2 0 .3.2.3.3s-.2.3-.3.3zm-5 0h-2c-.2 0-.3-.2-.3-.3s.2-.3.3-.3h2c.2 0 .3.2.3.3s-.2.3-.3.3zm-5 0h-2c-.2 0-.3-.2-.3-.3s.2-.3.3-.3h2c.2 0 .3.2.3.3s-.2.3-.3.3zm-5 0h-2c-.2 0-.3-.2-.3-.3s.2-.3.3-.3h2c.2 0 .3.2.3.3s-.2.3-.3.3zm-5 0h-2c-.2 0-.3-.2-.3-.3s.2-.3.3-.3h2c.2 0 .3.2.3.3s-.2.3-.3.3zm-5 0h-2c-.2 0-.3-.2-.3-.3s.2-.3.3-.3h2c.2 0 .3.2.3.3s-.2.3-.3.3zm-5 0h-2c-.2 0-.3-.2-.3-.3s.2-.3.3-.3h2c.2 0 .3.2.3.3s-.2.3-.3.3zm-5 0h-2c-.2 0-.3-.2-.3-.3s.2-.3.3-.3h2c.2 0 .3.2.3.3s-.2.3-.3.3zm-5 0h-2c-.2 0-.3-.2-.3-.3s.2-.3.3-.3h2c.2 0 .3.2.3.3s-.2.3-.3.3zm-5 0h-2c-.2 0-.3-.2-.3-.3s.2-.3.3-.3h2c.2 0 .3.2.3.3s-.2.3-.3.3zm-5 0h-2c-.2 0-.3-.2-.3-.3s.2-.3.3-.3h2c.2 0 .3.2.3.3s-.2.3-.3.3zm-5 0h-2c-.2 0-.3-.2-.3-.3s.2-.3.3-.3h2c.2 0 .3.2.3.3s-.2.3-.3.3zm-5 0h-2c-.2 0-.3-.2-.3-.3s.2-.3.3-.3h2c.2 0 .3.2.3.3s-.2.3-.3.3zm-5 0h-2c-.2 0-.3-.2-.3-.3s.2-.3.3-.3h2c.2 0 .3.2.3.3s-.2.3-.3.3zm-5 0h-2c-.2 0-.3-.2-.3-.3s.2-.3.3-.3h2c.2 0 .3.2.3.3s-.2.3-.3.3zm-5 0h-2c-.2 0-.3-.2-.3-.3s.2-.3.3-.3h2c.2 0 .3.2.3.3s-.2.3-.3.3zm-5 0h-2c-.2 0-.3-.2-.3-.3s.2-.3.3-.3h2c.2 0 .3.2.3.3s-.2.3-.3.3zm-5 0h-2c-.2 0-.3-.2-.3-.3s.2-.3.3-.3h2c.2 0 .3.2.3.3s-.2.3-.3.3zm-5 0h-2c-.2 0-.3-.2-.3-.3s.2-.3.3-.3h2c.2 0 .3.2.3.3s-.2.3-.3.3zm-3.9-1.1c-.2 0-.3-.2-.3-.3v-2c0-.2.2-.3.3-.3s.3.2.3.3v2c.1.1-.1.3-.3.3zm0-5c-.2 0-.3-.2-.3-.3v-2c0-.2.2-.3.3-.3s.3.2.3.3v2c.1.1-.1.3-.3.3zm0-5c-.2 0-.3-.2-.3-.3v-2c0-.2.2-.3.3-.3s.3.2.3.3v2c.1.1-.1.3-.3.3zm0-5c-.2 0-.3-.2-.3-.3v-2c0-.2.2-.3.3-.3s.3.2.3.3v2c.1.1-.1.3-.3.3zm0-5c-.2 0-.3-.2-.3-.3v-2c0-.2.2-.3.3-.3s.3.2.3.3v2c.1.1-.1.3-.3.3zm0-5c-.2 0-.3-.2-.3-.3v-2c0-.2.2-.3.3-.3s.3.2.3.3v2c.1.1-.1.3-.3.3zm0-5c-.2 0-.3-.2-.3-.3v-2c0-.2.2-.3.3-.3s.3.2.3.3v2c.1.1-.1.3-.3.3zm0-5c-.2 0-.3-.2-.3-.3v-2c0-.2.2-.3.3-.3s.3.2.3.3v2c.1.1-.1.3-.3.3zm0-5c-.2 0-.3-.2-.3-.3v-2c0-.2.2-.3.3-.3s.3.2.3.3v2c.1.1-.1.3-.3.3zm0-5c-.2 0-.3-.2-.3-.3v-2c0-.2.2-.3.3-.3s.3.2.3.3v2c.1.1-.1.3-.3.3zm0-5c-.2 0-.3-.2-.3-.3v-2c0-.2.2-.3.3-.3s.3.2.3.3v2c.1.1-.1.3-.3.3zm0-5c-.2 0-.3-.2-.3-.3v-2c0-.2.2-.3.3-.3s.3.2.3.3v2c.1.1-.1.3-.3.3zm0-5c-.2 0-.3-.2-.3-.3v-2c0-.2.2-.3.3-.3s.3.2.3.3v2c.1.1-.1.3-.3.3zm0-5c-.2 0-.3-.2-.3-.3v-2c0-.2.2-.3.3-.3s.3.2.3.3v2c.1.1-.1.3-.3.3zm0-5c-.2 0-.3-.2-.3-.3v-2c0-.2.2-.3.3-.3s.3.2.3.3v2c.1.1-.1.3-.3.3zm0-5c-.2 0-.3-.2-.3-.3v-2c0-.2.2-.3.3-.3s.3.2.3.3v2c.1.1-.1.3-.3.3z" class="colorc2c6c3 svgShape"/><path fill="#fff" d="M198.1 151.3c-6.9 0-12.5-5.6-12.5-12.5s5.6-12.5 12.5-12.5 12.5 5.6 12.5 12.5-5.6 12.5-12.5 12.5z" class="colorffffff svgShape"/><path fill="#c94c16" d="M198.1 151.7c-7.1 0-12.9-5.8-12.9-12.9s5.8-12.9 12.9-12.9c7.1 0 12.9 5.8 12.9 12.9s-5.8 12.9-12.9 12.9zm0-25.1c-6.7 0-12.2 5.5-12.2 12.2s5.5 12.2 12.2 12.2c6.7 0 12.2-5.5 12.2-12.2s-5.5-12.2-12.2-12.2z" class="color3c4150 svgShape"/><path fill="#db8a67" d="M207.1 138.8c0 5-4 9-9 9s-9-4-9-9 4-9 9-9 9 4 9 9z" class="color67db8a svgShape"/><path fill="#c94c16" d="M198.1 148.2c-5.2 0-9.4-4.2-9.4-9.4s4.2-9.4 9.4-9.4 9.4 4.2 9.4 9.4-4.3 9.4-9.4 9.4zm0-18.1c-4.8 0-8.7 3.9-8.7 8.7s3.9 8.7 8.7 8.7c4.8 0 8.7-3.9 8.7-8.7s-3.9-8.7-8.7-8.7z" class="color3c4150 svgShape"/><path fill="#fff" d="M163.2 151.3c-6.9 0-12.5-5.6-12.5-12.5s5.6-12.5 12.5-12.5 12.5 5.6 12.5 12.5-5.5 12.5-12.5 12.5z" class="colorffffff svgShape"/><path fill="#c94c16" d="M163.2 151.7c-7.1 0-12.9-5.8-12.9-12.9s5.8-12.9 12.9-12.9c7.1 0 12.9 5.8 12.9 12.9s-5.8 12.9-12.9 12.9zm0-25.1c-6.7 0-12.2 5.5-12.2 12.2s5.5 12.2 12.2 12.2c6.7 0 12.2-5.5 12.2-12.2s-5.4-12.2-12.2-12.2z" class="color3c4150 svgShape"/><path fill="#db8a67" d="M172.3 138.8c0 5-4 9-9 9s-9-4-9-9 4-9 9-9c4.9 0 9 4 9 9z" class="color67db8a svgShape"/><path fill="#c94c16" d="M163.2 148.2c-5.2 0-9.4-4.2-9.4-9.4s4.2-9.4 9.4-9.4 9.4 4.2 9.4 9.4-4.2 9.4-9.4 9.4zm0-18.1c-4.8 0-8.7 3.9-8.7 8.7s3.9 8.7 8.7 8.7c4.8 0 8.7-3.9 8.7-8.7s-3.9-8.7-8.7-8.7z" class="color3c4150 svgShape"/><path fill="#fff" d="M128.4 151.3c-6.9 0-12.5-5.6-12.5-12.5s5.6-12.5 12.5-12.5 12.5 5.6 12.5 12.5-5.6 12.5-12.5 12.5z" class="colorffffff svgShape"/><path fill="#c94c16" d="M128.4 151.7c-7.1 0-12.9-5.8-12.9-12.9s5.8-12.9 12.9-12.9c7.1 0 12.9 5.8 12.9 12.9s-5.8 12.9-12.9 12.9zm0-25.1c-6.7 0-12.2 5.5-12.2 12.2s5.5 12.2 12.2 12.2c6.7 0 12.2-5.5 12.2-12.2s-5.5-12.2-12.2-12.2z" class="color3c4150 svgShape"/><path fill="#db8a67" d="M137.4 138.8c0 5-4 9-9 9s-9-4-9-9 4-9 9-9 9 4 9 9z" class="color67db8a svgShape"/><path fill="#c94c16" d="M128.4 148.2c-5.2 0-9.4-4.2-9.4-9.4s4.2-9.4 9.4-9.4 9.4 4.2 9.4 9.4-4.2 9.4-9.4 9.4zm0-18.1c-4.8 0-8.7 3.9-8.7 8.7s3.9 8.7 8.7 8.7c4.8 0 8.7-3.9 8.7-8.7s-3.9-8.7-8.7-8.7z" class="color3c4150 svgShape"/><path fill="#fff" d="M373.6 147c0 9.5-7.7 17.2-17.2 17.2h-14v12.7l-12.7-12.7h-79.9c-9.5 0-17.2-7.7-17.2-17.2 0-4.6 1.8-8.9 5-12.2 3.2-3.2 7.6-5 12.2-5h106.6c9.5 0 17.2 7.7 17.2 17.2z" class="colorffffff svgShape"/><path fill="#c94c16" d="M356.4 129.4h-93.5c-6.1-10.3-17.4-17.3-30.2-17.3-3.4 0-6.7.5-10.1 1.5v-1.1c0-23.2-18.5-42.2-41.5-43-.1-.1-.5 0-11.7 0-17.3 0-32.5 10.2-39.3 25.5-6.7-3.9-14.4-5.2-21.6-4-1.6-.3-3.3-.4-5-.4-18.4 0-33.4 15-33.4 33.3 0 1.2.1 2.4.2 3.6-14.7.5-26.6 12.8-26.6 27.5 0 15.1 12.4 27.5 27.6 27.5h29.6v2.2c0 2.6 1.6 4.7 3.7 5.6v3.2c0 .2.2.3.3.3h3.9c.2 0 .3-.2.3-.3v-3.2c2.2-.9 3.7-3.1 3.7-5.6v-2.2H139v2.2c0 2.6 1.6 4.7 3.7 5.6v3.2c0 .2.2.3.3.3h3.9c.2 0 .3-.2.3-.3v-3.2c2.2-.9 3.7-3.1 3.7-5.6v-2.2H177v2.2c0 1.6.6 3.1 1.8 4.3.6.6 1.2 1 1.9 1.3v3.2c0 .2.2.3.3.3h3.9c.2 0 .3-.2.3-.3v-3.2c2.2-.9 3.7-3.1 3.7-5.6v-2.2h43.7c13.2 0 24.7-7.3 30.7-18.1h66.1L342 177c.1.1.2.1.3.1h.1c.1-.1.2-.2.2-.3v-12.3h13.7c9.7 0 17.6-7.9 17.6-17.6.1-9.6-7.8-17.5-17.5-17.5zM169.5 70.2h2.4c-16.2 2.9-29.5 14.9-33.7 31.2-2.1-2.4-4.6-4.4-7.3-6 6.5-15.1 21.6-25.2 38.6-25.2zm-98 111.7c-14.9 0-26.9-12-26.9-26.8 0-14.5 11.8-26.5 26.3-26.9.1 0 .2 0 .3-.1.1-.1.1-.2.1-.3-.2-1.3-.3-2.6-.3-3.9 0-18 14.7-32.6 32.7-32.6.9 0 1.8 0 2.8.1-14.9 3.4-26 16.7-26 32.5 0 1.3.1 2.5.2 3.7-14.9.5-26.7 12.8-26.7 27.5 0 13 9.2 24 21.4 26.8h-3.9zm161.2 0H81.1c-14.7-.2-26.5-12.1-26.5-26.8 0-14.5 11.8-26.5 26.3-26.9.1 0 .2 0 .3-.1.1-.1.1-.2.1-.3-.2-1.3-.3-2.6-.3-3.9 0-16.3 12-29.8 27.6-32.2 11.2-1.8 22.3 2.4 29.4 10.7.1.1.2.1.3.1.1 0 .2-.1.3-.3 4.9-19.8 23.1-32.8 42.8-32 22.5.9 40.5 19.5 40.5 42.2 0 .5 0 1.1-.1 1.5 0 .1 0 .3.1.3.1.1.2.1.3.1 3.5-1.1 6.9-1.6 10.4-1.6 12.4 0 23.3 6.6 29.4 16.6h-12.3c-9.7 0-17.6 7.8-17.6 17.6 0 9.7 7.9 17.6 17.6 17.6h12.8c-5.8 10.4-17 17.4-29.8 17.4zm123.7-18.1h-14c-.2 0-.3.2-.3.3V176L330 163.9c-.1-.1-.2-.1-.3-.1h-79.9c-9.3 0-16.9-7.6-16.9-16.9 0-9.4 7.6-16.9 16.9-16.9h106.6c9.3 0 16.9 7.6 16.9 16.9s-7.6 16.9-16.9 16.9z" class="color3c4150 svgShape"/><path fill="#db8a67" d="M367.4 147c0 6.1-4.9 11-11 11H249.8c-6.1 0-11-4.9-11-11 0-3.1 1.2-5.8 3.2-7.8s4.8-3.2 7.8-3.2h106.7c6-.1 10.9 4.9 10.9 11z" class="color67db8a svgShape"/><path fill="#fff" d="M367.4 147c0 6.1-4.9 11-11 11h-18.3v-22.1h18.3c6.1 0 11 5 11 11.1z" class="colorffffff svgShape"/><path fill="#c94c16" d="M356.4 135.6H249.7c-3 0-5.9 1.2-8.1 3.3-2.1 2.1-3.3 5-3.3 8.1 0 6.3 5.1 11.4 11.4 11.4h106.7c6.3 0 11.4-5.1 11.4-11.4 0-6.3-5.1-11.4-11.4-11.4zm0 .7c5.9 0 10.7 4.8 10.7 10.7 0 5.9-4.8 10.7-10.7 10.7h-17.9v-21.4h17.9zM239.1 147c0-2.9 1.1-5.5 3.1-7.6 2-2 4.7-3.1 7.6-3.1h88.1v21.4h-88.1c-5.9-.1-10.7-4.8-10.7-10.7z" class="color3c4150 svgShape"/><circle cx="354.2" cy="145.6" r="4.7" fill="#fff" class="colorffffff svgShape" transform="rotate(-76.185 354.142 145.627)"/><path fill="#fff" d="m350.8 148.9-4 4.1" class="colorffffff svgShape"/><path fill="#c94c16" d="M357.7 142.1c-2-2-5.2-2-7.1 0-1.8 1.8-2 4.8-.2 6.8l-3.8 3.8c-.1.1-.1.4 0 .5.1.1.2.1.2.1s.2 0 .2-.1l3.8-3.8c2.1 1.8 5 1.6 6.8-.2 2.1-2 2.1-5.2.1-7.1zm-.5 6.6c-1.7 1.7-4.4 1.7-6.1 0-1.7-1.7-1.7-4.4 0-6.1 1.7-1.7 4.4-1.7 6.1 0 1.7 1.7 1.7 4.4 0 6.1z" class="color3c4150 svgShape"/><path fill="#fff" d="M323.6 148.1h-70.1c-.2 0-.3-.2-.3-.3s.2-.3.3-.3h70.1c.2 0 .3.2.3.3s-.1.3-.3.3z" class="colorffffff svgShape"/><ellipse cx="404.3" cy="424.7" fill="#f5f5f5" class="colorf5f5f5 svgShape" rx="148.3" ry="5.8"/><path fill="#fff" d="M484.9 349.9h8.3v62.7h-8.3z" class="colorffffff svgShape"/><path fill="#fff" d="m433 339 46.7-58.9s13.4-16.1 36.5-9c1.6.5 2.5 2.1 2.2 3.7l-12.2 73c-.3 1.6-1.6 2.7-3.2 2.7h-70V339z" class="colorffffff svgShape"/><path fill="#e5e2e1" d="M480.2 409.1h17.7v4.1h-17.7z" class="colore1e5e2 svgShape"/><path fill="#db8a67" d="M393.6 326.9c.6 17.1 6.3 69.9 8.1 84.4.1.9.2 1.6.3 2.2 0 .3.3.6.7.6h9.3c2.5 0 4.6-1.9 4.9-4.4l2.6-42.5c1.2-8.9 1.3-18.6 4.5-27l11.9-24.9s-2-.3-5.1-.7c-2.1-.3-4.7-.6-7.5-.8-5.8-.5-12.5-.8-17.7-.1-11.5 1.7-12.2 8.8-12 13.2z" class="color67db8a svgShape"/><path fill="#b75c34" d="M401.7 411.3c.1.9.2 1.6.3 2.2 0 .3.3.6.7.6h9.3c2.5 0 4.6-1.9 4.9-4.4l2.6-42.5c1.2-8.9 1.3-18.6 4.5-27l11.9-24.9s-2-.3-5.1-.7c-2.1-.3-4.7-.6-7.5-.8-1 .7-1.9 1.5-2.8 2.4-.7.7-1.3 1.5-1.7 2.4-.4.9-.4 1.9-.5 2.9-.4 3.1-1.6 6.1-3.5 8.7-1.4 1.9-3.2 3.5-4.2 5.7-2 4.4.2 9.6-.7 14.4-.6 3.1-2.4 5.9-2.8 9-.8 5.8 3.5 11.3 3.2 17.1-.2 4.2-2.7 7.9-3.4 12-.6 3.3 0 6.7.2 10s-.1 6.9-2.2 9.6c-.9 1.2-2.1 2.2-3.2 3.3z" class="color34b75c svgShape"/><path fill="#db8a67" d="M430.1 405.1c.5 3.2 1 5.8 1.2 7.3.2 1 1 1.7 2.1 1.7h9.3c2.6 0 4.8-2 5-4.7l2.2-69.8 22.5-.1c25.7-.2 26.9-30.4 26.9-30.4l-5.1.3-40.7 2s-27.4 1.9-29.5 11.8c-3.7 17.3 3 62.5 6.1 81.9z" class="color67db8a svgShape"/><path fill="#b75c34" d="M430.1 405.1c.5 3.2 1 5.8 1.2 7.3.2 1 1 1.7 2.1 1.7h9.3c2.6 0 4.8-2 5-4.7l2.2-69.8 22.5-.1c25.7-.2 26.9-30.4 26.9-30.4l-5.1.3c.1 2.1-.9 4.3-2 6.1-1.7 2.8-4.4 5-7.6 6-4.4 1.3-9.7.4-13.3 3.4-1.6 1.3-2.7 3.3-4.3 4.6-4.1 3.2-10.1 1.1-15.3 2.1-5.6 1.1-9.7 6.1-11.4 11.5-1.7 5.4-1.3 11.3-.6 16.9.5 4 1.1 8.2.2 12.1-.8 3.5-2.7 6.7-2.9 10.2-.1 3.2 1.2 6.4 1 9.6-.3 5.2-4.5 9-7.9 13.2z" class="color34b75c svgShape"/><path fill="#fff" d="M437.1 309.2c11.5 2 20.9 3.1 28.7 3.7 27.8 1.9 33.6-3.7 33.6-3.7s.2-1.1.4-3.1c.3-2 .6-4.9 1-8.4.5-4.4 1-9.8 1.4-15.3.4-4.8.7-9.8.9-14.4.3-7.3.2-13.9-.7-17.8-.7-3.4-2.5-6.1-5-8.2-2-1.8-4.6-3.2-7.4-4.3-7.7-3.1-17.6-4-26.4-4.2-6.5-.2-11.1 2-14.2 4.6-2.2 1.9-4 4.2-5.1 6.8-.9 2-1.8 8.2-2 10.4l-3.6 37.1-.7 6.8-.9 9v1z" class="colorffffff svgShape"/><path fill="#fff" d="M503.1 265.7c-2.4 18-7.1 26.7-15.7 32.5-10.4 7-53.1 5-53.1 5 1.3-4 1.3-8.1-.9-10.9l45.9-10.1M475.3 282.7v-7.6M443.3 414.1l.2 8.2-9.2 1-.2-9.2z" class="colorffffff svgShape"/><path fill="#fff" d="M435.1 419.2c0-.8-.7-1.4-1.5-1.4-.6 0-1.2.4-1.4 1l-1.1 3-9.6 3.3c-1.3.4-2.2 1.7-2.1 3 0 .2.2.4.4.4l26.8-.2c.2 0 .4-.2.4-.4v-3.6s-.1-4.6-3.9-5.4c0 0-1.8 3.8-5.5 3.5-2.2-.4-2.5-3.2-2.5-3.2zM412.6 414.1l.2 8.2-9.2 1-.2-9.2z" class="colorffffff svgShape"/><path fill="#fff" d="M404.4 419.2c0-.8-.7-1.4-1.5-1.4-.6 0-1.2.4-1.4 1l-1.1 3-9.6 3.3c-1.3.4-2.2 1.7-2.1 3 0 .2.2.4.4.4l26.8-.2c.2 0 .4-.2.4-.4v-3.6s-.1-4.6-3.9-5.4c0 0-1.8 3.8-5.5 3.5-2.2-.4-2.5-3.2-2.5-3.2zM452.8 235.6l-17.8 8.6-28.2-18.5-8.6 10s20.8 25.3 32 27.5c3.1.6 11.6-3.9 11.6-3.9" class="colorffffff svgShape"/><path fill="#fff" d="M386 223.9c.7.7 1.4 1.4 2.2 2 2 1.6 6.5 4.9 8.9 5.7.4.4.8.8 1.2 1.1l.5.5c.9.9 1.7 1.8 2.5 2.7h.1c1.1-.6 1.9-1.6 1.9-1.6 1.8-1.9 3-3.9 3.8-6.1 0 0 0-.1.1-.3 0-.1 0-.2.1-.3-.3-.5-.7-1.1-1.1-1.7-.1-.2-.2-.4-.3-.5-1-1.7-1.9-3.6-2-5-.3-3.1-.5-9.9-2.5-9.4s-3.6 4.6-3.1 7.7c0 0-5.9-4.7-6.9-9 0 0-.6-2.6-2.2-1.3-.5.4 0 5.1.8 6.3-.5-.6-2.6-3.2-3-4-.5-.9-2.4-.6-1.5 2.6-.1-.1-1.2-.6-1.7 0-.7.7.4 2.9.5 3.1-.1-.1-.8-.6-1.6.1-1.5 1.5 1.6 5.4 3.3 7.4z" class="colorffffff svgShape"/><path fill="#fff" d="M398.1 218.7s.4 3.1 1.6 4.5M385.3 213.5s1.6 2.2 3.4 3.8M384.1 216.6s2.1 2.4 3.6 3.5M441.8 260.3l.5-4.8M261.1 307.2h209.7v11.2H261.1z" class="colorffffff svgShape"/><path fill="#f5f5f5" d="M470.7 307.2h84.8v11.2h-84.8zM325.8 318.4h33.1v106.2h-33.1z" class="colorf5f5f5 svgShape"/><path fill="#fff" d="M271.1 318.4h54.7v106.2h-54.7z" class="colorffffff svgShape"/><path fill="#e5e2e1" d="M271.5 318.8h53.9v4.9h-53.9zM326.2 318.8h32.2v4.9h-32.2z" class="colore1e5e2 svgShape"/><path fill="#f5f5f5" d="M538.5 318.4h6.4v106.2h-6.4z" class="colorf5f5f5 svgShape"/><path fill="#fff" d="M532 318.4h6.5v106.2H532z" class="colorffffff svgShape"/><path fill="#f5f5f5" d="M470.8 318.4h6.4v106.2h-6.4z" class="colorf5f5f5 svgShape"/><path fill="#fff" d="M464.3 318.4h6.5v106.2h-6.5zM271.1 216l10.9 67c.3 1.7 1.7 2.9 3.4 2.9h.6c.1 0 .2 0 .3-.1v.1h89.4l-11.5-73.8h-89.8c-2 .2-3.6 2.1-3.3 3.9zM298.5 224.4l1.9 11.7M305.6 224.4l1.9 11.7M312.6 224.4l1.9 11.7M319.6 224.4l1.9 11.7M326.7 224.4l1.9 11.7M333.7 224.4l1.9 11.7M340.7 224.4l1.9 11.7" class="colorffffff svgShape"/><path fill="#fff" d="M313 307.2h22.2c-3.6-.2-7-1.9-9.4-4.7-2.6-3-3.8-7-3.2-10.9l5.4-40.4h-14.7l-12.5 38.2c-3.3 8.6 3 17.8 12.2 17.8z" class="colorffffff svgShape"/><path fill="#fff" d="M336.1 307.2H359v-3.8h-22.8c-2.9 0-5.6-1.2-7.5-3.4-1.9-2.2-2.7-5-2.3-7.9l5-37.1h4.2v-3.8H328l-5.4 40.4c-.6 3.9.6 7.9 3.2 10.9s6.3 4.7 10.3 4.7zM434.1 302.9h-22.7c-.1-9.6 19.1-9.6 22.2-9.2 1.6 2 1.3 5.1.5 9.2z" class="colorffffff svgShape"/><path fill="#fff" d="M414.2 302.9s1.5-4.1 5.5-4.2M419.8 302.9s1.2-3.2 4.3-3.3M464.6 229.1l-.3 4.2.8 29.1 14.7-27.6 1.9-16.1c2.5.2 3.6-1.4 3.8-4.4.2-3-.6-5.4-3.1-5.5h-.6c-1.7-6.9-6.9-12.1-13.3-12.6-8.3-.6-13.6-4.1-14 17.2-.3 9.4 1.1 14.6 10.1 15.7z" class="colorffffff svgShape"/><path fill="#fff" d="M462.2 215.8c-.2.2-.6.3-.9.3-.2 0-.4-.1-.6-.2-.5-.3-.7-.9-.5-1.4.2-.4.6-.7 1-.8.1-.1.2-.1.3-.2.9-.5 1.3-1.5 1-2.3M469.3 210.8c-1-.6-2.2-1.1-3.4-1.3M460.6 208.3c-1.1-.6-2.2-.9-3.4-1.1M464.6 229.1h6.7" class="colorffffff svgShape"/><path fill="#f5f5f5" d="M435.3 303.2c6.7.3 42.6 1.3 52-5 8.7-5.8 13.4-14.5 15.7-32.5.2-6.4 0-12-.7-15.6-.7-3.4-2.5-6.1-5-8.2-2-1.8-4.6-3.2-7.4-4.3-.8 2.3 3.7 7.5 4.1 9.1 1.1 3.8-1.3 7.6-2.1 11.4-.8 3.7-.1 7.5-.6 11.2-.3 1.9-.8 3.8-1.6 5.5-2.2 5.1-6.1 9.6-9.9 13.7-1.7 1.8-3.4 3.7-5.6 4.9-3.6 1.9-8 1.7-11.9.7-.7-.2-1.4-.4-2.1-.3-2.9.1-4.5 3.7-7.3 4.6-3.4 1.2-6.9-1.8-10.4-1.6-1.7.1-3.2.9-4.5 2.1-.6.5-1.1 1.1-1.6 1.8-.4.8-.9 1.6-1.1 2.5z" class="colorf5f5f5 svgShape"/><path fill="#c94c16" d="M555.5 306.8h-42.1l5.4-32c.3-1.8-.8-3.5-2.5-4.1-4.7-1.4-9.1-1.9-13-1.8v-1.2c.2-6.3.4-11.9-.7-17.7-1.2-5.1-4.5-9.6-12.6-12.8-2.8-1.1-6.1-2-9.9-2.7l1.8-15.4c1 0 1.8-.3 2.4-.8.8-.7 1.3-1.9 1.5-3.7 5.3-7.2 7.1-12.3 5.4-15.2-1.4-2.3-4.5-2.3-5.8-2.3.5-2 2.3-9.6-1.1-11.2-1-.5-2-.6-3.1-.2-2.4.9-4.2 4.1-4.7 5.2-2.1-1.4-12.7-8.2-20.7-6.5-2.8.6-5 2.3-6.5 4.9-4 6.9 3.9 18.9 4.7 20.2-.1 1.2-.1 2.5-.1 3.8-.2 9.6 1.3 14.7 10.2 15.9l-.1 3.8h-.4c-4.1-.1-7.8.7-10.9 2.3l-17.6 8.5-27.9-18.3c-.3-.3-.7-.4-1.3-.4-.8-1.4-1.7-3.3-1.9-4.7 0-.5-.1-1-.1-1.6-.3-3.8-.7-7.1-1.8-7.9-.3-.2-.6-.3-1-.2-2 .5-3.6 4.1-3.5 7.2-1.5-1.4-5.3-5-6.1-8.2 0-.2-.4-1.6-1.3-1.9-.5-.2-.9 0-1.4.4-.5.4-.3 2.9.1 4.8-.7-.9-1.5-1.9-1.7-2.3-.3-.5-.9-.8-1.4-.6-.3.1-1.3.7-.9 2.8-.8-.2-1.2 0-1.5.3-.6.6-.3 1.9.1 2.7-.4 0-.8.2-1.2.5-1.1 1.1 0 3.7 3.5 7.7.7.8 1.4 1.4 2.2 2.1 2.3 1.8 6.6 4.9 8.9 5.7.3.3.7.6 1 .9-.4 1.3-.3 2.3.1 2.9 0 0 0 .1.1.1l.1.1v.1l.1.1c2.3 2.8 21.3 25.3 32 27.4.2 0 .4.1.7.1 3 0 8.8-2.8 10.6-3.7v.4l-2.9 30.4c-5.6 1.3-5.3 1.1-5.5 1.2-.4.4-.8.8-1 1.3-4-.1-13.9.3-18.5 4.4-1.6 1.4-2.4 3.2-2.4 5.2h-48.4c-.2 0-.4.1-.4.3v3.7h-3.1v-3.4c0-.2-.2-.3-.3-.3h-22.8c-5.8 0-10.3-5.1-9.5-10.9l.8-5.9h47.1c2.3.4 4.6-1.7 4.2-4.3L368 215c-.3-1.9-1.9-3.2-3.8-3.2-.1 0-89.8 0-89.9.1-2 .2-3.8 2.2-3.4 4.3l10.9 67c.4 2.1 2.4 3.5 4.3 3.1h15.4l-1 3.1c-2.9 7.6 1.6 15.3 8.3 17.6h-47.6c-.2 0-.3.2-.3.3v11.2c0 .2.2.4.3.4h9.7v105.9c0 .2.2.4.3.4H359c.2 0 .4-.2.4-.4v-106h35.8c-1.7 2.4-2 5.3-1.9 8.2.7 17.3 6.9 75.3 8.4 86.6.1.5.5.9 1 .9h.4l.1 2.9h-.2c-.8 0-1.4.5-1.7 1.2l-1 2.8-9.4 3.2c-1.4.5-2.4 1.8-2.4 3.4 0 .4.3.7.7.7h2.1l24.7-.2c.4 0 .7-.3.7-.7V424.2c0-1.9-1.2-4.8-3.7-5.6l-.1-4.2c2.3-.4 4-2.3 4.3-4.6l2.6-42.4c.8-6.2 1.1-12.7 2.3-18.9 0-.1.7-2.9.7-2.7.9 19.8 4.8 47.2 8.2 66.7.2 1.2 1.2 2 2.4 2h.4l.1 3h-.2c-.8 0-1.4.5-1.7 1.2l-1 2.8-9.4 3.2c-1.4.5-2.4 1.8-2.4 3.4 0 .2.1.4.2.5.1.1.3.2.5.2h2.1l24.7-.2c.2 0 .4-.1.5-.2.1-.1.2-.3.2-.5v-3.6c0-2.1-1.4-4.9-3.7-5.6l-.1-4.2c2.4-.4 4.2-2.4 4.4-4.9l1.8-58.6h14.1v73.8c0 .2.2.4.4.4h13c.2 0 .3-.2.3-.4V351h6.9v57.9h-4.3c-.2 0-.3.1-.3.3v4.1c0 .2.2.3.3.3h17.7c.2 0 .4-.2.4-.3v-4.1c0-.2-.2-.3-.4-.3h-4.3V351h9.4c1.8 0 3.3-1.3 3.6-3l4.9-29.1h20.2v105.9c0 .2.2.4.4.4h13c.2 0 .3-.2.3-.4v-106h10.2c.2 0 .3-.2.3-.4v-11.2c-.1-.2-.2-.4-.4-.4zm-39.4-35.4c1.4.4 2.2 1.8 2 3.3l-5.4 32.2H500c1.4-12 2.8-25.1 3.3-37.2 3.8-.2 8.1.3 12.8 1.7zm-53.9 32c6.3-.3 12.5-.9 17.5-2.1 2-.3 6.1-1 5.8-.9 7.4-1.2 13.3-6.3 15.8-13-.4 4.2-.8 8.6-2.1 19.5h-37v-3.5zm2.7-74h6.4c.2 0 .3-.2.3-.3 0-.2-.1-.3-.3-.3h-6.6c-8.6-1.1-10-5.8-9.8-15.3.1-3.5.3-7.7 1.1-11.2.2-.8.5-1.5.9-2.2 2.2 3.8 8.4 5.1 18.7 3.9-.7.8-1.1 1.8-1.2 2.9-.4 3.7 2.9 7.6 3 7.7.1.1.3.1.4.1.1 0 .2-.2.2-.3 0-.3 0-.8.1-1 .5-1.9 1.3-3.1 2.5-3.3 1.5-.3 3.3 1 4.2 2.3.5.7.6 1.8.6 2.1-.1 1.6-.5 2.7-1.3 3.3-.5.5-1.3.7-2.2.6-.2 0-.4.1-.4.3-.2 1.6.7-5.9-1.8 16-7.9 14.8-5.2 9.7-5.8 10.8-3.8 1.3-6.7.9-8.8-1.3 0-.9.1 3.7-.3-10.9-.2-.1.1-4.1.1-3.9zm-67.6 1.9-.1-.1c-2.2-.8-6.5-3.9-8.8-5.7-.7-.6-1.4-1.2-2.1-2-2.9-3.4-4.3-5.9-3.5-6.7.4-.3.7-.4 1.1-.2.1.2 2.2 2.5 3.6 3.6.1.1.1.1.2.1s.2-.1.3-.1c.1-.2.1-.4-.1-.5-1.3-1-3.3-3.2-3.5-3.5-.4-.8-.9-2.3-.5-2.6.2-.2.6-.2 1.2 0 .3.4 1.7 2.4 3.4 3.8.1.1.2.1.2.1.1 0 .2 0 .3-.1.1-.2.1-.4 0-.5-1.6-1.4-3.1-3.3-3.3-3.7-.4-1.5-.1-2.4.3-2.5.2-.1.4 0 .6.2.3.6 1.6 2.2 2.8 3.7l.3.3c.1.1.3.2.5.1s.2-.3.1-.5c-.8-1.2-1.1-5.4-.9-5.9.3-.3.6-.3.8-.3.5.2.8 1.1.8 1.4 1 4 6.1 8.4 6.9 9.1.1.6.6 3.2 1.7 4.5.1.1.2.1.3.1.1 0 .2 0 .2-.1.2-.1.2-.3.1-.5-1.1-1.4-1.5-4.3-1.5-4.3-.5-2.9 1.1-6.8 2.8-7.3.1 0 .3 0 .4.1 1 .7 1.3 4.9 1.5 7.4.1.6.1 1.2.1 1.6.1 1.4 1 3.2 1.8 4.6.1.1.1.2.2.3 0 .1 0 .1.1.1 0 .1.1.1.1.2.1.1.1.2.2.3.1.1.1.2.2.3.1.2.3.4.4.6.2.3.3.5.5.8v.2c0 .2-.1.3-.1.3-.8 2.2-2 4.2-3.7 6 0 0 0 .1-.1.2l-.2.2c-.2.2-.4.4-.7.6-.1.1-.2.2-.3.2-.1 0-.1.1-.2.1l-.1.1c-.4-.5-.8-.9-1.2-1.4l-.5-.5-.6-.6-.2-.2-.2-.2-.1-.1c0-.1-.1-.1-.1-.1l-.3-.3c-.6-.2-.9-.4-1.1-.7zm41.1 60.1c.1 0 43.5-9.6 40.8-9 .2 0 .3-.2.3-.4s-.2-.3-.4-.3l-.3.1c-.1 0-3.3.7-3.1.7v-7.4c0-.2-.2-.3-.3-.3s-.3.1-.3.3v7.6l-35.7 7.9 2.9-30.2.5-4.8c0-.2-.1-.3-.3-.3-.2 0-.4.1-.4.3l-.3 2.9-.1.7c-1.2.6-8.5 4.3-11.3 3.8-9.6-1.8-26.5-21-30.8-26.2h.2c.5 0 1.1-.1 1.5-.4.1 0 .1 0 .2-.1 1.2-.6 2-1.6 2-1.6 1.8-1.8 3-3.9 3.9-6.2 0 0 0-.1.1-.3v-.1c0-.1 0-.2.1-.2.1-.3.1-.7.1-1.1l27.3 17.9c.1.1.2.1.3 0 1.8-.9-6.6 3.2 17.8-8.6 3.1-1.6 6.6-2.4 10.6-2.3h.4c1.1 39.4.7 25.8.8 28.7 0 .2.1.3.3.3h.1c.1 0 .3-.1.3-.2 1.5-2.8-5.4 10.1 14.6-27.4 3.8.7 7 1.6 9.8 2.7 5.4 2.2 10.2 5.6 11.9 11.2 0 .1.1.1.3 1.1 0 .2.1.3.1.5.8 3.1.7 11.8.6 15.1-1.8 13.1-4.7 24.8-15.6 32.2-5.3 3.6-20.2 4.7-26.6 4.9h-25.8c.1-.2.1-.5.2-.7.7-2.6.9-5.5-.2-8-.2-.6-.7-1.3-.9-1.6.7-.4 4.7-1.2 4.4-1.2zm-24.4 6.7c4.2-3.7 13.4-4.4 17.8-4.3.2 0 1.2 0 1.7.1 1.7 2.3.8 5.9.4 8.5h-13.5c.4-.8 1.6-2.5 3.8-2.6.2 0 .3-.2.3-.4s-.2-.3-.4-.3c-2.9.1-4.2 2.5-4.5 3.3h-4.8c.5-1 2-3.4 5-3.5.2 0 .3-.2.3-.4s-.2-.4-.4-.3c-3.7.1-5.4 3.3-5.8 4.2h-2.2c.2-1.6.9-3.1 2.3-4.3zm-78.9-43.5c-4 0-3.9-.1-4.1.1-.2.1.2-2.3-5.1 37.3-.9 6.2 3.9 11.7 10.2 11.7h22.5v3.1h-23.4c-7.4-.5-12.9-6.9-12.4-14.3 0-.3.1-.6.1-.9 1.1-8.3 4.3-31.8 5.4-40.1h6.8v3.1zm-49.2 30.9c-1.7.3-3.2-.9-3.5-2.5l-10.9-67c-.3-1.6 1-3.3 2.8-3.5H362c-1.1.8-1.8 2.2-1.5 3.7l10.9 67c.2 1 .7 1.9 1.5 2.4h-37v-34.3c0-.2-.2-.3-.3-.3h-22.2c-.2 0-.3.1-.3.2l-11.3 34.4c-4.7-.1-15.8-.1-15.9-.1zm15.2 4c8.9-27.3 11.6-35.3 12.2-37.4v-.6h14.1c-1 7.1-4.4 32.9-5.4 40-1 7 3.4 13.4 9.5 15.3h.1H313c-8.9 0-15.1-8.9-11.9-17.3zm24.4 134.8h-54V318.8h54v105.5zm33 0h-32.4V318.8h32.4v105.5zm-97.1-106.2v-10.5h209v10.5h-209zM389.2 428c0-1.2.8-2.3 1.9-2.7l.6-.2-.7 2.9h-1.8zm23.8-8.7c1.2.5 2 1.5 2.4 2.4-1.1.2-2.1 1-2.5 2.1-.2.6-.2 1.3 0 1.9l-17.9.1c-.2 0-.4.2-.4.3s.2.3.4.3l18.4-.1h2.6v1.4l-24.3.1.7-3.1c8.6-3 8.3-2.7 8.5-3l1.1-3c.2-.4.6-.7 1-.7.7.1 1.1.6 1.1 1.1.1 1.1.8 3.1 2.8 3.3h.1c2.2.2 4.1-1 5.4-2.9.1-.2.3-.4.3-.5.1.2.2.2.3.3zm-.8-4.8.1 4c-.1 0-.1.1-.2.2 0 0-1.8 3.6-5.1 3.3-1.9-.2-2.2-2.5-2.3-2.7 0-.7-.5-1.3-.9-1.5l-.1-3.2h8.5zm6.9-47.2-2.6 42.4c-.3 2.3-2.2 4.1-4.5 4.1h-9.3c-.2 0-.3-.1-.3-.3-1.2-8.5-3.8-34-4.8-43.4-1.7-17.2-3.3-34.6-3.6-43.1-.1-2.6.2-5.6 2.1-8.1h30.5c-.6.5-1.2 1.1-1.6 1.7-.4.1-.9.4-1.5 1-2.2 2.3-4.3 8.8-2 27-1.2 6-1.5 12.3-2.4 18.7zm.8 60.7c0-1.2.8-2.3 1.9-2.7l.6-.2-.6 2.9h-1.9zm26.2-6.3c-1.8.3-3.1 2.2-2.4 4l-17.9.1c-.2 0-.4.2-.4.3s.2.3.4.3c2.1 0-7.8.1 21-.1v1.4l-24.3.1.7-3.1 8.2-2.8c.1 0 .2-.1.2-.2l1-3c.4-1.2 2.2-.9 2.2.4.1 1.1.8 3.1 2.8 3.3h.1c2 .2 4-.7 5.7-3.4 1.3.5 2.2 1.4 2.7 2.7zm-3.1-7.2.1 4c-.1 0-.1.1-.2.2 0 0-1.7 3.6-5.1 3.3-1.9-.2-2.2-2.5-2.3-2.7 0-.7-.4-1.2-.9-1.5l-.1-3.2h8.5zm4.3-5.1c-.2 2.4-2.2 4.3-4.6 4.3h-9.3c-.8 0-1.6-.6-1.7-1.4-3.2-18.9-11.4-70.2-7.4-89 .2-1.1.7-1.9 1.3-2.6.3-.4 1-1.2 2.1-1.9H464v20.4l-14.1.1c-.2 0-.3.2-.3.3l-.3 10.5v.7l-2 58.6zm2.6-59.2.3-10.2 13.7-.1v10.3h-14zm20.5 74.1h-5.8V318.7h5.8v105.6zm6.5 0h-5.8V318.7h5.8v105.6zm20.6-14.9v3.4h-17v-3.4h17zm-4.7-.6h-7.6v-57.9h7.6v57.9zm13-61.1c-.2 1.4-1.4 2.4-2.9 2.4H477.6v-10.8c12.5-2.3 18-12.6 20.3-20.6h12.8l-4.9 29zm-28.2-9v-19.9h19.6c-2.4 7.7-7.7 17.6-19.6 19.9zm60.6 85.6h-5.8V318.8h5.8v105.5zm6.4 0h-5.8V318.8h5.8v105.5zm10.5-106.2H471v-10.6h84.1v10.6z" class="color3c4150 svgShape"/><path fill="#c94c16" d="M298.5 224c-.2 0-.3.2-.3.4l1.9 11.8c0 .2.2.3.3.3h.1c.2 0 .3-.2.3-.4l-1.9-11.8c-.1-.2-.2-.3-.4-.3zM307.5 236.5c.2 0 .4-.2.3-.4l-1.9-11.8c0-.2-.2-.3-.4-.3s-.3.2-.3.4l1.9 11.8c.1.2.2.3.4.3zM314.5 236.5c.2 0 .4-.2.3-.4l-1.9-11.8c0-.2-.2-.3-.4-.3s-.3.2-.3.4l1.9 11.8c.1.2.2.3.4.3zM321.5 236.5c.1 0 .1 0 0 0 .2 0 .4-.2.3-.4l-1.9-11.8c0-.2-.2-.3-.4-.3s-.3.2-.3.4l1.9 11.8c.1.2.3.3.4.3zM328.6 236.5c.2 0 .4-.2.3-.4l-1.9-11.8c0-.2-.2-.3-.4-.3s-.3.2-.3.4l1.9 11.8c0 .2.2.3.4.3zM335.6 236.5c.2 0 .4-.2.3-.4l-1.9-11.8c0-.2-.2-.3-.4-.3s-.3.2-.3.4l1.9 11.8c.1.2.2.3.4.3zM342.6 236.5s.1 0 0 0c.2 0 .4-.2.3-.4l-1.9-11.8c0-.2-.2-.3-.4-.3s-.3.2-.3.4l1.9 11.8c.1.2.3.3.4.3zM319.4 263.6c-.2-.1-.4 0-.4.2l-1.7 5.1c-.1.2 0 .4.2.4h.1c.2 0 .3-.1.3-.2l1.7-5.1c0-.1-.1-.3-.2-.4zM315.7 273.6zM316.1 273.4c-.2-.1-.4 0-.4.2-.1.3-.9 2.8-5.2 15.7-1.6 4.3-1 9 1.7 12.7.1.1.2.2.3.2.1 0 .1 0 .2-.1.2-.1.2-.3.1-.5-2.5-3.5-3.1-8-1.6-12 2.5-7.6 3.2-9.7 3.3-10.1v-.2l1.8-5.5c.1-.1 0-.3-.2-.4zm-1.6 6c0 .1 0 .1 0 0zm1.1-5.7c-.1.3 0 .1 0 0zM314.5 279.4zM314.5 279.3zM315.7 273.6zM459.9 214.3c-.6 1.4 1.3 2.6 2.5 1.7.1-.1.2-.3.1-.5s-.3-.2-.5-.1-.4.2-.7.2c-.7 0-1-.6-.8-1 .1-.3.5-.5.9-.7 1.3-.5 1.9-1.8 1.5-2.9-.1-.2-.3-.3-.4-.2-.2.1-.3.3-.2.4.2.7-.1 1.5-.8 1.9-.4.3-1.2.5-1.6 1.2zM463.3 219.4c-.3.4-.9.8-1.8.8s-1.5-.7-1.8-1.2c-.1-.2-.3-.2-.5-.1s-.2.3-.1.5c.3.5 1.1 1.5 2.4 1.5h.1c1.2 0 1.9-.6 2.3-1 .1-.1.1-.4 0-.5-.3-.2-.5-.2-.6 0zM466 209.2c-.2 0-.4.1-.4.3 0 .2.1.4.3.4 1.1.2 2.2.6 3.2 1.2.1 0 .1.1.2.1s.2-.1.3-.2c.1-.2 0-.4-.1-.5-1.1-.6-2.3-1.1-3.5-1.3zM460.5 208.6h.2c.1 0 .3-.1.3-.2.1-.2 0-.4-.1-.5-1.1-.6-2.3-1-3.6-1.1-.2 0-.4.1-.4.3 0 .2.1.4.3.4 1.1.2 2.3.6 3.3 1.1zM466.6 212.8c-.6-.1-1.2.4-1.4 1.2-.2.8.2 1.5.8 1.7.6.1 1.2-.4 1.4-1.2.1-.8-.2-1.5-.8-1.7zM458.4 210.1c-.6-.1-1.2.4-1.3 1.1-.2.7.2 1.4.7 1.6.6.1 1.2-.4 1.3-1.1.2-.8-.1-1.5-.7-1.6zM481.6 212.9s1.1.3 1.3 1.1c.2.5 0 1.1-.5 1.9-.1.2-.1.4.1.5.1 0 .1.1.2.1s.2 0 .3-.1c.7-.9.9-1.8.6-2.5-.4-1.1-1.8-1.5-1.8-1.5-.2-.1-.4.1-.4.3s0 .1.2.2z" class="color3c4150 svgShape"/><path fill="#fff" d="M500 168.9c0 13.4 9.8 24.6 22.7 26.7l4.4 9.4 4.4-9.4c12.9-2.1 22.7-13.3 22.7-26.7 0-15-12.1-27.1-27.1-27.1-15 0-27.1 12.1-27.1 27.1z" class="colorffffff svgShape"/><path fill="#c94c16" d="M527 205.3c-.1 0-.3-.1-.3-.2l-4.3-9.2c-13.2-2.2-22.8-13.6-22.8-27 0-15.1 12.3-27.4 27.4-27.4s27.4 12.3 27.4 27.4c0 13.4-9.6 24.8-22.8 27l-4.3 9.2c0 .2-.1.2-.3.2zm0-63.1c-14.7 0-26.7 12-26.7 26.7 0 13.1 9.4 24.2 22.4 26.3.1 0 .2.1.3.2l4.1 8.7 4.1-8.7c0-.1.1-.2.3-.2 13-2.1 22.4-13.2 22.4-26.4-.2-14.6-12.1-26.6-26.9-26.6z" class="color3c4150 svgShape"/><path fill="#db8a67" d="M505.3 168.9v1.3c.7 11.4 10.1 20.4 21.7 20.4s21-9 21.7-20.4v-1.3c0-12-9.7-21.7-21.7-21.7s-21.7 9.7-21.7 21.7z" class="color67db8a svgShape"/><path fill="#c94c16" d="M527 191c-12.2 0-22.1-9.9-22.1-22.1s9.9-22.1 22.1-22.1 22.1 9.9 22.1 22.1S539.2 191 527 191zm0-43.5c-11.8 0-21.4 9.6-21.4 21.4s9.6 21.4 21.4 21.4c11.8 0 21.4-9.6 21.4-21.4s-9.6-21.4-21.4-21.4z" class="color3c4150 svgShape"/><path fill="#fff" d="M538.9 164.4c-.1 0-.2 0-.3-.1-6.4-6.4-16.8-6.4-23.1 0-.1.1-.4.1-.5 0s-.1-.4 0-.5c6.7-6.7 17.5-6.7 24.2 0 .1.1.1.4 0 .5-.2.1-.3.1-.3.1z" class="colorffffff svgShape"/><path fill="#fff" d="M535.4 167.9c-.1 0-.2 0-.3-.1-4.5-4.5-11.8-4.5-16.3 0-.1.1-.4.1-.5 0-.1-.1-.1-.4 0-.5 4.8-4.8 12.6-4.8 17.4 0 .1.1.1.4 0 .5-.1 0-.2.1-.3.1z" class="colorffffff svgShape"/><path fill="#fff" d="M532 171.3c-.1 0-.2 0-.3-.1-2.6-2.6-6.9-2.6-9.5 0-.1.1-.4.1-.5 0-.1-.1-.1-.4 0-.5 2.9-2.9 7.6-2.9 10.5 0 .1.1.1.4 0 .5 0 0-.1.1-.2.1zM527 179c-1.7 0-3.1-1.4-3.1-3.1 0-1.7 1.4-3.1 3.1-3.1 1.7 0 3.1 1.4 3.1 3.1 0 1.7-1.4 3.1-3.1 3.1zm0-5.5c-1.3 0-2.4 1.1-2.4 2.4 0 1.3 1.1 2.4 2.4 2.4 1.3 0 2.4-1.1 2.4-2.4 0-1.3-1.1-2.4-2.4-2.4z" class="colorffffff svgShape"/><path fill="#f5f5f5" d="M78.1 423.9c0 1.3 31.2 2.3 69.7 2.3s69.7-1 69.7-2.3c0-1.3-31.2-2.3-69.7-2.3s-69.7 1.1-69.7 2.3z" class="colorf5f5f5 svgShape"/><path fill="#e5e2e1" d="M76.8 359.5h33.6v9.2H76.8z" class="colore1e5e2 svgShape"/><path fill="#fff" d="M110.3 359.5h105.5v9.2H110.3z" class="colorffffff svgShape"/><path fill="#e5e2e1" d="M80.6 368.7h31.6v50.7H80.6z" class="colore1e5e2 svgShape"/><path fill="#fff" d="M112.2 368.7H212v50.7h-99.8zM87.2 419.5h3.5v4.5h-3.5z" class="colorffffff svgShape"/><path fill="#e5e2e1" d="M83.5 419.5h3.6v4.5h-3.6z" class="colore1e5e2 svgShape"/><path fill="#fff" d="M105.9 419.5h3.5v4.5h-3.5z" class="colorffffff svgShape"/><path fill="#e5e2e1" d="M102.2 419.5h3.6v4.5h-3.6z" class="colore1e5e2 svgShape"/><path fill="#fff" d="M182 419.5h3.5v4.5H182z" class="colorffffff svgShape"/><path fill="#e5e2e1" d="M178.4 419.5h3.6v4.5h-3.6z" class="colore1e5e2 svgShape"/><path fill="#fff" d="M203.3 419.5h3.5v4.5h-3.5z" class="colorffffff svgShape"/><path fill="#e5e2e1" d="M199.6 419.5h3.6v4.5h-3.6z" class="colore1e5e2 svgShape"/><path fill="#fff" d="M116.4 374.9h91.5v38.4h-91.5z" class="colorffffff svgShape"/><path fill="#db8a67" d="M170.1 313.1s-4.2.1-6.9 6.4-6.8 11.3-13.9 7.4c0 0-4.3-2.8-.4-8 3.6-4.8 11.9-9.7 21.2-5.8zM153.5 284.1c-2.2-2.1-5.7-2.3-7.9-.2-1.2 1.1-2 2.8-1.3 5.4 1.7 6.2 2.5 6.5 1.5 10.8s-2.4 13.9 1.8 14.9c6 1.3 9.8-9.6 9.8-9.6s2-6.1-.5-14.9c-.9-3.2-2.2-5.2-3.4-6.4z" class="color67db8a svgShape"/><path fill="#db8a67" d="M122.6 306.3s5-2.6 10 4c5 6.5 8.9 5.4 10.2 4.3 1.2-1.2 2-6.5 0-10-2-3.6-6.8-4-11.9-3.2-5.1.5-7.6 3.1-8.3 4.9z" class="color67db8a svgShape"/><path fill="#fff" d="m130.5 336.4 4.7 21.2c.3 1.2 1.3 2 2.5 2h15.9c1.2 0 2.2-.8 2.5-2l4.7-21.2h-30.3z" class="colorffffff svgShape"/><path fill="#fff" d="M162.6 331.6v4.8c0 .4-.4.8-.8.8h-32.4c-.4 0-.8-.4-.8-.8v-4.8c0-.4.4-.8.8-.8h32.4c.5 0 .8.4.8.8z" class="colorffffff svgShape"/><path fill="#e5e2e1" d="M128.7 335.5v.8c0 .4.4.8.8.8h32.4c.4 0 .8-.4.8-.8v-.8h-34z" class="colore1e5e2 svgShape"/><path fill="#c94c16" d="M215.8 359.2h-60.3c.5-.4.8-.9 1-1.6l4.5-20.1h.9c.6 0 1.2-.5 1.2-1.2v-4.8c0-.6-.5-1.1-1.2-1.1h-13c.1-1.1.2-2.2.5-3.2 6.8 3.7 11.2-.5 14.2-7.6l.3-.6c1.2-.3 4.1.6 5.1 1.2s2.4 1 3.5.6c1-.3 1.7-.9 2.2-2 .3-.6.4-1.3.1-2-.8-2.3-4.3-4-4.5-4.1-8.9-3.8-17.4.4-21.5 5.9-1.4 1.8-1.9 3.6-1.6 5.2.3 1.5 1.2 2.5 1.7 3-.3 1.1-.6 2.3-.6 3.6h-3.4c.2-5 1.7-10.4 3.3-15.1.2 0 .5.1.7.1 5.6 0 8.9-9.5 9.1-9.9.1-.3 2-6.3-.5-15.1-.8-2.9-2-5.1-3.5-6.6-2.3-2.3-6.1-2.4-8.4-.2-1.5 1.4-2 3.4-1.4 5.8 1.6 6.2 2.5 6.5 1.5 10.6-1 4.4-2.4 13.9 1.8 15.2-1.6 4.7-3.1 10.2-3.3 15.2h-1.3c0-12 0-13.3-.4-15.2.4-.2.6-.4.7-.5 1.3-1.3 2.2-6.8.1-10.5-1.8-3.2-5.8-4.3-12.2-3.4-5 .7-7.7 3.3-8.5 5.3-.3.6-2.3 5.3.7 7.7 2.7 2.1 6 1.3 7.7-1.1.5-.6 1.1-1.4 1.7-2.1 1.9 2.5 4.7 5.2 7.8 5.2.5 0 1-.1 1.4-.2.2 1 .3 2 .3 3.1v11.8h-12.5c-.6 0-1.1.5-1.1 1.1v4.8c0 .6.5 1.2 1.1 1.2h1l4.5 20.1c.1.6.5 1.2 1 1.6H77.1c-.2 0-.4.2-.4.3v9.2c0 .2.2.3.4.3h3.5v50.4c0 .2.2.3.3.3h2.6v4.1c0 .2.2.4.3.4h7.1c.2 0 .4-.2.4-.4v-4.1h10.9v4.1c0 .2.1.4.3.4h7.1c.2 0 .3-.2.3-.4v-4.1h68.3v4.1c0 .2.2.4.3.4h7.1c.2 0 .4-.2.4-.4v-4.1h13.4v4.1c0 .2.2.4.4.4h7.1c.2 0 .3-.2.3-.4v-4.1h4.9c.2 0 .4-.2.4-.3v-50.4h3.5c.2 0 .3-.2.3-.3v-9.2c-.1-.2-.3-.4-.5-.4zm-66.6-40.1c2.9-3.9 8-7 13.9-7 1.8 0 3.7.3 5.7 1h-.1c-.5.2-1.2.5-2 1-1.9 1.3-3.1 3.3-3.9 5.3-2.8 6.8-6.9 10.8-13.3 7.2 2.2-6.7 8.7-9.6 9-9.8.2-.1.3-.3.2-.5-.1-.2-.3-.3-.5-.2-.1 0-6.8 3.1-9.3 10 .1 0-3-2.5.3-7zm-1.7-4.5c-3.7-1.2-2.2-10.7-1.3-14.4 1-4.4.1-4.9-1.6-11-1.5-5.8 5.1-8.3 8.6-4.9 1.4 1.4 2.6 3.5 3.4 6.3 2.5 8.5.5 14.6.5 14.7 0 .1-3.5 10-8.9 9.4.8-2.1 1.5-4 2.1-5.6 4.5-11.4 0-20.7 0-20.8l-.6.3c0 .1 4.3 9.2 0 20.3-.6 1.6-1.4 3.5-2.2 5.7zm-7.6.4c-1.5-.1-4-1.1-7-5 0 0-.4-.6-.5-.6-3-3.7-6.4-4.5-9.1-3.8 0-.1.1-.1.1-.2 1.1-1.6 3.5-3.3 7.5-3.9 6.1-.9 9.9.1 11.5 3.1 2 3.6 1.1 8.7.1 9.6-.1.1-.2.2-.4.3-1.7-7.3-7.4-10.4-7.5-10.5-.2-.1-.4 0-.5.2-.1.2 0 .4.1.5.1 0 5.6 3.1 7.2 10.1-.3.2-.8.3-1.5.2zM129 336.4v-4.8c0-.3.2-.4.4-.4h32.4c.3 0 .5.2.5.4v4.8c0 .3-.2.5-.5.5h-32.4c-.2-.1-.4-.3-.4-.5zm2.1 1.1h29l-4.4 19.9c-.2 1-1.1 1.7-2.2 1.7h-15.9c-1 0-1.9-.7-2.2-1.7l-4.3-19.9zm-54 22.4H110v8.5H77.1v-8.5zm3.9 9.2h30.9v50H81v-50zm2.9 50.7h2.9v3.8h-2.9v-3.8zm6.4 3.8h-2.8v-3.8h2.8v3.8zm12.3-3.8h2.9v3.8h-2.9v-3.8zm6.4 3.8h-2.8v-3.8h2.8v3.8zm69.8-3.8h2.9v3.8h-2.9v-3.8zm6.4 3.8h-2.8v-3.8h2.8v3.8zm14.8-3.8h2.9v3.8H200v-3.8zm6.4 3.8h-2.8v-3.8h2.8v3.8zm5.2-4.5h-99.1v-50h99.1v50zm3.9-50.7H110.7v-8.5h104.8v8.5z" class="color3c4150 svgShape"/><path fill="#c94c16" d="M116.4 413.7h91.5c.2 0 .4-.2.4-.3V375c0-.2-.2-.3-.4-.3h-91.5c-.2 0-.3.2-.3.3v38.4c-.1.1.1.3.3.3zm.3-38.4h31.2l3.9 6.2c.1.1.2.2.3.2h23.1c.1 0 .2-.1.3-.2l3.9-6.2h28V413h-90.8v-37.7z" class="color3c4150 svgShape"/></svg>