<svg xmlns="http://www.w3.org/2000/svg" id="CloudSyncing" viewBox="0 0 64.15 64.23">
  <g id="ICONS" fill="#000000" class="color000000 svgShape">
    <g fill="#000000" class="color000000 svgShape">
      <g fill="#000000" class="color000000 svgShape">
        <g fill="#000000" class="color000000 svgShape">
          <g fill="#000000" class="color000000 svgShape">
            <path fill="#ffffff" d="m63.85,23.99c0,5.5-4.46,9.96-9.99,9.96H10.42C4.91,33.95.45,29.49.45,23.99s4.46-9.97,9.97-9.97h.04c-.03-.31-.04-.63-.04-.95C10.42,6.08,16.09.41,23.07.41c5.54,0,10.25,3.55,11.96,8.5,1.82-1.92,4.4-3.13,7.25-3.13,4.98,0,9.09,3.63,9.83,8.39.56-.1,1.15-.15,1.74-.15,5.53,0,9.99,4.46,9.99,9.97Z" class="colorffffff svgShape"></path>
            <path fill="#c94c16" d="m59.21,15.32c1.48.91,2.5,2.08,3.19,3.17.69,1.09,1.05,2.12,1.24,2.96.11.41.16.79.19,1.11.05.32.06.58.05.8,0,.43,0,.64-.03.64-.08,0-.02-.86-.45-2.48-.22-.8-.6-1.79-1.29-2.83-.69-1.04-1.69-2.14-3.12-2.99-1.72-1.07-3.91-1.61-6.11-1.33l-.49.05-.34.03s-.14.05-.14-.02l-.03-.16c-.11-.52-.13-.69-.21-.99-.15-.54-.35-1.08-.59-1.6-.49-1.04-1.18-2.01-2.04-2.84-1.71-1.66-4.13-2.7-6.68-2.7-1.27,0-2.56.25-3.76.76-.6.25-1.18.57-1.72.95-.27.19-.54.39-.79.61-.07.05-.13.11-.19.16l-.24.22-.67.66-.08.08s-.03-.06-.05-.09l-.09-.22-.17-.44-.26-.66-.45-.92c-.34-.59-.71-1.18-1.14-1.72-.86-1.09-1.91-2.04-3.1-2.8-2.39-1.53-5.39-2.18-8.31-1.75-2.92.41-5.74,1.95-7.68,4.33-.97,1.18-1.73,2.56-2.2,4.04-.11.37-.2.75-.3,1.13-.08.38-.12.77-.19,1.16-.06.39-.05.78-.08,1.18-.02.2,0,.39,0,.59l.05,1.07c-.27,0-.55,0-.82.02-.14,0-.29.01-.44.02-.26,0-.53.06-.79.1-.27.03-.54.09-.81.17-.27.07-.55.14-.82.25-1.09.38-2.16.99-3.08,1.8-1.31,1.13-2.27,2.61-2.8,4.22-.52,1.61-.6,3.36-.25,4.99.7,3.29,3.25,6.02,6.34,7.01,1.54.54,3.17.48,4.85.48,1.66,0,3.31,0,4.93.01,3.25.01,6.43.02,9.53.03,6.19.03,12.06.05,17.51.08,2.73.02,5.35.03,7.87.04,1.27,0,2.48.07,3.63-.17,1.15-.23,2.23-.66,3.18-1.24,1.43-.85,2.44-1.95,3.12-2.99.7-1.04,1.08-2.02,1.3-2.83.43-1.62.37-2.49.45-2.48.02,0,.03.21.03.64,0,.21,0,.48-.05.8-.03.32-.08.69-.19,1.11-.19.83-.55,1.87-1.24,2.96-.69,1.09-1.71,2.25-3.19,3.16-.99.62-2.11,1.08-3.31,1.33-1.21.27-2.48.2-3.72.22-2.51.01-5.14.03-7.87.04-5.46.02-11.32.05-17.51.08-3.1.01-6.28.02-9.53.03-1.63,0-3.27,0-4.93.01-.84-.01-1.64.04-2.53-.03-.88-.03-1.74-.22-2.59-.48-3.38-1.07-6.18-4.03-6.96-7.64-.39-1.79-.3-3.7.26-5.47.58-1.77,1.64-3.39,3.07-4.63,1.01-.88,2.18-1.55,3.38-1.97.29-.12.6-.2.9-.27.3-.08.59-.15.89-.18.3-.04.58-.1.87-.11l.37-.02h0s0-.15,0-.15c-.01-.21-.02-.43,0-.64.03-.42.02-.85.08-1.26.07-.42.11-.83.21-1.24.11-.41.2-.81.32-1.21.51-1.59,1.32-3.07,2.37-4.34C15.05,2.2,18.08.55,21.21.13c3.12-.45,6.33.27,8.86,1.91,1.27.82,2.38,1.84,3.28,3,.46.58.84,1.2,1.2,1.83.17.32.32.65.47.98l.12.32s.02.09.04.08l.07-.07.15-.13c.07-.06.13-.12.2-.18.27-.23.56-.45.85-.64.59-.4,1.21-.73,1.86-1,1.29-.53,2.68-.79,4.03-.77,2.72.02,5.29,1.17,7.09,2.95.9.89,1.62,1.92,2.13,3.03.25.56.45,1.12.6,1.7.07.26.14.66.15.71.04.11.15.02.5.02,2.32-.27,4.6.33,6.39,1.47Z" class="color231f20 svgShape"></path>
          </g>
          <g fill="#000000" class="color000000 svgShape">
            <path fill="#ffffff" d="m14.21,10.78c1.04-4.04,4.69-6.87,8.86-6.87" class="colorffffff svgShape"></path>
            <path fill="#c94c16" d="m22.32,3.73c1.01.05.98.3.03.43-1.27.22-3.04.8-4.61,2.04-1.59,1.21-2.59,2.78-3.12,3.95-.36.89-.61.85-.41-.14.32-1.3,1.2-3.19,2.96-4.54,1.75-1.38,3.8-1.76,5.14-1.74Z" class="color231f20 svgShape"></path>
          </g>
        </g>
        <g fill="#000000" class="color000000 svgShape">
          <g fill="#000000" class="color000000 svgShape">
            <rect width="31.39" height="48.56" x="16.45" y="15.22" fill="#ffffff" rx="3.87" ry="3.87" class="colorffffff svgShape"></rect>
            <path fill="#c94c16" d="m40.7,15c.78,0,1.51.01,2.19.02.67.02,1.32-.03,1.93.11,1.2.28,2,1.03,2.43,1.69.44.68.56,1.29.6,1.68.04.39,0,.59-.01.59-.03,0-.03-.2-.11-.57-.08-.37-.24-.94-.68-1.56-.44-.6-1.2-1.26-2.31-1.49-.54-.12-1.17-.06-1.86-.06-.68,0-1.41.01-2.19.02-4.2.03-8.84.06-13.86.09-1.26,0-2.53.01-3.83.02-.65,0-1.31,0-1.97.01-.68,0-1.29-.02-1.86.21-1.17.39-2.09,1.46-2.3,2.7-.1.59-.04,1.33-.05,2.02,0,.7,0,1.41,0,2.12.02,11.4.05,24.02.08,37.29-.02,1.48,1.03,2.87,2.43,3.27.35.11.7.14,1.08.15h1.22c.81,0,1.62,0,2.43,0,3.23,0,6.41.01,9.53.02,3.12,0,6.18.02,9.17.02h1.12c.35,0,.67-.02.99-.12.64-.17,1.23-.53,1.66-1.01.45-.48.74-1.09.85-1.73.1-.61.04-1.38.06-2.08.06-11.4.12-21.58.17-29.98.09-12.47.34-12.47.43,0,.05,8.4.1,18.58.17,29.98-.02.72.06,1.39-.06,2.21-.13.78-.49,1.54-1.03,2.13-.53.6-1.25,1.05-2.04,1.26-.39.12-.81.15-1.21.16h-1.12c-2.99.01-6.05.02-9.17.03-3.12,0-6.3.01-9.53.02-.81,0-1.62,0-2.43,0h-1.22c-.43,0-.91-.05-1.34-.18-1.78-.51-3.1-2.27-3.08-4.15.03-13.27.05-25.89.08-37.29,0-.71,0-1.42,0-2.12.02-.71-.04-1.38.08-2.15.27-1.5,1.39-2.77,2.79-3.22.69-.26,1.46-.23,2.09-.22.66,0,1.32,0,1.97.01,1.3,0,2.58.01,3.83.02,5.02.03,9.66.06,13.86.09Z" class="color231f20 svgShape"></path>
          </g>
          <g fill="#000000" class="color000000 svgShape">
            <rect width="25.26" height="36.38" x="19.51" y="20.54" fill="#ffffff" rx="1.45" ry="1.45" class="colorffffff svgShape"></rect>
            <path fill="#c94c16" d="m38.24,56.7c1.23.02,2.3.03,3.22.04.46,0,.88.02,1.27.02.39,0,.73.05.99-.03.55-.16.82-.57.92-.84.11-.28.1-.43.13-.43.01,0,.06.16-.01.47-.07.3-.33.8-.97,1.03-.33.11-.69.08-1.07.1-.38,0-.81.02-1.27.02-.92.01-2,.02-3.22.04-3.31.03-6.97.06-10.93.09-1.98.01-4.03.03-6.15.04-.56.06-1.33-.21-1.68-.78-.19-.28-.3-.61-.32-.95v-.83c-.01-1.09-.02-2.2-.03-3.32-.02-8.99-.05-18.93-.08-29.4-.01-.87.64-1.69,1.49-1.86.47-.08.74-.03,1.07-.05h.97c1.29,0,2.57,0,3.85,0,2.54,0,5.05.01,7.51.02,2.46,0,4.87.02,7.23.02.59,0,1.18,0,1.76,0h.45c.19,0,.37.05.55.1.35.12.66.35.88.64.22.29.35.65.36,1.02v.88c0,.57,0,1.13,0,1.7-.06,8.99-.12,17.01-.17,23.63-.09,9.83-.34,9.83-.43,0-.05-6.62-.1-14.65-.17-23.63,0-.56,0-1.13,0-1.7v-.84c-.02-.21-.09-.41-.22-.58-.13-.17-.3-.29-.5-.36-.1-.03-.2-.05-.31-.05h-.43c-.58,0-1.17,0-1.76,0-2.36,0-4.77.02-7.23.02-2.46,0-4.96.01-7.51.02-1.27,0-2.55,0-3.85,0h-.97c-.31,0-.7-.02-.87.03-.44.09-.78.51-.77.97-.03,10.46-.05,20.41-.08,29.4,0,1.12-.01,2.23-.02,3.32v.8c0,.21.07.4.18.57.25.35.6.52,1.1.49,2.12.01,4.17.03,6.15.04,3.96.03,7.62.06,10.93.09Z" class="color231f20 svgShape"></path>
          </g>
          <g fill="#000000" class="color000000 svgShape">
            <path fill="#ffffff" d="m33.74,60.35c0,.89-.71,1.6-1.59,1.6s-1.6-.71-1.6-1.6.72-1.59,1.6-1.59,1.59.71,1.59,1.59Z" class="colorffffff svgShape"></path>
            <path fill="#c94c16" d="m33.83,59.67c.12.46-.01.68-.08.68-.09,0-.15-.21-.32-.52-.22-.42-.75-.78-1.33-.69-.57.05-1.1.58-1.09,1.21,0,.63.52,1.16,1.09,1.21.58.08,1.11-.28,1.33-.7.17-.31.22-.52.31-.52.07,0,.21.22.08.68-.15.59-.8,1.3-1.76,1.3-.93.06-2-.81-1.98-1.97-.02-1.17,1.04-2.03,1.97-1.98.96,0,1.61.7,1.77,1.29Z" class="color231f20 svgShape"></path>
          </g>
        </g>
        <g fill="#000000" class="color000000 svgShape">
          <path fill="#ffffff" d="m41.71,36.54l-.97.29c.12.62.19,1.26.19,1.9,0,5.2-4.23,9.43-9.43,9.43s-9.43-4.23-9.43-9.43,4.23-9.43,9.43-9.43c1.16,0,2.31.21,3.39.63.59.23.88.9.66,1.49-.23.59-.9.89-1.49.66-.82-.31-1.69-.47-2.57-.47-3.93,0-7.13,3.2-7.13,7.13s3.2,7.13,7.13,7.13,7.13-3.19,7.13-7.13c0-.41-.04-.83-.11-1.23l-.89.27c-.51.15-1-.3-.87-.81l.96-4.2c.11-.52.76-.71,1.15-.34l3.12,2.96c.38.37.23,1.01-.28,1.16Z" class="colorffffff svgShape"></path>
          <path fill="#c94c16" d="m38.18,32.03c.34-.1.73.07.9.28.18.18.35.35.52.51.34.33.65.64.93.92.57.57,1.05,1.05,1.43,1.43.2.17.37.46.34.68,0,.23-.11.4-.21.51-.22.21-.38.19-.38.18-.01-.03.14-.06.28-.26.15-.18.24-.63-.2-.93-.4-.36-.9-.81-1.5-1.35-.3-.27-.62-.57-.96-.89-.17-.16-.35-.33-.54-.5-.16-.16-.32-.21-.51-.16-.28.08-.34.28-.41.69-.08.36-.16.73-.24,1.1-.16.75-.33,1.51-.5,2.29-.04.18-.1.43-.11.55,0,.12.04.24.14.33.23.19.37.1.99-.09.3-.06.77-.38.67.15l.08.86c.06.44.02.89-.02,1.34-.19,1.8-1.12,3.59-2.62,4.83-1.48,1.26-3.55,1.93-5.62,1.69-2.06-.21-4.07-1.37-5.33-3.16-1.27-1.78-1.7-4.2-1.07-6.4.62-2.2,2.32-4.13,4.55-4.97,1.11-.43,2.32-.59,3.52-.47.6.06,1.19.2,1.76.4.17.06.24.09.32.1.08.01.17,0,.25,0,.17-.04.32-.14.42-.29.2-.27.13-.72-.14-.93-.08-.06-.12-.08-.24-.13l-.38-.13c-.26-.08-.52-.16-.78-.22-1.05-.25-2.13-.27-3.18-.14-2.11.25-4.06,1.32-5.44,2.83-1.41,1.5-2.23,3.47-2.36,5.43-.16,1.97.37,3.93,1.38,5.52.51.79,1.13,1.5,1.83,2.1.71.58,1.5,1.05,2.32,1.41.83.35,1.69.55,2.55.66.86.07,1.72.07,2.55-.09,3.34-.57,5.9-2.98,6.93-5.6.47-1.18.66-2.27.69-3.16.04-.44.01-.84-.01-1.19-.02-.17-.03-.34-.05-.48-.03-.18-.05-.35-.07-.5,1.51-.39,1.28-.25.22.14.2.79.56,2.87-.38,5.35-1.01,2.77-3.66,5.37-7.22,6.04-.88.18-1.8.2-2.72.14-.92-.11-1.85-.31-2.75-.67-.89-.37-1.74-.87-2.52-1.49-.76-.64-1.44-1.39-2.01-2.24-1.12-1.71-1.72-3.84-1.57-5.99.13-2.15,1.01-4.31,2.54-5.97,1.51-1.66,3.64-2.85,5.97-3.13,1.16-.15,2.35-.12,3.51.15.29.07.57.14.86.24l.42.15c.14.05.36.15.5.28.64.5.8,1.49.32,2.16-.23.33-.58.57-.97.66-.19.05-.4.05-.6.02-.21-.03-.39-.11-.49-.15-.5-.18-1.02-.3-1.55-.35-1.05-.11-2.12.04-3.09.41-1.96.73-3.48,2.43-4.03,4.37-.57,1.94-.21,4.09.91,5.68,1.11,1.61,2.89,2.66,4.74,2.88,1.85.23,3.73-.34,5.09-1.47,1.38-1.11,2.25-2.73,2.45-4.38.05-.41.09-.82.04-1.23l-.03-.4c.03-.13-.08-.05-.16-.04l-.21.06c-.1.03-.18.06-.34.09-.29.04-.59-.06-.79-.25-.21-.19-.32-.48-.3-.76.04-.28.09-.42.14-.63.18-.78.37-1.54.54-2.28.09-.37.18-.74.26-1.1.05-.18.06-.35.18-.59.12-.21.33-.36.56-.42Z" class="color231f20 svgShape"></path>
        </g>
      </g>
      <path fill="#c94c16" d="M32.35 17.76c.47.09.47.34 0 .43-.63.12-1.53.25-2.53.25s-1.9-.13-2.53-.25c-.47-.09-.47-.34 0-.43.63-.12 1.53-.25 2.53-.25s1.9.13 2.53.25ZM36.21 17.76c.14.09.14.34 0 .43-.19.12-.47.25-.78.25s-.58-.13-.78-.25c-.14-.09-.14-.34 0-.43.19-.12.47-.25.78-.25s.58.13.78.25Z" class="color231f20 svgShape"></path>
    </g>
  </g>
</svg>
