<svg xmlns="http://www.w3.org/2000/svg" enable-background="new 0 0 1500 1500" version="1.0" viewBox="0 0 1500 1500"><switch><g class="color000000 svgShape"><path fill="#e2cec6" fill-rule="evenodd" d="M477.3,1181.3c140.6,0,255.3-14.8,255.3-33s-114.7-32.9-255.3-32.9c-140.6,0-255.3,14.8-255.3,32.9
				S336.6,1181.3,477.3,1181.3z" class="colord1c6e2 svgShape" clip-rule="evenodd"/><path fill="#e2cec6" fill-rule="evenodd" d="M1045.4,1158.2c79.1,0,143.7-8.3,143.7-18.5c0-10.2-64.5-18.5-143.7-18.5c-79.1,0-143.7,8.3-143.7,18.5
				C901.7,1149.8,966.2,1158.2,1045.4,1158.2z" class="colord1c6e2 svgShape" clip-rule="evenodd"/><path fill="#e2cec6" fill-rule="evenodd" d="M1205,1038.7c39.3,0,71.3-5.9,71.3-13.1s-32-13.1-71.3-13.1c-39.2,0-71.3,5.9-71.3,13.1
				S1165.7,1038.7,1205,1038.7z" class="colord1c6e2 svgShape" clip-rule="evenodd"/><path fill="#f1e8e4" fill-rule="evenodd" d="M607.6,387.7c83.3,16.3,151.6,120.6,234.3,129.9c156.4,17.5,322.8-100.7,402.4,14.3
				c139.7,201.8-55.3,385.2-322.9,505.4c-267.6,120.2-573.5,110.8-633.2-126.2c-46.8-186-50.4-330.5,79.5-442.2
				C425.3,419.3,487.8,364.3,607.6,387.7z" class="colorede4f1 svgShape" clip-rule="evenodd"/><path fill="#e2cec6" fill-rule="evenodd" d="M1126.5,549.9l-10.6,6.2c-3.6,2.1-4.8,6.7-2.7,10.3l2.3,4c2.8,4.7,1.6,6.9,0.7,7.6c-2.4,2.1-4.5,4.4-6.8,6.7
				c-0.6,0.7-2.7,3-8.1-0.2l-3.7-2.2c-3.6-2.1-8.2-0.8-10.3,2.7l-6.2,10.6c-2.1,3.6-0.9,8.2,2.7,10.3l3.7,2.1c5,2.9,4.9,4.5,4.3,6.6
				c-0.9,2.9-1.8,5.9-2.5,8.9c-0.6,2.7-0.3,4.7-7.2,4.7h-4.2c-4.1,0-7.5,3.4-7.5,7.5v12.3c0,4.2,3.4,7.5,7.5,7.5h4.2
				c6.9,0,6.6,1.9,7.2,4.7c0.7,3,1.6,6,2.5,8.9c0.6,2.1,0.8,3.6-4.3,6.6l-3.7,2.1c-3.6,2.1-4.8,6.7-2.7,10.3l6.2,10.6
				c2.1,3.6,6.7,4.8,10.3,2.7l3.7-2.2c5.4-3.1,7.4-0.8,8.1-0.2c2.2,2.3,4.4,4.6,6.8,6.7c0.9,0.8,2.1,2.9-0.7,7.7l-2.3,4
				c-2.1,3.6-0.8,8.2,2.7,10.3l10.6,6.2c3.6,2.1,8.2,0.9,10.3-2.7l2.3-4c2.8-4.8,5.6-4.6,6.7-4.2c3.4,1.1,6.5,1.8,10,2.7
				c1.3,0.3,3.5,1.3,3.5,7v4.3c0,4.1,3.4,7.5,7.5,7.5h12.3c4.1,0,7.5-3.4,7.5-7.5v-4.3c0-5.7,2.2-6.7,3.5-7c3.5-0.9,6.6-1.6,10-2.7
				c1.2-0.4,3.9-0.6,6.7,4.2l2.3,4c2.1,3.6,6.7,4.8,10.3,2.7l10.6-6.2c3.6-2.1,4.8-6.7,2.7-10.3l-2.3-4c-2.8-4.7-1.6-6.9-0.7-7.7
				c2.4-2.1,4.6-4.4,6.8-6.7c0.7-0.7,2.7-3,8.1,0.2l3.7,2.2c3.6,2.1,8.2,0.9,10.3-2.7l6.2-10.6c2.1-3.6,0.8-8.2-2.7-10.3l-3.7-2.1
				c-5-2.9-4.9-4.5-4.3-6.6c0.9-3,1.8-5.9,2.5-8.9c0.6-2.7,0.3-4.7,7.2-4.7h4.2c4.2,0,7.5-3.4,7.5-7.5v-12.3c0-4.1-3.4-7.5-7.5-7.5
				h-4.2c-6.9,0-6.6-1.9-7.2-4.7c-0.6-3-1.6-6-2.5-8.9c-0.6-2.2-0.8-3.7,4.3-6.6l3.7-2.1c3.6-2.1,4.8-6.7,2.7-10.3l-6.2-10.6
				c-2.1-3.6-6.7-4.8-10.3-2.7l-3.7,2.2c-5.4,3.1-7.4,0.8-8.1,0.2c-2.2-2.3-4.4-4.6-6.8-6.7c-0.8-0.8-2.1-2.9,0.7-7.6l2.3-4
				c2.1-3.6,0.9-8.2-2.7-10.3l-10.6-6.2c-3.6-2.1-8.2-0.9-10.3,2.7l-2.3,4c-2.8,4.8-5.6,4.6-6.7,4.3c-3.4-1.1-6.5-1.8-10-2.7
				c-1.3-0.3-3.5-1.3-3.5-7v-4.3c0-4.2-3.4-7.5-7.5-7.5h-12.3c-4.2,0-7.5,3.4-7.5,7.5v4.3c0,5.7-2.2,6.7-3.5,7
				c-3.5,0.9-6.6,1.6-10,2.7c-1.2,0.4-3.9,0.6-6.7-4.3l-2.3-4C1134.7,549,1130.1,547.8,1126.5,549.9L1126.5,549.9z M1172.9,581.8
				c33.2,0,60.2,26.9,60.2,60.2c0,33.2-26.9,60.2-60.2,60.2s-60.2-26.9-60.2-60.2C1112.8,608.7,1139.7,581.8,1172.9,581.8z" class="colord1c6e2 svgShape" clip-rule="evenodd"/><path fill="#f1e8e4" fill-rule="evenodd" d="M1087.3,456.3c-2.8,0.7-5.6-0.9-6.4-3.7c-0.7-2.8,0.9-5.6,3.7-6.4c56.9-15.1,108.5-9.1,154.8,18
				c2.5,1.5,3.3,4.6,1.9,7.1s-4.6,3.3-7.1,1.9C1190.4,447.7,1141.5,442,1087.3,456.3L1087.3,456.3z M1120.9,469.9
				c14.7-0.7,28.6-0.5,41.7,0.9c13,1.4,25.2,4,36.7,8.2c2.7,1,5.7-0.4,6.7-3.1c1-2.7-0.4-5.7-3.1-6.7c-12.3-4.5-25.4-7.3-39.2-8.7
				c-13.7-1.4-28.1-1.6-43.3-0.9c-2.8,0.1-5.1,2.6-4.9,5.4C1115.6,467.9,1118,470.1,1120.9,469.9z" class="colorede4f1 svgShape" clip-rule="evenodd"/><path fill="#f1e8e4" fill-rule="evenodd" d="M253.6,928.5c-0.5-2.8-3.2-4.8-6-4.3c-2.8,0.5-4.7,3.2-4.3,6c10,58,37,102.4,80.9,133.2
				c2.3,1.6,5.6,1.1,7.2-1.3c1.6-2.4,1.1-5.6-1.3-7.2C288.7,1025.8,263.1,983.7,253.6,928.5L253.6,928.5z M279.9,953.3
				c5.5,13.6,11.4,26.2,18.2,37.5c6.7,11.2,14.1,21.3,22.7,30c2,2.1,2,5.3,0,7.3c-2,2-5.3,2-7.3,0c-9.2-9.3-17.2-20-24.3-32
				c-7-11.8-13.2-24.9-18.9-39c-1.1-2.7,0.2-5.7,2.9-6.8C275.9,949.4,278.9,950.7,279.9,953.3z" class="colorede4f1 svgShape" clip-rule="evenodd"/><path fill="#e2cec6" fill-rule="evenodd" d="M444.5,356.5l-13.8,8c-4.6,2.7-6.2,8.7-3.5,13.3l3,5.2c3.6,6.2,2,8.9,0.9,9.9c-3.1,2.7-5.9,5.7-8.8,8.7
				c-0.8,0.9-3.5,3.9-10.5-0.2l-4.8-2.8c-4.6-2.7-10.6-1.1-13.3,3.5l-8,13.7c-2.7,4.6-1.1,10.6,3.5,13.3l4.7,2.7
				c6.5,3.8,6.4,5.8,5.6,8.5c-1.1,3.8-2.4,7.6-3.2,11.6c-0.7,3.5-0.4,6-9.3,6h-5.5c-5.4,0-9.8,4.4-9.8,9.8v15.9
				c0,5.4,4.4,9.7,9.8,9.7h5.5c8.9,0,8.6,2.5,9.3,6c0.8,3.9,2.1,7.8,3.2,11.6c0.8,2.8,1,4.7-5.6,8.5l-4.7,2.8
				c-4.6,2.7-6.2,8.7-3.5,13.3l8,13.7c2.7,4.6,8.7,6.2,13.3,3.5l4.8-2.8c7-4.1,9.6-1.1,10.5-0.2c2.8,3,5.7,5.9,8.8,8.7
				c1.1,1,2.7,3.8-0.9,9.9l-3,5.2c-2.7,4.7-1.1,10.6,3.5,13.3l13.8,8c4.6,2.7,10.6,1.1,13.3-3.5l3-5.2c3.6-6.2,7.2-6,8.7-5.5
				c4.4,1.4,8.4,2.3,13,3.5c1.7,0.4,4.5,1.6,4.5,9.1v5.6c0,5.4,4.4,9.7,9.8,9.7h15.9c5.4,0,9.8-4.4,9.8-9.7v-5.6
				c0-7.4,2.8-8.6,4.5-9.1c4.5-1.2,8.6-2.1,13-3.5c1.5-0.5,5.1-0.7,8.7,5.5l3,5.2c2.7,4.7,8.7,6.2,13.3,3.5l13.8-8
				c4.6-2.7,6.2-8.7,3.5-13.3l-3-5.2c-3.6-6.2-2-8.9-0.9-9.9c3.1-2.7,5.9-5.7,8.8-8.7c0.8-0.9,3.5-3.8,10.5,0.2l4.8,2.8
				c4.6,2.7,10.6,1.1,13.3-3.5l8-13.7c2.7-4.6,1.1-10.6-3.5-13.3l-4.7-2.8c-6.5-3.8-6.4-5.8-5.6-8.5c1.1-3.8,2.4-7.6,3.2-11.6
				c0.7-3.5,0.4-6,9.3-6h5.5c5.4,0,9.7-4.4,9.7-9.7v-15.9c0-5.4-4.4-9.8-9.7-9.8h-5.5c-8.9,0-8.6-2.5-9.3-6
				c-0.8-3.9-2.1-7.8-3.2-11.6c-0.8-2.8-1-4.7,5.6-8.5l4.7-2.7c4.6-2.7,6.2-8.7,3.5-13.3l-8-13.7c-2.7-4.7-8.7-6.2-13.3-3.5
				l-4.8,2.8c-7,4.1-9.6,1.1-10.5,0.2c-2.8-3-5.7-5.9-8.8-8.7c-1.1-1-2.7-3.8,0.9-9.9l3-5.2c2.7-4.6,1.1-10.6-3.5-13.3l-13.8-8
				c-4.6-2.7-10.6-1.1-13.3,3.5l-3,5.2c-3.6,6.3-7.2,6-8.7,5.5c-4.4-1.4-8.4-2.3-13-3.5c-1.6-0.4-4.5-1.6-4.5-9.1v-5.6
				c0-5.4-4.4-9.8-9.8-9.8h-15.9c-5.4,0-9.8,4.4-9.8,9.8v5.6c0,7.4-2.8,8.7-4.5,9.1c-4.5,1.2-8.6,2.1-13,3.5
				c-1.5,0.5-5.1,0.7-8.7-5.5l-3-5.2C455.1,355.4,449.2,353.8,444.5,356.5L444.5,356.5z M504.7,413.4c34.5,0,62.4,28,62.4,62.4
				c0,34.5-27.9,62.4-62.4,62.4c-34.5,0-62.4-28-62.4-62.4C442.3,441.4,470.3,413.4,504.7,413.4L504.7,413.4z M504.7,397.8
				c43.1,0,78,34.9,78,78c0,43.1-34.9,78-78,78c-43.1,0-78-34.9-78-78C426.7,432.8,461.7,397.8,504.7,397.8z" class="colord1c6e2 svgShape" clip-rule="evenodd"/><path fill="#522c1b" fill-rule="evenodd" d="M1190.3,901.8c0.2-0.8-0.3-1.7-1.1-1.9c-0.8-0.2-1.7,0.3-1.9,1.2c-2.6,11-2.7,22.4,0.1,34.1
				c2.8,11.7,8.5,23.9,17.8,36.5c0.5,0.7,1.5,0.8,2.2,0.3c0.7-0.5,0.8-1.5,0.3-2.2c-9-12.3-14.6-24.1-17.3-35.4
				C1187.7,923.3,1187.9,912.4,1190.3,901.8z" class="color1b2452 svgShape" clip-rule="evenodd"/><path fill="#d9c0b5" fill-rule="evenodd" d="M1188.5,903.6c13.9-31.7,13.1-61.6-2.4-89.9C1221.5,843.1,1222.3,873,1188.5,903.6z" class="colorc2b5d9 svgShape" clip-rule="evenodd"/><path fill="#c09988" fill-rule="evenodd" d="M1186.1,813.7c15.6,28.2,16.4,58.2,2.4,89.9C1156.5,879,1196.5,852.3,1186.1,813.7z" class="color9588c0 svgShape" clip-rule="evenodd"/><path fill="#522c1b" fill-rule="evenodd" d="M1207.3,942.9c0.1-0.8-0.6-1.6-1.4-1.7c-0.8-0.1-1.6,0.5-1.7,1.4c-0.3,3.7-0.4,9.1-0.1,15.3
				c0.3,5.3,0.8,11.2,1.7,17c0.1,0.8,0.9,1.4,1.8,1.3c0.8-0.1,1.4-0.9,1.3-1.8c-0.9-5.7-1.4-11.5-1.7-16.7
				C1206.8,951.7,1206.9,946.5,1207.3,942.9z" class="color1b2452 svgShape" clip-rule="evenodd"/><path fill="#c09988" fill-rule="evenodd" d="M1205.4,945.8c-14.7-26.8-4.1-52.1,31.9-76C1218.2,897.4,1207.6,922.7,1205.4,945.8z" class="color9588c0 svgShape" clip-rule="evenodd"/><path fill="#a26b53" fill-rule="evenodd" d="M1205.4,945.8c2.2-23.1,12.8-48.4,31.9-76C1226,907.4,1250.5,921.3,1205.4,945.8z" class="color5a53a2 svgShape" clip-rule="evenodd"/><path fill="#522c1b" fill-rule="evenodd" d="M1206.2,973.5c0,0.9,0.7,1.6,1.5,1.6c0.9,0,1.6-0.6,1.6-1.5c0.1-3.9,1-7.9,2.2-11.5
				c1.9-5.7,4.5-10.3,5.7-12.3c0.4-0.7,0.2-1.7-0.5-2.1c-0.7-0.4-1.7-0.2-2.1,0.5c-1.3,2.1-4,7-6,13
				C1207.3,964.9,1206.3,969.2,1206.2,973.5z" class="color1b2452 svgShape" clip-rule="evenodd"/><path fill="#c09988" fill-rule="evenodd" d="M1248.5,952.7c-9.3,21.4-29.2-4.6-36.3-0.3c2.1-4.8,5.1-8.3,8.5-10C1230.5,937.2,1238.6,955.1,1248.5,952.7z
				" class="color9588c0 svgShape" clip-rule="evenodd"/><path fill="#79503f" fill-rule="evenodd" d="M1160.1,967.3v27.9c0,17.6,14.4,32,32,32h25.3c17.6,0,32-14.4,32-32v-27.9H1160.1z" class="color3f4979 svgShape" clip-rule="evenodd"/><path fill="#522c1b" fill-rule="evenodd" d="M1169.2,1017.4c43.7,14,64.7-5.3,60.5-50.2h19.8v27.9c0,17.6-14.4,32-32,32h-25.3
				C1183.2,1027.2,1175,1023.4,1169.2,1017.4z" class="color1b2452 svgShape" clip-rule="evenodd"/><path fill="#703e28" fill-rule="evenodd" d="M639.2,317.8h305.4c25.2,0,45.8,20.6,45.8,45.7v661.9c0,25.2-20.6,45.7-45.8,45.7H639.2
				c-25.2,0-45.8-20.6-45.8-45.7V363.5C593.5,338.4,614,317.8,639.2,317.8z" class="color2b2870 svgShape" clip-rule="evenodd"/><path fill="#f4eeeb" fill-rule="evenodd" d="M639.2,324.3h305.4c21.6,0,39.2,17.6,39.2,39.2v661.9c0,21.6-17.7,39.2-39.2,39.2H639.2
				c-21.6,0-39.2-17.7-39.2-39.2V363.5C600,341.9,617.6,324.3,639.2,324.3z" class="colorf3ebf4 svgShape" clip-rule="evenodd"/><path fill="#e0ccc3" fill-rule="evenodd" d="M639.2,340.4h61.5c3,9.1,11.6,15.7,21.6,15.7h139c10.1,0,18.7-6.6,21.7-15.7h61.5
				c12.7,0,23.1,10.4,23.1,23.1v661.9c0,12.7-10.4,23.1-23.1,23.1H639.2c-12.7,0-23.1-10.4-23.1-23.1V363.5
				C616.1,350.8,626.5,340.4,639.2,340.4z" class="colord0c3e0 svgShape" clip-rule="evenodd"/><path fill="#d9c0b5" fill-rule="evenodd" d="M731,334.2h121.8c3.4,0,6.2,2.8,6.2,6.2l0,0c0,3.4-2.8,6.2-6.2,6.2H731c-3.4,0-6.2-2.8-6.2-6.2l0,0
				C724.8,337,727.6,334.2,731,334.2z" class="colorc2b5d9 svgShape" clip-rule="evenodd"/><path fill="#faaa88" fill-rule="evenodd" d="M1056,556.7c-4.7-11.7-7.4-25.4-12.2-30.1c-34-6.5-34.9,11.9-48.7,17.4c0.5,4.5,2.6,9.2,6.3,14.2
				c1.8,19.7,8.2,31.2,19.2,34.2c3,2.4,7.5,3.3,13.5,2.9c-0.2,2.6-0.5,5.1-0.9,7.5l0,0c4.6,21.7,26.3,25,39.2,2.2
				c0.4-0.7,0.8-1.5,1.2-2.3c0-0.2-0.1-0.4-0.1-0.6v0c-1.5-8.5-2.7-16-3.5-22.3c-0.5-4.1-0.9-7.8-1.1-11c9-12.7,9.8-22.1,2.3-28
				c-9.1-2.7-13.1,3.7-12.2,19.3C1056.4,559.5,1058.3,560.1,1056,556.7z" class="colorfab688 svgShape" clip-rule="evenodd"/><path fill="#663520" fill-rule="evenodd" d="M995.2,544.1c13.7-5.5,14.7-24,48.7-17.4c4.8,4.7,7.4,18.4,12.1,30.1c2.3,3.3,0.4,2.8,3,3.3
				c-1-15.6,3.1-22,12.2-19.3c7.5,5.9,6.7,15.3-2.3,28c0.2,3.2,0.6,6.9,1.1,11c26-32.2,14.2-69-5.9-78.6c4.5-0.2,9.3,0.8,14.4,3.1
				c-8-7.9-17.5-9.7-28.3-5.3c0.3-6.5-0.7-11.1-2.8-13.9c0.1,4.4-0.2,7.8-1.1,10.3c-8.2-5.5-22.4-5-35.9,2.5
				c-17.4,9.7-33.9,29.5-42,25.6C972.2,540.8,983.7,549.9,995.2,544.1z" class="color2c2066 svgShape" clip-rule="evenodd"/><path fill="#c09988" fill-rule="evenodd" d="M1113.7,663.8c3,4.9,6.3,9.8,9.9,14.9c4,5.7,8.4,11.6,13.1,17.7c4.8-11.4,19.8-22.8,32.9-19.2
				c-15.9-32.8-31.4-55.4-42.2-64.8c-11.8-5.8-29.7-9.2-53.8-10.1c0,0.2,0.1,0.4,0.1,0.6c-12.6,25.4-35.7,22.5-40.4,0.1
				c-16,1.6-34.8,7.7-45,14.4c-10,9.9-27.7,32.8-45.4,66.2c3.9,3.6,23.4,12.2,31.6,13.7c6-7.6,10-13.6,15-21.3
				c0.6,36.4,0.6,62.8-0.3,80.9c-0.6,12-1.6,26.8-3.2,32.1c24.6,33.9,102.3,34.8,137.5,8.1C1116.9,751.2,1113.3,706.6,1113.7,663.8z
				" class="color9588c0 svgShape" clip-rule="evenodd"/><path fill="#faaa88" fill-rule="evenodd" d="M1112.6,696.7c-15.8-3.3-27.4-4.9-47.9-12.1c-1.2-6.5-12.7-20.2-18-27.5c-10.5,1.5,0.3,14.6-0.2,17.2
				c-7.8-1.1-11.4-3.7-14.1-5.9c-11-4.1-15,17.6-5.4,26.1c5.5,4.9,20.5,9.7,27.9,9.7c25.8,12.2,41.1,19,60.1,25.4
				c2.4,0.8,4.6,1.5,6.9,2.2c31.6,9.8,53,10.8,64.2,3.2c2.5-16.7-11.2-46.8-16.3-57.6c-18.2-4.8-29.9,12.2-32.8,18.7
				c1.2,2.7,2.8,5.3,5,7.8c-5.9-1.9-12.7-3.5-20.4-5.1C1118.6,698,1115.7,697.4,1112.6,696.7z" class="colorfab688 svgShape" clip-rule="evenodd"/><path fill="#faaa88" fill-rule="evenodd" d="M961.9,693.1c4.4-3.6,24.3-16.6,29.9-22c-0.9-6.5,4.7-23.3,6.9-32.1c8.8-2.3,3.8,13.7,4.9,16
				c5.9-3.8,8.1-7.5,9.7-10.5c7.7-7.7,16.8,11.1,11.4,22.5c-3,6.5-13.7,16.3-19.6,18.9c-4.5,5.3-14.2,19.7-17.9,24
				c-26.2,42.7-63.9,52.5-65.7,29.3c0.8-11.8,12.8-35.8,24.1-53.7c2.9,1.8,7.4,4,12.2,6.1c-7.6,4.9-13.4,11.4-17.3,19.5
				C946.7,702.4,951.4,699.6,961.9,693.1z" class="colorfab688 svgShape" clip-rule="evenodd"/><path fill="#ed8457" fill-rule="evenodd" d="M1144.1,701.7c-2.1-3.2-4-6.3-5.6-9.3c-0.6,1.1-1.1,2.3-1.6,3.5c1.2,2.8,3,5.5,5.3,8.2
				c8.9,2.9,15.5,6.6,19.6,12.3C1159.7,709.8,1153.8,704.9,1144.1,701.7L1144.1,701.7z M957.6,691.4c-7.6,4.9-13.4,11.4-17.3,19.5
				c6.4-8.5,11.1-11.4,21.5-17.8C960.4,692.6,959,692,957.6,691.4z" class="colored7d57 svgShape" clip-rule="evenodd"/><path fill="#a16951" fill-rule="evenodd" d="M1121,698.5c0.3-7.6,1-14.4,2-20.6c-3.4-4.8-6.5-9.5-9.4-14.1c-0.1,11,0,22.1,0.4,33.3
				C1116.5,697.5,1118.8,698,1121,698.5L1121,698.5z M1128.4,793.6c-3.6-23.3-5.9-43.9-7-62c-1.8-0.6-3.6-1.1-5.4-1.8
				c1.7,22,4.2,44.4,7.5,67.1C1125.2,795.9,1126.8,794.7,1128.4,793.6z" class="color6251a1 svgShape" clip-rule="evenodd"/><path fill="#230f07" fill-rule="evenodd" d="M1013.1,644.4c7.7-7.7,16.8,11.1,11.4,22.5c-0.2,0.4-0.4,0.7-0.6,1.1c-3,5.3-10.2,12.3-15.8,16
				c-0.6,0.4-1.2,0.7-1.8,1.1l0.7,11.6c0.1,2.4,2.2,4.3,4.5,4.3l26,0h1.7c-5.1-1.8-9.9-4.1-12.5-6.5c-7.6-6.7-6.7-21.5-0.6-25.6
				c1.6-1.1,3.7-1.4,6.1-0.5c1.3,1,2.7,2.1,4.7,3.2c1.6,0.8,3.5,1.6,6,2.1l-0.6-9.6c-0.4-1.4-0.5-2.7-0.2-3.8l-0.1-2.2l-1.3-22
				c-0.1-2.4-2.2-4.3-4.5-4.3l-28.6,0c-2.4,0-4.2,1.9-4.1,4.3l1,18C1009.7,650.6,1011.7,647.2,1013.1,644.4z" class="color071023 svgShape" clip-rule="evenodd"/><path fill="#8d4c30" fill-rule="evenodd" d="M1036.9,1111.1c3.9-93.6,11.7-191.1,23-280.5c6.3,56.8,19.5,148.7,39.3,279.7c6,3.4,15.4,4,28,1.6
				c13.2-107.7,12.6-211.8-1.2-316.5l-2.4,1.7c-32.1,24.3-99.4,25.7-129.7,0.2c-9.6,96.6-3.8,201.3,17.6,314.2
				C1017.2,1113.5,1025.7,1113.4,1036.9,1111.1z" class="color38308d svgShape" clip-rule="evenodd"/><path fill="#230f07" fill-rule="evenodd" d="M1101.7,1135.5c11.7,0.3,14.2,2.9,23.8,5.6c13.7,3.8,22.8,0.8,19.7-5.9c-9.7-6.1-16.6-11.7-20.8-16.7
				c-3.7-2-11.7-1.1-13,5.6c-5.1,0.7-6.8-0.6-7.8-3.9C1102.2,1124,1101.5,1129.1,1101.7,1135.5L1101.7,1135.5z M1038.4,1137.1
				c-15.1,0.3-17.1,2.8-25,4.4c-19.6,5.6-32.6,2.7-28.5-4.7c11.9-6.1,20.5-11.7,25.6-16.7c4.6-2,9.3-0.1,14.3,5.6
				c6.3,0.7,10-0.6,11.3-3.9C1037.9,1125.6,1038.7,1130.7,1038.4,1137.1z" class="color071023 svgShape" clip-rule="evenodd"/><path fill="#faaa88" fill-rule="evenodd" d="M1013.7,1112c0.1,2.6-0.2,5-0.9,7.3c3.9-0.5,7.8,1.5,11.9,6.2c5.7,0.7,9.4-0.4,10.9-3.1
				c-0.9-3.5-1.5-7.1-1.7-10.8C1025.5,1113.2,1018.8,1113.3,1013.7,1112L1013.7,1112z M1103.7,1112.1c0.1,2.8,0.1,5.5-0.1,8
				c1,3.3,2.7,4.6,7.8,3.9c1.1-6,7.8-7.3,11.8-6c-0.1-1.9-0.2-3.7-0.1-5.5C1115.2,1113.6,1108.7,1113.5,1103.7,1112.1z" class="colorfab688 svgShape" clip-rule="evenodd"/><path fill="#ed8457" fill-rule="evenodd" d="M1053,583.4c-3.4,5.5-9.6,9.5-18.7,12c-0.2,2.6-0.5,5.1-0.9,7.5C1043.9,599.4,1050.4,592.9,1053,583.4z" class="colored7d57 svgShape" clip-rule="evenodd"/><path fill="#d9c0b5" fill-rule="evenodd" d="M1116.3,733.6c-47.2,4.8-89.3,4.6-126.4-0.8c0.1-4.2,0.1-8.6,0.1-13.4c39.2,3.2,73,3.6,101.4,1.2
				c7.9,3.3,15.4,6.1,23.6,8.8l1.1,0.4v0.1v-0.1l5.4,1.8c0,0.5,0.1,1,0.1,1.5C1119.8,733.2,1118,733.4,1116.3,733.6z" class="colorc2b5d9 svgShape" clip-rule="evenodd"/><path fill="#d9c0b5" fill-rule="evenodd" d="M1062.9,707.9c-25.5,0.8-49.3-0.6-71.4-4.1c3.2-4.4,7.2-10,10.3-14.2c1.6,0.1,3.2,0.3,4.9,0.4l0.4,6.6
				c0.1,2.4,2.2,4.3,4.5,4.3l26,0l1.7,0c0.4,0.2,0.9,0.3,1.3,0.5c5.2,1.7,10.5,2.8,14.1,2.8C1057.6,705.4,1060.3,706.7,1062.9,707.9
				L1062.9,707.9z M1113.9,688.9c2.6-0.2,5.2-0.4,7.8-0.6c-0.2,2.2-0.4,4.4-0.5,6.6c-0.1,1.4-0.1,2.5-0.2,3.6l-6.9-1.5l-1.5-0.3
				c-10.1-2.1-18.5-3.5-28.5-6.1C1093.7,690.2,1103.7,689.6,1113.9,688.9z" class="colorc2b5d9 svgShape" clip-rule="evenodd"/><path fill="#230f07" fill-rule="evenodd" d="M611,1144.4c-26-0.4-45.4-0.7-54.4-3.6c-9.7-3-7.7-9-2.1-18.4c24.5,11.3,18-2.3,29.5-0.6
				c8.1,6.5,20,10.8,35.8,13.1C626.4,1139.8,623.7,1144.2,611,1144.4z" class="color071023 svgShape" clip-rule="evenodd"/><path fill="#d0cdcc" fill-rule="evenodd" d="M577.6,748H416.9c-3.2,0-6.5,2.6-7.3,5.8L381,862.7c-0.8,3.2,1.1,5.8,4.2,5.8H546c3.2,0,6.5-2.6,7.3-5.8
				l28.6-108.9C582.7,750.6,580.8,748,577.6,748z" class="colorccced0 svgShape" clip-rule="evenodd"/><path fill="#f55e1d" fill-rule="evenodd" d="M406.2,751.2l-19.4,73.9c-23.3-11.4-51.4-29.6-80.9-53.1c-0.8-10.5-1.8-18.9-3-25.2c2.4-4.7,5-9.7,7.8-15
				c-27.2-0.2-43.8-6-49.7-17.5c7.3-21.3,17.4-43,30.5-65.2c9.1-13.5,27-21.4,53.7-23.8c3.1,35.7,57.9,33.9,45,3.1
				c19.9,5.3,36.7,15.2,50.5,29.6c11.9,29.3,19.1,49.7,21.7,61.3c-12.9,9-25.1,14.9-36.7,17.5c-0.5,2.5-1,5.4-1.3,8.6h-11.1
				C410.3,745.4,407,748,406.2,751.2z" class="colorf59b1d svgShape" clip-rule="evenodd"/><path fill="#8b8785" fill-rule="evenodd" d="M386.8,825.1l19.4-73.9c0.8-3.2,4.1-5.8,7.3-5.8h11.1h149.6c3.2,0,8.8,4.1,7.9,7.2c0.1-2.6-1.7-4.6-4.5-4.6
				H416.9c-3.2,0-6.5,2.6-7.3,5.8L381,862.7c-0.5,1.9,0,3.6,1.1,4.6c-2.7-1.7-5.2-5-4.6-7.3L386.8,825.1z" class="color85868b svgShape" clip-rule="evenodd"/><path fill="#8b8785" fill-rule="evenodd" d="M385.3,868.5H546c0.6,0,1.2-0.1,1.8-0.3c-3.2,8.3-11.9,7.1-15.3,7H341.9c-10.3-0.4-10.1-7.7-10.2-14.7h45.8
				c-0.1,2.2,2.2,5.2,4.7,6.8C382.9,868.1,384,868.5,385.3,868.5z" class="color85868b svgShape" clip-rule="evenodd"/><path fill="#b1aba9" fill-rule="evenodd" d="M407.8,792.8c17.2,8.7,37.6,11.4,58.6,12.5c-0.2,0.7-0.4,1.5-0.5,2.3c-1.4,8.8,4.8,16.4,13.8,16.4
				c8.5,0,16.2-6.7,17.5-15.1c0.1-0.9,0.2-1.8,0.2-2.7c21.8,0.6,42.8,1.8,60.2,8.6l-11.9,45.5H390L407.8,792.8z" class="colora9abb1 svgShape" clip-rule="evenodd"/><path fill="#948f8d" fill-rule="evenodd" d="M483.1,797.8c-5.8,0-11.2,4.7-12.1,10.4c-0.9,5.8,3,10.4,8.8,10.4c5.8,0,11.2-4.7,12.1-10.4
				C492.8,802.5,488.9,797.8,483.1,797.8z" class="color8d8f94 svgShape" clip-rule="evenodd"/><path fill="#f55e1d" fill-rule="evenodd" d="M298.1,841.9c3.2-9.8,5.5-19.9,6.9-30.4c21.7,8.4,46.4,16.5,77.7,28.8l-4.2,16.1
				C331.2,858,304.4,853.1,298.1,841.9z" class="colorf59b1d svgShape" clip-rule="evenodd"/><path fill="#faaa88" fill-rule="evenodd" d="M382.8,840.3c-31.3-12.3-56-20.4-77.7-28.8c-19.1-7.4-35.7-15-52.3-26c0.7-21.2,3.9-41.7,12.6-65.5
				c8.1,7.7,23.2,11.6,45.4,11.8c-6.4,12.1-11.7,22.6-15.7,31.4c33.4,27.7,65.6,49.1,91.7,61.9L382.8,840.3z" class="colorfab688 svgShape" clip-rule="evenodd"/><path fill="#faaa88" fill-rule="evenodd" d="M458.3,722.1c2.4,8.4,4.6,16.2,6.7,23.4h-40.4c0.3-3.2,0.7-6.1,1.3-8.6
				C436.1,734.4,446.9,729.5,458.3,722.1z" class="colorfab688 svgShape" clip-rule="evenodd"/><path fill="#230f07" fill-rule="evenodd" d="M556.4,1113.9c-23.9-86.7-32.5-147.6-25.6-182.7c-13.6,1.9-27.2,2.5-40.9,1.8c2.1-9.4,4.2-18.8,6.3-28.3
				c-0.2-12.9-6.8-22.5-30.3-29.4h66.6c2.3,0,6.9,0.6,10.7-1.5c21.4,6.1,31.9,16.2,35.5,28.6c2.6,34-4.5,72.8,1.6,211.8
				C572.7,1114.9,564.8,1114.8,556.4,1113.9z" class="color071023 svgShape" clip-rule="evenodd"/><path fill="#522c1b" fill-rule="evenodd" d="M531.4,875.3h1c2.3,0,6.9,0.6,10.7-1.5c21.4,6.1,31.9,16.2,35.5,28.6c2.6,34-4.5,72.8,1.6,211.8
				c-4.5,0.4-9.1,0.6-13.9,0.5c-12.3-48.3-41.7-166.9-8.6-218C549.9,888.4,541.2,881.3,531.4,875.3z" class="color1b2452 svgShape" clip-rule="evenodd"/><path fill="#faaa88" fill-rule="evenodd" d="M345.2,625.6c4.2-5.4,8-10.5,9.1-14c-0.9-2.4-1.8-5.5-2.7-9.3c-16-10.8-18.1-18.8-6.5-24
				c2.3,1.3,5.2,5.3,8.7,12.1c2.7-0.1,4.9-1.5,6.3-4.2c-3.3-11.4-5.4-20.7-6.4-27.8c7.9-11.7,26.2-13.4,50.6-10.2
				c1.1,6.5,2.1,13.4,2.8,20.6c4.3,4,3.7,18.7-0.2,35.6c2,9.6-4,14.9-17.8,15.8c-0.2,3.4,1.1,7.8,1.3,8.3l0,0v0c0,0,0,0.1,0,0.1
				C402.9,659,348.6,660.9,345.2,625.6z" class="colorfab688 svgShape" clip-rule="evenodd"/><path fill="#733419" fill-rule="evenodd" d="M404.2,548.1c-24.3-3.2-42.7-1.5-50.6,10.2c1,7.1,3.1,16.4,6.4,27.8c-1.4,2.7-3.5,4.1-6.3,4.2
				c-3.5-6.8-6.4-10.8-8.7-12.1c-11.6,5.2-9.4,13.2,6.5,24c0.9,3.7,1.8,6.8,2.7,9.3c-14.3-3.2-26.3-16.1-28-21.6
				c-16.7-33,1.9-46.9,11.9-52c4.4-32.7,51.9-3.8,75.6-19.5C423.3,531.5,411.6,547.9,404.2,548.1z" class="color733e19 svgShape" clip-rule="evenodd"/><path fill="#ed8457" fill-rule="evenodd" d="M370.9,619.7c6.7,0.5,12.7,0.7,18,0.4c-0.1,2.4,0.4,5.2,0.9,6.8C381.2,626.7,374.9,624.3,370.9,619.7z" class="colored7d57 svgShape" clip-rule="evenodd"/><path fill="#713014" fill-rule="evenodd" d="M444.4,926.8h-145c-5.2,0-9.4,4.2-9.4,9.4l0,0c0,5.2,4.2,9.4,9.4,9.4h145c5.2,0,9.4-4.2,9.4-9.4l0,0
				C453.8,931,449.6,926.8,444.4,926.8z" class="color712c14 svgShape" clip-rule="evenodd"/><path fill="#c94c16" fill-rule="evenodd" d="M308.1,1105.3c6.9-6.9,16.5-11.3,27.1-11.3h24.9h48.7c10.5,0,20.1,4.3,27,11.3c6.9,6.9,11.3,16.5,11.3,27
				v7.7h2.9v9.6H447h-15.8h-3v-9.6h3v-7.7c0-6.2-2.5-11.8-6.6-15.9c-4.1-4.1-9.7-6.6-15.9-6.6h-48.7h-24.9c-6.2,0-11.8,2.5-15.9,6.6
				c-4.1,4.1-6.6,9.7-6.6,15.9v7.7h3v9.6h-3h-15.8h-2.9v-9.6h2.9v-7.7C296.8,1121.8,301.1,1112.2,308.1,1105.3z" class="colora14527 svgShape" clip-rule="evenodd"/><rect width="15.8" height="148.4" x="364" y="945.7" fill="#c94c16" fill-rule="evenodd" class="colora14527 svgShape" clip-rule="evenodd"/><path fill="#522c1b" fill-rule="evenodd" d="M321.2,926.2c-28-10.1-31.9-38-19.5-80.2c10.1,8.3,35.8,11.8,76.9,10.4l-1,3.6c0,0.2-0.1,0.3-0.1,0.5h-45.8
				c0.1,7-0.1,14.2,10.2,14.7h124c23.4,6.9,30,16.5,30.3,29.4c-14.8,66.3-28,127-46,211c-6.1,3.4-14.4,3.1-24.9-0.8
				c-8.4-81.4-6.1-140.7,6.9-177.7C397.5,937.3,360.5,932.6,321.2,926.2z" class="color1b2452 svgShape" clip-rule="evenodd"/><path fill="#230f07" fill-rule="evenodd" d="M321.2,926.2c-28-10.1-31.9-38-19.5-80.2c2.2,1.8,5,3.3,8.6,4.6c-10.2,43.4,0.9,67.1,33.8,69.4
				c38.4,5.7,70.3,8.5,95.6,8.2c-11.1,72.3-13.1,135.3-5.7,189.1c-2.7-0.5-5.6-1.3-8.7-2.5c-8.4-81.4-6.1-140.7,6.9-177.7
				C397.5,937.3,360.5,932.6,321.2,926.2z" class="color071023 svgShape" clip-rule="evenodd"/><path fill="#faaa88" fill-rule="evenodd" d="M577.7,1114.3c0.7,2.6,1.8,5.1,3.4,7.4c-7.5,0.7-4.6,10.4-24.9,1.5c0.9-2.5,1.3-5.6,1.4-9.2
				C564.7,1114.7,571.3,1114.8,577.7,1114.3z" class="colorfab688 svgShape" clip-rule="evenodd"/><path fill="#230f07" fill-rule="evenodd" d="M450.1,1159.6c-13.8-5.7-15.9-15-23.5-18.5c-7.6-3.6-8.5-9.9-1-16.8c5.5,4.4,12.4,9.8,16,7
				c2.4-1.9,10.6-1.8,12.3,1c7.2,16.6,17.1,11.4,19.1,18.9C473.1,1161.3,458.7,1163.2,450.1,1159.6z" class="color071023 svgShape" clip-rule="evenodd"/><path fill="#faaa88" fill-rule="evenodd" d="M447.7,1116.8c-0.1,4.4,0.5,8.9,1.8,13.3c-3-0.5-6.5-0.1-8,1.1c-3.4,2.7-9.5-1.8-14.8-6
				c0.9-2.4,1.4-5.5,1.7-9.2C436.2,1118.4,442.6,1118.7,447.7,1116.8z" class="colorfab688 svgShape" clip-rule="evenodd"/><path fill="#ea6024" fill-rule="evenodd" d="M310.7,731.8c3.6-6.5,7.3-15.1,11.3-26.1c-2.2,12.7-2,21.9-5.5,32.3c2.8,14.8,3.9,29.8,3.7,45.1
				c-4.7-3.6-9.5-7.3-14.3-11.1c-0.8-10.5-1.8-18.9-3-25.2C305.3,742.1,307.9,737.1,310.7,731.8L310.7,731.8z M434.1,734.4
				c-2.8,1-5.6,1.8-8.3,2.4c1-16.2,1.7-29.5,2-40.1C430.9,712.3,433,724.8,434.1,734.4L434.1,734.4z M298.1,841.9
				c3.2-9.8,5.5-19.9,6.9-30.4c4,1.6,8.1,3.1,12.4,4.7c-1.7,11.5-4.1,23-7.2,34.5C304.2,848.4,300.1,845.5,298.1,841.9z" class="colorea7924 svgShape" clip-rule="evenodd"/><path fill="#c09988" fill-rule="evenodd" d="M647.3,395.2h127.9c3.3,0,6.1,2.7,6.1,6.1v64.5c-36.2,4.7-64.9,33.4-69.6,69.6h-64.4c-3.3,0-6.1-2.7-6.1-6.1
				V401.3C641.2,397.9,644,395.2,647.3,395.2z" class="color9588c0 svgShape" clip-rule="evenodd"/><path fill="#a26b53" fill-rule="evenodd" d="M808.6,395.2h127.9c3.3,0,6.1,2.7,6.1,6.1v127.9c0,3.3-2.7,6.1-6.1,6.1H872c-4.7-36.2-33.4-64.8-69.6-69.6
				v-64.5C802.5,397.9,805.2,395.2,808.6,395.2z" class="color5a53a2 svgShape" clip-rule="evenodd"/><path fill="#a26b53" fill-rule="evenodd" d="M641.2,690.4V562.5c0-3.3,2.7-6.1,6.1-6.1h64.4c4.7,36.2,33.4,64.9,69.6,69.6v64.5c0,3.3-2.7,6.1-6.1,6.1
				H647.3C644,696.5,641.2,693.8,641.2,690.4z" class="color5a53a2 svgShape" clip-rule="evenodd"/><path fill="#c09988" fill-rule="evenodd" d="M936.5,696.5H808.6c-3.4,0-6.1-2.7-6.1-6.1V626c36.2-4.7,64.8-33.4,69.6-69.6h64.4c3.3,0,6.1,2.7,6.1,6.1
				v127.9C942.6,693.8,939.8,696.5,936.5,696.5z" class="color9588c0 svgShape" clip-rule="evenodd"/><path fill="#b38571" fill-rule="evenodd" d="M791.9,471.8c40.9,0,74,33.1,74,74c0,40.9-33.2,74-74,74c-40.9,0-74-33.1-74-74
				C717.9,505,751,471.8,791.9,471.8L791.9,471.8z M791.9,482.9c-34.8,0-63,28.2-63,63c0,34.8,28.2,63,63,63c34.8,0,63-28.2,63-63
				C854.9,511.1,826.7,482.9,791.9,482.9z" class="color8071b3 svgShape" clip-rule="evenodd"/><path fill="#a26b53" fill-rule="evenodd" d="M798,524.2c-2-2.4-4-4.6-6.1-6.7c-2,2.1-4,4.3-6.1,6.7C789.9,524,793.9,524,798,524.2L798,524.2z
				 M803.3,524.5c-2.8-3.5-5.7-6.8-8.6-9.7c2.7-2.5,5.3-4.7,7.8-6.5c7.7-5.5,14.4-7.7,18.2-5.1c3.8,2.6,4.3,9.5,2.1,18.8
				c-0.4,1.7-0.9,3.5-1.5,5.3C815.8,526,809.8,525,803.3,524.5L803.3,524.5z M815.1,541.8c1.9-3.7,3.5-7.4,4.8-10.8
				c-4.1-1-8.6-1.7-13.4-2.2C809.6,532.9,812.5,537.3,815.1,541.8L815.1,541.8z M817.3,545.9c2.6-4.8,4.7-9.5,6.4-13.9
				c1.9,0.5,3.6,1.1,5.3,1.7c8.9,3.3,14.4,7.6,14.4,12.2c0,4.6-5.5,8.9-14.4,12.2c-1.7,0.6-3.4,1.2-5.3,1.7
				C822.1,555.4,819.9,550.7,817.3,545.9L817.3,545.9z M825,563.5c0.6,1.9,1.1,3.7,1.6,5.4c2.6,10.8,1.6,19.3-3.7,22.9
				c-5.3,3.6-13.6,1.3-22.6-5.2c-2.7-1.9-5.5-4.3-8.3-6.9c-2.8,2.7-5.6,5-8.3,6.9c-8.8,6.3-16.8,8.6-22.1,5.5h0l-0.5-0.3
				c-5.3-3.6-6.3-12.1-3.7-22.9c0.4-1.7,0.9-3.6,1.6-5.4c-1.9-0.5-3.7-1.1-5.4-1.8c-10.5-3.9-16.9-9.5-16.9-15.9
				c0-6.4,6.5-12,16.9-15.9c1.7-0.6,3.5-1.2,5.4-1.7c-0.6-1.9-1.1-3.7-1.6-5.4c-2.6-10.8-1.6-19.3,3.7-22.9
				c5.3-3.6,13.6-1.3,22.6,5.2c2.7,1.9,5.5,4.3,8.3,7c2.8-2.7,5.6-5,8.3-7c9.1-6.5,17.3-8.7,22.6-5.2c5.3,3.6,6.3,12.1,3.7,22.9
				c-0.4,1.7-1,3.6-1.6,5.4c1.9,0.5,3.7,1.1,5.4,1.7c10.5,3.9,16.9,9.5,16.9,15.9c0,6.4-6.5,12-16.9,15.9
				C828.7,562.4,826.9,562.9,825,563.5L825,563.5z M789.1,577c-2.9-2.9-5.8-6.2-8.6-9.7c-6.5-0.5-12.6-1.5-18-2.7
				c-0.6,1.8-1.1,3.6-1.5,5.3c-2.2,9.2-1.7,16.2,2.1,18.7l0,0c3.8,2.5,10.5,0.4,18.2-5.1C783.8,581.6,786.5,579.5,789.1,577
				L789.1,577z M777.3,563c-3.1-4.2-6-8.6-8.6-13.1c-1.9,3.7-3.5,7.4-4.9,10.9C768,561.7,772.5,562.5,777.3,563L777.3,563z
				 M766.4,545.9c-2.6-4.8-4.7-9.5-6.4-13.9c-1.9,0.5-3.6,1.1-5.3,1.7c-8.9,3.3-14.4,7.6-14.4,12.2c0,4.6,5.5,8.9,14.4,12.2
				c1.6,0.6,3.4,1.2,5.3,1.7C761.7,555.4,763.9,550.7,766.4,545.9L766.4,545.9z M822.8,569.8c-0.4-1.7-0.9-3.5-1.5-5.3
				c-5.4,1.3-11.5,2.2-18,2.7c-2.8,3.6-5.7,6.8-8.6,9.7c2.7,2.5,5.3,4.7,7.8,6.5c7.7,5.5,14.4,7.7,18.2,5.1
				C824.5,586,825,579,822.8,569.8L822.8,569.8z M819.9,560.8c-1.3-3.5-2.9-7.1-4.8-10.9c-2.6,4.5-5.5,8.9-8.6,13.1
				C811.3,562.5,815.8,561.7,819.9,560.8L819.9,560.8z M812.9,545.9c-3.4,6.1-7.4,12.1-11.6,17.6c-6.2,0.4-12.5,0.4-18.7,0
				c-4.3-5.6-8.2-11.5-11.6-17.6c3.4-6.1,7.3-12,11.6-17.6c6.2-0.4,12.5-0.4,18.7,0C805.6,533.8,809.5,539.7,812.9,545.9
				L812.9,545.9z M789.1,514.8c-2.9,2.9-5.8,6.2-8.6,9.7c-6.5,0.5-12.6,1.5-18,2.8c-0.6-1.8-1.1-3.6-1.5-5.3
				c-2.2-9.2-1.7-16.2,2.1-18.8c3.8-2.6,10.5-0.4,18.2,5.1C783.8,510.1,786.5,512.3,789.1,514.8L789.1,514.8z M763.9,531
				c1.3,3.5,3,7.1,4.9,10.8c2.6-4.5,5.5-8.9,8.6-13.1C772.5,529.2,768,530,763.9,531L763.9,531z M785.8,567.5c2,2.4,4,4.6,6.1,6.7
				c2-2.1,4.1-4.3,6.1-6.7C793.9,567.7,789.9,567.7,785.8,567.5z" class="color5a53a2 svgShape" clip-rule="evenodd"/><path fill="#a26b53" fill-rule="evenodd" d="M791.9,556.3c5.8,0,10.5-4.7,10.5-10.5c0-5.8-4.7-10.5-10.5-10.5c-5.8,0-10.5,4.7-10.5,10.5
				C781.4,551.6,786.1,556.3,791.9,556.3z" class="color5a53a2 svgShape" clip-rule="evenodd"/><path fill="#c09988" fill-rule="evenodd" d="M655.1,737v4.9h-4.9h-0.3h0l-0.2,0h0c-0.3,0-0.7,0.1-0.9,0.2l-1.7-4.6c1-0.4,2.1-0.6,3.1-0.6H655.1
				L655.1,737z M642.2,742c-0.6,1.2-0.9,2.6-0.9,4v1.9h4.9v-1.9l0-0.3v0l0-0.2v0c0.1-0.5,0.2-0.9,0.4-1.3L642.2,742L642.2,742z
				 M641.2,752.7h4.9v4.9h-4.9V752.7L641.2,752.7z M641.2,762.5h4.9v4.9h-4.9V762.5L641.2,762.5z M641.2,772.3h4.9v4.9h-4.9V772.3
				L641.2,772.3z M641.2,782h4.9v4.9h-4.9V782L641.2,782z M641.2,791.8h4.9v4.9h-4.9V791.8L641.2,791.8z M641.2,801.6h4.9v4.9h-4.9
				V801.6L641.2,801.6z M641.2,811.4h4.9v4.9h-4.9V811.4L641.2,811.4z M641.2,821.1h4.9v4.9h-4.9V821.1L641.2,821.1z M641.2,830.9
				h4.9v4.9h-4.9V830.9L641.2,830.9z M641.2,840.7h4.9v4.9h-4.9V840.7L641.2,840.7z M641.2,850.4h4.9v4.9h-4.9V850.4L641.2,850.4z
				 M643,861.4c1.4,1.9,3.3,3.1,5.6,3.5l0.9-4.8c-0.4-0.1-0.8-0.2-1.2-0.4c-0.2-0.1-0.4-0.2-0.6-0.4c-0.2-0.2-0.4-0.4-0.6-0.6
				l-0.1-0.1L643,861.4L643,861.4z M653.9,865v-4.9h4.9v4.9H653.9L653.9,865z M663.6,865v-4.9h4.9v4.9H663.6L663.6,865z M673.4,865
				v-4.9h4.9v4.9H673.4L673.4,865z M683.2,865v-4.9h4.9v4.9H683.2L683.2,865z M692.9,865v-4.9h4.9v4.9H692.9L692.9,865z M702.7,865
				v-4.9h4.9v4.9H702.7L702.7,865z M712.5,865v-4.9h4.9v4.9H712.5L712.5,865z M722.2,865v-4.9h4.9v4.9H722.2L722.2,865z M732,865
				v-4.9h4.9v4.9H732L732,865z M741.8,865v-4.9h4.9v4.9H741.8L741.8,865z M751.6,865v-4.9h4.9v4.9H751.6L751.6,865z M761.3,865v-4.9
				h4.9v4.9H761.3L761.3,865z M771.5,864.9c2.3-0.4,4.2-1.6,5.6-3.5l-3.9-2.9l0,0l-0.1,0.1c-0.2,0.2-0.4,0.4-0.6,0.6
				c-0.2,0.1-0.4,0.3-0.6,0.4c-0.4,0.2-0.8,0.4-1.2,0.4L771.5,864.9L771.5,864.9z M778.9,855.4H774v-4.9h4.9V855.4L778.9,855.4z
				 M778.9,845.6H774v-4.9h4.9V845.6L778.9,845.6z M778.9,835.8H774V831h4.9V835.8L778.9,835.8z M778.9,826.1H774v-4.9h4.9V826.1
				L778.9,826.1z M778.9,816.3H774v-4.9h4.9V816.3L778.9,816.3z M778.9,806.5H774v-4.9h4.9V806.5L778.9,806.5z M778.9,796.8H774
				v-4.9h4.9V796.8L778.9,796.8z M778.9,787H774v-4.9h4.9V787L778.9,787z M778.9,777.2H774v-4.9h4.9V777.2L778.9,777.2z
				 M778.9,767.4H774v-4.9h4.9V767.4L778.9,767.4z M778.9,757.7H774v-4.9h4.9V757.7L778.9,757.7z M778.9,747.9H774v-1.9l0-0.3v0
				l0-0.2v0c-0.1-0.5-0.2-0.8-0.4-1.3l4.4-2.1c0.6,1.2,0.9,2.5,0.9,3.9V747.9L778.9,747.9z M773.1,737.6c-0.7-0.4-2.3-0.6-3.2-0.6
				h-2.5v4.9h2.5h0.3h0l0.2,0h0c0.3,0.1,0.7,0.1,1,0.2L773.1,737.6L773.1,737.6z M762.5,737v4.9h-4.9V737H762.5L762.5,737z
				 M752.8,737v4.9h-4.9V737H752.8L752.8,737z M743,737v4.9h-4.9V737H743L743,737z M733.2,737v4.9h-4.9V737H733.2L733.2,737z
				 M723.5,737v4.9h-4.9V737H723.5L723.5,737z M713.7,737v4.9h-4.9V737H713.7L713.7,737z M703.9,737v4.9H699V737H703.9L703.9,737z
				 M694.1,737v4.9h-4.9V737H694.1L694.1,737z M684.4,737v4.9h-4.9V737H684.4L684.4,737z M674.6,737v4.9h-4.9V737H674.6L674.6,737z
				 M664.8,737v4.9h-4.9V737H664.8z" class="color9588c0 svgShape" clip-rule="evenodd"/><path fill="#d2b5a9" fill-rule="evenodd" d="M646.2,908.3h291.5c2.7,0,4.9,2.2,4.9,4.9v84c0,2.7-2.2,4.9-4.9,4.9H646.2c-2.7,0-4.9-2.2-4.9-4.9v-84
				C641.2,910.5,643.5,908.3,646.2,908.3z" class="colorb6a9d2 svgShape" clip-rule="evenodd"/><path fill="#c09988" fill-rule="evenodd" d="M822.4,779.6h113.7c3.6,0,6.5,2.9,6.5,6.5l0,0c0,3.6-2.9,6.5-6.5,6.5H822.4c-3.6,0-6.5-2.9-6.5-6.5l0,0
				C815.9,782.5,818.8,779.6,822.4,779.6L822.4,779.6z M822.4,847.3h113.7c3.6,0,6.5,2.9,6.5,6.5l0,0c0,3.6-2.9,6.5-6.5,6.5H822.4
				c-3.6,0-6.5-2.9-6.5-6.5l0,0C815.9,850.2,818.8,847.3,822.4,847.3L822.4,847.3z M822.4,813.4h113.7c3.6,0,6.5,2.9,6.5,6.5l0,0
				c0,3.6-2.9,6.5-6.5,6.5H822.4c-3.6,0-6.5-2.9-6.5-6.5l0,0C815.9,816.4,818.8,813.4,822.4,813.4z" class="color9588c0 svgShape" clip-rule="evenodd"/></g></switch></svg>