<svg xmlns="http://www.w3.org/2000/svg" viewBox="0 0 1440 1024"><defs><linearGradient id="a" x1="50%" x2="50%" y1="0%" y2="100%"><stop class="stopColorff9485 svgShape" offset="0%" stop-color="#ffaa85"/><stop class="stopColorff676e svgShape" offset="100%" stop-color="#ff9567"/></linearGradient><linearGradient id="b" x1="50%" x2="50%" y1="7.264%" y2="151.058%"><stop class="stopColord0f6ff svgShape" offset="0%" stop-color="#ffded0"/><stop class="stopColor8be2f7 svgShape" offset="100%" stop-color="#f7ac8b"/></linearGradient><linearGradient id="c" x1="8.407%" x2="56.566%" y1="13.138%" y2="50%"><stop class="stopColorcfe49f svgShape" offset="0%" stop-color="#e4b49f"/><stop class="stopColora9d386 svgShape" offset="100%" stop-color="#d39d86"/></linearGradient><linearGradient id="d" x1="8.382%" x2="56.57%" y1="31.386%" y2="50%"><stop class="stopColorcfe49f svgShape" offset="0%" stop-color="#e4b49f"/><stop class="stopColora9d386 svgShape" offset="100%" stop-color="#d39d86"/></linearGradient><linearGradient id="e" x1="44.725%" x2="54.925%" y1="3.882%" y2="56.924%"><stop class="stopColor77d791 svgShape" offset="0%" stop-color="#d79477"/><stop class="stopColor4fa67e svgShape" offset="100%" stop-color="#a6694f"/></linearGradient><linearGradient id="f" x1="4.766%" x2="100%" y1="41.158%" y2="60.574%"><stop class="stopColor6eae7c svgShape" offset="0%" stop-color="#ae816e"/><stop class="stopColor0f575d svgShape" offset="100%" stop-color="#5d270f"/></linearGradient><linearGradient id="g" x1="50%" x2="50.354%" y1="114.015%" y2="25.902%"><stop class="stopColor2b3389 svgShape" offset="0%" stop-color="#89472b"/><stop class="stopColor444fb7 svgShape" offset="100%" stop-color="#b76744"/></linearGradient><linearGradient id="h" x1="50%" x2="50%" y1="0%" y2="91.848%"><stop class="stopColoreafcff svgShape" offset="0%" stop-color="#fff0ea"/><stop class="stopColorffffff svgShape" offset="100%" stop-color="#fff"/></linearGradient><linearGradient id="i" x1="50%" x2="50%" y1="0%" y2="100%"><stop class="stopColorff9485 svgShape" offset="0%" stop-color="#ffaa85"/><stop class="stopColorff676e svgShape" offset="100%" stop-color="#ff9567"/></linearGradient><linearGradient id="j" x1="50%" x2="50%" y1="0%" y2="100%"><stop class="stopColor4dbcfa svgShape" offset="0%" stop-color="#fa814d"/><stop class="stopColor1486db svgShape" offset="100%" stop-color="#db5014"/></linearGradient><linearGradient id="k" x1="50%" x2="50%" y1="7.264%" y2="151.058%"><stop class="stopColord0f6ff svgShape" offset="0%" stop-color="#ffded0"/><stop class="stopColor8be2f7 svgShape" offset="100%" stop-color="#f7ac8b"/></linearGradient><linearGradient id="l" x1="50%" x2="62.585%" y1="0%" y2="89.368%"><stop class="stopColor0f1752 svgShape" offset="0%" stop-color="#52230f"/><stop class="stopColor272884 svgShape" offset="100%" stop-color="#844327"/></linearGradient><linearGradient id="m" x1="50%" x2="50%" y1="0%" y2="100%"><stop class="stopColorff9485 svgShape" offset="0%" stop-color="#ffaa85"/><stop class="stopColorff676e svgShape" offset="100%" stop-color="#ff9567"/></linearGradient><linearGradient id="n" x1="50%" x2="50.935%" y1="83.437%" y2="37.413%"><stop class="stopColor2b3389 svgShape" offset="0%" stop-color="#89472b"/><stop class="stopColor444fb7 svgShape" offset="100%" stop-color="#b76744"/></linearGradient><linearGradient id="o" x1="50%" x2="50%" y1="0%" y2="100%"><stop class="stopColorff9485 svgShape" offset="0%" stop-color="#ffaa85"/><stop class="stopColorff676e svgShape" offset="100%" stop-color="#ff9567"/></linearGradient><linearGradient id="p" x1="50%" x2="100%" y1="38.028%" y2="59.426%"><stop class="stopColor0f1752 svgShape" offset="0%" stop-color="#52230f"/><stop class="stopColor272884 svgShape" offset="100%" stop-color="#844327"/></linearGradient><linearGradient id="q" x1="50%" x2="100%" y1="36.967%" y2="60.262%"><stop class="stopColor0f1752 svgShape" offset="0%" stop-color="#52230f"/><stop class="stopColor272884 svgShape" offset="100%" stop-color="#844327"/></linearGradient><linearGradient id="r" x1="82.577%" x2="82.577%" y1="-52.951%" y2="186.665%"><stop class="stopColor1533b6 svgShape" offset="0%" stop-color="#b64615"/><stop class="stopColor356be9 svgShape" offset="100%" stop-color="#e96b35"/></linearGradient><linearGradient id="s" x1="50%" x2="50%" y1="-27.364%" y2="100%"><stop class="stopColorc0e4fd svgShape" offset="0%" stop-color="#fdd2c0"/><stop class="stopColor72b9fe svgShape" offset="100%" stop-color="#fe9c72"/></linearGradient><linearGradient id="t" x1="50%" x2="50%" y1="0%" y2="100%"><stop class="stopColor48137b svgShape" offset="0%" stop-color="#7b3213"/><stop class="stopColor300c59 svgShape" offset="100%" stop-color="#59230c"/></linearGradient></defs><g fill="none" fill-rule="evenodd"><g fill="#000" class="color000000 svgShape" transform="translate(296.827 86)"><path fill="#fd8652" fill-rule="nonzero" d="M663.594752,348.925666 C567.261534,348.925666 489.172983,270.813261 489.172983,174.462833 C489.172983,78.1124055 567.261534,0 663.594752,0 C759.927971,0 838.016521,78.1124055 838.016521,174.462833 C838.016521,270.813261 759.927971,348.925666 663.594752,348.925666 Z M663.594752,268.925666 C715.73972,268.925666 758.016521,226.63595 758.016521,174.462833 C758.016521,122.289716 715.73972,80 663.594752,80 C611.449785,80 569.172983,122.289716 569.172983,174.462833 C569.172983,226.63595 611.449785,268.925666 663.594752,268.925666 Z" class="color52d7fd svgShape"/><path fill="url(#a)" d="M726.172983,149 C781.401458,149 826.172983,193.771525 826.172983,249 L826.172983,667 L664.172983,667 L664.172983,149 L726.172983,149 Z"/><path fill="url(#b)" d="M845.172983,275 L907.172983,275 L907.172983,720 L745.172983,720 L745.172983,375 C745.172983,319.771525 789.944508,275 845.172983,275 Z"/><path fill="url(#c)" d="M8.64052961,172.724456 C8.64052961,175.111335 6.70628117,177.046283 4.3202648,177.046283 C1.93424844,177.046283 -1.13686838e-13,175.111335 -1.13686838e-13,172.724456 C-1.13686838e-13,170.337577 1.93424844,168.402629 4.3202648,168.402629 C6.70628117,168.402629 8.64052961,170.337577 8.64052961,172.724456 Z M8.64052961,147.320508 C8.64052961,149.707387 6.70628117,151.642335 4.3202648,151.642335 C1.93424844,151.642335 -1.13686838e-13,149.707387 -1.13686838e-13,147.320508 C-1.13686838e-13,144.933629 1.93424844,142.998681 4.3202648,142.998681 C6.70628117,142.998681 8.64052961,144.933629 8.64052961,147.320508 Z M8.64052961,121.91656 C8.64052961,124.30344 6.70628117,126.238388 4.3202648,126.238388 C1.93424844,126.238388 -1.13686838e-13,124.30344 -1.13686838e-13,121.91656 C-1.13686838e-13,119.529681 1.93424844,117.594733 4.3202648,117.594733 C6.70628117,117.594733 8.64052961,119.529681 8.64052961,121.91656 Z M8.64052961,96.5126123 C8.64052961,98.8994916 6.70628117,100.83444 4.3202648,100.83444 C1.93424844,100.83444 -1.13686838e-13,98.8994916 -1.13686838e-13,96.5126123 C-1.13686838e-13,94.125733 1.93424844,92.190785 4.3202648,92.190785 C6.70628117,92.190785 8.64052961,94.125733 8.64052961,96.5126123 Z M8.64052961,71.1086644 C8.64052961,73.4955438 6.70628117,75.4304918 4.3202648,75.4304918 C1.93424844,75.4304918 -1.13686838e-13,73.4955438 -1.13686838e-13,71.1086644 C-1.13686838e-13,68.7217851 1.93424844,66.7868371 4.3202648,66.7868371 C6.70628117,66.7868371 8.64052961,68.7217851 8.64052961,71.1086644 Z M8.64052961,45.7047165 C8.64052961,48.0915959 6.70628117,50.0265439 4.3202648,50.0265439 C1.93424844,50.0265439 -1.13686838e-13,48.0915959 -1.13686838e-13,45.7047165 C-1.13686838e-13,43.3178372 1.93424844,41.3828892 4.3202648,41.3828892 C6.70628117,41.3828892 8.64052961,43.3178372 8.64052961,45.7047165 Z M34.0368163,172.724456 C34.0368163,175.111335 32.1025679,177.046283 29.7165515,177.046283 C27.3305351,177.046283 25.3962867,175.111335 25.3962867,172.724456 C25.3962867,170.337577 27.3305351,168.402629 29.7165515,168.402629 C32.1025679,168.402629 34.0368163,170.337577 34.0368163,172.724456 Z M34.0368163,147.320508 C34.0368163,149.707387 32.1025679,151.642335 29.7165515,151.642335 C27.3305351,151.642335 25.3962867,149.707387 25.3962867,147.320508 C25.3962867,144.933629 27.3305351,142.998681 29.7165515,142.998681 C32.1025679,142.998681 34.0368163,144.933629 34.0368163,147.320508 Z M34.0368163,121.91656 C34.0368163,124.30344 32.1025679,126.238388 29.7165515,126.238388 C27.3305351,126.238388 25.3962867,124.30344 25.3962867,121.91656 C25.3962867,119.529681 27.3305351,117.594733 29.7165515,117.594733 C32.1025679,117.594733 34.0368163,119.529681 34.0368163,121.91656 Z M34.0368163,96.5126123 C34.0368163,98.8994916 32.1025679,100.83444 29.7165515,100.83444 C27.3305351,100.83444 25.3962867,98.8994916 25.3962867,96.5126123 C25.3962867,94.125733 27.3305351,92.190785 29.7165515,92.190785 C32.1025679,92.190785 34.0368163,94.125733 34.0368163,96.5126123 Z M34.0368163,71.1086644 C34.0368163,73.4955438 32.1025679,75.4304918 29.7165515,75.4304918 C27.3305351,75.4304918 25.3962867,73.4955438 25.3962867,71.1086644 C25.3962867,68.7217851 27.3305351,66.7868371 29.7165515,66.7868371 C32.1025679,66.7868371 34.0368163,68.7217851 34.0368163,71.1086644 Z M34.0368163,45.7047165 C34.0368163,48.0915959 32.1025679,50.0265439 29.7165515,50.0265439 C27.3305351,50.0265439 25.3962867,48.0915959 25.3962867,45.7047165 C25.3962867,43.3178372 27.3305351,41.3828892 29.7165515,41.3828892 C32.1025679,41.3828892 34.0368163,43.3178372 34.0368163,45.7047165 Z M59.433103,172.724456 C59.433103,175.111335 57.4988546,177.046283 55.1128382,177.046283 C52.7268218,177.046283 50.7925734,175.111335 50.7925734,172.724456 C50.7925734,170.337577 52.7268218,168.402629 55.1128382,168.402629 C57.4988546,168.402629 59.433103,170.337577 59.433103,172.724456 Z M59.433103,147.320508 C59.433103,149.707387 57.4988546,151.642335 55.1128382,151.642335 C52.7268218,151.642335 50.7925734,149.707387 50.7925734,147.320508 C50.7925734,144.933629 52.7268218,142.998681 55.1128382,142.998681 C57.4988546,142.998681 59.433103,144.933629 59.433103,147.320508 Z M59.433103,121.91656 C59.433103,124.30344 57.4988546,126.238388 55.1128382,126.238388 C52.7268218,126.238388 50.7925734,124.30344 50.7925734,121.91656 C50.7925734,119.529681 52.7268218,117.594733 55.1128382,117.594733 C57.4988546,117.594733 59.433103,119.529681 59.433103,121.91656 Z M59.433103,96.5126123 C59.433103,98.8994916 57.4988546,100.83444 55.1128382,100.83444 C52.7268218,100.83444 50.7925734,98.8994916 50.7925734,96.5126123 C50.7925734,94.125733 52.7268218,92.190785 55.1128382,92.190785 C57.4988546,92.190785 59.433103,94.125733 59.433103,96.5126123 Z M59.433103,71.1086644 C59.433103,73.4955438 57.4988546,75.4304918 55.1128382,75.4304918 C52.7268218,75.4304918 50.7925734,73.4955438 50.7925734,71.1086644 C50.7925734,68.7217851 52.7268218,66.7868371 55.1128382,66.7868371 C57.4988546,66.7868371 59.433103,68.7217851 59.433103,71.1086644 Z M59.433103,45.7047165 C59.433103,48.0915959 57.4988546,50.0265439 55.1128382,50.0265439 C52.7268218,50.0265439 50.7925734,48.0915959 50.7925734,45.7047165 C50.7925734,43.3178372 52.7268218,41.3828892 55.1128382,41.3828892 C57.4988546,41.3828892 59.433103,43.3178372 59.433103,45.7047165 Z M84.8293897,172.724456 C84.8293897,175.111335 82.8951412,177.046283 80.5091249,177.046283 C78.1231085,177.046283 76.1888601,175.111335 76.1888601,172.724456 C76.1888601,170.337577 78.1231085,168.402629 80.5091249,168.402629 C82.8951412,168.402629 84.8293897,170.337577 84.8293897,172.724456 Z M84.8293897,147.320508 C84.8293897,149.707387 82.8951412,151.642335 80.5091249,151.642335 C78.1231085,151.642335 76.1888601,149.707387 76.1888601,147.320508 C76.1888601,144.933629 78.1231085,142.998681 80.5091249,142.998681 C82.8951412,142.998681 84.8293897,144.933629 84.8293897,147.320508 Z M84.8293897,121.91656 C84.8293897,124.30344 82.8951412,126.238388 80.5091249,126.238388 C78.1231085,126.238388 76.1888601,124.30344 76.1888601,121.91656 C76.1888601,119.529681 78.1231085,117.594733 80.5091249,117.594733 C82.8951412,117.594733 84.8293897,119.529681 84.8293897,121.91656 Z M84.8293897,96.5126123 C84.8293897,98.8994916 82.8951412,100.83444 80.5091249,100.83444 C78.1231085,100.83444 76.1888601,98.8994916 76.1888601,96.5126123 C76.1888601,94.125733 78.1231085,92.190785 80.5091249,92.190785 C82.8951412,92.190785 84.8293897,94.125733 84.8293897,96.5126123 Z M84.8293897,71.1086644 C84.8293897,73.4955438 82.8951412,75.4304918 80.5091249,75.4304918 C78.1231085,75.4304918 76.1888601,73.4955438 76.1888601,71.1086644 C76.1888601,68.7217851 78.1231085,66.7868371 80.5091249,66.7868371 C82.8951412,66.7868371 84.8293897,68.7217851 84.8293897,71.1086644 Z M84.8293897,45.7047165 C84.8293897,48.0915959 82.8951412,50.0265439 80.5091249,50.0265439 C78.1231085,50.0265439 76.1888601,48.0915959 76.1888601,45.7047165 C76.1888601,43.3178372 78.1231085,41.3828892 80.5091249,41.3828892 C82.8951412,41.3828892 84.8293897,43.3178372 84.8293897,45.7047165 Z M110.225676,172.724456 C110.225676,175.111335 108.291428,177.046283 105.905412,177.046283 C103.519395,177.046283 101.585147,175.111335 101.585147,172.724456 C101.585147,170.337577 103.519395,168.402629 105.905412,168.402629 C108.291428,168.402629 110.225676,170.337577 110.225676,172.724456 Z M110.225676,147.320508 C110.225676,149.707387 108.291428,151.642335 105.905412,151.642335 C103.519395,151.642335 101.585147,149.707387 101.585147,147.320508 C101.585147,144.933629 103.519395,142.998681 105.905412,142.998681 C108.291428,142.998681 110.225676,144.933629 110.225676,147.320508 Z M110.225676,121.91656 C110.225676,124.30344 108.291428,126.238388 105.905412,126.238388 C103.519395,126.238388 101.585147,124.30344 101.585147,121.91656 C101.585147,119.529681 103.519395,117.594733 105.905412,117.594733 C108.291428,117.594733 110.225676,119.529681 110.225676,121.91656 Z M110.225676,96.5126123 C110.225676,98.8994916 108.291428,100.83444 105.905412,100.83444 C103.519395,100.83444 101.585147,98.8994916 101.585147,96.5126123 C101.585147,94.125733 103.519395,92.190785 105.905412,92.190785 C108.291428,92.190785 110.225676,94.125733 110.225676,96.5126123 Z M110.225676,71.1086644 C110.225676,73.4955438 108.291428,75.4304918 105.905412,75.4304918 C103.519395,75.4304918 101.585147,73.4955438 101.585147,71.1086644 C101.585147,68.7217851 103.519395,66.7868371 105.905412,66.7868371 C108.291428,66.7868371 110.225676,68.7217851 110.225676,71.1086644 Z M110.225676,45.7047165 C110.225676,48.0915959 108.291428,50.0265439 105.905412,50.0265439 C103.519395,50.0265439 101.585147,48.0915959 101.585147,45.7047165 C101.585147,43.3178372 103.519395,41.3828892 105.905412,41.3828892 C108.291428,41.3828892 110.225676,43.3178372 110.225676,45.7047165 Z M135.621963,172.724456 C135.621963,175.111335 133.687715,177.046283 131.301698,177.046283 C128.915682,177.046283 126.981433,175.111335 126.981433,172.724456 C126.981433,170.337577 128.915682,168.402629 131.301698,168.402629 C133.687715,168.402629 135.621963,170.337577 135.621963,172.724456 Z M135.621963,147.320508 C135.621963,149.707387 133.687715,151.642335 131.301698,151.642335 C128.915682,151.642335 126.981433,149.707387 126.981433,147.320508 C126.981433,144.933629 128.915682,142.998681 131.301698,142.998681 C133.687715,142.998681 135.621963,144.933629 135.621963,147.320508 Z M135.621963,121.91656 C135.621963,124.30344 133.687715,126.238388 131.301698,126.238388 C128.915682,126.238388 126.981433,124.30344 126.981433,121.91656 C126.981433,119.529681 128.915682,117.594733 131.301698,117.594733 C133.687715,117.594733 135.621963,119.529681 135.621963,121.91656 Z M135.621963,96.5126123 C135.621963,98.8994916 133.687715,100.83444 131.301698,100.83444 C128.915682,100.83444 126.981433,98.8994916 126.981433,96.5126123 C126.981433,94.125733 128.915682,92.190785 131.301698,92.190785 C133.687715,92.190785 135.621963,94.125733 135.621963,96.5126123 Z M135.621963,71.1086644 C135.621963,73.4955438 133.687715,75.4304918 131.301698,75.4304918 C128.915682,75.4304918 126.981433,73.4955438 126.981433,71.1086644 C126.981433,68.7217851 128.915682,66.7868371 131.301698,66.7868371 C133.687715,66.7868371 135.621963,68.7217851 135.621963,71.1086644 Z M135.621963,45.7047165 C135.621963,48.0915959 133.687715,50.0265439 131.301698,50.0265439 C128.915682,50.0265439 126.981433,48.0915959 126.981433,45.7047165 C126.981433,43.3178372 128.915682,41.3828892 131.301698,41.3828892 C133.687715,41.3828892 135.621963,43.3178372 135.621963,45.7047165 Z"/></g><g fill="#000" class="color000000 svgShape" transform="translate(1121 643)"><path fill="url(#d)" d="M39.4981201,164.85314 C63.4566962,71.748516 121.682551,39.0261602 214.175686,66.686073 C206.306031,108.785983 187.576224,141.226961 157.986264,164.009006 C128.396305,186.791051 88.9002567,187.07243 39.4981201,164.85314 Z"/><path fill="#fff" fill-rule="nonzero" d="M110.90666,123.31975 L114.182626,91.2147532 C114.317975,89.8883075 116.307644,90.0913315 116.172294,91.4177773 L113.04009,122.113892 C137.314607,108.396862 167.641093,91.3752098 204.021245,71.0479371 C204.503374,70.7785492 205.112599,70.9510101 205.381987,71.4331393 C205.651375,71.9152686 205.478914,72.5244936 204.996785,72.7938815 C185.072124,83.9267104 166.963277,94.0680217 150.670521,103.217651 L178.847155,109.94056 C179.38436,110.068737 179.715944,110.608135 179.587767,111.14534 C179.459591,111.682545 178.920192,112.014128 178.382987,111.885952 L148.101203,104.660756 C135.046861,111.994186 123.186404,118.675692 112.519979,124.705186 C112.425529,124.787184 112.316344,124.847239 112.199917,124.886116 C100.139932,131.70388 89.6132281,137.684383 80.6200223,142.827497 L106.833213,152.40034 C107.351987,152.589792 107.618955,153.163922 107.429503,153.682696 C107.240051,154.20147 106.66592,154.468438 106.147147,154.278986 L78.4735497,144.172815 C78.4334076,144.158155 78.3947731,144.141192 78.3577411,144.12213 C64.2878892,152.17938 54.1992515,158.062628 48.0927331,161.771343 C47.6206877,162.058034 47.0056105,161.907774 46.7189198,161.435729 C46.4322291,160.963683 46.5824889,160.348606 47.0545343,160.061915 C57.2599898,153.863764 78.5426306,141.617201 110.90666,123.31975 Z" class="colorffffff svgShape"/><path fill="url(#e)" fill-rule="nonzero" d="M50.2925002,192.93029 C1.39886056,110.154107 19.4325579,45.8440106 104.393592,5.68434189e-14 C128.598038,35.3338181 138.293299,71.5170271 133.479377,108.549627 C128.665455,145.582227 100.936496,173.709114 50.2925002,192.93029 Z"/><path fill="#fff" fill-rule="nonzero" d="M71.4174312,113.068298 L51.0322176,88.0501669 C50.1899853,87.0165217 51.7404532,85.7531732 52.5826855,86.7868184 L72.0733233,110.707065 C79.5385941,83.8429829 88.9465331,50.3627908 100.297634,10.2645827 C100.448065,9.73317982 101.0008,9.42434098 101.532203,9.57477183 C102.063606,9.72520267 102.372445,10.2779381 102.222014,10.809341 C96.0052518,32.7702963 90.3713544,52.7461701 85.3204025,70.7366492 L109.99809,55.5665848 C110.468586,55.2773579 111.084463,55.4243053 111.37369,55.8948011 C111.662917,56.3652968 111.515969,56.9811737 111.045474,57.2704006 L84.5240498,73.5738611 C80.4787456,87.9902222 76.8166666,101.101395 73.537856,112.907212 C73.5290457,113.031934 73.4943191,113.151562 73.4395101,113.261343 C69.7326936,126.609949 66.518039,138.282324 63.7956093,148.278225 L89.1001411,136.51173 C89.6009325,136.278864 90.1956791,136.496061 90.4285449,136.996852 C90.6614106,137.497643 90.444214,138.09239 89.9434227,138.325256 L63.2290923,150.747301 C63.1903464,150.765318 63.151038,150.78064 63.1113783,150.793346 C58.8598251,166.439575 55.8861651,177.733407 54.1906615,184.673826 C54.0595959,185.210334 53.518421,185.539009 52.9819135,185.407944 C52.4454061,185.276878 52.1167305,184.735703 52.2477961,184.199196 C55.0813881,172.600095 61.4708588,148.89137 71.4174312,113.068298 L71.4174312,113.068298 Z" class="colorffffff svgShape"/><path fill="url(#f)" d="M-2.27373675e-13,227.324394 C47.2394574,143.593169 111.950484,127.05576 194.133079,177.712169 C175.635317,216.340743 149.14737,242.82869 114.669237,257.176011 C80.1911033,271.523332 41.9680244,261.572793 -2.27373675e-13,227.324394 Z"/><path fill="#fff" fill-rule="nonzero" d="M79.7249871,205.688105 L91.1987099,175.524946 C91.6727567,174.278729 93.5420825,174.9898 93.0680357,176.236017 L82.097821,205.075508 C109.095432,198.108582 142.794094,189.516001 183.195706,179.29724 C183.731129,179.161816 184.274959,179.486079 184.410384,180.021503 C184.545808,180.556927 184.221545,181.100757 183.686121,181.236181 C161.558988,186.832787 141.442419,191.941627 123.336727,196.562615 L148.813254,210.349099 C149.298979,210.611947 149.479657,211.218786 149.21681,211.704511 C148.953962,212.190237 148.347123,212.370915 147.861397,212.108067 L120.481453,197.291559 C105.973905,200.996393 92.78829,204.380518 80.9247726,207.443887 C80.8123068,207.498654 80.6912845,207.528407 80.5687493,207.535824 C67.1551379,210.999923 55.4392605,214.052132 45.4213591,216.692384 L68.2637271,232.723517 C68.7157905,233.040782 68.825066,233.664446 68.5078008,234.116509 C68.1905357,234.568573 67.5668717,234.677848 67.1148084,234.360583 L42.9998362,217.436317 C42.9648547,217.411766 42.9319258,217.385381 42.9010882,217.357383 C27.2252857,221.498542 15.9577136,224.570192 9.09938382,226.572052 C8.56922192,226.7268 8.01399309,226.422467 7.85924551,225.892305 C7.70449794,225.362143 8.00883137,224.806914 8.53899326,224.652166 C20.0009063,221.306578 43.728004,214.985659 79.7249871,205.688105 Z" class="colorffffff svgShape"/></g><g fill="#000" class="color000000 svgShape" transform="translate(416 96)"><path fill="url(#g)" d="M83.2633625,0 L491.341108,0 C511.223359,2.84217094e-14 527.341108,16.117749 527.341108,36 L527.341108,744.364656 C527.341108,764.246907 511.223359,780.364656 491.341108,780.364656 L83.2633625,780.364656 C63.3811115,780.364656 47.2633625,764.246907 47.2633625,744.364656 L47.2633625,36 C47.2633625,16.117749 63.3811115,0 83.2633625,0 Z"/><path fill="url(#h)" d="M507.341108,696.325386 L67.2633625,696.325386 L67.2633625,48.0224404 L507.341108,48.0224404 L507.341108,696.325386 Z M471.341108,780.364656 L103.263362,780.364656 L471.341108,780.364656 L471.341108,780.364656 Z"/><path fill="url(#i)" d="M10,98 L430,98 C435.522847,98 440,102.477153 440,108 L440,234 C440,239.522847 435.522847,244 430,244 L10,244 C4.4771525,244 0,239.522847 0,234 L0,108 C0,102.477153 4.4771525,98 10,98 Z"/><path fill="#fff" d="M331,129 L404,129 C407.313708,129 410,131.686292 410,135 L410,208 C410,211.313708 407.313708,214 404,214 L331,214 C327.686292,214 325,211.313708 325,208 L325,135 C325,131.686292 327.686292,129 331,129 Z M30,129 L118.5,129 L118.5,139 L30,139 L30,129 Z M30,179 L278,179 L278,189 L30,189 L30,179 Z M30,204 L278,204 L278,214 L30,214 L30,204 Z M30,154 L278,154 L278,164 L30,164 L30,154 Z" class="colorffffff svgShape"/><path fill="url(#j)" d="M118,284 L430,284 C435.522847,284 440,288.477153 440,294 L440,420 C440,425.522847 435.522847,430 430,430 L118,430 C112.477153,430 108,425.522847 108,420 L108,294 C108,288.477153 112.477153,284 118,284 Z"/><path fill="#fff" d="M128,314 L216.5,314 L216.5,324 L128,324 L128,314 Z M128,364 L420,364 L420,374 L128,374 L128,364 Z M128,389 L420,389 L420,399 L128,399 L128,389 Z M128,339 L420,339 L420,349 L128,349 L128,339 Z" class="colorffffff svgShape"/><path fill="url(#k)" d="M232,472 L466,472 C468.209139,472 470,473.790861 470,476 L470,498 C470,500.209139 468.209139,502 466,502 L232,502 C229.790861,502 228,500.209139 228,498 L228,476 C228,473.790861 229.790861,472 232,472 Z M232,592 L466,592 C468.209139,592 470,593.790861 470,596 L470,618 C470,620.209139 468.209139,622 466,622 L232,622 C229.790861,622 228,620.209139 228,618 L228,596 C228,593.790861 229.790861,592 232,592 Z M232,522 L466,522 C468.209139,522 470,523.790861 470,526 L470,548 C470,550.209139 468.209139,552 466,552 L232,552 C229.790861,552 228,550.209139 228,548 L228,526 C228,523.790861 229.790861,522 232,522 Z M232,642 L466,642 C468.209139,642 470,643.790861 470,646 L470,668 C470,670.209139 468.209139,672 466,672 L232,672 C229.790861,672 228,670.209139 228,668 L228,646 C228,643.790861 229.790861,642 232,642 Z M148,552 C125.90861,552 108,534.09139 108,512 C108,489.90861 125.90861,472 148,472 C170.09139,472 188,489.90861 188,512 C188,534.09139 170.09139,552 148,552 Z M148,672 C125.90861,672 108,654.09139 108,632 C108,609.90861 125.90861,592 148,592 C170.09139,592 188,609.90861 188,632 C188,654.09139 170.09139,672 148,672 Z"/></g><g fill="#000" class="color000000 svgShape" transform="translate(166.61 784.39)"><path fill="url(#l)" d="M348.179203,163.398649 C348.179203,107.342787 348.179203,36.4731493 348.179203,-0.135135135 C302.867515,-0.135135135 266.135135,36.4731493 266.135135,81.6317568 C266.135135,126.790364 302.867515,163.398649 348.179203,163.398649 Z" transform="rotate(90 307.157 81.632)"/><path fill="url(#m)" d="M183.044068,183.263514 C183.044068,99.8780163 183.044068,-5.54360759 183.044068,-60 C115.64099,-60 61,-5.54360759 61,61.6317568 C61,128.807121 115.64099,183.263514 183.044068,183.263514 Z" transform="rotate(90 122.022 61.632)"/></g><g fill="#000" class="color000000 svgShape" transform="translate(886.745 452)"><polygon fill="url(#n)" points="57.255 296 277.255 296 277.255 455 57.255 455"/><path fill="#f4b296" d="M76.1468678,181.58602 L108.496398,189.531661 L95.7416269,222.163594 L108.496398,261.905439 L81.5927765,256.133133 L69.0007071,223.772502 C68.5916369,222.721224 68.4872169,221.575919 68.6994279,220.467997 L76.1468678,181.58602 Z" class="colorf4b696 svgShape"/><path fill="#f4b296" d="M272.604532,182 L280.051972,220.881977 C280.264183,221.989899 280.159763,223.135204 279.750693,224.186482 L267.158624,256.547113 L240.255002,262.319419 L253.009773,222.577574 L240.255002,189.945641 L272.604532,182 Z" class="colorf4b696 svgShape"/><path fill="url(#o)" d="M163.513042,109.51049 L185.263215,109.51049 C230.008211,109.51049 268.588082,140.965763 277.598553,184.794133 L243.672316,195.023579 L243.672316,285.734266 L103.455224,285.734266 L103.455224,195.023579 L71.1545837,184.794133 C80.1767657,140.963295 118.76327,109.51049 163.513042,109.51049 Z"/><path fill="#41281d" d="M284.756335,335.388397 C295.787089,330.474476 306.498257,331.21175 316.889837,337.60022 C332.477208,347.182925 357.101858,361.793526 350.370096,373.634135 C343.638333,385.474744 302.611243,372.678837 292.36967,369.441882 C282.128097,366.204928 276.566003,354.354599 276.345543,348.041452 C276.19857,343.832688 279.002167,339.615002 284.756335,335.388397 Z" class="color211d41 svgShape"/><path fill="#f4b296" d="M266.922682,324.399816 L293.672212,335.595933 C299.166897,337.895755 301.756846,344.21445 299.457025,349.709135 C299.377646,349.898785 299.292861,350.086126 299.202773,350.270929 C296.328405,356.167325 289.565845,359.065188 283.313905,357.079557 L255.972373,348.395822 L266.922682,324.399816 Z" class="colorf4b696 svgShape"/><polygon fill="#c94c16" points="104.609 195.874 111.854 178.121 111.854 207.247" class="colora3332e svgShape"/><polygon fill="#c94c16" points="241.854 195.874 234.609 207.247 234.609 178.121" class="colora3332e svgShape"/><path fill="#41281d" d="M93.3305572,188.811189 L254.179446,188.811189 C255.571204,188.811189 256.699446,189.939431 256.699446,191.331189 C256.699446,191.417569 256.695005,191.503892 256.68614,191.589816 L247.20614,283.472893 C247.073581,284.757696 245.99107,285.734266 244.699446,285.734266 L102.810557,285.734266 C101.518934,285.734266 100.436423,284.757696 100.303864,283.472893 L90.8238638,191.589816 C90.681028,190.205407 91.6875216,188.967331 93.0719301,188.824495 C93.1578541,188.81563 93.2441771,188.811189 93.3305572,188.811189 Z" class="color211d41 svgShape"/><circle cx="174.255" cy="233" r="11" fill="#847873" class="color757384 svgShape"/><path fill="url(#p)" d="M279.860448,323.98252 L264.731148,355.945531 C158.723526,332.290658 96.1610377,316.747629 77.0436843,309.316443 C48.3676542,298.169664 50.2131154,273.371076 53.7299378,260.137639 C57.2467601,246.904203 78.056658,234.380785 127.913997,256.203891 C161.152223,270.752627 211.80104,293.345504 279.860448,323.98252 Z"/><path fill="#41281d" d="M224.028068,9.34633759 C229.759252,7.39014309 227.465239,26.9516314 217.177681,33.8877539 C217.180924,35.5824039 217.13729,36.957892 217.13729,37.8433364 L217.13729,56.3038676 C217.13729,63.9948364 213.691326,72.5473724 206.799397,81.9614755 L147.626323,83.1126374 C138.326256,77.124511 133.676222,67.9418319 133.676222,55.5645999 C133.676222,36.9987521 130.671178,14.1284283 144.461173,18.537765 C144.987751,9.06060037 150.994622,3.28366444 162.481786,1.20695721 C179.712532,-1.90810364 190.079903,1.42022802 204.327593,6.47379858 C204.801758,6.64198236 205.258551,6.82808587 205.698602,7.03091745 C214.458744,9.75534455 220.568566,10.527151 224.028068,9.34633759 Z" class="color211d41 svgShape"/><path fill="#e99d7c" d="M159.047687,77.0942904 L191.813221,77.0942904 L195.219935,111.774468 C195.283397,112.420514 195.315186,113.069279 195.315186,113.718434 C195.315186,124.700468 186.412488,133.603166 175.430454,133.603166 C174.781299,133.603166 174.132533,133.571378 173.486488,133.507915 C162.557059,132.434292 154.56735,122.703897 155.640973,111.774468 L159.047687,77.0942904 Z" class="colore9a17c svgShape"/><path fill="#f4b296" d="M140.723423,72.5430145 C144.209645,94.2395034 155.821535,105.087748 175.559092,105.087748 C195.296648,105.087748 206.768876,94.2395034 209.975775,72.5430145 C215.245414,70.5570523 217.689211,67.5351992 217.307164,63.4774552 C216.734094,57.3908392 213.341783,55.2067155 207.17942,58.2969344 C207.17942,51.1186441 207.17942,45.2856811 207.17942,40.7980454 C177.624831,48.0880253 156.46662,45.7171201 143.704788,33.6853297 C144.521484,47.6589525 144.521484,55.3420467 143.704788,56.7346121 C137.493352,55.6978525 134.076527,57.4919368 133.454312,62.116865 C132.832097,66.7417932 135.255134,70.2171763 140.723423,72.5430145 Z" class="colorf4b696 svgShape"/><path fill="#41281d" d="M66.7536686,335.388397 C72.5078366,339.615002 75.3114339,343.832688 75.1644607,348.041452 C74.9440007,354.354599 69.3819062,366.204928 59.1403336,369.441882 C48.898761,372.678837 7.87167065,385.474744 1.13990808,373.634135 C-5.59185448,361.793526 19.0327952,347.182925 34.6201663,337.60022 C45.011747,331.21175 55.7229145,330.474476 66.7536686,335.388397 Z" class="color211d41 svgShape"/><path fill="#f4b296" d="M84.5873217,324.399816 L95.5376309,348.395822 L68.1960988,357.079557 C61.9441588,359.065188 55.1815985,356.167325 52.3072302,350.270929 C52.2171426,350.086126 52.1323576,349.898785 52.0529791,349.709135 C49.7531579,344.21445 52.3431067,337.895755 57.8377917,335.595933 L84.5873217,324.399816 Z" class="colorf4b696 svgShape"/><path fill="url(#q)" d="M72.1291766,324.079202 L87.2584767,356.042213 C187.382581,332.163577 247.00331,316.508665 266.120663,309.077479 C294.796694,297.9307 292.951232,273.132112 289.43441,259.898675 C285.917588,246.665239 265.10769,234.141822 215.250351,255.964927 C182.012124,270.513663 134.305066,293.218422 72.1291766,324.079202 Z"/></g><g fill="#000" class="color000000 svgShape" transform="translate(257.782 324.18)"><polygon fill="#52210c" points="122.394 160.202 205.394 151.766 205.394 124.738 122.394 116.121" class="color0c1452 svgShape"/><path fill="#41281d" d="M80.7703359,568.428726 C86.006537,566.874347 92.0392654,566.560371 98.868521,567.486798 C109.112557,568.876286 120.832224,571.259506 117.19975,577.061859 C113.566969,582.864213 96.9065024,583.106397 88.6525389,581.840981 C80.3985754,580.575564 79.4363209,581.303649 71.567433,581.840981 C63.698545,582.378312 62.3142827,581.885272 62.314359,577.416299 C62.3143591,572.947402 62.3141083,567.414709 62.314359,564.950344 C62.3146097,562.485979 62.6833246,560.339781 68.4221764,562.428167 C72.2480782,563.820324 76.3641314,565.82051 80.7703359,568.428726 Z" class="color211d41 svgShape"/><path fill="#41281d" d="M210.770336,491.428726 C216.006537,489.874347 222.039265,489.560371 228.868521,490.486798 C239.112557,491.876286 250.832224,494.259506 247.19975,500.061859 C243.566969,505.864213 226.906502,506.106397 218.652539,504.840981 C210.398575,503.575564 209.436321,504.303649 201.567433,504.840981 C193.698545,505.378312 192.314283,504.885272 192.314359,500.416299 C192.314359,495.947402 192.314108,490.414709 192.314359,487.950344 C192.31461,485.485979 192.683325,483.339781 198.422176,485.428167 C202.248078,486.820324 206.364131,488.82051 210.770336,491.428726 Z" class="color211d41 svgShape"/><path fill="#f4b296" d="M192.350234,465.191951 L213.978141,465.191951 L213.978141,487.490244 L226.663308,490.225925 C217.487752,494.499234 206.962952,494.830724 197.536664,491.143299 L192.350234,489.114444 L192.350234,465.191951 Z" class="colorf4b696 svgShape"/><path fill="#f4b296" d="M62.350234,542.191951 L83.9781409,542.191951 L83.9781409,564.490244 L96.6633082,567.225925 C87.4877522,571.499234 76.9629517,571.830724 67.536664,568.143299 L62.350234,566.114444 L62.350234,542.191951 Z" class="colorf4b696 svgShape"/><polygon fill="#582712" points="87.196 555.326 59.067 555.326 46.518 266.149 133.113 267.901" class="color121958 svgShape"/><path fill="url(#r)" d="M218.3217,475.5685 L188.570945,475.5685 L172.803708,368.670634 L109.230302,348.332385 C73.2805143,336.831416 48.2527061,304.21496 46.4476461,266.513485 L142.328445,268.093359 L216.97199,335.525417 C221.152111,339.301688 223.441023,344.73817 223.220765,350.367124 L218.3217,475.5685 Z"/><path fill="#f4b296" d="M261.525293,12.7709439 C262.981817,10.1907389 264.517528,7.35374798 266.132426,4.25997125 C274.999481,6.48973993 280.114129,11.7475126 281.476371,20.0332891 C282.838614,28.3190657 275.103598,38.7119479 258.271325,51.2119358 L244.440925,34.9704289 C245.26753,34.3240915 246.083051,33.63252 246.887489,32.8957145 L246.15929,32.0146265 C249.271107,27.1670106 251.131008,23.2616253 251.738993,20.2984705 C252.346978,17.3353157 252.684802,14.1114332 252.752464,10.626823 C256.636471,10.6570362 259.560748,11.3717432 261.525293,12.7709439 L261.525293,12.7709439 Z" class="colorf4b696 svgShape"/><path fill="#f4b296" d="M106.241812,96.0948764 L82.4514299,89.7039479 L84.8311545,78.508224 C78.1170175,66.7136737 78.1170175,51.9889077 84.8311545,34.3339259 C91.5452914,16.6789441 108.855748,13.6300901 136.762524,25.1873641 L138.752232,53.8622908 L132.924953,54.8736707 C132.234873,59.1165645 131.771096,61.9092488 131.533622,63.2517235 C130.388302,69.7263774 126.673438,74.1174315 119.133746,74.1174315 C114.107285,74.1174315 109.809973,81.4432465 106.241812,96.0948764 Z" class="colorf4b696 svgShape"/><path fill="url(#s)" d="M99.9531263,88.4086261 C104.757051,88.4086261 141.161569,78.8504146 209.166679,59.7339915 L246.449985,29.2172497 L264.864108,48.0539472 L226.134762,90.3174403 C224.379524,92.2328477 222.267915,93.787928 219.917951,94.8957692 L142.393911,131.442843 C149.513677,138.051837 152.40439,146.133012 151.066049,155.686368 C149.727708,165.239724 145.039686,173.012427 137.001981,179.004479 L142.393911,268.275693 L44.784316,268.275693 L44.784316,130.408626 C44.784316,107.212667 63.5883565,88.4086261 86.784316,88.4086261 C91.1739194,88.4086261 95.5635228,88.4086261 99.9531263,88.4086261 Z"/><path fill="#ffab87" fill-rule="nonzero" d="M86.9704335,275.927491 L87.5222587,275.093531 L93.3599776,278.956307 L92.8081524,279.790267 L86.9704335,275.927491 Z M101.147751,285.308518 L101.699576,284.474558 L107.537295,288.337334 L106.98547,289.171294 L101.147751,285.308518 Z M115.325068,294.689546 L115.876893,293.855586 L121.714612,297.718362 L121.162787,298.552322 L115.325068,294.689546 Z M129.502386,304.070573 L130.054211,303.236613 L135.89193,307.099389 L135.340104,307.933349 L129.502386,304.070573 Z M143.679703,313.4516 L144.231528,312.61764 L150.069247,316.480416 L149.517422,317.314376 L143.679703,313.4516 Z M157.85702,322.832628 L158.408845,321.998668 L164.246564,325.861444 L163.694739,326.695403 L157.85702,322.832628 Z M172.034337,332.213655 L172.586163,331.379695 L178.423881,335.242471 L177.872056,336.076431 L172.034337,332.213655 Z M186.175871,341.606455 L186.764441,340.798009 C188.693792,342.202626 190.445767,343.824267 191.989387,345.629225 L191.229405,346.279169 C189.73643,344.53343 188.041957,342.965014 186.175871,341.606455 Z M196.289772,354.72222 L197.221225,354.358358 C198.085961,356.572001 198.690254,358.882191 199.01921,361.244269 L198.028768,361.382203 C197.710607,359.09763 197.126145,356.863256 196.289772,354.72222 Z M198.566818,371.292728 L199.566026,371.252936 L199.844571,378.247392 L198.845363,378.287184 L198.566818,371.292728 Z M199.243284,388.279264 L200.242492,388.239472 L200.521038,395.233927 L199.52183,395.27372 L199.243284,388.279264 Z M199.919751,405.265799 L200.918959,405.226007 L201.197504,412.220463 L200.198296,412.260255 L199.919751,405.265799 Z M200.596218,422.252335 L201.595426,422.212543 L201.873971,429.206999 L200.874763,429.246791 L200.596218,422.252335 Z M201.272684,439.238871 L202.271892,439.199079 L202.550437,446.193534 L201.551229,446.233327 L201.272684,439.238871 Z M201.949151,456.225406 L202.948359,456.185614 L203.226904,463.18007 L202.227696,463.219862 L201.949151,456.225406 Z" class="colora587ff svgShape"/><path fill="url(#t)" d="M132.010291,36.2045203 C114.508017,39.0133731 101.098823,39.7218118 101.098823,53.344137 C101.098823,66.9664623 104.941333,88.3549262 72.1314321,112.409301 C39.3215309,136.463676 46.203215,158.441864 46.203215,186.845106 C6.2069446,168.545801 -7.82195027,144.639873 4.11653037,115.127322 C22.0242513,70.8584964 65.8574995,100.854853 65.8574995,44.0308668 C65.8574995,-12.7931192 112.268384,0.192040441 128.548569,3.98730987 C144.828754,7.7825793 149.512564,33.3956676 132.010291,36.2045203 Z"/></g></g></svg>