<svg xmlns="http://www.w3.org/2000/svg" viewBox="0 0 64 64"><g class="color000000 svgShape" data-name="International Relations"><circle cx="32" cy="32" r="31" fill="#d9c9c2" class="colorc2d5d9 svgShape"/><path style="mix-blend-mode:multiply" d="M30.5,18.78l-7.64,3.84L15.75,33.71,15.6,39l3.13,5.53-3.42,4.1,7.5,13A30.66,30.66,0,0,0,32,63,31.06,31.06,0,0,0,61,43L48.06,20.53Z" class="color000000 svgShape" opacity=".1"/><circle cx="32.07" cy="30.11" r="18.18" fill="#c05d32" class="color3281c0 svgShape"/><path fill="#fff" d="M45.08,16.8a18.65,18.65,0,0,0-13-5.26h0a18.66,18.66,0,1,0,0,37.32h0a18.66,18.66,0,0,0,13-32.06ZM32.7,23.38c2.6,0,4.83-.13,6.73-.3a34.41,34.41,0,0,1,.71,6.5H32.7Zm0-1.25V12.85a4.57,4.57,0,0,1,2,1,10.62,10.62,0,0,1,2.71,3.54,21.71,21.71,0,0,1,1.68,4.48C37.31,22,35.17,22.12,32.7,22.13Zm-1.25-9.28v9.28c-2.47,0-4.61-.12-6.43-.28a22.36,22.36,0,0,1,1.48-4.09C27.87,14.93,29.65,13.18,31.45,12.85Zm0,10.53v6.2H24a33.67,33.67,0,0,1,.73-6.5C26.62,23.25,28.85,23.36,31.45,23.38Zm-8.69,6.2H14.65a17.15,17.15,0,0,1,2.17-7.83A38.33,38.33,0,0,0,23.48,23,35,35,0,0,0,22.76,29.58Zm0,1.25a35.77,35.77,0,0,0,.72,6.61,37.81,37.81,0,0,0-6.66,1.22,17.15,17.15,0,0,1-2.17-7.83Zm1.24,0h7.45V37c-2.6,0-4.83.13-6.73.29A34.29,34.29,0,0,1,24,30.83Zm7.45,7.44v9.29a4.57,4.57,0,0,1-2.05-1A10.88,10.88,0,0,1,26.69,43,21.84,21.84,0,0,1,25,38.55C26.84,38.4,29,38.29,31.45,38.27Zm1.25,9.29V38.27c2.47,0,4.61.12,6.43.28a23.12,23.12,0,0,1-1.48,4.09C36.28,45.48,34.5,47.23,32.7,47.56ZM32.7,37v-6.2h7.45a33.57,33.57,0,0,1-.73,6.49C37.53,37.16,35.29,37,32.7,37Zm8.69-6.2H49.5a17.28,17.28,0,0,1-2.18,7.83,37.81,37.81,0,0,0-6.66-1.22A34.93,34.93,0,0,0,41.39,30.83Zm0-1.25A35.88,35.88,0,0,0,40.67,23a38.12,38.12,0,0,0,6.66-1.21,17.33,17.33,0,0,1,2.17,7.83ZM44.21,17.7a17,17,0,0,1,2.44,2.94,38.24,38.24,0,0,1-6.27,1.09,23.38,23.38,0,0,0-1.82-4.93,12.72,12.72,0,0,0-2.62-3.58A17.25,17.25,0,0,1,44.21,17.7Zm-24.66.39a17.21,17.21,0,0,1,5.84-4,16.81,16.81,0,0,1,2.82-.9,13.12,13.12,0,0,0-2.83,4,24.23,24.23,0,0,0-1.61,4.51,38.24,38.24,0,0,1-6.27-1.09A17.09,17.09,0,0,1,19.55,18.09Zm.39,24.62a18,18,0,0,1-2.45-2.94,39.24,39.24,0,0,1,6.28-1.1,23,23,0,0,0,1.82,4.93,12.4,12.4,0,0,0,2.62,3.59A17.37,17.37,0,0,1,19.94,42.71Zm24.66-.39a17.46,17.46,0,0,1-5.84,4,17.78,17.78,0,0,1-2.82.9,13.24,13.24,0,0,0,2.83-4,24.33,24.33,0,0,0,1.61-4.52,39.27,39.27,0,0,1,6.27,1.1A18.32,18.32,0,0,1,44.6,42.32Z" class="colorffffff svgShape"/><rect width="5.36" height="4.69" x="19.25" y="44.3" fill="#e7e6e6" class="colore6e7e7 svgShape"/><path fill="#de9c7f" d="M24,43.16a2.7,2.7,0,0,1,.21-2l-4,.15a2.81,2.81,0,0,1,.19,1.85s.93,1.35,1.94,1.41C22.91,44.62,23.41,43.81,24,43.16Z" class="colordeb17f svgShape"/><path fill="#feb799" d="M24.9,38.71,25,37.59a2.85,2.85,0,0,0-5.69,0l.09,1.12a.49.49,0,0,0-.4.51v.54a.52.52,0,0,0,.52.53A3.14,3.14,0,0,0,22.14,43a3.14,3.14,0,0,0,2.63-2.68.53.53,0,0,0,.53-.53v-.54A.52.52,0,0,0,24.9,38.71Z" class="colorfed299 svgShape"/><path fill="#3b3431" d="M25.06,38.25h-.57a1.73,1.73,0,0,0-.78-.15,1.61,1.61,0,0,0-1.19.33,1,1,0,0,0-.41-.12.79.79,0,0,0-.4.12,1.61,1.61,0,0,0-1.19-.33,1.73,1.73,0,0,0-.78.15h-.58v.41l.19.07a.85.85,0,0,0,0,.23c0,.51.13,1.19,1.2,1.19A1.23,1.23,0,0,0,21.85,39a.71.71,0,0,0,0-.25.45.45,0,0,1,.25-.06.49.49,0,0,1,.26.06.71.71,0,0,0,0,.25,1.23,1.23,0,0,0,1.33,1.17c1.07,0,1.19-.68,1.19-1.19a.86.86,0,0,0,0-.23l.18-.07Zm-3.41.69c-.13.6-.37,1-1.13,1s-1-.47-1-1c0-.16,0-.65,1-.65.68,0,.95.15,1.06.28A.45.45,0,0,1,21.65,38.94Zm2.06,1c-.77,0-1-.4-1.13-1a.41.41,0,0,1,.07-.35c.11-.13.37-.28,1.06-.28,1,0,1,.49,1,.65C24.69,39.47,24.57,39.94,23.71,39.94Z" class="color32313b svgShape"/><path fill="#503a31" d="M23.56,34.4c-2.64-1.26-4.23,1.18-4.45,2a5.69,5.69,0,0,0,.29,3A6.83,6.83,0,0,1,19.64,37c1,.67,2.63.61,4.27-.51,1,.69,1,3,1,3S26.73,35.13,23.56,34.4Z" class="color503d31 svgShape"/><polygon fill="#c94c16" points="21.35 45.29 21.68 45.93 22.71 45.93 23.04 45.29 22.19 44.6 21.35 45.29" class="colorf15e45 svgShape"/><polygon fill="#cccbcb" points="22.19 44.6 23.27 45.73 24.48 44.16 23.97 42.96 23.53 43.36 22.19 44.6" class="colorcccccb svgShape"/><polygon fill="#cccbcb" points="22.19 44.6 21.11 45.73 19.63 43.93 20.42 42.96 20.85 43.36 22.19 44.6" class="colorcccccb svgShape"/><polygon fill="#c94c16" points="21.68 45.93 21.46 48.99 22.93 48.99 22.71 45.93 21.68 45.93" class="colorf15e45 svgShape"/><path fill="#7f5847" d="M28.22,49a.75.75,0,0,0,.75-.82c0-.54-.12-1.18-.16-1.44-.11-.68-.07-1.22-.65-1.76a2.05,2.05,0,0,0-1-.51,18.46,18.46,0,0,1-2.86-.82c-.2.85-.39,1.89-.59,2.74,0,0-.34,1.42-.61,2.61Z" class="color47627f svgShape"/><path fill="#644335" d="M23.94,49a14,14,0,0,1,1.58-2.84l-.92-.48,1-.46c-.06-.17-.2-.45-.38-.82a2.47,2.47,0,0,0-1.09-1L23,49Z" class="color354964 svgShape"/><path fill="#7f5847" d="M16,49a.74.74,0,0,1-.74-.82c0-.54.11-1.18.16-1.44.1-.68.06-1.22.65-1.76a2,2,0,0,1,1-.51,18.26,18.26,0,0,0,2.85-.82c.2.85.4,1.89.6,2.74,0,0,.34,1.42.61,2.61Z" class="color47627f svgShape"/><path fill="#644335" d="M20.26,49a14,14,0,0,0-1.58-2.84l.93-.48-1-.46c.06-.17.19-.45.37-.82a2.47,2.47,0,0,1,1.09-1L21.18,49Z" class="color354964 svgShape"/><polygon fill="#de9c7f" points="45.34 43.42 45.34 41.62 40.71 41.62 40.71 43.42 43.03 45.48 45.34 43.42" class="colordeb17f svgShape"/><path fill="#6f4b3c" d="M48.51,44.26l-2.77-.75-.13,0L43,45l-2.48-1.58a.55.55,0,0,1-.24.12l-2.77.75a1,1,0,0,0-.79,1v2.89a.86.86,0,0,0,.86.86H48.45a.86.86,0,0,0,.86-.86V45.27A1,1,0,0,0,48.51,44.26Z" class="color3c566f svgShape"/><path fill="#feb799" d="M40.29,35.71,39.93,38l.3,2.72a1.51,1.51,0,0,0,.55,1.11l.8.82c.27.2.6.6.93.6h1c.34,0,.66-.4.93-.6l.8-.82a1.51,1.51,0,0,0,.55-1.11L46.11,38l-.4-2.33Z" class="colorfed299 svgShape"/><polygon fill="#d08463" points="43.67 49.02 42.38 49.02 42.54 45.48 43.51 45.48 43.67 49.02" class="color63bdd0 svgShape"/><path fill="#bb7151" d="M43.67,45H42.38v.48a.29.29,0,0,0,.29.29h.71a.29.29,0,0,0,.29-.29V45Z" class="color51afbb svgShape"/><path fill="#eddfd9" d="M40.67 42.85L43 45a8.93 8.93 0 0 0-1.48 1 .33.33 0 0 1-.51-.12l-1.1-2.43.35-.52A.25.25 0 0 1 40.67 42.85zM45.38 42.85L43 45a8.65 8.65 0 0 1 1.47 1 .33.33 0 0 0 .51-.12l1.11-2.43-.35-.52A.26.26 0 0 0 45.38 42.85z" class="colord9dfed svgShape"/><path fill="#feb799" d="M46.84 39.18c-.64 1.51-1.22 1.1-1.24.94l.14-1.23a.53.53 0 0 1 .53-.6h0C47.16 38.23 46.84 39.18 46.84 39.18zM39.26 39.18c.63 1.51 1.22 1.1 1.24.94l-.14-1.23a.53.53 0 0 0-.53-.6h0C38.94 38.23 39.26 39.18 39.26 39.18z" class="colorfed299 svgShape"/><path fill="#404040" d="M40.63,38.14a1.89,1.89,0,0,1-.17,1,0,0,0,0,1,0,0h-.09a0,0,0,0,1,0-.05c0-.16,0-.71-.41-.83,0,0,0-1.24,0-1.75s.64-2.39,3.5-2.51c0,0,1.72,0,1.83,1.16.27,0,1.48.08.95,3.1a1.05,1.05,0,0,0-.31.84,0,0,0,0,1,0,0h-.11a0,0,0,0,1,0-.06c.12-.45-.26-1-.28-1.39s-.07-1.69-1-1.15c-1.09.72-.43,1-3.21,1A.53.53,0,0,0,40.63,38.14Z" class="color404040 svgShape"/><rect width="8.71" height="7.56" x="27.59" y="43.78" fill="#fff" class="colorffffff svgShape"/><path fill="#de9c7f" d="M34.62,41.37a3.43,3.43,0,0,0,.72,1.56c.16.18-1,1.34-1,1.34l-1.28.86L32,45.44l-1.81-.77-1.46-2.05a2.52,2.52,0,0,0,.76-1.25C30.48,41.46,34.62,41.37,34.62,41.37Z" class="colordeb17f svgShape"/><polygon fill="#f3f2f2" points="32.69 44.93 35.22 42.47 36.33 43.67 34.2 46.67 32.69 44.93" class="colorf2f2f3 svgShape"/><polygon fill="#f3f2f2" points="31.25 44.93 28.73 42.47 27.62 43.67 29.75 46.67 31.25 44.93" class="colorf2f2f3 svgShape"/><polygon fill="#d08463" points="30.69 51.34 31.4 46.26 32.63 46.38 33.31 51.34 30.69 51.34" class="color63bdd0 svgShape"/><path fill="#362d29" d="M36.05,43.37A13.75,13.75,0,0,0,41,45.47c.3.1.61.22.81,1,.13.52.42,2.27.6,3.57a1.16,1.16,0,0,1-1.15,1.31H33.5S34.33,49,36.05,43.37Z" class="color293236 svgShape"/><path fill="#5f4e47" d="M36.4,48.16,38,47.57l-.34-3.26a8.67,8.67,0,0,1-1.58-.94c-1.72,5.64-2.55,8-2.55,8h2L37,49.22Z" class="color47565f svgShape"/><path fill="#362d29" d="M27.9,43.37A13.75,13.75,0,0,1,23,45.47c-.31.1-.62.22-.81,1-.13.52-.42,2.27-.6,3.57a1.16,1.16,0,0,0,1.15,1.31h7.72S29.62,49,27.9,43.37Z" class="color293236 svgShape"/><path fill="#5f4e47" d="M27.55,48.16,26,47.57l.34-3.26a8.67,8.67,0,0,0,1.58-.94c1.72,5.64,2.54,8,2.54,8h-2l-1.53-2.12Z" class="color47565f svgShape"/><path fill="#bb7151" d="M32.35,47.05h-.73a.57.57,0,0,1-.57-.53L31,45.38a.56.56,0,0,1,.57-.62h.92a.56.56,0,0,1,.57.62l-.09,1.14A.58.58,0,0,1,32.35,47.05Z" class="color51afbb svgShape"/><path fill="#feb799" d="M35.47,36.94a.36.36,0,0,0-.2.06l-.08-.85-.28-.45a5.39,5.39,0,0,0-.07-1.4,2.55,2.55,0,0,0-.53-.43s-.1-.34-.83-.12l-1.34.42-2.74.91a10.1,10.1,0,0,1-.71.76c-.16.12-.18.21-.3.46a1.08,1.08,0,0,0-.11.58c-.71,0-.63.7-.52,1.31s.23,1.13.7,1.13a.33.33,0,0,0,.16,0c.26,2.22.88,2.71,2.44,3.69a1.77,1.77,0,0,0,1.66,0c1-.7,2.56-1,2.59-3.63l.12,0c.46,0,.56-.43.69-1.12S36.33,36.88,35.47,36.94Z" class="colorfed299 svgShape"/><path fill="#404040" d="M28.88,36.75a2.75,2.75,0,0,1-.2,1.24.05.05,0,0,1-.05,0h-.1a.06.06,0,0,1-.06-.06c0-.2,0-.86-.51-1,0,0,0-1.55-.06-2.18s.8-3,4.33-3.11c0,0,2.12,0,2.25,1.44.34,0,1.83.09,1.18,3.83a1.31,1.31,0,0,0-.38,1,.06.06,0,0,1-.05.06h-.14C35,38,35,38,35,38c.16-.56-.31-1.19-.34-1.73s-.09-2.08-1.2-1.42c-1.34.9-.52,1.24-4,1.24A.66.66,0,0,0,28.88,36.75Z" class="color404040 svgShape"/></g></svg>