<svg xmlns="http://www.w3.org/2000/svg" data-name="Line Gradient" viewBox="0 0 64 64"><path fill="#c94c16" d="M56,7.17578H8a4.00427,4.00427,0,0,0-4,4V41.67285a4.00426,4.00426,0,0,0,4,4H24.70746l-5.553,9.15137H11.42969a1.00013,1.00013,0,0,0,.00006,2c5.47033-.00109,41.06293,0,41.06293,0a1.0002,1.0002,0,0,0-.00008-2h-7.647l-5.553-9.15137H56a4.00426,4.00426,0,0,0,4-4V11.17578A4.00427,4.00427,0,0,0,56,7.17578ZM42.50635,54.82422H21.49365l5.55323-9.15137h9.90625ZM58,41.67285a2.00229,2.00229,0,0,1-2,2c-6.93013-.00014-48,0-48,0a2.00229,2.00229,0,0,1-2-2V11.17578a2.00229,2.00229,0,0,1,2-2H56a2.00229,2.00229,0,0,1,2,2ZM51,12.15234H13a4.00427,4.00427,0,0,0-4,4v20.544a4.00427,4.00427,0,0,0,4,4H51a4.00427,4.00427,0,0,0,4-4V16.15234A4.00427,4.00427,0,0,0,51,12.15234Zm2,24.54395a2.00229,2.00229,0,0,1-2,2H13a2.00229,2.00229,0,0,1-2-2V16.15234a2.00229,2.00229,0,0,1,2-2H51a2.00229,2.00229,0,0,1,2,2ZM27.98,17.4707H16.07227a3.00328,3.00328,0,0,0-3,3V32.37793a3.02432,3.02432,0,0,0,3,3H27.98a3.03359,3.03359,0,0,0,3-3V20.4707A3.00328,3.00328,0,0,0,27.98,17.4707Zm-11.90771,2H27.98a1.001,1.001,0,0,1,1,1V31.21259a10.67392,10.67392,0,0,0-13.90771.00024V20.4707A1.001,1.001,0,0,1,16.07227,19.4707Zm0,13.90723a.97828.97828,0,0,1-.32013-.06476,8.68964,8.68964,0,0,1,12.54644.00031.978.978,0,0,1-.3186.06445Zm5.95361-5.9541a3.54368,3.54368,0,0,0-.00011-7.08691A3.54368,3.54368,0,0,0,22.02588,27.42383Zm0-5.08692a1.54362,1.54362,0,0,1-.00007,3.08692A1.54362,1.54362,0,0,1,22.02588,22.33691Zm27.90185.46H34.65088a1,1,0,0,1,0-2H49.92773A1.0002,1.0002,0,0,1,49.92773,22.79688Zm0,5.80371H34.65088a1,1,0,0,1,0-2H49.92773A1.0002,1.0002,0,0,1,49.92773,28.60059Zm0,5.80468H34.65088a1,1,0,0,1,0-2H49.92773A1.0002,1.0002,0,0,1,49.92773,34.40527Z" class="colorff377e svgShape"/></svg>