<svg xmlns="http://www.w3.org/2000/svg" viewBox="0 0 48 48"><path d="M24 0C10.751 0 0 10.751 0 24s10.751 24 24 24 24-10.751 24-24S37.249 0 24 0zm0 1c12.708 0 23 10.291 23 23S36.708 47 24 47 1 36.709 1 24 11.292 1 24 1zM10.5 11a.5.5 0 0 0-.5.5v22a.5.5 0 0 0 .5.5h4.25v-1H11V16h24v10.236c.01.048.034.09.04.139.277-.227.62-.34.96-.348V11.5a.5.5 0 0 0-.5-.5h-25zm.5 1h24v3H11v-3zm1.5 1a.5.5 0 0 0-.5.5.5.5 0 0 0 .5.5.5.5 0 0 0 .5-.5.5.5 0 0 0-.5-.5zm2 0a.5.5 0 0 0-.5.5.5.5 0 0 0 .5.5.5.5 0 0 0 .5-.5.5.5 0 0 0-.5-.5zm2 0a.5.5 0 0 0-.5.5.5.5 0 0 0 .5.5.5.5 0 0 0 .5-.5.5.5 0 0 0-.5-.5zm10.143 3.629a.5.5 0 0 0-.422.242l-.897 1.494a.5.5 0 0 0-.078.041l-5.705 3.725a.5.5 0 0 0-.227.416l-.011 4.424c-.773-.055-1.255-.2-1.547-.371-.37-.217-.512-.467-.688-.823-.176-.355-.364-.832-.838-1.203C15.757 24.205 15.062 24 14 24a.5.5 0 1 0 0 1c.938 0 1.37.172 1.613.363.244.192.366.465.56.86.196.394.486.894 1.077 1.24.547.32 1.32.499 2.453.525a.5.5 0 0 0 .098.012h4.963a.5.5 0 0 0 .42-.227l3.722-5.703a.5.5 0 0 0 .043-.082l1.494-.896a.5.5 0 0 0 .096-.781l-3.535-3.538a.5.5 0 0 0-.361-.144zm.105 1.308 2.63 2.63-.882.529-2.277-2.276.529-.883zm-1.297 1.53 2.397 2.396L24.494 27h-3.473l1.805-1.805c.557.262 1.246.17 1.703-.287a1.507 1.507 0 0 0 0-2.12 1.507 1.507 0 0 0-2.12 0 1.505 1.505 0 0 0-.29 1.7l-1.814 1.815.01-3.48 5.136-3.356zm-1.982 3.877c.127 0 .254.05.353.15.2.2.2.508 0 .707-.2.2-.507.2-.707 0-.2-.2-.2-.507 0-.707.1-.1.227-.15.354-.15zM31.409 26a.5.5 0 0 0-.5.5v.895c-.31.096-.61.217-.897.367l-.63-.627a.5.5 0 0 0-.706 0l-1.543 1.54a.5.5 0 0 0 0 .708l.63.63c-.15.289-.276.587-.372.897H26.5a.5.5 0 0 0-.5.5v2.182a.5.5 0 0 0 .5.5h.893c.096.31.218.61.369.898l-.63.63a.5.5 0 0 0 0 .706l1.544 1.541a.5.5 0 0 0 .707 0l.63-.629c.288.15.586.273.895.37v.892a.5.5 0 0 0 .5.5h2.184a.5.5 0 0 0 .5-.5v-.893c.31-.096.608-.217.896-.367l.63.627a.5.5 0 0 0 .706 0l1.543-1.54a.5.5 0 0 0 0-.708l-.63-.63c.15-.289.276-.587.372-.897h.891a.5.5 0 0 0 .5-.5V31.41a.5.5 0 0 0-.5-.5h-.893a5.384 5.384 0 0 0-.369-.898l.63-.63a.5.5 0 0 0 0-.706l-1.544-1.541a.5.5 0 0 0-.707 0l-.63.629a5.373 5.373 0 0 0-.895-.37V26.5a.5.5 0 0 0-.5-.5h-2.184zm.5 1h1.183v.719a.5.5 0 0 0 .388.488c.484.11.944.301 1.364.564a.5.5 0 0 0 .619-.07l.508-.506.836.834-.506.506a.5.5 0 0 0-.07.617c.262.421.451.884.56 1.368a.5.5 0 0 0 .488.39H38v1.182h-.719a.5.5 0 0 0-.488.388c-.11.484-.3.946-.564 1.366a.5.5 0 0 0 .07.619l.508.508-.836.834-.506-.504a.5.5 0 0 0-.617-.07c-.421.262-.884.451-1.368.56a.5.5 0 0 0-.388.486V38h-1.184v-.719a.5.5 0 0 0-.388-.486 4.4 4.4 0 0 1-1.364-.565.5.5 0 0 0-.619.07l-.508.507-.836-.834.506-.506a.5.5 0 0 0 .07-.62 4.403 4.403 0 0 1-.56-1.365.5.5 0 0 0-.488-.39H27V31.91h.719a.5.5 0 0 0 .488-.389c.11-.483.301-.945.564-1.365a.5.5 0 0 0-.07-.619l-.508-.508.836-.834.506.504a.5.5 0 0 0 .617.07c.421-.262.884-.453 1.368-.562a.5.5 0 0 0 .388-.484V27zm-12.284 1.73a.5.5 0 0 0-.5.5v.512c-.144.05-.285.106-.422.172l-.361-.36a.5.5 0 0 0-.707 0l-1.06 1.061a.5.5 0 0 0 0 .707l.36.362a3.852 3.852 0 0 0-.175.421h-.51a.5.5 0 0 0-.5.5v1.5a.5.5 0 0 0 .5.5h.512c.05.145.105.285.172.422l-.36.362a.5.5 0 0 0 0 .707l1.06 1.06a.5.5 0 0 0 .708 0l.361-.361c.138.067.278.124.422.174v.511a.5.5 0 0 0 .5.5h1.5a.5.5 0 0 0 .5-.5v-.511a3.95 3.95 0 0 0 .422-.174l.361.361a.5.5 0 0 0 .707 0l1.06-1.06a.5.5 0 0 0 0-.71l-.359-.359c.067-.137.124-.277.174-.422h.51a.5.5 0 0 0 .5-.5v-1.5a.5.5 0 0 0-.5-.5h-.512a3.855 3.855 0 0 0-.174-.421l.362-.362a.5.5 0 0 0 0-.707l-1.06-1.06a.5.5 0 0 0-.708 0l-.361.361a3.797 3.797 0 0 0-.422-.176v-.51a.5.5 0 0 0-.5-.5h-1.5zm.5 1h.5v.338a.5.5 0 0 0 .389.487c.315.072.617.197.89.369a.5.5 0 0 0 .62-.07l.238-.239.353.354-.238.236a.5.5 0 0 0-.07.62c.17.274.296.574.367.89a.5.5 0 0 0 .486.39H24v.5h-.338a.5.5 0 0 0-.488.39 2.867 2.867 0 0 1-.367.888.5.5 0 0 0 .07.62l.238.24-.353.35-.237-.236a.5.5 0 0 0-.619-.07 2.872 2.872 0 0 1-.89.365.5.5 0 0 0-.391.489v.34h-.5v-.338a.5.5 0 0 0-.389-.489 2.881 2.881 0 0 1-.89-.367.5.5 0 0 0-.62.068l-.238.239-.353-.354.238-.238a.5.5 0 0 0 .07-.617 2.876 2.876 0 0 1-.367-.89.5.5 0 0 0-.486-.391h-.34v-.5h.338a.5.5 0 0 0 .488-.39c.072-.314.196-.616.367-.89a.5.5 0 0 0-.07-.619l-.238-.238.353-.354.237.237a.5.5 0 0 0 .619.07c.274-.171.575-.294.89-.365a.5.5 0 0 0 .391-.487v-.338zm12.375.272A2.51 2.51 0 0 0 30 32.5a2.51 2.51 0 0 0 2.5 2.5 2.51 2.51 0 0 0 2.5-2.5 2.51 2.51 0 0 0-2.5-2.498zm0 1c.826 0 1.5.672 1.5 1.498s-.674 1.5-1.5 1.5-1.5-.674-1.5-1.5.674-1.498 1.5-1.498zm-12.125.707c-.903 0-1.646.743-1.646 1.646 0 .904.743 1.645 1.646 1.645.903 0 1.646-.742 1.646-1.645s-.743-1.646-1.646-1.646zm0 1a.645.645 0 1 1 0 1.291.645.645 0 1 1 0-1.291z" color="#000" font-family="sans-serif" font-weight="400" overflow="visible" style="line-height:normal;text-indent:0;text-align:start;text-decoration-line:none;text-decoration-style:solid;text-decoration-color:#000;text-transform:none;block-progression:tb;isolation:auto;mix-blend-mode:normal" fill="#c94c16" class="color000000 svgShape"/></svg>