<svg xmlns="http://www.w3.org/2000/svg" viewBox="0 0 256 256"><path fill="#ff814a" d="M138 28V18c0-5.523 4.477-10 10-10h80c5.523 0 10 4.477 10 10v60c0 5.523-4.477 10-10 10h-80c-5.523 0-10-4.477-10-10V48l-20-10 20-10z" class="color4ab6ff svgShape"/><path fill="#c94c16" d="M228 93h-80c-8.271 0-15-6.729-15-15V51.09L106.82 38 133 24.91V18c0-8.271 6.729-15 15-15h80c8.271 0 15 6.729 15 15v60c0 8.271-6.729 15-15 15zm-98.82-55L143 44.91V78c0 2.757 2.243 5 5 5h80c2.757 0 5-2.243 5-5V18c0-2.757-2.243-5-5-5h-80c-2.757 0-5 2.243-5 5v13.09L129.18 38z" class="color000000 svgShape"/><path fill="#c94c16" d="M158.5 23h60v10h-60zM158.5 43h60v10h-60zM158.5 63h60v10h-60zM123 173H13v-65c0-13.785 11.215-25 25-25h17.831L68 103.282 80.169 83H98c13.785 0 25 11.215 25 25v65zM23 163h90v-55c0-8.271-6.729-15-15-15H85.831L68 122.718 50.169 93H38c-8.271 0-15 6.729-15 15v55z" class="color000000 svgShape"/><path fill="#c94c16" d="M63 128h10v40H63z" class="color000000 svgShape"/><path fill="#c94c16" d="m68 133.831-31.224-18.734 11.581-28.954 9.286 3.714-8.419 21.046L68 122.169l18.776-11.266-8.419-21.046 9.286-3.714 11.581 28.954zM68 73c-19.299 0-35-15.701-35-35S48.701 3 68 3s35 15.701 35 35-15.701 35-35 35zm0-60c-13.785 0-25 11.215-25 25s11.215 25 25 25 25-11.215 25-25-11.215-25-25-25zM8 183h240v10H8z" class="color000000 svgShape"/><path fill="#c94c16" d="M233 253H23v-70h210v70zM33 243h190v-50H33v50z" class="color000000 svgShape"/><path fill="#c94c16" d="M203 193h-30v-55h30v55zm-20-10h10v-35h-10v35z" class="color000000 svgShape"/><path fill="#c94c16" d="M228 173h-35v-25h-10v25h-35c-8.271 0-15-6.729-15-15v-40c0-8.271 6.729-15 15-15h80c8.271 0 15 6.729 15 15v40c0 8.271-6.729 15-15 15zm-25-10h25c2.757 0 5-2.243 5-5v-40c0-2.757-2.243-5-5-5h-80c-2.757 0-5 2.243-5 5v40c0 2.757 2.243 5 5 5h25v-25h30v25z" class="color000000 svgShape"/></svg>