<svg xmlns="http://www.w3.org/2000/svg" fill-rule="evenodd" clip-rule="evenodd" image-rendering="optimizeQuality" shape-rendering="geometricPrecision" text-rendering="geometricPrecision" viewBox="0 0 173.397 173.397"><path fill="#c94c16" d="M104.839 165.483l-76.3035 0c-5.1151,0 -9.278,-4.1626 -9.278,-9.2775l0 -139.014c0,-5.1147 4.1627,-9.2774 9.2776,-9.2774l76.3039 -0.0002c5.1179,0 9.2773,4.1629 9.2773,9.2778l0 20.9075c0,0.9958 -0.805,1.8041 -1.8042,1.8041 -0.9957,0 -1.8041,-0.808 -1.8041,-1.8041l0 -20.9077c0,-3.126 -2.5433,-5.6691 -5.6693,-5.6691l-76.3032 -0.0002c-3.1263,0 -5.6697,2.5436 -5.6697,5.6695l0 139.014c0,3.1259 2.5433,5.6694 5.6693,5.6694l76.3039 -0.0001c3.1263,0 5.669,-2.5432 5.669,-5.6692l0 -35.3002c0,-0.999 0.8082,-1.804 1.8041,-1.804 0.9994,-0.0002 1.8042,0.805 1.8042,1.8042l0 35.2999c0,5.1146 -4.1597,9.2777 -9.2773,9.2776z" class="color000000 svgShape"/><path fill="#c94c16" d="M112.312 30.7668l-91.2506 0c-.9958 0-1.8041-.808-1.8041-1.804 0-.9962.808-1.8042 1.8041-1.8042l91.2506-.0001c.9993 0 1.8041.8083 1.8041 1.8043 0 .9957-.805 1.8041-1.8041 1.804zM112.312 146.238l-91.2506 0c-.9958 0-1.8041-.8078-1.8041-1.8039 0-.9961.808-1.8041 1.8041-1.8041l91.2506-.0003c.9993 0 1.8041.8084 1.8041 1.8044 0 .9959-.805 1.8042-1.8041 1.8039zM145.032 122.706l-60.5391 0c-.9966 0-1.8046-.8047-1.8046-1.8008.0004-.9992.808-1.8042 1.8041-1.8042l60.5396-.0002c3.0318 0 5.4998-2.471 5.4998-5.503l0-68.1915c0-3.035-2.4681-5.5031-5.5002-5.5031l-83.598 0c-3.0354 0-5.5037 2.4682-5.5037 5.5033l.0003 68.191c0 3.0322 2.4678 5.5035 5.5029 5.5035l4.7237-.0002c.9957 0 1.8038.8052 1.8038 1.8044.0003.996-.8081 1.801-1.8041 1.801l-4.7229-.0002c-5.0242 0-9.1121-4.0842-9.1121-9.1082l.0004-68.1915c0-5.0239 4.0871-9.1114 9.1112-9.1114l83.5989 0c5.0241 0 9.1081 4.0875 9.1081 9.1116l0 68.191c0 5.0242-4.0844 9.1087-9.1081 9.1085z" class="color000000 svgShape"/><path fill="#c94c16" d="M66.1564 137.102c-.2692 0-.5391-.0595-.7896-.1817-.6199-.3007-1.0149-.9302-1.0149-1.6225l.0003-14.3927c0-.999.8078-1.804 1.8039-1.804.996-.0002 1.8041.805 1.8041 1.8042l.0003 10.6838 15.4171-12.1058c.7829-.6142 1.9163-.476 2.5332.307.6141.7829.4793 1.9169-.3069 2.534l-18.3326 14.3921c-.3256.2538-.7174.3856-1.1149.3856zM73.213 103.935c-.3411 0-.6798-.0969-.9742-.2847-.4445-.2854-.7423-.7518-.8144-1.2748-.0247-.1819-.0374-.3666-.0374-.5513l0-40.249c0-2.2802 1.8572-4.1376 4.1375-4.1376l7.3548 0c.9957 0 1.8038.8082 1.8038 1.8042.0003.9958-.8082 1.8041-1.8041 1.8041l-7.3545 0c-.2882 0-.5294.2413-.5294.5294l.0002 38.5699c.8301.1629 1.4594.8928 1.4594 1.7729.0001.9958-.8081 1.8042-1.8041 1.8042-.31-.0001-.6171.0438-.9115.1347-.1716.053-.3509.0783-.5261.078zm60.0415 0c-.0818 0-.1601-.006-.2414-.0155-.9898-.1318-1.6821-1.0398-1.5506-2.0265.0034-.025.0064-.0469.0064-.0688l.0006-40.249c0-.2882-.2451-.5293-.53-.5293l-7.3541 0c-.9958 0-1.8045-.808-1.8045-1.8041.0004-.9962.8081-1.8042 1.8043-1.8042l7.3549 0c2.2799 0 4.1371 1.8575 4.1371 4.1377l.0006 40.2487c0 .1817-.0132.3666-.0382.5452-.1218.9083-.8959 1.5661-1.7851 1.5658z" class="color000000 svgShape"/><path fill="#c94c16" d="M74.6506 103.722c-1.7414 0-3.1541 1.4127-3.1541 3.1542.0004 1.7381 1.4126 3.1541 3.1541 3.1541l57.1634-.0001c1.738 0 3.1535-1.4156 3.1535-3.154.0002-1.7415-1.4157-3.1541-3.1541-3.1541l-18.8365-.0001c-.0755.9271-.8494 1.6539-1.7985 1.6539l-15.8956-.0002c-.9457 0-1.7231-.7265-1.7983-1.6536l-18.8339-.0001zm57.1634 9.9165l-57.1634 0c-3.7302 0-6.7624-3.035-6.7624-6.7623.0004-3.7307 3.0319-6.7624 6.7624-6.7624l20.6322-.0001c.9493 0 1.7255.7267 1.8006 1.6539l12.2971-.0002c.0755-.9271.8519-1.6536 1.7979-1.6536l20.6356-.0001c3.7302 0 6.7618 3.032 6.7618 6.7625.0002 3.7273-3.032 6.7624-6.7618 6.7623zM103.232 48.9744c-11.7898 0-21.3839 9.5908-21.3839 21.3836.0004 11.7895 9.5939 21.3804 21.3836 21.3804 11.7899-.0001 21.3834-9.5907 21.3834-21.3804.0002-11.7928-9.594-21.3835-21.3831-21.3836zm0 46.3722c-13.7821 0-24.9922-11.21-24.9922-24.9886.0004-13.782 11.2101-24.9918 24.9919-24.9918 13.7788-.0001 24.9918 11.21 24.9918 24.9918.0001 13.7782-11.2133 24.9887-24.9915 24.9886z" class="color000000 svgShape"/><path fill="#c94c16" d="M103.232 48.9744c-4.1658,0 -8.805,8.7827 -8.805,21.3836 0.0006,12.6006 4.6387,21.3804 8.8047,21.3804 4.166,-0.0001 8.8046,-8.7795 8.8046,-21.3804 0,-12.6011 -4.6389,-21.3835 -8.8043,-21.3836zm0 46.3722c-3.5802,0 -6.8287,-2.7844 -9.1432,-7.843 -2.1075,-4.6106 -3.2701,-10.6995 -3.2701,-17.1456 0.0006,-6.4494 1.162,-12.5382 3.2701,-17.1457 2.3148,-5.0618 5.5627,-7.8461 9.1429,-7.8461 3.5803,-0.0001 6.8281,2.7845 9.1428,7.8461 2.108,4.6073 3.2701,10.6965 3.2701,17.1457 0,6.446 -1.1621,12.535 -3.2701,17.1456 -2.3143,5.0586 -5.5629,7.8431 -9.1425,7.843z" class="color000000 svgShape"/><path fill="#c94c16" d="M103.232 63.1601c-13.2493,0 -21.3839,4.191 -21.3839,7.1979 0.0004,3.0037 8.1343,7.1947 21.3836,7.1947 13.2495,-0.0002 21.3834,-4.191 21.3834,-7.1947 0.0002,-3.007 -8.1343,-7.1979 -21.3831,-7.1979zm0 18.0007c-12.1154,0 -24.9922,-3.7867 -24.9922,-10.8028 0.0004,-7.0195 12.8764,-10.8062 24.9919,-10.8062 12.1155,0 24.9918,3.787 24.9918,10.8062 0.0001,7.0159 -12.8766,10.803 -24.9915,10.8028z" class="color000000 svgShape"/><rect width="173.397" height="173.397" fill="none"/></svg>