<svg xmlns="http://www.w3.org/2000/svg" viewBox="0 0 68 68"><path fill="#c94c16" d="M14 33.2h25.7c1.7 0 3.1-1.4 3.1-3.1V16.6c0-1.7-1.4-3.2-3.1-3.2H14c-1.7 0-3.1 1.4-3.1 3.2V30c-.1 1.8 1.3 3.2 3.1 3.2zm12.8-15.8c3.3 0 5.9 2.7 5.9 5.9 0 3.3-2.6 5.9-5.9 5.9-3.3 0-5.9-2.6-5.9-5.9 0-3.2 2.7-5.9 5.9-5.9zm13.8 33.1H13c-1.2 0-2.2 1-2.2 2.2v5.6c0 1.2 1 2.2 2.2 2.2h27.6c1.2 0 2.2-1 2.2-2.2v-5.6c0-1.2-1-2.2-2.2-2.2zm-28.5-7h5.4c.7 0 1.3-.6 1.3-1.3v-4.7c0-.7-.6-1.3-1.3-1.3h-5.4c-.7 0-1.3.6-1.3 1.3v4.7c0 .7.6 1.3 1.3 1.3zm17.4 0c.7 0 1.3-.6 1.3-1.3v-4.7c0-.7-.6-1.3-1.3-1.3h-5.4c-.7 0-1.3.6-1.3 1.3v4.7c0 .7.6 1.3 1.3 1.3h5.4zm-10.1 3.6c0 .9.7 1.6 1.6 1.6h10.6c.9 0 1.6-.7 1.6-1.6 0-.9-.7-1.6-1.6-1.6H21c-.9 0-1.6.7-1.6 1.6z" class="color000000 svgShape"/><path fill="#c94c16" d="m26.8 26.2 2.4-2c.6-.5.6-1.3 0-1.8l-2.4-2c-.8-.6-1.9-.1-1.9.9v3.9c.1 1.1 1.2 1.6 1.9 1z" class="color000000 svgShape"/><path fill="#c94c16" d="M59 8.7c-2.9-1.1-6.1.4-7.2 3.2l-3.6 9.4V9.6c0-4.2-3.4-7.6-7.6-7.6H13C8.8 2 5.4 5.4 5.4 9.6v48.8c0 4.2 3.4 7.6 7.6 7.6h27.6c4.2 0 7.6-3.4 7.6-7.6V46.3c3.6-3.2 3.4-2.9 3.6-3.4l10.4-27c1.1-2.9-.3-6.1-3.2-7.2zM46.5 45.2c-.5-.5-1.6-1-2.6-1l-.4-3.2c.6.2-2-.8 5.4 2.1-.1 0-1.8 1.6-2.4 2.1zm-.3 13.2c0 3.1-2.5 5.6-5.6 5.6H13c-3.1 0-5.6-2.5-5.6-5.6V9.6C7.4 6.5 9.9 4 13 4h3.1v3.7c0 1.3 1.1 2.4 2.4 2.4H35c1.3 0 2.4-1.1 2.4-2.4V4h3.2c3.1 0 5.6 2.5 5.6 5.6v16.9l-3.8 9.9c-.2-.2-.6-.4-.9-.4h-5.4c-.7 0-1.3.6-1.3 1.3V42c0 .7.6 1.3 1.3 1.3h5.6l.5 4.9c.2 1.3 1.6 1.8 2.6 1l1.4-1.2v10.4zM31.5 6.5c0 .5-.4 1-1 1h-3.4c-.6 0-1-.4-1-1s.4-1 1-1h3.4c.6 0 1 .5 1 1zm18.7 34.9c-.1 0-7.1-2.7-6.6-2.5 0-.1 8.3-21.7 8.3-21.5l2.4.9-3.8 10c-.2.5.1 1.1.6 1.3.6.2 1.1-.1 1.3-.6l3.8-10 2.4.9-8.4 21.5z" class="color000000 svgShape"/></svg>