<svg xmlns="http://www.w3.org/2000/svg" viewBox="0 0 100 100"><path fill="#c94c16" d="M86.078 22.94v-9.02h-72.16v11.275h.004V86.08h2.255V25.195h67.65v60.884h2.255V22.94h-.004zm-69.905-6.765h58.63v6.765h-58.63v-6.765zm60.885 0h6.765v6.765h-6.765v-6.765zm-.005 22.549v-9.019H52.248V59.02h24.805v-7.893h2.255v10.147H49.993V27.45h29.315v11.274h-2.255zm1.227 5.465 2.623 2.622-1.594 1.594-1.128-1.127-1.495-1.495.414 1.655-2.188.547-1.856-7.427 5.125 1.282 2.301.575-.547 2.188-1.655-.414zM27.443 18.43h2.255v2.255h-2.255V18.43zm-4.51 0h2.255v2.255h-2.255V18.43zm-4.51 0h2.255v2.255h-2.255V18.43zm36.08 38.279.056-2.199 2.199.056v2.199l-2.255-.056zm13.53.056-9.02-.056.056-2.199 8.964.056v2.199zm4.51 0-2.255-.056.056-2.199 2.199.056v2.199zm-10.147-4.51h-7.893V50h7.893v2.255zm9.02 0h-6.765V50h6.765v2.255zM54.503 45.49h16.912v2.255H54.503V45.49zm16.913-11.275H54.503V31.96h16.912v2.255zM54.503 36.47h6.765v2.255h-6.765V36.47zm9.02 2.255V36.47h7.892v2.255h-7.892zm-9.02 2.255h12.725v2.255H54.503V40.98zm-34.952-4.502v9.005h3.207c.336.772.756 1.497 1.253 2.17l-1.603 2.768 7.813 4.501 1.6-2.765a10.72 10.72 0 0 0 2.519 0l1.6 2.765 7.813-4.501-1.603-2.768c.498-.673.917-1.399 1.253-2.17h3.207v-9.005h-3.207a11.084 11.084 0 0 0-1.253-2.17l1.603-2.768-7.813-4.5-1.6 2.765a10.72 10.72 0 0 0-2.519 0l-1.6-2.765-7.813 4.5 1.603 2.768a11.092 11.092 0 0 0-1.253 2.17h-3.207zm5.035 1.505a8.95 8.95 0 0 1 1.642-2.841l.521-.607-1.256-2.17 3.904-2.25 1.256 2.17.783-.145a8.634 8.634 0 0 1 3.291 0l.783.145 1.256-2.17 3.904 2.25-1.256 2.17.521.607a8.929 8.929 0 0 1 1.642 2.841l.267.75h2.513v4.495h-2.513l-.267.75a8.95 8.95 0 0 1-1.642 2.841l-.521.607 1.256 2.17-3.904 2.25-1.256-2.17-.783.144a8.594 8.594 0 0 1-3.291 0l-.783-.144-1.256 2.17-3.904-2.25 1.256-2.17-.521-.607a8.94 8.94 0 0 1-1.642-2.841l-.266-.75h-2.514v-4.495h2.514l.266-.75zm6.328 8.634h2.255a3.386 3.386 0 0 0 3.383-3.382V41.91a3.385 3.385 0 0 0 2.255-3.185 3.385 3.385 0 0 0-3.383-3.382 3.385 3.385 0 0 0-3.185 2.255h-1.325a3.386 3.386 0 0 0-3.382 3.382v2.255a3.386 3.386 0 0 0 3.382 3.382zm-1.127-5.638c0-.622.506-1.127 1.128-1.127h1.325c.34.958 1.1 1.717 2.058 2.057v1.325c0 .622-.506 1.127-1.128 1.127h-2.255a1.129 1.129 0 0 1-1.128-1.127v-2.255zm4.51-2.255c0-.31.125-.59.328-.794a1.129 1.129 0 1 1 .799 1.922 1.129 1.129 0 0 1-1.127-1.128zm1.039 20.296H19.551V86.078h2.255v-2.255h2.255v2.255h2.255v-2.255h9.02v2.255h2.255v-2.255h7.892v2.255h2.255V59.02H35.336zm10.147 5.638h-7.892v-3.382h7.892v3.382zm0 5.637h-7.892v-3.382h7.892v3.382zm0 5.637h-7.892V72.55h7.892v3.382zM21.806 72.55h2.255v3.382h-2.255V72.55zm0-5.637h2.255v3.382h-2.255v-3.382zm0-5.638h2.255v3.382h-2.255v-3.382zm13.53 3.383h-9.02v-3.382h9.02v3.382zm0 5.637h-9.02v-3.382h9.02v3.382zm-9.02 2.255h9.02v3.382h-9.02V72.55zm-4.51 9.02v-3.382h2.255v3.382h-2.255zm4.51 0v-3.382h9.02v3.382h-9.02zm11.275 0v-3.382h7.892v3.382h-7.892zm28.187-15.785H54.503a3.386 3.386 0 0 0-3.382 3.382 3.386 3.386 0 0 0 3.382 3.382h11.275a3.386 3.386 0 0 0 3.382-3.382 3.385 3.385 0 0 0-3.382-3.382zm0 4.51H54.503a1.128 1.128 0 0 1 0-2.256h11.275a1.129 1.129 0 0 1 0 2.256zm-14.657 4.51h18.04v2.254h-18.04v-2.254zm10.147 4.51h7.893v2.255h-7.893v-2.255zm-2.255 2.255H51.12v-2.255h7.893v2.255zm-7.892 2.255h18.04v2.255h-18.04v-2.255zm22.55-18.04h2.255v20.294h-2.255V65.785zm4.51 0h2.255v2.255h-2.255v-2.255zm0 18.04h2.255v2.255h-2.255v-2.255zm0-4.51h2.255v2.255h-2.255v-2.255zm0-4.51h2.255v2.254h-2.255v-2.254zm0-4.51h2.255v2.255h-2.255v-2.255z" class="color000000 svgShape"/></svg>