<svg xmlns="http://www.w3.org/2000/svg" xmlns:xlink="http://www.w3.org/1999/xlink" data-name="layer 1" viewBox="0 0 1159 771"><defs><linearGradient id="a" x1="-3489.51" x2="-3489.51" y1="51.419" y2="-94.744" gradientTransform="matrix(-1 0 0 1 -2706.325 0)" gradientUnits="userSpaceOnUse"><stop class="stopColor9ed1de svgShape" offset="0" stop-color="#deb19e"/><stop class="stopColorffffff svgShape" offset="1" stop-color="#fff" stop-opacity="0"/></linearGradient><linearGradient id="c" x1="-3074.862" x2="-3074.862" y1="51.419" y2="-94.744" xlink:href="#a"/><clipPath id="b"><rect width="1159" height="771" fill="none"/></clipPath></defs><g class="color000000 svgShape" clip-path="url(#b)"><rect width="1159" height="771" fill="#fff1eb" class="colorebfbff svgShape"/><polygon fill="#edd1c5" points="733.72 265.737 732.981 664.347 768.385 664.443 769.185 250.274 733.385 265.735 733.72 265.737" class="colorc5e6ed svgShape"/><polygon fill="#f9e1d7" points="639.207 664.09 732.981 664.347 733.72 265.737 639.207 265.479 639.207 664.09" class="colord7f2f9 svgShape"/><polygon fill="#fefdfc" points="733.72 265.737 698.447 95.379 639.207 265.479 733.72 265.737" class="colorfcfcfe svgShape" opacity=".46"/><polygon fill="#f9e1d7" points="698.447 95.379 769.185 250.274 733.72 265.737 698.447 95.379" class="colord7f2f9 svgShape"/><path fill="#fefdfc" d="M962.2109,89.4785h-.1982A39.79815,39.79815,0,0,0,924.6631,82.04c1.2295-3.9473,3.1826-7.6426,1.4609-11.8564-1.7597-4.3028-6.5517-6.8125-10.7656-7.9903-7.707-2.1553-16.0029-1.1328-22.0313,3.6172-2.1962-10.4014-11.0087-19.2353-22.3837-18.7187-12.0479.5478-20.3975,11.3935-20.7002,22.705-6.3262-1.7304-13.3262-2.4248-19.5655-.2949-5.3974,1.8418-6.8545,7.2578-10.8369,9.0098-5.3965,2.373-11.624-1.8018-16.3984,3.3056a7.278,7.278,0,0,0-1.8682,7.2998,15.84515,15.84515,0,0,0,4.3662,5.0879H960.4736a2.41712,2.41712,0,0,0,3.0117-.4111C965.1289,92.6738,964.7295,89.4785,962.2109,89.4785Z" class="colorfcfcfe svgShape"/><path fill="#fefdfc" d="M755.9258,53.7412h-.1153a23.03528,23.03528,0,0,0-21.6191-4.3057c.7119-2.2852,1.8428-4.4238.8457-6.8633-1.0185-2.4902-3.793-3.9433-6.2314-4.625a14.33811,14.33811,0,0,0-12.7539,2.0938c-1.2706-6.0205-6.3711-11.1348-12.9561-10.835-6.9736.3174-11.8076,6.5947-11.9824,13.1426-3.6621-1.002-7.7139-1.4043-11.3252-.1709-3.124,1.0664-3.9678,4.2012-6.2725,5.2148-3.124,1.3741-6.7295-1.0429-9.4931,1.9141a4.21193,4.21193,0,0,0-1.0811,4.2246,9.18664,9.18664,0,0,0,2.5273,2.9463h89.4512a1.40017,1.40017,0,0,0,1.7442-.2383A1.37453,1.37453,0,0,0,755.9258,53.7412Z" class="colorfcfcfe svgShape"/><path fill="#fefdfc" d="M109.7519,176.7627h-.1025a20.57341,20.57341,0,0,0-19.3076-3.8448c.6357-2.041,1.6455-3.9511.7559-6.1289-.9102-2.2246-3.3868-3.5215-5.5655-4.1308a12.80507,12.80507,0,0,0-11.3886,1.8701c-1.1348-5.377-5.6905-9.9434-11.5704-9.6758-6.2285.2832-10.5439,5.8896-10.7011,11.7363a17.47325,17.47325,0,0,0-10.1133-.1523c-2.7901.9521-3.543,3.7519-5.6016,4.6572-2.79,1.2275-6.0097-.9316-8.4775,1.709a3.76385,3.76385,0,0,0-.9658,3.7734,8.17932,8.17932,0,0,0,2.2578,2.6299h79.8818a1.25044,1.25044,0,0,0,1.5576-.2119A1.22789,1.22789,0,0,0,109.7519,176.7627Z" class="colorfcfcfe svgShape"/><path fill="#fefdfc" d="M177.8193,74.3252h-.122a24.41679,24.41679,0,0,0-22.9151-4.5635c.7549-2.4219,1.9531-4.6895.8965-7.2735-1.0791-2.6406-4.0195-4.1796-6.6045-4.9023-4.7275-1.3223-9.8174-.6953-13.5166,2.2187-1.3476-6.3808-6.7539-11.8007-13.7324-11.4843-7.3916.3359-12.5147,6.9902-12.7002,13.9306-3.8818-1.0615-8.1758-1.4882-12.0029-.1816-3.3116,1.1299-4.2051,4.4531-6.6485,5.5273-3.3115,1.4561-7.1328-1.1054-10.0615,2.0284a4.46314,4.46314,0,0,0-1.1455,4.4785,9.71292,9.71292,0,0,0,2.6777,3.122h94.8086a1.486,1.486,0,0,0,1.8487-.2519A1.45726,1.45726,0,0,0,177.8193,74.3252Z" class="colorfcfcfe svgShape"/><path fill="#fefdfc" d="M608.5811,103.2324h-.167a33.27035,33.27035,0,0,0-31.2276-6.2188c1.0283-3.3008,2.6612-6.3906,1.2217-9.9131-1.4717-3.5986-5.4775-5.6962-9.001-6.6816-6.4433-1.8018-13.3799-.9473-18.4209,3.0254-1.8359-8.6973-9.2041-16.083-18.7148-15.6514-10.0733.458-17.0547,9.5264-17.3076,18.9834-5.2891-1.4463-11.1416-2.0273-16.3584-.247-4.5118,1.54-5.7305,6.0683-9.0596,7.5332-4.5127,1.9843-9.7207-1.5059-13.7119,2.7646a6.08493,6.08493,0,0,0-1.5615,6.1025,13.23783,13.23783,0,0,0,3.6503,4.2549H607.1279a2.0216,2.0216,0,0,0,2.5186-.3437C611.0205,105.9043,610.6855,103.2324,608.5811,103.2324Z" class="colorfcfcfe svgShape"/><polygon fill="#edd1c5" points="179.206 82.938 180.046 620.107 217.192 620.023 216.417 191.889 216.769 191.888 179.206 82.938" class="colorc5e6ed svgShape"/><polygon fill="#f9e1d7" points="315.585 191.666 315.585 619.803 217.192 620.023 216.417 191.889 315.585 191.666" class="colord7f2f9 svgShape"/><polygon fill="#fefdfc" points="216.417 191.889 179.246 82.938 280.366 82.938 315.585 191.438 315.585 191.58 216.417 191.889" class="colorfcfcfe svgShape"/><rect width="196.452" height="415.31" x="-47.608" y="253.468" fill="#edd1c5" class="colorc5e6ed svgShape"/><rect width="224.471" height="20.198" x="-61.618" y="243.369" fill="#f9e1d7" class="colord7f2f9 svgShape"/><rect width="196.452" height="415.31" x="27.933" y="253.468" fill="#f9e1d7" class="colord7f2f9 svgShape"/><rect width="196.452" height="8.637" x="27.933" y="315.202" fill="#fff" class="colorffffff svgShape"/><rect width="196.452" height="8.637" x="27.933" y="385.573" fill="#fff" class="colorffffff svgShape"/><rect width="196.452" height="8.638" x="27.933" y="455.943" fill="#fff" class="colorffffff svgShape"/><rect width="196.452" height="8.637" x="27.933" y="526.314" fill="#fff" class="colorffffff svgShape"/><rect width="196.452" height="8.637" x="27.933" y="596.686" fill="#fff" class="colorffffff svgShape"/><rect width="415.31" height="8.637" x="-117.798" y="456.804" fill="#fff" class="colorffffff svgShape" transform="rotate(90 89.856 461.123)"/><rect width="415.31" height="8.637" x="-45.193" y="456.804" fill="#fff" class="colorffffff svgShape" transform="rotate(90 162.462 461.123)"/><rect width="224.471" height="20.198" x="13.924" y="243.369" fill="#edd1c5" class="colorc5e6ed svgShape"/><rect width="69.752" height="551.917" x="1004.612" y="65.791" fill="#f9e1d7" class="colord7f2f9 svgShape"/><polygon fill="#fefdfc" points="1092.923 65.791 1074.364 65.791 1074.364 617.708 1214.377 617.708 1214.377 117.543 1092.923 65.791" class="colorfcfcfe svgShape"/><rect width="103.876" height="27.168" x="1074.364" y="139.239" fill="#fff1eb" class="colorebfbff svgShape"/><rect width="103.875" height="27.168" x="1110.118" y="213.523" fill="#fff1eb" class="colorebfbff svgShape"/><rect width="43.03" height="15.548" x="1013.519" y="252.148" fill="#fff1eb" class="colorebfbff svgShape"/><rect width="43.03" height="15.548" x="1013.519" y="450.441" fill="#fff1eb" class="colorebfbff svgShape"/><rect width="51.938" height="27.168" x="1021.588" y="94.509" fill="#fff1eb" class="colorebfbff svgShape"/><rect width="51.938" height="27.168" x="1021.588" y="309.761" fill="#fff1eb" class="colorebfbff svgShape"/><rect width="51.938" height="27.168" x="1150.939" y="452.405" fill="#fff1eb" class="colorebfbff svgShape"/><rect width="103.875" height="27.168" x="1073.033" y="347.696" fill="#fff1eb" class="colorebfbff svgShape"/><rect width="56.855" height="449.869" x="467.9" y="169.74" fill="#f9e1d7" class="colord7f2f9 svgShape"/><polygon fill="#fefdfc" points="452.773 169.74 467.9 169.74 467.9 619.609 353.775 619.609 353.775 211.923 452.773 169.74" class="colorfcfcfe svgShape"/><rect width="84.669" height="22.145" x="383.231" y="229.607" fill="#fff1eb" class="colorebfbff svgShape" transform="rotate(180 425.566 240.68)"/><rect width="84.669" height="22.145" x="354.089" y="290.156" fill="#fff1eb" class="colorebfbff svgShape" transform="rotate(180 396.423 301.228)"/><rect width="35.074" height="12.673" x="482.421" y="321.641" fill="#fff1eb" class="colorebfbff svgShape" transform="rotate(180 499.958 327.977)"/><rect width="35.074" height="12.673" x="482.421" y="483.269" fill="#fff1eb" class="colorebfbff svgShape" transform="rotate(180 499.958 489.606)"/><rect width="42.334" height="22.145" x="468.585" y="193.146" fill="#fff1eb" class="colorebfbff svgShape" transform="rotate(180 489.752 204.22)"/><rect width="42.334" height="22.145" x="468.585" y="368.6" fill="#fff1eb" class="colorebfbff svgShape" transform="rotate(180 489.752 379.672)"/><rect width="42.334" height="22.145" x="363.149" y="484.87" fill="#fff1eb" class="colorebfbff svgShape" transform="rotate(180 384.316 495.943)"/><rect width="84.669" height="22.145" x="384.316" y="399.521" fill="#fff1eb" class="colorebfbff svgShape" transform="rotate(180 426.65 410.594)"/><polygon fill="#fefdfc" points="340.013 606.291 239.269 606.291 63.795 0 164.539 0 340.013 606.291" class="colorfcfcfe svgShape" opacity=".46"/><polygon fill="#fefdfc" points="443.222 606.291 399.408 606.291 223.935 0 267.747 0 443.222 606.291" class="colorfcfcfe svgShape" opacity=".46"/><polygon fill="#fefdfc" points="690.415 606.291 589.671 606.291 414.197 0 514.941 0 690.415 606.291" class="colorfcfcfe svgShape" opacity=".46"/><polygon fill="#fefdfc" points="1159.696 606.291 1058.952 606.291 883.48 0 984.224 0 1159.696 606.291" class="colorfcfcfe svgShape" opacity=".46"/><polygon fill="#fefdfc" points="793.624 606.291 749.811 606.291 574.338 0 618.15 0 793.624 606.291" class="colorfcfcfe svgShape" opacity=".46"/><polygon fill="#edd1c5" points="916.299 251.013 915.384 649.623 959.278 649.719 960.271 235.551 915.883 251.012 916.299 251.013" class="colorc5e6ed svgShape"/><polygon fill="#f9e1d7" points="799.117 649.367 915.384 649.623 916.299 251.013 799.117 250.756 799.117 649.367" class="colord7f2f9 svgShape"/><polygon fill="#fff" points="799.117 250.492 799.117 250.656 916.299 251.013 960.224 235.551 840.734 235.551 799.117 250.492" class="colorffffff svgShape"/><rect width="1159" height="139.326" y="631.674" fill="#f9e1d7" class="colord7f2f9 svgShape"/><ellipse cx="551.321" cy="700.749" fill="#edd1c5" class="colorc5e6ed svgShape" rx="590.827" ry="22.335"/><rect width="1159" height="26.417" y="605.257" fill="#edd1c5" class="colorc5e6ed svgShape"/><rect width="1159" height="5.213" y="626.461" fill="#dbbbad" class="coloradd6db svgShape"/><rect width="22.352" height="606.291" x="260.201" fill="#edd1c5" class="colorc5e6ed svgShape"/><rect width="7.064" height="606.291" x="275.489" fill="#dbbbad" class="coloradd6db svgShape"/><rect width="22.353" height="606.291" x="568.324" fill="#edd1c5" class="colorc5e6ed svgShape"/><rect width="7.064" height="606.291" x="583.612" fill="#dbbbad" class="coloradd6db svgShape"/><rect width="22.352" height="606.291" x="876.446" fill="#edd1c5" class="colorc5e6ed svgShape"/><rect width="7.064" height="606.291" x="891.734" fill="#dbbbad" class="coloradd6db svgShape"/><circle cx="781.815" cy="99.333" r="16.339" fill="#f9e1d7" class="colord7f2f9 svgShape" transform="rotate(-45 781.815 99.333)"/><path fill="#fff" d="M781.5937,109.5576c3.8672-.6983,9.1836-3.7403,10.1817-7.8282.3564-1.458,2.6084-.8398,2.251.6211-1.1905,4.875-7.1377,8.6133-11.8125,9.4581C780.7451,112.0742,780.1143,109.8242,781.5937,109.5576Z" class="colorffffff svgShape"/><path fill="url(#a)" d="M779.0732,43.9462V-94.7442h8.2237V43.9453C795.1436,53.9101,771.2275,53.9101,779.0732,43.9462Z"/><path fill="#edd1c5" d="M719.2988,100.8437c32.5948-24.5576,51.9287-46.9336,59.7744-56.8975l8.2237-.0009c7.8467,9.9648,27.1787,32.3398,59.7754,56.8984Z" class="colorc5e6ed svgShape"/><circle cx="367.167" cy="99.333" r="16.339" fill="#f9e1d7" class="colord7f2f9 svgShape" transform="rotate(-22.5 367.167 99.333)"/><path fill="#fff" d="M366.9443,109.5576c3.8672-.6983,9.1836-3.7403,10.1826-7.8282.3565-1.458,2.6075-.8398,2.251.6211-1.1914,4.875-7.1386,8.6133-11.8125,9.4581C366.0967,112.0742,365.4658,109.8242,366.9443,109.5576Z" class="colorffffff svgShape"/><path fill="url(#c)" d="M364.4248,43.9462V-94.7442h8.2227V43.9453C380.4951,53.9101,356.5781,53.9101,364.4248,43.9462Z"/><path fill="#edd1c5" d="M304.6494,100.8437c32.5957-24.5576,51.9287-46.9336,59.7754-56.8975l8.2227-.0009c7.8476,9.9648,27.1796,32.3398,59.7753,56.8984Z" class="colorc5e6ed svgShape"/></g><path fill="#d08f73" d="M238.4385,438.583a.5.5,0,0,1-.3106-.8916c3.5381-2.8096,5.9707-9.2618,5.9951-9.3272a.50028.50028,0,0,1,.9375.3496c-.1025.2754-2.5527,6.7764-6.3115,9.7608A.4954.4954,0,0,1,238.4385,438.583Z" class="colord07d73 svgShape"/><path fill="#edd1c5" d="M522.2364,188.1757H829.0986a10.2168,10.2168,0,0,1,10.2168,10.2168V530.7334a7.999,7.999,0,0,1-7.999,7.999H520.0195a7.999,7.999,0,0,1-7.999-7.999V198.3916A10.2159,10.2159,0,0,1,522.2364,188.1757Z" class="colorc5e6ed svgShape"/><path fill="#fefdfc" d="M513.5889,188.1757H820.4502a10.2168,10.2168,0,0,1,10.2168,10.2168V530.7334a7.999,7.999,0,0,1-7.999,7.999H511.3721a7.9991,7.9991,0,0,1-7.9991-7.9991V198.3916A10.2159,10.2159,0,0,1,513.5889,188.1757Z" class="colorfcfcfe svgShape"/><path fill="#f07c4a" d="M513.5889,188.1757H820.4511a10.2159,10.2159,0,0,1,10.2159,10.2159v24.9746a0,0,0,0,1,0,0H503.373a0,0,0,0,1,0,0V198.3916A10.2159,10.2159,0,0,1,513.5889,188.1757Z" class="colorf06a4a svgShape"/><path fill="#fff" d="M559.667,205.7705a5.4043,5.4043,0,1,1,5.4043,5.4052A5.40406,5.40406,0,0,1,559.667,205.7705Z" class="colorffffff svgShape"/><path fill="#fff" d="M538.8682,205.7705a5.40475,5.40475,0,1,1,5.4052,5.4052A5.40425,5.40425,0,0,1,538.8682,205.7705Z" class="colorffffff svgShape"/><path fill="#fff" d="M518.0713,205.7705a5.4043,5.4043,0,1,1,5.4043,5.4052A5.40406,5.40406,0,0,1,518.0713,205.7705Z" class="colorffffff svgShape"/><polygon fill="#fff" points="804.913 201.819 807.589 199.145 811.41 202.966 815.231 199.145 817.907 201.819 814.085 205.642 817.907 209.463 815.231 212.138 811.41 208.316 807.589 212.138 804.913 209.463 808.735 205.642 804.913 201.819" class="colorffffff svgShape"/><path fill="#edd1c5" d="M540.6396,294.1992l255.9229,2.4424c6.7686,0,14.6982-7.9288,14.6982-14.6973v-27.707a12.25521,12.25521,0,0,0-12.2558-12.2549H540.6396c-6.7675,0-16.7714,5.5478-16.7714,12.3164l4.5166,27.6455A12.25506,12.25506,0,0,0,540.6396,294.1992Z" class="colorc5e6ed svgShape"/><path fill="#fff1eb" d="M535.8399,244.6562H794.2051A12.2549,12.2549,0,0,1,806.46,256.9111v27.707a12.2549,12.2549,0,0,1-12.2549,12.2549H535.8398a12.2548,12.2548,0,0,1-12.2548-12.2548V256.9111A12.2549,12.2549,0,0,1,535.8399,244.6562Z" class="colorebfbff svgShape" transform="rotate(180 665.023 270.765)"/><path fill="#ff6f31" d="M540.1181,253.5146h19.1201a7.6895,7.6895,0,0,1,7.6895,7.6895v19.1201a7.6904,7.6904,0,0,1-7.6904,7.6904H540.1181a7.6894,7.6894,0,0,1-7.6894-7.6894V261.204A7.6894,7.6894,0,0,1,540.1181,253.5146Z" class="colorffba31 svgShape"/><path fill="#edd1c5" d="M585.4833,253.5146H786.5146a7.6905,7.6905,0,0,1,7.6905,7.6905v19.1191a7.6904,7.6904,0,0,1-7.6904,7.6904H585.4834a7.6895,7.6895,0,0,1-7.6895-7.6895V261.204A7.6894,7.6894,0,0,1,585.4833,253.5146Z" class="colorc5e6ed svgShape"/><path fill="#fff" d="M561.8603,278.1709l-7.1445-6.2276a9.39183,9.39183,0,1,0-2.2178,3.0147l6.9112,6.0244a1.865,1.865,0,0,0,2.4511-2.8115Zm-15.6406-4.2647a5.88135,5.88135,0,1,1,5.8809-5.8809A5.88066,5.88066,0,0,1,546.2197,273.9062Z" class="colorffffff svgShape"/><path fill="#f9e1d7" d="M544.2275,402.8984l147.0684,2.375c6.583,0,14.2949-7.7109,14.2949-14.294V339.4648a11.91842,11.91842,0,0,0-11.9189-11.9189H544.2275c-6.582,0-16.3105,5.3955-16.3105,11.9775l4.3926,51.456A11.91823,11.91823,0,0,0,544.2275,402.8984Z" class="colord7f2f9 svgShape"/><path fill="#fff1eb" d="M539.5596,330.1464H689.0039a11.9189,11.9189,0,0,1,11.9189,11.9189V393.581a11.918,11.918,0,0,1-11.918,11.918H539.5596a11.919,11.919,0,0,1-11.919-11.919V342.0654A11.919,11.919,0,0,1,539.5596,330.1464Z" class="colorebfbff svgShape" transform="rotate(180 614.282 367.823)"/><rect width="85.81" height="15.731" x="604.373" y="340.748" fill="#edd1c5" class="colorc5e6ed svgShape"/><rect width="16.059" height="2.396" x="604.373" y="366.625" fill="#f9e1d7" class="colord7f2f9 svgShape"/><rect width="64.031" height="2.396" x="626.151" y="366.625" fill="#f9e1d7" class="colord7f2f9 svgShape"/><rect width="42.352" height="2.395" x="604.373" y="372.297" fill="#f9e1d7" class="colord7f2f9 svgShape"/><rect width="16.059" height="2.395" x="650.138" y="372.297" fill="#f9e1d7" class="colord7f2f9 svgShape"/><rect width="20.001" height="2.395" x="670.182" y="372.297" fill="#f9e1d7" class="colord7f2f9 svgShape"/><rect width="50.652" height="2.394" x="604.373" y="377.969" fill="#f9e1d7" class="colord7f2f9 svgShape"/><rect width="30.58" height="2.394" x="659.602" y="377.969" fill="#f9e1d7" class="colord7f2f9 svgShape"/><rect width="40.045" height="2.395" x="650.138" y="383.767" fill="#f9e1d7" class="colord7f2f9 svgShape"/><rect width="9.896" height="2.394" x="604.373" y="383.641" fill="#f9e1d7" class="colord7f2f9 svgShape"/><rect width="28.164" height="2.394" x="617.938" y="383.641" fill="#f9e1d7" class="colord7f2f9 svgShape"/><rect width="16.059" height="2.396" x="604.373" y="389.312" fill="#f9e1d7" class="colord7f2f9 svgShape"/><rect width="64.031" height="2.396" x="626.151" y="389.312" fill="#f9e1d7" class="colord7f2f9 svgShape"/><path fill="#f9e1d7" d="M739.3857,402.8984l53.8799,2.375c6.5821,0,14.294-7.7109,14.294-14.294V339.4648a11.91851,11.91851,0,0,0-11.919-11.9189H739.3857c-6.583,0-16.3125,5.3955-16.3125,11.9775l4.3936,51.456A11.91844,11.91844,0,0,0,739.3857,402.8984Z" class="colord7f2f9 svgShape"/><path fill="#fff1eb" d="M734.7168,330.1464h56.2559a11.9189,11.9189,0,0,1,11.9189,11.9189V393.581a11.918,11.918,0,0,1-11.918,11.918H734.7168a11.919,11.919,0,0,1-11.919-11.919V342.0654A11.919,11.919,0,0,1,734.7168,330.1464Z" class="colorebfbff svgShape" transform="rotate(180 762.845 367.823)"/><path fill="#edd1c5" d="M790.8271,345.457v44.7471a3.8623,3.8623,0,0,1-3.8535,3.8545H738.7158a3.86315,3.86315,0,0,1-3.8545-3.8545V345.457a3.86642,3.86642,0,0,1,3.8545-3.8701h48.2578A3.86557,3.86557,0,0,1,790.8271,345.457Z" class="colorc5e6ed svgShape"/><path fill="#f9e1d7" d="M790.8271,368.08v22.1241a3.8623,3.8623,0,0,1-3.8535,3.8545H738.7158a3.86315,3.86315,0,0,1-3.8545-3.8545v-6.2569l8.3946-9.3457a1.83732,1.83732,0,0,1,2.6992-.0469l11.0927,11.4678a1.84367,1.84367,0,0,0,2.6836-.0312l22.795-24.8701a1.86659,1.86659,0,0,1,2.8086.0937Z" class="colord7f2f9 svgShape"/><path fill="#f9e1d7" d="M758.5332,355.123a6.7583,6.7583,0,1,0-6.7578,6.7588A6.7578,6.7578,0,0,0,758.5332,355.123Z" class="colord7f2f9 svgShape"/><path fill="#edd1c5" d="M597.1377,344.6171v44.7481a3.862,3.862,0,0,1-3.8535,3.8535H545.0264a3.86159,3.86159,0,0,1-3.8545-3.8535V344.6171a3.86556,3.86556,0,0,1,3.8545-3.8691h48.2578A3.866,3.866,0,0,1,597.1377,344.6171Z" class="colorc5e6ed svgShape"/><path fill="#f9e1d7" d="M597.1377,367.2412v22.124a3.862,3.862,0,0,1-3.8535,3.8535H545.0264a3.86159,3.86159,0,0,1-3.8545-3.8535v-6.2568l8.3945-9.3457a1.83572,1.83572,0,0,1,2.6992-.0459l11.0928,11.4668a1.84368,1.84368,0,0,0,2.6836-.0313l22.7949-24.8701a1.86586,1.86586,0,0,1,2.8086.0937Z" class="colord7f2f9 svgShape"/><path fill="#f9e1d7" d="M564.8437,354.2841a6.7583,6.7583,0,1,0-6.7578,6.7588A6.75771,6.75771,0,0,0,564.8437,354.2841Z" class="colord7f2f9 svgShape"/><path fill="#f9e1d7" d="M544.2275,505.1142l147.0684,2.376c6.583,0,14.2949-7.7129,14.2949-14.2949V441.6796a11.91821,11.91821,0,0,0-11.9189-11.9179H544.2275c-6.582,0-16.3105,5.3945-16.3105,11.9775l4.3926,51.4561A11.91885,11.91885,0,0,0,544.2275,505.1142Z" class="colord7f2f9 svgShape"/><path fill="#fff1eb" d="M539.5595,432.3613H689.0039a11.9189,11.9189,0,0,1,11.9189,11.9189v51.5157a11.9189,11.9189,0,0,1-11.9189,11.9189H539.5596a11.919,11.919,0,0,1-11.919-11.919V444.2802A11.9189,11.9189,0,0,1,539.5595,432.3613Z" class="colorebfbff svgShape" transform="rotate(180 614.282 470.038)"/><rect width="85.81" height="15.732" x="604.373" y="442.964" fill="#edd1c5" class="colorc5e6ed svgShape"/><rect width="16.059" height="2.396" x="604.373" y="468.841" fill="#f9e1d7" class="colord7f2f9 svgShape"/><rect width="64.031" height="2.396" x="626.151" y="468.841" fill="#f9e1d7" class="colord7f2f9 svgShape"/><rect width="42.352" height="2.394" x="604.373" y="474.513" fill="#f9e1d7" class="colord7f2f9 svgShape"/><rect width="16.059" height="2.394" x="650.138" y="474.513" fill="#f9e1d7" class="colord7f2f9 svgShape"/><rect width="20.001" height="2.394" x="670.182" y="474.513" fill="#f9e1d7" class="colord7f2f9 svgShape"/><rect width="50.652" height="2.396" x="604.373" y="480.184" fill="#f9e1d7" class="colord7f2f9 svgShape"/><rect width="30.58" height="2.396" x="659.602" y="480.184" fill="#f9e1d7" class="colord7f2f9 svgShape"/><rect width="40.045" height="2.396" x="650.138" y="485.982" fill="#f9e1d7" class="colord7f2f9 svgShape"/><rect width="9.896" height="2.396" x="604.373" y="485.855" fill="#f9e1d7" class="colord7f2f9 svgShape"/><rect width="28.164" height="2.396" x="617.938" y="485.855" fill="#f9e1d7" class="colord7f2f9 svgShape"/><rect width="16.059" height="2.394" x="604.373" y="491.527" fill="#f9e1d7" class="colord7f2f9 svgShape"/><rect width="64.031" height="2.394" x="626.151" y="491.527" fill="#f9e1d7" class="colord7f2f9 svgShape"/><path fill="#f9e1d7" d="M739.3857,505.1142l53.8799,2.376c6.5821,0,14.294-7.7129,14.294-14.2949V441.6796a11.91829,11.91829,0,0,0-11.919-11.9179H739.3857c-6.583,0-16.3125,5.3945-16.3125,11.9775l4.3936,51.4561A11.91906,11.91906,0,0,0,739.3857,505.1142Z" class="colord7f2f9 svgShape"/><path fill="#fff1eb" d="M734.7167,432.3613h56.256a11.9189,11.9189,0,0,1,11.9189,11.9189v51.5157a11.9189,11.9189,0,0,1-11.9189,11.9189H734.7168a11.919,11.919,0,0,1-11.919-11.919V444.2802A11.9189,11.9189,0,0,1,734.7167,432.3613Z" class="colorebfbff svgShape" transform="rotate(180 762.845 470.038)"/><path fill="#edd1c5" d="M790.8271,447.6718v44.7481a3.86144,3.86144,0,0,1-3.8535,3.8535H738.7158a3.8623,3.8623,0,0,1-3.8545-3.8535V447.6718a3.8662,3.8662,0,0,1,3.8545-3.8691h48.2578A3.86535,3.86535,0,0,1,790.8271,447.6718Z" class="colorc5e6ed svgShape"/><path fill="#f9e1d7" d="M790.8271,470.2949v22.125a3.86144,3.86144,0,0,1-3.8535,3.8535H738.7158a3.8623,3.8623,0,0,1-3.8545-3.8535V486.163l8.3946-9.3457a1.8358,1.8358,0,0,1,2.6992-.0459l11.0927,11.4668a1.84359,1.84359,0,0,0,2.6836-.0312l22.795-24.8701a1.86587,1.86587,0,0,1,2.8086.0937Z" class="colord7f2f9 svgShape"/><path fill="#f9e1d7" d="M758.5332,457.3388a6.7583,6.7583,0,1,0-6.7578,6.7588A6.75865,6.75865,0,0,0,758.5332,457.3388Z" class="colord7f2f9 svgShape"/><path fill="#edd1c5" d="M597.1377,446.833v44.748a3.862,3.862,0,0,1-3.8535,3.8535H545.0264a3.86159,3.86159,0,0,1-3.8545-3.8535V446.833a3.865,3.865,0,0,1,3.8545-3.8692h48.2578A3.86544,3.86544,0,0,1,597.1377,446.833Z" class="colorc5e6ed svgShape"/><path fill="#f9e1d7" d="M597.1377,469.457v22.124a3.862,3.862,0,0,1-3.8535,3.8535H545.0264a3.86159,3.86159,0,0,1-3.8545-3.8535v-6.2568l8.3945-9.3457a1.83653,1.83653,0,0,1,2.6992-.0469l11.0928,11.4678a1.84368,1.84368,0,0,0,2.6836-.0313l22.7949-24.8701a1.86587,1.86587,0,0,1,2.8086.0938Z" class="colord7f2f9 svgShape"/><path fill="#f9e1d7" d="M564.8437,456.5a6.7583,6.7583,0,1,0-6.7578,6.7587A6.75773,6.75773,0,0,0,564.8437,456.5Z" class="colord7f2f9 svgShape"/><polygon fill="#f5e6df" points="878.111 675.15 888.605 641.84 860.064 635.82 851.319 674.681 878.111 675.15" class="colorf5e9df svgShape"/><path fill="#d4ad9c" d="M878.833,673.0019l-26.9766-2.3965-40.0097,17.6875a11.65459,11.65459,0,0,0-6.9424,10.711l.0029.7724a3.93991,3.93991,0,0,0,3.958,3.9229l66.0489-.2871a4.05077,4.05077,0,0,0,4.0332-4.0684Z" class="color9cc6d4 svgShape"/><path fill="#48362e" d="M878.9473,699.3437l-.0147-3.2685-74.0351,1.4716.0097,2.2295a3.93991,3.93991,0,0,0,3.958,3.9229l66.0489-.2871A4.05077,4.05077,0,0,0,878.9473,699.3437Z" class="color2e3248 svgShape"/><path fill="#f07c4a" d="M944.5967,446.1152,899.9658,666.6738l-45.9433-11.0391-3.5313-.8496-11.501-2.7666,39.0332-224.3301c1.0518-6.6552,4.2764-9.2363,9.0108-9.8349,5.5547-.7022,13.1748,1.3232,21.8076,2.6865C924.833,423.0742,946.8887,431.6494,944.5967,446.1152Z" class="colorf06a4a svgShape"/><path fill="#c94c16" d="M890.249,613.2402c-4.7754,18.5381-9.7803,29.1299-16.0996,47.2305l25.8164,6.2031,42.5879-211.8731C941.0332,458.3183,898.4414,581.4394,890.249,613.2402Z" class="colore25a40 svgShape"/><polygon fill="#f5e6df" points="1010.258 677.496 1002.618 637.087 974.639 640.131 981.493 674.459 1010.258 677.496" class="colorf5e9df svgShape"/><path fill="#d4ad9c" d="M1009.543,672.9336l-28.0498,1.5253-35.1026,13.3672a11.65484,11.65484,0,0,0-7.0693,10.627l-.0059.7724a3.93986,3.93986,0,0,0,3.9102,3.9707l66.0469.503a4.04958,4.04958,0,0,0,4.082-4.0196Z" class="color9cc6d4 svgShape"/><path fill="#48362e" d="M1013.3545,699.6796l.0254-3.2675-74.0479.584-.0166,2.2294a3.93986,3.93986,0,0,0,3.9102,3.9707l66.0469.503A4.04958,4.04958,0,0,0,1013.3545,699.6796Z" class="color2e3248 svgShape"/><path fill="#f07c4a" d="M988.3525,425.6914l34.4532,231.5996-47.0547,4.3076-3.6162.331-11.7803,1.0743L919.3896,429.6308c-1.1425-6.6406,1.0811-10.1211,5.3721-12.209,5.0342-2.4492,12.9014-2.9795,21.5147-4.4619C962.2334,410.2226,985.876,411.2568,988.3525,425.6914Z" class="colorf06a4a svgShape"/><path fill="#c94c16" d="M992.1875,601.1523c1.4336,19.0898,4.3467,39.3887,4.1768,58.5596l26.4414-2.4209L989.209,434.5732C988.8994,438.3925,989.7285,568.4043,992.1875,601.1523Z" class="colore25a40 svgShape"/><path fill="#48362e" d="M978.543,463.3984c-3.4561,0-6.5284-.3604-7.9043-1.4531-3.8828-3.0811-6.6914-27.7266-6.9991-30.5264l.9942-.1094c.8232,7.4942,3.6181,27.4649,6.626,29.8526,2.999,2.3818,16.8525.7343,21.9384-.1016l.1621.9863A107.478,107.478,0,0,1,978.543,463.3984Z" class="color2e3248 svgShape"/><path fill="#48362e" d="M878.6191,449.7636a11.12265,11.12265,0,0,1-4.4189-.8691l.4258-.9043a10.92424,10.92424,0,0,0,10.1718-1.1748c5.167-3.5039,6.5655-22.2481,6.5791-22.4375l.9981.0723c-.0566.791-1.4502,19.4189-7.0166,23.1933A11.84673,11.84673,0,0,1,878.6191,449.7636Z" class="color2e3248 svgShape"/><path fill="#f5e6df" d="M916.9512,336.1494l-63.2608,52.1455-9.375-33.2862,44.2285-47.1865c.0899-.0957.1885-.1787.2793-.2715C892.4131,311.5293,911.1904,330.5722,916.9512,336.1494Z" class="colorf5e9df svgShape"/><path fill="#f5e6df" d="M834.6836,383.6562,801.21,308.7421l20.8828-4.8066,38.5332,55.877-5.5127,27.1416A12.35936,12.35936,0,0,1,834.6836,383.6562Z" class="colorf5e9df svgShape"/><path fill="#48362e" d="M926.9512,295.9257c8.0273,7.626,9.5459,19.1651,3.3916,25.7735l-23.1211,24.8301c-1.4365,1.5419-9.1074-3.3907-17.1348-11.0157-8.0273-7.6259-13.3711-15.0576-11.9355-16.5996l23.122-24.8291C907.4277,287.4765,918.9238,288.3007,926.9512,295.9257Z" class="color2e3248 svgShape"/><path fill="#59453c" d="M873.6045,425.291l122.0478,11.9453s-3.7002-101.7627-9.4365-126.3779c-3.2793-14.0713-13.8017-20.917-20.3633-20.917H922.0684c-9.2784,0-20.8096,8.3828-24.9131,22.7285C891.1885,333.5293,873.6045,425.291,873.6045,425.291Z" class="color3c4159 svgShape"/><path fill="#ead6ce" d="M944.9775,262.7363S943.6738,279,943.167,289.9336c-2.2276,5.5048-18.8106,6.6328-21.0645,2.7851l1.7373-21.6689Z" class="coloreadace svgShape"/><path fill="#f5e6df" d="M911.7988,260.3261c0,11.9698,5.501,23.0664,13.9014,23.0664,6.9336,0,20.6348-11.2119,20.6348-23.1816,0-11.9707-7.4893-21.6738-16.7286-21.6738C914.0557,238.5371,911.7988,248.3554,911.7988,260.3261Z" class="colorf5e9df svgShape"/><path fill="#48362e" d="M925.7002,260.3261a1.604,1.604,0,1,0,1.5781-1.8886A1.75319,1.75319,0,0,0,925.7002,260.3261Z" class="color2e3248 svgShape"/><path fill="#48362e" d="M915.085,259.2714a1.60432,1.60432,0,1,0,1.5791-1.8877A1.75491,1.75491,0,0,0,915.085,259.2714Z" class="color2e3248 svgShape"/><path fill="#48362e" d="M922.4092,270.4961c-1.2256,0-2.6094-.1319-3.0987-.6758a.82967.82967,0,0,1-.2021-.7491c.2891-1.3906,1.4736-5.7207,1.5244-5.9043l.7227.1973c-.0118.0449-1.2286,4.4912-1.5127,5.8594a.08835.08835,0,0,0,.0254.0947c.4414.4912,2.8994.4873,4.5039.3281l.0742.7461C924.1445,270.4228,923.3213,270.4961,922.4092,270.4961Z" class="color2e3248 svgShape"/><path fill="#48362e" d="M922.7969,276.415a4.066,4.066,0,0,1-3.0039-1.5l.5527-.5078a3.35372,3.35372,0,0,0,2.4521,1.2578h.0127a4.02886,4.02886,0,0,0,2.6094-1.2549l.5586.501a4.74146,4.74146,0,0,1-3.1572,1.5039Z" class="color2e3248 svgShape"/><path fill="#48362e" d="M930.4853,257.2002a3.73551,3.73551,0,0,0-2.5175-1.7452,4.19135,4.19135,0,0,0-2.8116.876l-.4834-.5732a4.766,4.766,0,0,1,3.3848-1.0479,4.44628,4.44628,0,0,1,3.041,2.0586Z" class="color2e3248 svgShape"/><path fill="#48362e" d="M919.1699,255.7919a3.027,3.027,0,0,0-2.1689-1.3388,3.1309,3.1309,0,0,0-2.0645.8838l-.5459-.5147a3.811,3.811,0,0,1,2.6367-1.1181,3.72656,3.72656,0,0,1,2.7305,1.6211Z" class="color2e3248 svgShape"/><path fill="#48362e" d="M936.7451,245.7802s6.9287,5.6426,7.3897,28.251c21.9912-13.0664,13.7373-50.7109-12.8682-43.3271-16.5293-3.708-13.3574,7.833-29.1045,7.833C905.5283,251.4921,934.0029,250.2363,936.7451,245.7802Z" class="color2e3248 svgShape"/><path fill="#f5e6df" d="M940.1396,261.1572c0,3.0264,1.1123,5.9424,3.7901,5.9424,2.6787,0,5.3037-2.9766,5.9072-5.9424.6055-2.9815-1.2012-5.9453-3.8789-5.9453A6.47576,6.47576,0,0,0,940.1396,261.1572Z" class="colorf5e9df svgShape"/><path fill="#f5e6df" d="M985.957,325.3261l-2.2431,81.4366L946.2393,387.416l.9082-64.0039c.0019-.125.0175-.2452.0234-.3692C952.334,323.5664,978.1943,325.0556,985.957,325.3261Z" class="colorf5e9df svgShape"/><path fill="#48362e" d="M966.9443,290.6836c10.7207.2841,19.2989,8.5341,19.1602,18.4277l-.1475,37.0644c-.0322,2.3086-9.1191,4.0537-19.8398,3.7696-10.7197-.2832-19.3838-2.3848-19.3516-4.6934l.5186-37.1689C947.4219,298.1904,956.2246,290.4003,966.9443,290.6836Z" class="color2e3248 svgShape"/><path fill="#1d1917" d="M968.3994,350.4736q-1.1337,0-2.2959-.0303c-9.8906-.2617-19.8808-2.1308-19.8379-5.1992l.5186-37.168a17.39842,17.39842,0,0,1,5.4638-12.3603,20.48456,20.48456,0,0,1,14.71-5.5313.50009.50009,0,0,1-.0137,1h-.0136a19.42875,19.42875,0,0,0-13.9903,5.252,16.4095,16.4095,0,0,0-5.1562,11.6533l-.5186,37.168c-.0215,1.539,7.1446,3.8759,18.8653,4.1855,10.2158.2676,17.4287-1.2265,19.038-2.7724a.76723.76723,0,0,0,.2881-.502.47108.47108,0,0,1,.5069-.4932.49978.49978,0,0,1,.4931.5069,1.70369,1.70369,0,0,1-.5957,1.209C983.9365,349.2412,976.7852,350.4736,968.3994,350.4736Z" class="color17171d svgShape"/><path fill="#48362e" d="M898.0127,340.9033c2.9043-1.5684,6.0928-1.2383,9.1728-.4053a89.06136,89.06136,0,0,0,9.4444,2.335c6.5019,1.0205,13.209,1.2002,19.3613,3.7705a2.08743,2.08743,0,0,1,1.2461,1.2715,1.66522,1.66522,0,0,1,.2734.9296,1.81,1.81,0,0,1-1.7978,1.7969c-.8955-.084-1.7881-.1894-2.6807-.2871-11.5078-1.1103-23.3525-.6787-34.0879-5.5703a1.3997,1.3997,0,0,1-.6299-.6074A1.81455,1.81455,0,0,1,898.0127,340.9033Z" class="color2e3248 svgShape"/><path fill="#fff6f2" d="M925.2617,294.5175s13.8399,1.8858,17.9053-4.5839h4.9355s-10.8125,13.1855-19.0351,14.706Z" class="colorf2f8ff svgShape"/><path fill="#fff6f2" d="M925.2617,294.5175l-8.2373,6.6465s1.2852-9.6474,3.6924-11.2304a3.09671,3.09671,0,0,1,1.6094,0l-.2237,2.7851A29.87556,29.87556,0,0,0,925.2617,294.5175Z" class="colorf2f8ff svgShape"/><path fill="#48362e" d="M934.8926,226.708a11.90878,11.90878,0,0,0-3.7842,4.0478c-.665-.6689-1.3359-1.332-2.0391-1.9619a5.5858,5.5858,0,0,0-2.4863-1.5342c-.6289-.1289-.8975.834-.2666.9639a5.19364,5.19364,0,0,1,2.291,1.499q1.1646,1.05465,2.2569,2.1856a.50358.50358,0,0,0,.7851-.1006,10.8998,10.8998,0,0,1,3.7481-4.2364C935.9326,227.2187,935.4326,226.3535,934.8926,226.708Z" class="color2e3248 svgShape"/><polygon fill="#48362e" points="959.862 663.091 925.386 466.683 926.37 466.509 960.847 662.917 959.862 663.091" class="color2e3248 svgShape"/><path fill="#48362e" d="M960.8096,700.2627l-.9102-.4141c2.8086-6.1768-3.1123-15.7578-3.1728-15.8535l.8476-.5313C957.8311,683.875,963.8379,693.6015,960.8096,700.2627Z" class="color2e3248 svgShape"/><path fill="#48362e" d="M825.8027,700.2627l-.9101-.4141c2.8047-6.1709-3.1133-15.7578-3.1739-15.8535l.8477-.5313C822.8232,683.875,828.8301,693.6015,825.8027,700.2627Z" class="color2e3248 svgShape"/><path fill="#d08f73" d="M883.5937,347.7011a.49951.49951,0,0,1-.4082-.2109c-.0361-.0508-3.666-5.1592-4.9951-6.2647a.5.5,0,0,1,.6387-.7695c1.4297,1.1895,5.0205,6.2412,5.1728,6.4561a.49989.49989,0,0,1-.4082.789Z" class="colord07d73 svgShape"/><path fill="#f5e6df" d="M874.8994,392.3945l3.6104-20.5547L983.0205,394.874l.6641,11.6201a20.36267,20.36267,0,0,1-28.4805,19.8203Z" class="colorf5e9df svgShape"/><path fill="#f5e6df" d="M823.8955,303.5156l-1.2197-9.7285-8.0469-1.251L802.458,304.8544a13.94818,13.94818,0,0,0,10.4531,10.379c2.3789.6318,6.2481-1.8975,6.2481-1.8975Z" class="colorf5e9df svgShape"/><path fill="#f5e6df" d="M813.1387,305.0615a3.074,3.074,0,0,1-2.9053.7676,3.11874,3.11874,0,0,1-2.2607,3.3505,3.18891,3.18891,0,0,1-2.9444-.4375,2.2328,2.2328,0,0,1-1.3867,1.9219l-.0381-.0039a2.72125,2.72125,0,0,1-3.2969-.3935,11.55343,11.55343,0,0,1-2.7304-8.7168,2.72764,2.72764,0,0,1,2.7685-2.1768,5.43938,5.43938,0,0,1-.2412-.7207c-.4287-1.5928,1.3106-2.7441,2.8272-2.793-.0342-.042-.0655-.122-.0996-.164-.4424-1.0508.2607-1.9141,1.2343-2.3633a2.68356,2.68356,0,0,1,3.666-.6172c1.7305,1.3682,4.8282,3.8906,5.1182,4.5C813.5166,298.7519,814.999,303.456,813.1387,305.0615Z" class="colorf5e9df svgShape"/><path fill="#f5e6df" d="M816.8213,285.4189q-2.4141-1.7886-4.874-3.5107c-1.5166-1.0586-2.917-2.2207-4.7422-2.6211a1.57728,1.57728,0,0,0-1.9922,1.5381,1.93116,1.93116,0,0,0-.2002,2.5039c1.2256,1.7295,3.4951,2.6709,5.3047,3.665,1.833,1.0068,3.5517,2.1094,5.708,1.8926C817.7353,288.7138,818.0811,286.3525,816.8213,285.4189Z" class="colorf5e9df svgShape"/><path fill="#d08f73" d="M802.4248,311.3935c-1.1982,0-2.4463-.8447-3.7139-2.5146a.50042.50042,0,0,1,.7969-.6055c1.1348,1.4961,2.2168,2.2129,3.1152,2.1074,1.2237-.1592,1.9375-1.8125,1.9444-1.8291a.49757.49757,0,0,1,.666-.2656c1.4014.6279,2.4922.7041,3.2451.2295,1.1904-.749,1.2549-2.6787,1.2549-2.6983a.49989.49989,0,0,1,.3584-.4668.494.494,0,0,1,.5537.1963c.1201.127.7783.2686,2.1768-.873,1.5449-1.2598.2402-4.7334-.3926-5.9658a.49968.49968,0,1,1,.8887-.4571c.1084.21,2.623,5.169.1367,7.1983a3.82575,3.82575,0,0,1-2.751,1.1552c-.0195-.0029-.0381-.0058-.0566-.0097a3.53258,3.53258,0,0,1-5.3809,2.789,3.68688,3.68688,0,0,1-2.5147,1.9883A2.609,2.609,0,0,1,802.4248,311.3935Z" class="colord07d73 svgShape"/><path fill="#d08f73" d="M805.0293,309.2421a.49762.49762,0,0,1-.4434-.2695l-2.4853-4.7832a.49967.49967,0,0,1,.8867-.4609l2.4854,4.7832a.49875.49875,0,0,1-.2129.6738A.48728.48728,0,0,1,805.0293,309.2421Z" class="colord07d73 svgShape"/><path fill="#d08f73" d="M810.2334,306.3291a.49747.49747,0,0,1-.4375-.2588l-3.1318-5.6748a.49961.49961,0,0,1,.875-.4825l3.1318,5.6748a.49869.49869,0,0,1-.1963.6788A.4894.4894,0,0,1,810.2334,306.3291Z" class="colord07d73 svgShape"/><path fill="#d08f73" d="M813.5586,300.6543a.50127.50127,0,0,1-.4951-.4346,6.56389,6.56389,0,0,1,2.1377-5.5156.49972.49972,0,0,1,.6494.7597,5.65053,5.65053,0,0,0-1.7949,4.625.50092.50092,0,0,1-.4307.5615A.48339.48339,0,0,1,813.5586,300.6543Z" class="colord07d73 svgShape"/><path fill="#edd1c5" d="M797.9893,319.4941l-7.4141-4.6445,27.6738-44.1797a4.374,4.374,0,0,1,6.0293-1.3848h0a4.3749,4.3749,0,0,1,1.3848,6.0293Z" class="colorc5e6ed svgShape"/><path fill="#edd1c5" d="M788.8184,323.4863l1.7568-8.6367,7.4141,4.6445-7.003,5.3496A1.36583,1.36583,0,0,1,788.8184,323.4863Z" class="colorc5e6ed svgShape"/><rect width="8.748" height="1.203" x="790.227" y="316.061" fill="#ad7b66" class="color669fad svgShape" transform="rotate(32.065 794.602 316.662)"/><rect width="8.749" height="1.202" x="816.04" y="274.853" fill="#ad7b66" class="color669fad svgShape" transform="rotate(32.059 820.414 275.454)"/><path fill="#f5e6df" d="M808.8867,280.3593c-.0195-.0302-.0576-.0371-.0791-.0654a1.68319,1.68319,0,0,0-1.4726-1.0107c-3.0547-.2373-4.3614,2.9423-5.2735,5.3945a20.90064,20.90064,0,0,0-1.2422,6.4902,10.44851,10.44851,0,0,0-.083,2.6699c-.1748,1.4961.0225,2.9844,1.6602,3.5723a1.91468,1.91468,0,0,0,1.917-.3154c2.1621-2.1279,3.1914-5.8457,4.0683-8.668C809.209,285.7587,810.5283,282.8847,808.8867,280.3593Z" class="colorf5e9df svgShape"/><path fill="#f5e6df" d="M823.4834,300.2285c.2978-2.5147-.0049-7.3457-1.5352-9.0772-1.5312-1.7334-4.2607-1.998-6.4179-2.2051-1.9444-.1875-5.3955-.6103-7.0811.5987-1.5332,1.1015-1.1094,3.1679.1279,4.3203a5.21592,5.21592,0,0,0,2.3409,1.168c1.1709.3027,2.7959-.0625,3.8398.3388,1.5039.5772,1.54,3.6182,3.2568,4.7295C819.1475,300.8349,823.2588,302.1162,823.4834,300.2285Z" class="colorf5e9df svgShape"/><path fill="#d08f73" d="M823.4844,308.9404c-.0147,0-.0283-.001-.043-.002a.49947.49947,0,0,1-.4561-.54,49.581,49.581,0,0,0,.002-8.1074c-.0879-.6983-.124-1.4317-.1631-2.208-.1465-2.9219-.2988-5.9434-3.0849-7.8389-2.0118-1.3682-6.8663-1.0293-9.4727-.8477l-.2344.0166a1.95247,1.95247,0,0,0-1.8164,1.1036,3.08851,3.08851,0,0,0,.7461,3.0293c1.2666,1.5244,5.8164,1.1865,7.4619.9257a.50658.50658,0,0,1,.5723.4161.50087.50087,0,0,1-.416.5722c-.6641.1026-6.5323.958-8.3877-1.2754a4.02235,4.02235,0,0,1-.8965-4.0615,2.93071,2.93071,0,0,1,2.668-1.708l.2324-.0156c2.9199-.2051,7.8076-.5459,10.1055,1.0185,3.1982,2.1748,3.3691,5.5967,3.5214,8.6153.0371.7568.0733,1.4726.1563,2.1328a49.40817,49.40817,0,0,1,.0019,8.3164A.49935.49935,0,0,1,823.4844,308.9404Z" class="colord07d73 svgShape"/><path fill="#ad7b66" d="M869.0049,390.5488h-98.416a4.82452,4.82452,0,0,1-4.626-4.0547l-9.6318-68.5293a3.44352,3.44352,0,0,1,3.4863-4.0557h98.417a4.82541,4.82541,0,0,1,4.6259,4.0557l9.6309,68.5293A3.44277,3.44277,0,0,1,869.0049,390.5488Z" class="color669fad svgShape"/><path fill="#c18d76" d="M863.7617,390.5488h-98.418a4.83494,4.83494,0,0,1-4.6308-4.0586l-3.8955-27.7363-1.2598-8.9688-1.1777-8.3633-3.3008-23.456a3.44656,3.44656,0,0,1,3.4873-4.0586h98.4189a4.83382,4.83382,0,0,1,4.6299,4.0586l9.6221,68.5244A3.43863,3.43863,0,0,1,863.7617,390.5488Z" class="color76b1c1 svgShape"/><polygon fill="#fff" points="784.638 390.549 771.808 390.549 817.782 313.909 830.612 313.909 784.638 390.549" class="colorffffff svgShape" opacity=".21"/><polygon fill="#fff" points="777.126 313.907 755.606 349.785 754.429 341.422 770.933 313.907 777.126 313.907" class="colorffffff svgShape" opacity=".21"/><polygon fill="#fff" points="800.967 390.549 794.552 390.549 840.526 313.909 846.94 313.909 800.967 390.549" class="colorffffff svgShape" opacity=".21"/><path fill="#f5e6df" d="M845.749,371.6074c-.1279-.127-.2744-.2217-.3965-.3584-1.8047-2.0049,1.792-5.5362,3.6026-3.5235.125.1387.2939.2168.4258.3438.1552-1.4053,1.7705-3.084,4.1367-1.7549.6836.3848,10.3135,5.9473,19.8808,5.5342-1.7412-1.3076-4.6767-3.4453-7.0791-4.2119-2.5478-.8125-1.5156-4.916,1.0371-4.0684a41.28168,41.28168,0,0,1,4.087,1.6094,73.71206,73.71206,0,0,1,20.8173,14.0615c3.1387,2.9336-11.9707,14.1992-12.0488,14.1299-11.6435-2.0762-22.8867-4.2832-33.1875-10.2422-2.0781-1.2031-.7012-4.7793,1.2734-4.4746.0215-.0117.0391-.0312.0616-.043-.0313-.0175-.0596-.042-.0889-.0595a30.13875,30.13875,0,0,1-4.0518-2.8711C842.8242,374.3466,844.3154,371.9218,845.749,371.6074Z" class="colorf5e9df svgShape"/><path fill="#d08f73" d="M871.0439,377.0957c.1065.0117.211.0214.3174.0322a.49006.49006,0,0,0,.0938-.9756,2.07859,2.07859,0,0,0-.3145-.0312c-10.5137-1.0655-21.375-8.3809-21.4844-8.4571a.49147.49147,0,0,0-.5517.8135C849.2158,368.5507,860.2773,376.0058,871.0439,377.0957Z" class="colord07d73 svgShape"/><path fill="#d08f73" d="M868.7139,382.3017c.3066.0313.6064.0498.9033.0645a.4912.4912,0,0,0,.042-.9815c-.2764-.0117-.5557-.0293-.8408-.0576-8.9004-.9014-22.6553-10.0303-22.7979-10.126a.49631.49631,0,0,0-.6787.1358.49055.49055,0,0,0,.1348.6797C846.0654,372.4101,859.5791,381.3769,868.7139,382.3017Z" class="colord07d73 svgShape"/><path fill="#d08f73" d="M867.7031,386.5361a.48972.48972,0,0,0,.1065-.9736c-6.7041-.795-19.1602-7.2793-19.2862-7.3457a.49029.49029,0,1,0-.4541.8691c.5176.2685,12.7442,6.6328,19.627,7.4492Z" class="colord07d73 svgShape"/><path fill="#634f47" d="M430.6807,713.3603a1.297,1.297,0,0,1-.2286-.0166,1.69164,1.69164,0,0,1-1.4531-1.9062l29.4981-198.4102c.1259-.9268,5.3672-1.6152,6.3027-1.4492a1.6907,1.6907,0,0,1,1.4531,1.9062L432.3584,711.8945A1.69311,1.69311,0,0,1,430.6807,713.3603Z" class="color474d63 svgShape"/><path fill="#48362e" d="M399.8174,427.8711H369.1328a2.102,2.102,0,0,0-1.5557.6992l-.0351-.0518-2.8574,3.2354,2.3193,2.0293v60.2519a2.12885,2.12885,0,0,0,2.1289,2.1289l29.0176.1201.2607.9239,2.2129-1.0791c.0186-.0078.0352-.0176.0537-.0254l.2393-.1172-.0029-.0117a2.12562,2.12562,0,0,0,1.0322-1.8194V430A2.12885,2.12885,0,0,0,399.8174,427.8711Z" class="color2e3248 svgShape"/><path fill="#59453c" d="M366.2207,431.1064h30.6846a2.1289,2.1289,0,0,1,2.1289,2.1289v62.499a2.1299,2.1299,0,0,1-2.1299,2.1299H366.2207a2.1289,2.1289,0,0,1-2.1289-2.1289v-62.5A2.1289,2.1289,0,0,1,366.2207,431.1064Z" class="color3c4159 svgShape"/><path fill="#59453c" d="M469.1006,362.539H306.8203a8.11516,8.11516,0,0,0-5.6074,2.2559l-6.1084,5.3467,3.5586,2.0888v86.9785a8.15668,8.15668,0,0,0,8.1572,8.1563H464.5332l-.0557.1621,5.0147,2.2646,4.8535-4.3671-.0088-.0108a8.09975,8.09975,0,0,0,2.9199-6.2051V370.6953A8.15583,8.15583,0,0,0,469.1006,362.539Z" class="color3c4159 svgShape"/><path fill="#634f47" d="M300.996,367.7158H463.2773a8.1563,8.1563,0,0,1,8.1563,8.1563v88.5136a8.1562,8.1562,0,0,1-8.1562,8.1562H300.997a8.1572,8.1572,0,0,1-8.1572-8.1572V375.872A8.1562,8.1562,0,0,1,300.996,367.7158Z" class="color474d63 svgShape"/><path fill="#dbbbad" d="M305.9481,372.8906H458.3252a7.4961,7.4961,0,0,1,7.4961,7.4961V459.871a7.4961,7.4961,0,0,1-7.4961,7.4961H305.9482a7.4961,7.4961,0,0,1-7.4961-7.4961V380.3866A7.496,7.496,0,0,1,305.9481,372.8906Z" class="coloradd6db svgShape"/><rect width="86.709" height="8.412" x="340.741" y="494.84" fill="#48362e" class="color2e3248 svgShape" rx="2.129"/><rect width="86.708" height="8.412" x="336.982" y="494.84" fill="#59453c" class="color3c4159 svgShape" rx="2.129"/><path fill="#fff" d="M303.0908,380.1601v83.1914H460.2939V380.1601c0-1.8652-2.1982-3.3799-4.9052-3.3799H307.9951C305.2881,376.7802,303.0908,378.2949,303.0908,380.1601Z" class="colorffffff svgShape"/><path fill="#f07c4a" d="M307.1583,376.7802H456.2207a4.0732,4.0732,0,0,1,4.0732,4.0732v4.6661a0,0,0,0,1,0,0H303.085a0,0,0,0,1,0,0v-4.666A4.0733,4.0733,0,0,1,307.1583,376.7802Z" class="colorf06a4a svgShape"/><rect width="37.964" height=".976" x="414.822" y="440.31" fill="#edd1c5" class="colorc5e6ed svgShape"/><rect width="11.199" height=".976" x="386.603" y="440.31" fill="#edd1c5" class="colorc5e6ed svgShape"/><rect width="37.964" height=".976" x="414.822" y="454.276" fill="#edd1c5" class="colorc5e6ed svgShape"/><rect width="11.199" height=".976" x="386.603" y="454.276" fill="#edd1c5" class="colorc5e6ed svgShape"/><rect width="12.868" height=".975" x="439.918" y="443.805" fill="#edd1c5" class="colorc5e6ed svgShape"/><rect width="47.298" height=".975" x="386.603" y="443.805" fill="#edd1c5" class="colorc5e6ed svgShape"/><rect width="45.293" height=".975" x="407.493" y="447.299" fill="#edd1c5" class="colorc5e6ed svgShape"/><rect width="10.529" height=".975" x="386.603" y="447.299" fill="#edd1c5" class="colorc5e6ed svgShape"/><rect width="16.213" height=".975" x="436.573" y="450.792" fill="#edd1c5" class="colorc5e6ed svgShape"/><rect width="33.901" height=".975" x="386.603" y="450.792" fill="#edd1c5" class="colorc5e6ed svgShape"/><rect width="37.963" height=".976" x="339.706" y="440.31" fill="#edd1c5" class="colorc5e6ed svgShape"/><rect width="11.199" height=".976" x="311.487" y="440.31" fill="#edd1c5" class="colorc5e6ed svgShape"/><rect width="37.963" height=".976" x="339.706" y="454.276" fill="#edd1c5" class="colorc5e6ed svgShape"/><rect width="11.199" height=".976" x="311.487" y="454.276" fill="#edd1c5" class="colorc5e6ed svgShape"/><rect width="12.867" height=".975" x="364.802" y="443.805" fill="#edd1c5" class="colorc5e6ed svgShape"/><rect width="47.298" height=".975" x="311.487" y="443.805" fill="#edd1c5" class="colorc5e6ed svgShape"/><rect width="45.292" height=".975" x="332.377" y="447.299" fill="#edd1c5" class="colorc5e6ed svgShape"/><rect width="10.529" height=".975" x="311.487" y="447.299" fill="#edd1c5" class="colorc5e6ed svgShape"/><rect width="16.212" height=".975" x="361.457" y="450.792" fill="#edd1c5" class="colorc5e6ed svgShape"/><rect width="33.902" height=".975" x="311.487" y="450.792" fill="#edd1c5" class="colorc5e6ed svgShape"/><path fill="#edd1c5" d="M351.9697,396.1894v32.3672a2.79319,2.79319,0,0,1-2.7881,2.7871H314.2754a2.79319,2.79319,0,0,1-2.7881-2.7871V396.1894a2.79569,2.79569,0,0,1,2.7881-2.7988h34.9062A2.79569,2.79569,0,0,1,351.9697,396.1894Z" class="colorc5e6ed svgShape"/><path fill="#f9e1d7" d="M351.9697,412.5527v16.0039a2.79319,2.79319,0,0,1-2.7881,2.7871H314.2754a2.79319,2.79319,0,0,1-2.7881-2.7871v-4.5254l6.0723-6.7598a1.32767,1.32767,0,0,1,1.9521-.0341l8.0244,8.2949a1.33413,1.33413,0,0,0,1.9414-.0225l16.4883-17.9892a1.34939,1.34939,0,0,1,2.0313.0673Z" class="colord7f2f9 svgShape"/><path fill="#f9e1d7" d="M328.6103,403.1816a4.88865,4.88865,0,1,0-4.8886,4.8887A4.8883,4.8883,0,0,0,328.6103,403.1816Z" class="colord7f2f9 svgShape"/><path fill="#edd1c5" d="M402.3779,396.1894v32.3672a2.79319,2.79319,0,0,1-2.7881,2.7871H364.6836a2.79319,2.79319,0,0,1-2.7881-2.7871V396.1894a2.79569,2.79569,0,0,1,2.7881-2.7988h34.9062A2.79569,2.79569,0,0,1,402.3779,396.1894Z" class="colorc5e6ed svgShape"/><path fill="#f9e1d7" d="M402.3779,412.5527v16.0039a2.79319,2.79319,0,0,1-2.7881,2.7871H364.6836a2.79319,2.79319,0,0,1-2.7881-2.7871v-4.5254l6.0723-6.7598a1.32767,1.32767,0,0,1,1.9521-.0341l8.0244,8.2949a1.33308,1.33308,0,0,0,1.9405-.0225l16.4892-17.9892a1.34939,1.34939,0,0,1,2.0313.0673Z" class="colord7f2f9 svgShape"/><circle cx="374.13" cy="403.182" r="4.889" fill="#f9e1d7" class="colord7f2f9 svgShape"/><path fill="#edd1c5" d="M452.7861,396.1894v32.3672a2.79319,2.79319,0,0,1-2.7881,2.7871H415.0918a2.79319,2.79319,0,0,1-2.7881-2.7871V396.1894a2.79569,2.79569,0,0,1,2.7881-2.7988H449.998A2.79569,2.79569,0,0,1,452.7861,396.1894Z" class="colorc5e6ed svgShape"/><path fill="#f9e1d7" d="M452.7861,412.5527v16.0039a2.79319,2.79319,0,0,1-2.7881,2.7871H415.0918a2.79319,2.79319,0,0,1-2.7881-2.7871v-4.5254l6.0713-6.7598a1.32882,1.32882,0,0,1,1.9531-.0341l8.0244,8.2949a1.33308,1.33308,0,0,0,1.9405-.0225l16.4892-17.9892a1.34939,1.34939,0,0,1,2.0313.0673Z" class="colord7f2f9 svgShape"/><circle cx="424.538" cy="403.182" r="4.889" fill="#f9e1d7" class="colord7f2f9 svgShape"/><rect width="81.259" height="8.649" x="126.241" y="685.239" fill="#c18d76" class="color76b1c1 svgShape"/><rect width="10.018" height="147.71" x="161.862" y="541.854" fill="#c18d76" class="color76b1c1 svgShape" transform="rotate(180 166.871 615.708)"/><path fill="#ad7b66" d="M165.0957,587.9082h3.5508a10.6357,10.6357,0,0,1,10.6357,10.6357v16.835a10.6347,10.6347,0,0,1-10.6347,10.6347h-3.5528A10.6347,10.6347,0,0,1,154.46,615.3789v-16.835A10.6357,10.6357,0,0,1,165.0957,587.9082Z" class="color669fad svgShape" transform="rotate(-180 166.871 606.96)"/><path fill="#c18d76" d="M174.458,487.3056H79.9971l22.7197,118.0635,96.3467,3.4102L184.5928,499.1269C184.5928,491.7695,177.2676,487.3056,174.458,487.3056Z" class="color76b1c1 svgShape"/><path fill="#c18d76" d="M136.875,611.9277s90.8389,2.248,110.917-3.1484c4.2432-1.1407,3.7471-17.4903-7.7656-17.4903h-95.92Z" class="color76b1c1 svgShape"/><path fill="#ad7b66" d="M78.0898,487.5898c7.4063-1.4004,11.0205,2.6875,11.8389,5.375l14.8809,98.3242h53.4326c9.082,0,15.3535,16.7237,6.75,19.6289-7.3067,2.4688-65.8086,2.877-72.0322-8.1855-14.7637-26.2471-21.6387-102.626-21.6387-102.626C70.7373,493.4492,73.5937,488.4394,78.0898,487.5898Z" class="color669fad svgShape"/><path fill="#59453c" d="M188.3242,697.958a6.2964,6.2964,0,1,0,6.2969-6.2959A6.297,6.297,0,0,0,188.3242,697.958Z" class="color3c4159 svgShape"/><path fill="#48362e" d="M190.5508,697.958a4.0703,4.0703,0,1,0,4.0703-4.0703A4.071,4.071,0,0,0,190.5508,697.958Z" class="color2e3248 svgShape"/><path fill="#59453c" d="M160.5752,697.958a6.2959,6.2959,0,1,0,6.2959-6.2959A6.29619,6.29619,0,0,0,160.5752,697.958Z" class="color3c4159 svgShape"/><path fill="#48362e" d="M162.8008,697.958a4.0703,4.0703,0,1,0,4.0703-4.0703A4.071,4.071,0,0,0,162.8008,697.958Z" class="color2e3248 svgShape"/><path fill="#59453c" d="M132.8252,697.958a6.2959,6.2959,0,1,0,6.2959-6.2959A6.29619,6.29619,0,0,0,132.8252,697.958Z" class="color3c4159 svgShape"/><path fill="#48362e" d="M135.0508,697.958a4.0703,4.0703,0,1,0,4.0703-4.0703A4.071,4.071,0,0,0,135.0508,697.958Z" class="color2e3248 svgShape"/><path fill="#59453c" d="M338.6728,713.3603a1.297,1.297,0,0,0,.2286-.0166,1.69021,1.69021,0,0,0,1.4531-1.9062L310.8564,513.0273c-.1259-.9268-5.3671-1.6152-6.3027-1.4492a1.6907,1.6907,0,0,0-1.4531,1.9062l33.8945,198.4102A1.69311,1.69311,0,0,0,338.6728,713.3603Z" class="color3c4159 svgShape"/><path fill="#f5e6df" d="M288.541,625.7597a194.10689,194.10689,0,0,1,14.7578,15.7774s-.0146.0576.0645.1074c4.582,6.081,7.8418,8.418,12.4931,10.5517-1.9043-12.4257,3.0264-18.2695,15.2832-25.0029,11.5176-6.3379,27.1797-16.9004,24.8555-16.3828-8.7598,1.5078-15.7295,7.04-25.8906,5.4844a9.83506,9.83506,0,0,1-2.2168-.5215c-1.544-.5371-12.0869-8.6231-17.6592-13.9131C309.0098,602.8359,294.6533,618.0605,288.541,625.7597Z" class="colorf5e9df svgShape"/><path fill="#ff7f48" d="M319.9766,654.5712a2.07886,2.07886,0,0,0,1.5127-.0947c2.9277-2.3818-3.5088-11.1377-1.1358-12.0888,31.7168-12.7784,44.4649-27.4756,44.8809-30.835a2.02482,2.02482,0,0,0-.5869-1.7969c-2.2598-2.1826-9.8448-1.1806-12.5743-.1836-8.6836,2.7686-8.2754,3.8438-22.0244,6.6973,0,0-8.081,18.2129-26.747,25.3008a.05807.05807,0,0,0,.0566.0615C308.8994,649.7929,316.623,653.9765,319.9766,654.5712Z" class="colorff5548 svgShape"/><path fill="#ee4800" d="M321.4893,654.4765c2.9277-2.3818-3.5088-11.1377-1.1358-12.0888,31.7168-12.7784,44.4649-27.4756,44.8809-30.835a2.02482,2.02482,0,0,0-.5869-1.7969c-11.6914,13.3281-19.6407,17.8535-35.1172,25.1748-11.7442,5.5596-14.294,3.9219-9.4326,16.626C320.168,652.0625,321.2168,654.6738,321.4893,654.4765Z" class="coloree1800 svgShape"/><path fill="#f5e6df" d="M235.6826,661.2109a193.88149,193.88149,0,0,1,1.4668,21.5547s-.0469.0351-.0176.123c-.291,7.6094.7598,11.4795,3.0157,16.0723,6.3759-10.834,13.8906-12.2471,27.6455-9.7207,12.9316,2.3652,31.7451,4.0762,29.6162,3.0098-7.7422-4.3682-16.6397-4.4844-23.5323-12.1104a9.84951,9.84951,0,0,1-1.3886-1.8057c-.8574-1.3916-3.919-14.3203-4.8955-21.9414C266.0312,656.3789,245.2842,659.1054,235.6826,661.2109Z" class="colorf5e9df svgShape"/><path fill="#ff7f48" d="M241.8408,703.4052a2.07448,2.07448,0,0,0,1.2324.8828c3.7735.0039,4.3184-10.8496,6.7579-10.0869,32.6572,10.1367,51.8242,6.8028,54.2695,4.4619a2.02613,2.02613,0,0,0,.6806-1.7646c-.373-3.1191-6.8837-7.1357-9.6298-8.0869-8.4795-3.3418-8.8428-2.25-21.3018-8.7266,0,0-17.7715,9.0088-36.7178,2.708a.05782.05782,0,0,0,.0049.083C236.2734,692.7021,239.6162,700.8261,241.8408,703.4052Z" class="colorff5548 svgShape"/><path fill="#ee4800" d="M243.0732,704.288c3.7735.0039,4.3184-10.8496,6.7579-10.0869,32.6572,10.1367,51.8242,6.8028,54.2695,4.4619a2.02613,2.02613,0,0,0,.6806-1.7646c-17.4834,2.9424-26.5039,1.4277-43.125-2.6787-12.6152-3.1113-13.5566-5.9922-17.8173,6.9267C243.5732,701.583,242.7363,704.2685,243.0732,704.288Z" class="coloree1800 svgShape"/><path fill="#48362e" d="M154.3398,420.3066c-8.1962-.3037-14.3261-2.8359-18.2119-7.5273-5.7461-6.9268-4.4707-15.959-4.414-16.3389l1.5039.2256c-.0117.084-1.2227,8.7578,4.0898,15.1562,3.6006,4.334,9.3496,6.6758,17.0918,6.9619Z" class="color2e3248 svgShape"/><path fill="#f5e6df" d="M184.9697,480.706l47.6465,29.7676,18.292-25.5088-48.7588-32.0957c-.1094-.0723-.2226-.1318-.333-.2012C199.7646,456.5293,188.5039,475.2041,184.9697,480.706Z" class="colorf5e9df svgShape"/><path fill="#f5e6df" d="M251.5127,502.039l15.0791-75.9306-21.585-5.8018-22.2441,83.8203,9.8535,6.3467A12.35894,12.35894,0,0,0,251.5127,502.039Z" class="colorf5e9df svgShape"/><path fill="#f9e1d7" d="M163.8887,447.1875a16.35054,16.35054,0,0,0,4.6543,22.6474l28.3252,18.667c1.7597,1.1582,7.2129-4.0137,12.1816-11.5527s7.5703-14.5899,5.8105-15.75l-28.3251-18.666A16.34769,16.34769,0,0,0,163.8887,447.1875Z" class="colord7f2f9 svgShape"/><path fill="#fff" d="M226.1592,537.6211,128.501,558.3789s-8.5723-73.2246-9.7383-98.4727c-.6475-14.0049,7.8476-21.0557,14.4092-21.0557h38.4424c9.2793,0,15.9345,2.8975,22.6796,16.9561C203.6787,475.3681,226.1592,537.6211,226.1592,537.6211Z" class="colorffffff svgShape"/><path fill="#ead6ce" d="M148.6436,411.7031s1.3037,16.2637,1.8095,27.1972c2.2276,5.5049,15.5967,7.0479,17.8496,3.2002l-1.7373-21.6699Z" class="coloreadace svgShape"/><path fill="#f5e6df" d="M180.7422,409.1777c0,11.9697-4.8858,21.6738-13.2861,21.6738-6.9336,0-20.1709-9.7041-20.1709-21.6738,0-11.9707,7.4892-21.6738,16.7285-21.6738C173.2519,387.5039,180.7422,397.207,180.7422,409.1777Z" class="colorf5e9df svgShape"/><path fill="#48362e" d="M167.9209,409.2929a1.60446,1.60446,0,1,1-1.5791-1.8886A1.75393,1.75393,0,0,1,167.9209,409.2929Z" class="color2e3248 svgShape"/><path fill="#48362e" d="M178.5352,408.2382a1.60395,1.60395,0,1,1-1.5791-1.8877A1.75429,1.75429,0,0,1,178.5352,408.2382Z" class="color2e3248 svgShape"/><path fill="#48362e" d="M171.2119,419.4628c-.9121,0-1.7353-.0732-2.0371-.1035l.0742-.7461c1.6045.1602,4.0615.1631,4.5039-.3281a.08835.08835,0,0,0,.0254-.0947c-.2842-1.3682-1.5019-5.8145-1.5137-5.8594l.7227-.1973c.0508.1836,1.2363,4.5127,1.5254,5.9043a.82944.82944,0,0,1-.2022.7491C173.8213,419.331,172.4365,419.4628,171.2119,419.4628Z" class="color2e3248 svgShape"/><path fill="#48362e" d="M170.8232,425.3818h-.0244a4.74146,4.74146,0,0,1-3.1572-1.5039l.5586-.501a4.02886,4.02886,0,0,0,2.6094,1.2549h.0127a3.35372,3.35372,0,0,0,2.4521-1.2578l.5527.5078A4.066,4.066,0,0,1,170.8232,425.3818Z" class="color2e3248 svgShape"/><path fill="#48362e" d="M163.1357,406.1669l-.6132-.4316a4.44628,4.44628,0,0,1,3.041-2.0586,4.8331,4.8331,0,0,1,3.3838,1.0479l-.4834.5732a4.12278,4.12278,0,0,0-2.8106-.876A3.73488,3.73488,0,0,0,163.1357,406.1669Z" class="color2e3248 svgShape"/><path fill="#48362e" d="M174.4512,404.7578l-.5879-.4649a3.723,3.723,0,0,1,2.7295-1.622q.063-.003.123-.003a3.78871,3.78871,0,0,1,2.5137,1.1211l-.5459.5147a3.10084,3.10084,0,0,0-2.0645-.8838A3.02791,3.02791,0,0,0,174.4512,404.7578Z" class="color2e3248 svgShape"/><path fill="#ff6f31" d="M260.2295,611.3252,146.8789,590.9033a23.99367,23.99367,0,0,1-19.3594-27.8692h0a23.995,23.995,0,0,1,27.8692-19.3603l100.0136,18.0195a13.54994,13.54994,0,0,1,10.9327,15.7383Z" class="colorffba31 svgShape"/><path fill="#ff6f31" d="M250.4795,561.8554,155.875,590.2656a23.99407,23.99407,0,0,1-28.3838-18.5967h0a23.99407,23.99407,0,0,1,18.5967-28.3838l99.4883-20.7256a13.55035,13.55035,0,0,1,16.0293,10.502Z" class="colorffba31 svgShape"/><path fill="#ff6f31" d="M326.6309,602.7294l-36.5206,36.0997-8.4902-10.0498-3.8799-4.5899-63.8896-75.6299,25.7197-22.8506a13.55491,13.55491,0,0,1,19.1504,1.1504L312.1006,586.5l4.0097,4.4697Z" class="colorffba31 svgShape"/><path fill="#ff6f31" d="M286.7607,667.8691l-56.5302,6.1504-1.3994-10.0401-.8204-5.8603L216.251,573.9296l32.3994-11.5703a13.566,13.566,0,0,1,17.3301,8.2403l17.5898,82.3496,1.0108,4.7402Z" class="colorffba31 svgShape"/><path fill="#48362e" d="M276.959,623.7705l-9.1348-50.5909a14.56263,14.56263,0,0,0-18.624-11.3261L155.9853,590.624l-.2207-.7168,93.2149-28.7705a15.31229,15.31229,0,0,1,19.583,11.9101l9.1348,50.5909Z" class="color2e3248 svgShape"/><path fill="#f5e6df" d="M109.9414,465.1621,85.0977,515.5517l27.2138,15.6436,27.0479-51.7295c.0605-.1162.1093-.2354.167-.3516C135.4785,477.4599,115.7695,468.1279,109.9414,465.1621Z" class="colorf5e9df svgShape"/><path fill="#f5e6df" d="M95.3838,533.5078l77.0596,7.3945,3.6093-22.0576L90.4258,505.1123l-5.3281,10.4394A12.35924,12.35924,0,0,0,95.3838,533.5078Z" class="colorf5e9df svgShape"/><path fill="#f9e1d7" d="M141.1777,440.8281a16.34925,16.34925,0,0,0-22.0664,6.9013l-15.7344,30.0528c-.9765,1.8662,4.7159,6.7744,12.7149,10.9619,7.999,4.1885,15.2754,6.0703,16.2529,4.2041l15.7344-30.0537A16.3492,16.3492,0,0,0,141.1777,440.8281Z" class="colord7f2f9 svgShape"/><path fill="#48362e" d="M130.3594,494.038c-3.2481,0-9.1514-2.1914-14.4414-4.9609-7.1817-3.7607-14.1338-9.0576-12.8731-11.4687l.6641.3476c-.7539,1.4414,4.2178,6.0908,12.5566,10.457,8.3399,4.3643,14.9922,5.8028,15.7471,4.3614l15.7344-30.0537a15.99319,15.99319,0,0,0-6.7432-21.5606l.3477-.664a16.74348,16.74348,0,0,1,7.0595,22.5722L132.6768,493.122C132.3447,493.7568,131.5215,494.038,130.3594,494.038Z" class="color2e3248 svgShape"/><path fill="#f5e6df" d="M213.5439,519.2099s2.1993,1.3242,1.834,2.4951c-.3662,1.1719-2.8974.9522-2.8974.9522s2.3115,1.1709,1.9463,2.6347c-.3663,1.4639-2.587.9434-2.587.9434s2.3584,1.5947,1.7041,2.9971-3.29.4512-3.29.4512,2.4209.9082,2.2266,1.9033c-.3721,1.9033-2.5196,1.3174-2.5196,1.3174l-4.0986-3.1475,1.2441-10.5469Z" class="colorf5e9df svgShape"/><path fill="#48362e" d="M211.834,500.0556c-.1289-.3271-12.9278-32.8271-19.4903-47.2324a25.13207,25.13207,0,0,0-19.3496-14.8916l.0586-.748a25.8918,25.8918,0,0,1,19.9727,15.3291c6.5713,14.4228,19.3779,46.9414,19.5058,47.2675Z" class="color2e3248 svgShape"/><path fill="#f5e6df" d="M265.7236,430.4804s.4014-4.7812,3.6221-6.3418a30.26921,30.26921,0,0,0,8.4453-6.3886,81.51476,81.51476,0,0,0,7.1201-10.9581l-12.3633-7.7822-8.6669,9.8584s-13.2745,2.5801-16.3252,5.124c-3.0518,2.545-2.6348,11.0157-2.6348,11.0157Z" class="colorf5e9df svgShape"/><path fill="#f5e6df" d="M272.8457,399.1211s1.9346-1.7403,2.9092-1.1856c.9756.5527-.0332,2.8027-.0332,2.8027s1.8261-1.8701,3.0742-1.2607.0586,2.5205.0586,2.5205,2.2353-1.832,3.3349-.9736c1.0987.8593-.0224,3.4248-.0224,3.4248s1.1836-1.1328,2.0498-.7676c1.6553.6973.6943,3.1103.6943,3.1103l-4.6738,1.2872-9.4365-3.1299Z" class="colorf5e9df svgShape"/><path fill="#d08f73" d="M265.7246,430.9794a.48476.48476,0,0,1-.0986-.0097.49976.49976,0,0,1-.3926-.5879c.9736-4.9033,4.2275-6.9844,7.374-8.9971.7422-.4746,1.5088-.9658,2.2266-1.4834,2.3281-1.6797,5.4472-5.9521,9.2715-12.6982a3.47042,3.47042,0,0,0,.4814-1.9346c-.0586-.876-.46-1.0742-.5918-1.1396-.3633-.1797-1.0928.3037-1.4795.6787a.50014.50014,0,0,1-.8066-.5586c.3144-.7217.7695-2.3643.1728-2.8311-.584-.4531-2.1064.4717-2.7099.9668a.50022.50022,0,0,1-.7422-.6504,2.404,2.404,0,0,0,.4092-1.5136.45051.45051,0,0,0-.2627-.294c-.751-.3662-2.0879.7432-2.4971,1.1611a.49983.49983,0,0,1-.8135-.5537c.3418-.7675.5996-1.9619.2422-2.165-.4355-.2432-1.6289.4961-2.3281,1.124a.5.5,0,1,1-.668-.7441c.3682-.3301,2.2637-1.9463,3.4902-1.249a1.71876,1.71876,0,0,1,.6465,1.8759,2.51414,2.51414,0,0,1,2.3672-.3476,1.45086,1.45086,0,0,1,.7852.917,1.98161,1.98161,0,0,1,.042.8154,2.5058,2.5058,0,0,1,2.6543-.1309,2.5893,2.5893,0,0,1,.5673,2.628,1.64513,1.64513,0,0,1,1.3721-.0254,2.16515,2.16515,0,0,1,1.1485,1.9697,4.462,4.462,0,0,1-.6104,2.4941c-3.9492,6.9688-7.0752,11.2266-9.5547,13.0157-.7412.5342-1.5205,1.0332-2.2734,1.5146-3.1065,1.9873-6.041,3.8653-6.9326,8.3506A.49982.49982,0,0,1,265.7246,430.9794Z" class="colord07d73 svgShape"/><path fill="#d08f73" d="M267.8818,410.8779a.5.5,0,0,1-.3877-.8154l7.8399-9.6397a.49982.49982,0,1,1,.7754.6309l-7.8399,9.6396A.5001.5001,0,0,1,267.8818,410.8779Z" class="colord07d73 svgShape"/><path fill="#d08f73" d="M271.249,412.8671a.49986.49986,0,0,1-.4033-.7959l7.6055-10.3691a.50021.50021,0,0,1,.8066.5918l-7.6055,10.3691A.49815.49815,0,0,1,271.249,412.8671Z" class="colord07d73 svgShape"/><path fill="#d08f73" d="M274.2256,415.0869a.5.5,0,0,1-.3936-.8086l7.9414-10.1377a.50012.50012,0,1,1,.7871.6172l-7.9414,10.1377A.498.498,0,0,1,274.2256,415.0869Z" class="colord07d73 svgShape"/><path fill="#f5e6df" d="M244.293,422.998s2.5185-13.9736,5.3388-16.4746c1.7569-1.5576,7.0274-3.6113,9.5645-3.0254s1.5615,2.4902-.9756,3.6846c-2.5381,1.1953-4.0986,5.0986-4.002,6.4648C254.3164,415.0136,244.293,422.998,244.293,422.998Z" class="colorf5e9df svgShape"/><path fill="#d08f73" d="M259.1484,417.539c-.0117,0-.0224,0-.0341-.001a.5005.5005,0,0,1-.4659-.5322c.2647-4.0371-3.8593-5.5117-3.9004-5.5264a.5.5,0,0,1,.3262-.9453c.0498.0166,4.8867,1.7481,4.5723,6.5381A.50029.50029,0,0,1,259.1484,417.539Z" class="colord07d73 svgShape"/><path fill="#f44a00" d="M257.2988,533.3701a8.36048,8.36048,0,0,0-4.3066-4.3574,20.92049,20.92049,0,0,0-6.0596-1.5137c-.7715-.1006-2.1484-.3819-2.2861.7549-.1221.9961,1.0049,1.8984,1.7295,2.3838,1.247.8349,2.6552,1.4697,3.9785,2.1748q.8364.4467,1.6748.8925c.2588.2598.5254.5118.7637.7911,1.4287,1.6738,2.2627,3.8554,4.1689,5.0859a.55684.55684,0,0,0,.6699-.0869C259.1094,537.8252,258.0566,535.1406,257.2988,533.3701Z" class="colorf4a300 svgShape"/><path fill="#f9e1d7" d="M201.0127,489.8125c-2.9043-1.5684-6.0938-1.2383-9.1738-.4063a89.04093,89.04093,0,0,1-9.4444,2.3359c-6.5009,1.0206-13.209,1.2002-19.3603,3.7696a2.09574,2.09574,0,0,0-1.2471,1.2724,1.66484,1.66484,0,0,0-.2725.9297,1.80919,1.80919,0,0,0,1.7969,1.7969c.8955-.084,1.7881-.1904,2.6817-.2881,11.5068-1.1094,23.3515-.6777,34.0869-5.5703a1.39056,1.39056,0,0,0,.6299-.6074A1.81409,1.81409,0,0,0,201.0127,489.8125Z" class="colord7f2f9 svgShape"/><path fill="#48362e" d="M189.0332,391.3808a10.61661,10.61661,0,0,0-1.8613-4.457,7.26028,7.26028,0,0,0-3.6826-7.2432,14.711,14.711,0,0,0-9.1485-1.5068c-27.7119-10.1944-42.0146,8.3349-38.2715,26.7422,1.2041,5.9189,7.8614,16.2226,14.8633,10.2197,3.4824-2.9873,4.0889-9.8877,4.8457-14.0439a45.185,45.185,0,0,0,.7686-8.5215c.7744.3437,3.5713,2.1894,4.6425,2.2871,3.5733.3262,6.7325-2.4707,7.5899-.1817a5.2033,5.2033,0,0,0,5.9268,3.3125c2.0771-.5009,1.5576-.7539,3.5576.3936C183.5703,401.4257,190.0127,397.9863,189.0332,391.3808Z" class="color2e3248 svgShape"/><path fill="#48362e" d="M144.3066,360.1377c-13.1025-5.4981-32.7138-.2432-39.2724,12.875-5.1582,10.3144-.3418,25.6591,11.1562,29.5742,11.6895,3.9814,24.378-5.4385,31.7979-14.7451a3.50117,3.50117,0,0,0,3.3359-.9922C160.3916,377.8974,155.1562,364.6904,144.3066,360.1377Z" class="color2e3248 svgShape"/><path fill="#48362e" d="M104.6992,382.0136h-1.3594c0-.2441.2862-24.6582,25.0508-29.0566a23.03852,23.03852,0,0,1,23.126,9.168c4.4414,5.9179,5.9473,13.2802,3.6631,17.9121l-1.2217-.6055c2.0684-4.1855.6152-10.9688-3.5273-16.4883a21.91228,21.91228,0,0,0-21.8008-8.6474C104.9727,358.497,104.6992,381.7793,104.6992,382.0136Z" class="color2e3248 svgShape"/><path fill="#f5e6df" d="M153.4814,410.124c0,3.0263-1.1132,5.9433-3.791,5.9433s-5.3037-2.9775-5.9062-5.9433c-.6065-2.9815,1.2002-5.9453,3.8779-5.9453A6.47662,6.47662,0,0,1,153.4814,410.124Z" class="colorf5e9df svgShape"/><path fill="#f5e6df" d="M176.0527,518.8447s9.5313-.294,12.8985-1.6113c3.3662-1.3174,9.0879-2.8653,11.2715-2.6348,6.0791.6416,13.3212,4.6113,13.3212,4.6113l-3.583,13.6944-14.7841-1.709s-9.4463,9.3134-13.3985,9.7529a57.14562,57.14562,0,0,1-9.3349-.0459Z" class="colorf5e9df svgShape"/><path fill="#d08f73" d="M210.4092,533.4384a3.26115,3.26115,0,0,1-.5283-.041.5.5,0,0,1,.1591-.9873c.0664.0147,1.6534.2471,1.9561-.9463.0615-.2451-.8106-.8984-1.917-1.3115a.50021.50021,0,0,1,.3437-.9395c.5743.2071,2.293.6104,2.668-.1914.3848-.8252-1.0117-2.0195-1.5312-2.372a.5003.5003,0,0,1,.3935-.9014c.0186.0049,1.7471.3897,1.9883-.5771.2188-.8741-1.1807-1.8096-1.6875-2.0684a.49972.49972,0,0,1-.2539-.582.50844.50844,0,0,1,.5234-.3614c.8584.0743,2.211-.0673,2.377-.6025.1689-.541-.8633-1.4648-1.6143-1.9189a.49989.49989,0,0,1,.5157-.8565c.2597.1563,2.5234,1.5703,2.0537,3.0742a2.14852,2.14852,0,0,1-1.8838,1.2451,2.41346,2.41346,0,0,1,.9404,2.3125,1.86685,1.86685,0,0,1-1.6865,1.3731,2.46916,2.46916,0,0,1,.7715,2.6572,1.83276,1.83276,0,0,1-1.4639,1.0117,1.31774,1.31774,0,0,1,.4316,1.2549A2.43227,2.43227,0,0,1,210.4092,533.4384Z" class="colord07d73 svgShape"/><path fill="#d08f73" d="M212.4805,523.1572a.50141.50141,0,0,1-.1455-.0215l-10.1778-3.1045a.50013.50013,0,0,1,.291-.957l10.1778,3.1045a.50005.50005,0,0,1-.1455.9785Z" class="colord07d73 svgShape"/><path fill="#d08f73" d="M211.8398,526.7353a.47075.47075,0,0,1-.1259-.0166L200.54,523.7998a.49867.49867,0,0,1-.3574-.6094.49308.49308,0,0,1,.6094-.3574l11.1738,2.9189a.49981.49981,0,0,1-.126.9834Z" class="colord07d73 svgShape"/><path fill="#d08f73" d="M210.2539,530.1836a.52627.52627,0,0,1-.1084-.0118l-9.5879-2.122a.50019.50019,0,1,1,.2168-.9766l9.5879,2.1221a.50008.50008,0,0,1-.1084.9883Z" class="colord07d73 svgShape"/><path fill="#f5e6df" d="M182.1748,518.5586s7.3105-4.8799,9.3643-4.8799,9.6386,3.416,9.6386,3.416l-18.5146,5.8555Z" class="colorf5e9df svgShape"/><path fill="#d08f73" d="M176.0527,519.3447a.50015.50015,0,0,1-.0175-1c2.6308-.0899,9.7441-.4346,11.0576-.9365,2.9384-1.1231,8.3847-3.0479,11.8486-3.3311a.49973.49973,0,1,1,.082.9961c-2.4756.2031-6.5859,1.3633-11.5732,3.2686-1.709.6523-10.3955.9687-11.3799,1.0029Z" class="colord07d73 svgShape"/><path fill="#48362e" d="M244.7539,525.5195l-27.6191,185.918a1.69019,1.69019,0,0,0,1.4521,1.9062,1.30344,1.30344,0,0,0,.2285.0166,1.69478,1.69478,0,0,0,1.6787-1.4658l31.8418-186.375Z" class="color2e3248 svgShape"/><path fill="#48362e" d="M563.2295,713.3603a1.29658,1.29658,0,0,0,.2285-.0166,1.69164,1.69164,0,0,0,1.4531-1.9062l-29.499-198.4102c-.126-.9268-5.3662-1.6152-6.3027-1.4492a1.69084,1.69084,0,0,0-1.4532,1.9062l33.8946,198.4102A1.69486,1.69486,0,0,0,563.2295,713.3603Z" class="color2e3248 svgShape"/><rect width="358.482" height="14.477" x="218.25" y="503.299" fill="#dbbbad" class="coloradd6db svgShape"/><rect width="358.482" height="9.038" x="218.25" y="516.481" fill="#edd1c5" class="colorc5e6ed svgShape"/><rect width="10.761" height="2.222" x="370.816" y="490.97" fill="#634f47" class="color474d63 svgShape" transform="rotate(180 376.197 492.08)"/><rect width="10.761" height="2.222" x="358.154" y="490.97" fill="#634f47" class="color474d63 svgShape" transform="rotate(180 363.535 492.08)"/><rect width="10.761" height="2.222" x="345.491" y="490.97" fill="#634f47" class="color474d63 svgShape" transform="rotate(180 350.872 492.08)"/><rect width="35.671" height="2.222" x="307.919" y="490.97" fill="#634f47" class="color474d63 svgShape" transform="rotate(180 325.754 492.08)"/><rect width="10.761" height="2.222" x="294.842" y="490.97" fill="#634f47" class="color474d63 svgShape" transform="rotate(180 300.222 492.08)"/><rect width="10.761" height="2.222" x="282.179" y="490.97" fill="#634f47" class="color474d63 svgShape" transform="rotate(180 287.559 492.08)"/><rect width="10.761" height="2.222" x="269.517" y="490.97" fill="#634f47" class="color474d63 svgShape" transform="rotate(180 274.897 492.08)"/><rect width="10.76" height="2.222" x="256.854" y="490.97" fill="#634f47" class="color474d63 svgShape" transform="rotate(180 262.234 492.08)"/><rect width="136.873" height="10.083" x="251.198" y="493.201" fill="#634f47" class="color474d63 svgShape"/><rect width="136.873" height="3.719" x="251.198" y="493.197" fill="#59453c" class="color3c4159 svgShape"/><path fill="#fff" d="M191.9336,343.5205l21.165-15.8526H325.21a5.0387,5.0387,0,0,0,5.039-5.039V191.5224a5.0387,5.0387,0,0,0-5.039-5.039H188.498a5.0387,5.0387,0,0,0-5.039,5.039V322.6289a5.0387,5.0387,0,0,0,5.039,5.039h9.3096Z" class="colorffffff svgShape"/><path fill="#dbbbad" d="M191.9336,344.0205a.50062.50062,0,0,1-.4688-.6739l5.6241-15.1787H188.498a5.54471,5.54471,0,0,1-5.539-5.539V191.5224a5.54471,5.54471,0,0,1,5.539-5.539H325.21a5.54471,5.54471,0,0,1,5.539,5.539V322.6289a5.54471,5.54471,0,0,1-5.539,5.539H213.2646l-21.0312,15.753A.50017.50017,0,0,1,191.9336,344.0205ZM188.498,186.9834a4.544,4.544,0,0,0-4.539,4.539V322.6289a4.544,4.544,0,0,0,4.539,4.539h9.3096a.50062.50062,0,0,1,.4688.6739l-5.2842,14.2607,19.8066-14.835a.50271.50271,0,0,1,.2998-.0996H325.21a4.544,4.544,0,0,0,4.539-4.539V191.5224a4.544,4.544,0,0,0-4.539-4.539Z" class="coloradd6db svgShape"/><circle cx="255.394" cy="305.26" r="12.555" fill="#634f47" class="color474d63 svgShape"/><path fill="#ff6f31" d="M222.9238,256.5459a37.85973,37.85973,0,1,1,67.3516-4.7256h0l-.0098.0215c-.2685.6337-.5576,1.2558-.8594,1.871l-22.4638,48.875-11.3076.7891-.001.0176-.1201-.0088-.1192.0088-.0009-.0176-11.3077-.7891Z" class="colorffba31 svgShape"/><path fill="#ffaa85" d="M235.5703,253.7617a25.53222,25.53222,0,0,1,31.4072-40.2637c11.1182,8.6729.5918,14.96-8.081,26.0781S246.6885,262.4345,235.5703,253.7617Z" class="colorffd985 svgShape"/><path fill="#f44a00" d="M293.2598,237.0634a37.74608,37.74608,0,0,1-2.9844,14.7569h0l-.0098.0215c-.2685.6337-.5576,1.2558-.8594,1.871l-22.4638,48.875-11.3076.7891-.001.0176-.1201-.0088-.1192.0088-.0009-.0176-16.9678-13.1035S268.6728,287.9941,293.2598,237.0634Z" class="colorf4a300 svgShape"/><path fill="#634f47" d="M258.9795,290.2724c0-3.5029.1299-26.6015,3.4297-40.416a23.52,23.52,0,0,1-2.585-1.4795,30.86253,30.86253,0,0,1-4.4297-3.5781,30.85154,30.85154,0,0,1-4.4297,3.5781,23.43472,23.43472,0,0,1-2.5849,1.4795c3.2998,13.8145,3.4297,36.9131,3.4297,40.416h-1.4707c0-.1172-.0127-11.8887-1.0547-23.8525a120.732,120.732,0,0,0-2.2617-15.9678,11.19072,11.19072,0,0,1-7.0186.6523c-2.9717-.8134-5.0205-2.6992-5.6221-5.1708a5.49721,5.49721,0,0,1,1.5391-5.3624c1.6504-1.5166,4.1748-1.8623,6.9268-.9443,2.2294.7422,3.9033,4.1016,5.163,8.7715a22.29426,22.29426,0,0,0,2.1475-1.251,29.21315,29.21315,0,0,0,4.207-3.3877c-2.9248-3.0761-5.0976-6.5107-5.4492-8.9707a5.77389,5.77389,0,0,1,1.0293-4.7695c1.5645-1.8047,4.2861-1.8096,5.4483-1.8106,1.2001.0157,3.8691-.0029,5.4453,1.8145a5.75725,5.75725,0,0,1,1.0341,4.7656c-.3525,2.46-2.5244,5.8946-5.4492,8.9707a29.17816,29.17816,0,0,0,4.208,3.3877,22.17325,22.17325,0,0,0,2.1475,1.251c1.2578-4.6699,2.9336-8.0293,5.1621-8.7715,2.749-.916,5.2764-.5703,6.9268.9443a5.49586,5.49586,0,0,1,1.539,5.3604c-.6015,2.4736-2.6504,4.3594-5.622,5.1728a11.1931,11.1931,0,0,1-7.0186-.6523,120.66583,120.66583,0,0,0-2.2607,15.96c-1.044,11.9629-1.0557,23.7431-1.0557,23.8603Zm9.4277-49.25c-1.1015.3662-2.7578,2.0371-4.292,7.9873a9.87982,9.87982,0,0,0,6.2823.6758c2.4394-.668,4.1093-2.1621,4.58-4.0996a4.02622,4.02622,0,0,0-1.1054-3.9316,4.29571,4.29571,0,0,0-2.9952-1.0704A7.85224,7.85224,0,0,0,268.4072,241.0224Zm-26.0244,0c-2.2607-.7568-4.2041-.5312-5.4658.6319a4.024,4.024,0,0,0-1.1055,3.9316c.4707,1.9375,2.1397,3.4316,4.5801,4.0996a9.87785,9.87785,0,0,0,6.2812-.6758C245.1396,243.0576,243.4834,241.3886,242.3828,241.0224Zm13.0137-11.3428c-1.044.001-3.2149.004-4.3399,1.3047a4.40849,4.40849,0,0,0-.6845,3.5977c.2822,1.9746,2.2031,5.1592,5.0224,8.1396,2.8194-2.9804,4.7393-6.165,5.0215-8.1396a4.38934,4.38934,0,0,0-.6885-3.5957c-1.1084-1.2783-3.2685-1.3067-4.2597-1.3067Z" class="color474d63 svgShape"/><path fill="#634f47" d="M237.3066,292.705h36.1768a2.35562,2.35562,0,0,0,2.3555-2.3554h0a2.35564,2.35564,0,0,0-2.3555-2.3555H237.3066a2.35562,2.35562,0,0,0-2.3554,2.3555h0A2.35559,2.35559,0,0,0,237.3066,292.705Z" class="color474d63 svgShape"/><path fill="#48362e" d="M237.3066,297.416h36.1768a2.35564,2.35564,0,0,0,2.3555-2.3555h0a2.35564,2.35564,0,0,0-2.3555-2.3555H237.3066a2.35562,2.35562,0,0,0-2.3554,2.3555h0A2.35562,2.35562,0,0,0,237.3066,297.416Z" class="color2e3248 svgShape"/><path fill="#634f47" d="M237.3066,302.1269h36.1768a2.35564,2.35564,0,0,0,2.3555-2.3555h0a2.35562,2.35562,0,0,0-2.3555-2.3554H237.3066a2.35559,2.35559,0,0,0-2.3554,2.3554h0A2.35562,2.35562,0,0,0,237.3066,302.1269Z" class="color474d63 svgShape"/><path fill="#48362e" d="M237.3066,306.8378h36.1768a2.35555,2.35555,0,0,0,2.3555-2.3554h0a2.35564,2.35564,0,0,0-2.3555-2.3555H237.3066a2.35562,2.35562,0,0,0-2.3554,2.3555h0A2.35553,2.35553,0,0,0,237.3066,306.8378Z" class="color2e3248 svgShape"/><rect width="15.286" height="1.47" x="298.221" y="212.374" fill="#ff6f31" class="colorffba31 svgShape" transform="rotate(-21.924 305.864 213.109)"/><rect width="1.471" height="15.286" x="305.128" y="247.807" fill="#ff6f31" class="colorffba31 svgShape" transform="rotate(-68.136 305.863 255.45)"/><rect width="13.946" height="1.471" x="303.56" y="233.545" fill="#ff6f31" class="colorffba31 svgShape"/><rect width="1.47" height="15.286" x="204.279" y="205.466" fill="#ff6f31" class="colorffba31 svgShape" transform="rotate(-68.123 205.014 213.109)"/><rect width="15.286" height="1.471" x="197.371" y="254.715" fill="#ff6f31" class="colorffba31 svgShape" transform="rotate(-21.922 205.014 255.45)"/><rect width="13.945" height="1.471" x="193.372" y="233.545" fill="#ff6f31" class="colorffba31 svgShape"/></svg>