<svg xmlns="http://www.w3.org/2000/svg" viewBox="0 0 4680 3120"><g class="color000000 svgShape" data-name="10"><rect width="4680" height="3120" fill="#fff" class="colorffffff svgShape" opacity="0"/><path fill="#f7e3da" d="M1735.94,2509.27S998,2528,964.27,1898.68,1330.8,804.29,1589.85,662.51c362-198.11,1644.48-505.7,1974.12,359.62S3470.32,2468.19,3268,2509.33,1735.94,2509.27,1735.94,2509.27Z" class="colordaecf7 svgShape"/><path fill="#bc7f64" d="M3628.09,2553.49c0,39.67-121.86,76-324.25,104.22-255.05,35.53-638,58.13-1066.16,58.13-137.38,0-270.12-2.33-395.46-6.67-575.27-19.88-994.95-82.06-994.95-155.68,0-89.66,622.5-162.34,1390.41-162.34S3628.09,2463.83,3628.09,2553.49Z" class="colorabbc64 svgShape"/><rect width="2076.06" height="1700.17" x="1388.8" y="404.16" fill="#b86947" class="color6847b8 svgShape" rx="78.24"/><path fill="#fff3ee" d="M3414.85,482.4V2026.09a28.27,28.27,0,0,1-28.24,28.24H1467a28.29,28.29,0,0,1-28.24-28.24V482.4A28.27,28.27,0,0,1,1467,454.16H3386.61a28.29,28.29,0,0,1,28.24,28.24Z" class="coloreef1ff svgShape"/><path fill="#ffeae1" d="M3414.85,482.4V2026.09a28.27,28.27,0,0,1-28.24,28.24H1467a28.09,28.09,0,0,1-20.32-8.66L3408.82,465A28.05,28.05,0,0,1,3414.85,482.4Z" class="colore1e7ff svgShape"/><rect width="672.09" height="1403.2" x="1543.37" y="564.94" fill="#e2c3b5" class="colorb5bfe2 svgShape" rx="38.11"/><rect width="672.09" height="1403.2" x="1521.33" y="538.77" fill="#fff" class="colorffffff svgShape" rx="38.11"/><rect width="480.08" height="21.11" x="1567.51" y="594.09" fill="#fcaa86" class="color86bffc svgShape" rx="10.56"/><rect width="424.1" height="110.03" x="1567.51" y="789.96" fill="#fcaa86" class="color86bffc svgShape" rx="22.65"/><rect width="579.95" height="735.59" x="1567.51" y="1149.64" fill="#f7e3da" class="colordaecf7 svgShape" rx="68.49"/><rect width="376.03" height="21.11" x="1567.51" y="686.25" fill="#ad3e0e" class="color0e5ead svgShape" rx="10.56"/><rect width="205.26" height="21.11" x="1630.08" y="930.47" fill="#d66331" class="color3175d6 svgShape" rx="10.56"/><rect width="47.79" height="6.65" x="1660.23" y="744.07" fill="#ad3e0e" class="color0e5ead svgShape" rx="3.32" transform="matrix(.58 -.82 .82 .58 100.27 1688.82)"/><rect width="97.43" height="21.11" x="1567.51" y="735.43" fill="#f08557" class="colorf08557 svgShape" rx="10.56"/><rect width="153.07" height="21.11" x="1710.12" y="735.43" fill="#f08557" class="colorf08557 svgShape" rx="10.56"/><rect width="243.09" height="21.11" x="1567.51" y="637.13" fill="#fcaa86" class="color86bffc svgShape" rx="10.56"/><circle cx="1587.95" cy="941.03" r="17.68" fill="#bc7f64" class="colorabbc64 svgShape"/><rect width="470.66" height="21.11" x="1630.08" y="1002.85" fill="#d66331" class="color3175d6 svgShape" rx="10.56"/><circle cx="1587.95" cy="1013.41" r="17.68" fill="#bc7f64" class="colorabbc64 svgShape"/><rect width="323.34" height="21.11" x="1630.08" y="1075.24" fill="#d66331" class="color3175d6 svgShape" rx="10.56"/><circle cx="1587.95" cy="1085.8" r="17.68" fill="#bc7f64" class="colorabbc64 svgShape"/><rect width="1069.26" height="1069.26" x="2298.44" y="561.72" fill="#e2c3b5" class="colorb5bfe2 svgShape" rx="39.79"/><path fill="#491701" d="M1643.87,1346.06q-6.48.2-10.09-3.42a12.65,12.65,0,0,1-3.61-9.32,11.89,11.89,0,0,1,2.57-7.61,10.06,10.06,0,0,1,7.51-3.61l5.52-.38q15.21-1,15.22-16v-82q0-7.23,3.8-11.13t10.84-3.9q14.83,0,14.84,15v81.6q0,37.85-40,40.32Z" class="color011949 svgShape"/><path fill="#491701" d="M1721.09,1346.25q-8,0-11.41-5.32t.19-13.13l48.69-106.71q3-6.46,7.23-9.41a17.42,17.42,0,0,1,19.4,0q4.18,2.94,7,9.41l49.08,106.71q3.6,8,.28,13.22t-10.75,5.23q-6.46,0-10-3t-6.18-9.51l-8-18.26h-62.58l-7.8,18.26q-2.85,6.66-6.09,9.61T1721.09,1346.25Zm54-104.42L1754,1292.42h43l-21.5-50.59Z" class="color011949 svgShape"/><path fill="#491701" d="M1904.27,1346.25a17,17,0,0,1-10-2.75,19.52,19.52,0,0,1-6.37-8.47L1840,1228.51q-3.79-8.57.1-14.17t11.89-5.61q6.46,0,9.79,3a24.23,24.23,0,0,1,5.8,8.65l37.29,86.36,37.28-86.55a21.45,21.45,0,0,1,5.8-8.46q3.51-3,9.61-3,7.41,0,11.12,5.61t-.09,14.17L1920.62,1335a21.74,21.74,0,0,1-6.37,8.47Q1910.55,1346.25,1904.27,1346.25Z" class="color011949 svgShape"/><path fill="#491701" d="M1978.64,1346.25q-8,0-11.41-5.32t.19-13.13l48.69-106.71q3-6.46,7.23-9.41a17.42,17.42,0,0,1,19.4,0q4.18,2.94,7,9.41l49.07,106.71q3.62,8,.29,13.22t-10.75,5.23q-6.46,0-10-3t-6.19-9.51l-8-18.26h-62.59l-7.79,18.26q-2.86,6.66-6.09,9.61T1978.64,1346.25Zm54-104.42-21.11,50.59h43L2033,1241.83Z" class="color011949 svgShape"/><path fill="#d66331" d="M1629.47,1346.06q-6.48.2-10.09-3.42a12.65,12.65,0,0,1-3.61-9.32,11.89,11.89,0,0,1,2.57-7.61,10.06,10.06,0,0,1,7.51-3.61l5.52-.38q15.21-1,15.22-16v-82q0-7.23,3.8-11.13t10.84-3.9q14.83,0,14.84,15v81.6q0,37.85-40,40.32Z" class="color3175d6 svgShape"/><path fill="#d66331" d="M1706.69,1346.25q-8,0-11.41-5.32t.19-13.13l48.69-106.71q3-6.46,7.23-9.41a17.42,17.42,0,0,1,19.4,0q4.18,2.94,7,9.41l49.08,106.71q3.6,8,.28,13.22t-10.75,5.23q-6.46,0-10-3t-6.18-9.51l-8-18.26h-62.58l-7.8,18.26q-2.85,6.66-6.09,9.61T1706.69,1346.25Zm54-104.42-21.11,50.59h43l-21.5-50.59Z" class="color3175d6 svgShape"/><path fill="#d66331" d="M1889.87,1346.25a17,17,0,0,1-10-2.75,19.52,19.52,0,0,1-6.37-8.47l-47.94-106.52q-3.79-8.57.1-14.17t11.89-5.61q6.46,0,9.79,3a24.23,24.23,0,0,1,5.8,8.65l37.29,86.36,37.28-86.55a21.45,21.45,0,0,1,5.8-8.46c2.35-2,5.54-3,9.61-3q7.41,0,11.12,5.61t-.09,14.17L1906.22,1335a21.74,21.74,0,0,1-6.37,8.47Q1896.15,1346.25,1889.87,1346.25Z" class="color3175d6 svgShape"/><path fill="#d66331" d="M1964.24,1346.25q-8,0-11.41-5.32t.19-13.13l48.69-106.71q3-6.46,7.23-9.41a17.42,17.42,0,0,1,19.4,0q4.19,2.94,7,9.41l49.07,106.71q3.62,8,.29,13.22t-10.75,5.23q-6.47,0-10-3t-6.19-9.51l-8-18.26h-62.59l-7.79,18.26q-2.87,6.66-6.09,9.61T1964.24,1346.25Zm54-104.42-21.11,50.59h43l-21.49-50.59Z" class="color3175d6 svgShape"/><path fill="#fff" d="M3349.45,578.56v989.68a39.91,39.91,0,0,1-39.79,39.79H2320a39.9,39.9,0,0,1-39.79-39.79V578.56A39.91,39.91,0,0,1,2320,538.77h989.68A39.91,39.91,0,0,1,3349.45,578.56Z" class="colorffffff svgShape"/><path fill="#f7e3da" d="M2840.5,721.62c-201.13,0-364.18,163-364.18,364.17S2639.37,1450,2840.5,1450a364.19,364.19,0,0,0,364.17-364.18C3204.67,884.67,3041.62,721.62,2840.5,721.62Zm117.44,483.13a167.16,167.16,0,1,1,49.73-119A166.59,166.59,0,0,1,2957.94,1204.75Z" class="colordaecf7 svgShape"/><path fill="#ad3e0e" d="M2814.82,696.8c-201.13,0-364.18,163.05-364.18,364.17s163.05,364.18,364.18,364.18A364.19,364.19,0,0,0,3179,1061C3179,859.85,3015.94,696.8,2814.82,696.8Zm0,531.35a167.2,167.2,0,1,1,117.44-48.22A167.17,167.17,0,0,1,2814.82,1228.15Z" class="color0e5ead svgShape"/><path fill="#f08557" d="M2814.82,696.8v197a167.16,167.16,0,0,1,117.44,286.13l143.65,134.91A362.92,362.92,0,0,0,3179,1061C3179,859.85,3015.94,696.8,2814.82,696.8Z" class="colorf08557 svgShape"/><path fill="#e2c3b5" d="M2106.63,1426.64h0a24.72,24.72,0,0,0-16.41-6.24H1654.9a24.89,24.89,0,0,0-24.82,24.82v297.86a24.89,24.89,0,0,0,24.82,24.82h435.32a24.89,24.89,0,0,0,24.82-24.82V1445.21A24.72,24.72,0,0,0,2106.63,1426.64Z" class="colorb5bfe2 svgShape"/><path fill="#ff4e02" d="M2092.32,1412h0a24.75,24.75,0,0,0-16.41-6.24H1640.59a24.89,24.89,0,0,0-24.82,24.82v297.86a24.91,24.91,0,0,0,24.82,24.82h435.32a24.89,24.89,0,0,0,24.82-24.82V1430.56A24.69,24.69,0,0,0,2092.32,1412Z" class="colorffaf02 svgShape"/><path fill="#ff4f03" d="M2092.32,1412l-471.75,331a24.78,24.78,0,0,0,20,10.21h435.32a24.89,24.89,0,0,0,24.82-24.82V1430.56A24.69,24.69,0,0,0,2092.32,1412Z" class="colorff9203 svgShape"/><path fill="#b86947" d="M1785.46,1610.91q-5.14-2-12,1.6a54.88,54.88,0,0,1-13.83,5.36,60,60,0,0,1-14,1.72q-21.66,0-32.7-12.65t-11.05-36q0-23.37,11.05-35.92t32.7-12.54a61,61,0,0,1,14.36,1.71,48.21,48.21,0,0,1,13.51,5.58q6.43,3.64,11.58,1.5a14.3,14.3,0,0,0,7.61-7.29,15.62,15.62,0,0,0,1-10.94q-1.52-5.79-8.15-9.65a75,75,0,0,0-19.19-7.5,88.69,88.69,0,0,0-21.77-2.79q-24.43,0-41.81,9.65a65.91,65.91,0,0,0-26.69,27.12q-9.33,17.49-9.33,41.07,0,23.79,9.33,41.27a66,66,0,0,0,26.69,27.13q17.37,9.65,41.81,9.64a90,90,0,0,0,22.84-3,66,66,0,0,0,19.62-8.36q6-3.64,7.29-9.33a15.08,15.08,0,0,0-1.18-10.5A14.08,14.08,0,0,0,1785.46,1610.91Z" class="color6847b8 svgShape"/><path fill="#b86947" d="M1909.82,1573.92h-31.31v-30.66q0-11.79-11.58-11.8t-11.57,11.8v30.66h-31.31q-11.37,0-11.36,11.15t11.36,11.15h31.31v32q0,11.79,11.57,11.79t11.58-11.79v-32h31.31q11.36,0,11.36-11.15T1909.82,1573.92Z" class="color6847b8 svgShape"/><path fill="#b86947" d="M2038.47,1573.92h-31.31v-30.66q0-11.79-11.58-11.8t-11.58,11.8v30.66h-31.3q-11.37,0-11.37,11.15t11.37,11.15H1984v32q0,11.79,11.58,11.79t11.58-11.79v-32h31.31q11.35,0,11.36-11.15T2038.47,1573.92Z" class="color6847b8 svgShape"/><path fill="#fff" d="M1774.2,1610.91q-5.15-2-12,1.6a54.88,54.88,0,0,1-13.83,5.36,60,60,0,0,1-14,1.72q-21.64,0-32.69-12.65t-11-36q0-23.37,11-35.92t32.69-12.54a61,61,0,0,1,14.37,1.71,48.21,48.21,0,0,1,13.51,5.58q6.43,3.64,11.58,1.5a14.3,14.3,0,0,0,7.61-7.29,15.62,15.62,0,0,0,1-10.94q-1.51-5.79-8.15-9.65a75,75,0,0,0-19.19-7.5,88.69,88.69,0,0,0-21.77-2.79q-24.43,0-41.81,9.65a65.85,65.85,0,0,0-26.69,27.12q-9.33,17.49-9.33,41.07,0,23.79,9.33,41.27a65.93,65.93,0,0,0,26.69,27.13q17.37,9.65,41.81,9.64a90,90,0,0,0,22.84-3,66,66,0,0,0,19.62-8.36q6-3.64,7.29-9.33a15.08,15.08,0,0,0-1.18-10.5A14.08,14.08,0,0,0,1774.2,1610.91Z" class="colorffffff svgShape"/><path fill="#fff" d="M1898.56,1573.92h-31.31v-30.66q0-11.79-11.58-11.8t-11.58,11.8v30.66h-31.3q-11.37,0-11.36,11.15t11.36,11.15h31.3v32q0,11.79,11.58,11.79t11.58-11.79v-32h31.31q11.36,0,11.36-11.15T1898.56,1573.92Z" class="colorffffff svgShape"/><path fill="#fff" d="M2027.21,1573.92H1995.9v-30.66q0-11.79-11.58-11.8t-11.58,11.8v30.66h-31.3q-11.37,0-11.37,11.15t11.37,11.15h31.3v32q0,11.79,11.58,11.79t11.58-11.79v-32h31.31q11.36,0,11.36-11.15T2027.21,1573.92Z" class="colorffffff svgShape"/><path fill="#491701" d="M3023,765v-.16l-5.51,7.23,5.55-2.25C3023,768.18,3023,766.57,3023,765Z" class="color011949 svgShape"/><path fill="#491701" d="M3243.18,667.35c-1.66-.88-3.95-1.5-5.78-.76l-6,2.45-16.29,6.62L3191,685.44l-29.48,12-32.17,13.07-32.47,13.19L3066.61,736,3041,746.38l-18.47,7.51c-2.9,1.18-5.81,2.35-8.71,3.54l-.37.15a8.45,8.45,0,0,0-3.9,2.68,7.4,7.4,0,0,0-1.61,4.55v82.24c0,3.79-.08,7.6,0,11.4v.16c0,3.92,3.45,7.68,7.5,7.5a7.63,7.63,0,0,0,7.5-7.5V776.37c0-2.19,0-4.39,0-6.58l-5.55,2.25,5.51-7.23V765c.05,1.6.05,3.21,0,4.82l.47-.19,16.29-6.62,24.07-9.78,29.48-12,32.18-13.07L3158,715l30.28-12.31,25.6-10.4,18.46-7.5,8.72-3.54.37-.15a8.24,8.24,0,0,0,4.48-3.45,7.49,7.49,0,0,0-2.69-10.26Z" class="color011949 svgShape"/><circle cx="3245.34" cy="673.83" r="18.55" fill="#ad3e0e" class="color0e5ead svgShape"/><circle cx="3015.46" cy="864" r="18.55" fill="#ad3e0e" class="color0e5ead svgShape"/><path fill="#f7e3da" d="M2526.18,1412h-246v156.25a39.76,39.76,0,0,0,15.54,31.49h230.45a14.65,14.65,0,0,0,14.65-14.65V1426.64A14.65,14.65,0,0,0,2526.18,1412Z" class="colordaecf7 svgShape"/><path fill="#491701" d="M2573.08,1233.89c-1.67-.87-3.95-1.49-5.78-.75l-6,2.44L2545,1242.2l-24.07,9.78-29.48,12L2459.27,1277l-32.48,13.19-30.28,12.31-25.59,10.4-18.47,7.5c-2.91,1.18-5.81,2.35-8.71,3.54l-.38.15a8.46,8.46,0,0,0-3.89,2.69,7.37,7.37,0,0,0-1.61,4.54v82.24c0,3.8-.09,7.61,0,11.4v.16c0,3.92,3.45,7.68,7.5,7.5a7.63,7.63,0,0,0,7.5-7.5v-82.24c0-2.19,0-4.38,0-6.58l-5.55,2.25,5.51-7.23a.85.85,0,0,0,0,.16c0,1.6,0,3.21,0,4.82l.46-.19,16.3-6.62,24.07-9.78,29.48-12,32.17-13.07,32.48-13.19,30.28-12.3,25.59-10.4,18.47-7.51c2.9-1.18,5.81-2.35,8.71-3.54l.38-.15a8.22,8.22,0,0,0,4.48-3.44,7.53,7.53,0,0,0-2.69-10.27Z" class="color011949 svgShape"/><path fill="#491701" d="M2352.86,1331.51a.85.85,0,0,1,0-.16l-5.51,7.23,5.55-2.25C2352.91,1334.72,2352.9,1333.11,2352.86,1331.51Z" class="color011949 svgShape"/><path fill="#fcaa86" d="M2575.24,1221.82a18.55,18.55,0,1,0,18.55,18.55A18.54,18.54,0,0,0,2575.24,1221.82Z" class="color86bffc svgShape"/><path fill="#fcaa86" d="M2345.36,1412a18.56,18.56,0,1,0,18.55,18.56A18.56,18.56,0,0,0,2345.36,1412Z" class="color86bffc svgShape"/><rect width="353.83" height="187.74" x="2176.68" y="1397.97" fill="#b86947" class="color6847b8 svgShape" rx="14.65"/><path fill="#fff" d="M2493.14,1442.62H2208.3a9.21,9.21,0,0,0-9.18,9.18h0a9.2,9.2,0,0,0,9.18,9.17h284.84a9.2,9.2,0,0,0,9.18-9.17h0A9.21,9.21,0,0,0,2493.14,1442.62Z" class="colorffffff svgShape"/><path fill="#fff" d="M2385.44,1483.78H2208.3a9.18,9.18,0,1,0,0,18.35h177.14a9.18,9.18,0,0,0,0-18.35Z" class="colorffffff svgShape"/><path fill="#fff" d="M2430.94,1522.71H2208.3a9.2,9.2,0,0,0-9.18,9.17h0a9.21,9.21,0,0,0,9.18,9.18h222.64a9.21,9.21,0,0,0,9.18-9.18h0A9.2,9.2,0,0,0,2430.94,1522.71Z" class="colorffffff svgShape"/><rect width="353.83" height="187.74" x="3204.67" y="590.33" fill="#914d2f" class="color472f91 svgShape" rx="14.65"/><path fill="#fff" d="M3372.41,635H3236.28a9.18,9.18,0,0,0,0,18.35h136.13a9.18,9.18,0,0,0,0-18.35Z" class="colorffffff svgShape"/><path fill="#fff" d="M3465.91,676.14H3236.28a9.18,9.18,0,0,0,0,18.35h229.63a9.18,9.18,0,1,0,0-18.35Z" class="colorffffff svgShape"/><path fill="#fff" d="M3369.53,715.06H3236.28a9.18,9.18,0,0,0,0,18.35h133.25a9.18,9.18,0,0,0,0-18.35Z" class="colorffffff svgShape"/><path fill="#d66331" d="M3803.63,1300.61v-.06l-65,6.64-8.59,6.54-411.15,74.83c-25.4,4.62-31.54,38.24-9.42,51.54l119,71.56-62.27,34.79-197.53,110.37-238.81,133.42-206.46,115.35c-18.65,10.43-37.48,20.63-56.21,31q-57.76-68.6-115.51-137.21-10.44-12.37-20.86-24.77c-13.31-15.81-30.79-23.33-48.85-22h-.09c-1,.08-2,.18-3,.31l-65.23,6.65,2.44,26-38.4,24-181.08,113-219.13,136.74-189.54,118.28c-30.72,19.17-62.16,37.53-92.3,57.6-.44.29-.89.55-1.33.83-24.76,15.45-30,55.47-12.14,77.77,19.94,24.95,51.3,28.66,77.77,12.13l75.4-47,181.08-113,219.13-136.74L2425,1910.8c16.44-10.26,33-20.32,49.57-30.52l113.86,135.26q7.88,9.33,15.73,18.68l-16.75,35.86,70.93-7.54.94-.1.38,0h0c9.47-1.21,18.13-4.77,27.39-9.95l82.62-46.16,197.53-110.36L3206,1762.5l206.46-115.36c27.16-15.17,54.93-29.63,81.94-45.18l18.34,110.49-30.4,8.92-.84,56.82,67.57-6.89h0a27.34,27.34,0,0,0,20.95-13.09l258.36-414.8C3840.54,1324,3825.45,1299.65,3803.63,1300.61Z" class="color3175d6 svgShape"/><path fill="#fcaa86" d="M3731.33,1308l-480.79,87.51c-25.39,4.63-31.54,38.24-9.41,51.54l164.6,99a28,28,0,0,1,13.19,19.41L3450.36,1755c4.22,25.47,37.74,32.14,51.38,10.22l258.37-414.8C3773,1329.75,3755.23,1303.67,3731.33,1308Z" class="color86bffc svgShape"/><path fill="#fcaa86" d="M3422.57,1497.33c-15.85-1.95-28.29,2.22-42.09,9.93l-82.62,46.16-197.53,110.37-238.81,133.42-206.46,115.35c-18.66,10.43-37.48,20.63-56.21,31q-57.76-68.6-115.52-137.21l-20.85-24.77c-20.43-24.27-50.71-29-77.77-12.13l-75.39,47-181.09,113L1909.1,2066.23,1719.57,2184.5c-30.72,19.17-62.16,37.53-92.31,57.6-.43.29-.88.55-1.33.83-24.75,15.45-30,55.47-12.13,77.77,19.94,25,51.29,28.66,77.77,12.13l75.39-47,181.08-113,219.13-136.74,189.54-118.28c16.44-10.26,33.05-20.32,49.57-30.52q56.94,67.63,113.87,135.26l20.86,24.77c9,10.68,21.23,20.29,35.68,22.07,15.84,1.94,28.28-2.23,42.09-9.94l82.61-46.16,197.53-110.36,238.81-133.42,206.46-115.36c33.41-18.66,67.77-36.26,100.48-56.14.47-.28,1-.53,1.44-.8,11.33-6.33,20-23.53,22.07-35.68,2.3-13.63-1.15-31.11-9.93-42.09S3437,1499.11,3422.57,1497.33Z" class="color86bffc svgShape"/><path fill="#9b5537" d="M2504,2550.35c-254.86,0-461.46,14.13-461.46,31.55s206.6,31.56,461.46,31.56,461.45-14.13,461.45-31.56S2758.88,2550.35,2504,2550.35Z" class="color8c9b37 svgShape"/><path fill="#9b5537" d="M3258.51,2518.79c-88.69,0-160.59,12.54-160.59,28s71.9,28,160.59,28,160.6-12.54,160.6-28S3347.21,2518.79,3258.51,2518.79Z" class="color8c9b37 svgShape"/><ellipse cx="1480.87" cy="2553.89" fill="#9b5537" class="color8c9b37 svgShape" rx="461.46" ry="94.59"/><rect width="559.28" height="91.05" x="2056.33" y="2154.98" fill="#c94c16" class="colord36d11 svgShape" rx="8"/><path fill="#ff4f03" d="M2599.9,2162.06H2426.82V2239H2599.9a8.63,8.63,0,0,0,8.63-8.63V2170.7A8.63,8.63,0,0,0,2599.9,2162.06Z" class="colorff9203 svgShape"/><rect width="181.71" height="76.89" x="2245.12" y="2162.06" fill="#ff7f48" class="colorffcb48 svgShape"/><path fill="#ffaf8d" d="M2063.41,2170.7v59.62A8.63,8.63,0,0,0,2072,2239h173.08v-76.89H2072A8.63,8.63,0,0,0,2063.41,2170.7Z" class="colorffdc8d svgShape"/><rect width="559.28" height="91.05" x="2117.53" y="2071.95" fill="#c94c16" class="colord36d11 svgShape" rx="8"/><path fill="#ff4f03" d="M2661.1,2079H2488v76.89H2661.1a8.64,8.64,0,0,0,8.63-8.64v-59.62A8.63,8.63,0,0,0,2661.1,2079Z" class="colorff9203 svgShape"/><rect width="181.71" height="76.89" x="2306.31" y="2079.03" fill="#ff7f48" class="colorffcb48 svgShape"/><path fill="#ffaf8d" d="M2124.61,2087.66v59.62a8.63,8.63,0,0,0,8.63,8.64h173.07V2079H2133.24A8.63,8.63,0,0,0,2124.61,2087.66Z" class="colorffdc8d svgShape"/><rect width="559.28" height="91.05" x="2107.94" y="2238.95" fill="#c94c16" class="colord36d11 svgShape" rx="8"/><path fill="#ff4f03" d="M2651.51,2246H2478.44v76.89h173.07a8.64,8.64,0,0,0,8.64-8.63v-59.63A8.64,8.64,0,0,0,2651.51,2246Z" class="colorff9203 svgShape"/><rect width="181.71" height="76.89" x="2296.73" y="2246.03" fill="#ff7f48" class="colorffcb48 svgShape"/><path fill="#ffaf8d" d="M2115,2254.66v59.63a8.64,8.64,0,0,0,8.64,8.63h173.07V2246H2123.66A8.64,8.64,0,0,0,2115,2254.66Z" class="colorffdc8d svgShape"/><rect width="559.28" height="91.05" x="2049.25" y="2322.92" fill="#c94c16" class="colord36d11 svgShape" rx="8"/><path fill="#ff4f03" d="M2592.82,2330H2419.74v76.89h173.08a8.63,8.63,0,0,0,8.63-8.64v-59.62A8.63,8.63,0,0,0,2592.82,2330Z" class="colorff9203 svgShape"/><rect width="181.71" height="76.89" x="2238.04" y="2330" fill="#ff7f48" class="colorffcb48 svgShape"/><path fill="#ffaf8d" d="M2056.33,2338.63v59.62a8.63,8.63,0,0,0,8.63,8.64H2238V2330H2065A8.63,8.63,0,0,0,2056.33,2338.63Z" class="colorffdc8d svgShape"/><rect width="559.28" height="91.05" x="2071.57" y="2406.89" fill="#c94c16" class="colord36d11 svgShape" rx="8"/><path fill="#ff4f03" d="M2615.14,2414H2442.06v76.89h173.08a8.64,8.64,0,0,0,8.63-8.64V2422.6A8.63,8.63,0,0,0,2615.14,2414Z" class="colorff9203 svgShape"/><rect width="181.71" height="76.89" x="2260.36" y="2413.97" fill="#ff7f48" class="colorffcb48 svgShape"/><path fill="#ffaf8d" d="M2078.65,2422.6v59.62a8.63,8.63,0,0,0,8.63,8.64h173.08V2414H2087.28A8.63,8.63,0,0,0,2078.65,2422.6Z" class="colorffdc8d svgShape"/><rect width="559.28" height="91.05" x="2107.94" y="2490.86" fill="#c94c16" class="colord36d11 svgShape" rx="8"/><path fill="#ff4f03" d="M2651.51,2497.94H2478.44v76.88h173.07a8.63,8.63,0,0,0,8.64-8.63v-59.62A8.63,8.63,0,0,0,2651.51,2497.94Z" class="colorff9203 svgShape"/><rect width="181.71" height="76.89" x="2296.73" y="2497.94" fill="#ff7f48" class="colorffcb48 svgShape"/><path fill="#ffaf8d" d="M2115,2506.57v59.62a8.63,8.63,0,0,0,8.64,8.63h173.07v-76.88H2123.66A8.63,8.63,0,0,0,2115,2506.57Z" class="colorffdc8d svgShape"/><path fill="#ff7f48" d="M2840.32,2264.94c-42.72-81.37-95.66-146.14-143.66-181.28L2661,2015.74l-57.81,44.48c-56.13,29.47-41,168.91,33.88,311.45s181,234.19,237.15,204.72a47.54,47.54,0,0,0,12.65-9.73l45.16-34.74-24-45.79C2906.31,2426.66,2883.05,2346.31,2840.32,2264.94Z" class="colorffcb48 svgShape"/><ellipse cx="2796.51" cy="2273.83" fill="#ffaf8d" class="colorffdc8d svgShape" rx="114.79" ry="291.5" transform="rotate(-27.7 2796.835 2273.988)"/><path fill="#f26123" d="M2887.74,2225.93c-30.8-58.67-68.82-111.53-107-148.89-36.36-35.51-70.53-55.07-96.2-55.07a38.45,38.45,0,0,0-18,4.17,34.9,34.9,0,0,0-5.27,3.42c-18.45,14.52-26,49.71-20.68,98.23,6.24,57.4,29.25,126.28,64.78,193.94,30.8,58.67,68.82,111.54,107,148.88,36.35,35.52,70.52,55.07,96.21,55.07a40.57,40.57,0,0,0,12.22-1.77,33.62,33.62,0,0,0,5.8-2.38c22.25-11.69,31.72-48.75,26-101.66C2946.28,2362.47,2923.27,2293.59,2887.74,2225.93Z" class="colorf28e23 svgShape"/><path fill="#ff4e02" d="M2876.66,2231.74c-30.8-58.67-68.81-111.53-107-148.87-36.36-35.53-70.53-55.08-96.21-55.08a40.9,40.9,0,0,0-12.23,1.77c-18.45,14.52-26,49.71-20.68,98.23,6.24,57.4,29.25,126.28,64.78,193.94,30.8,58.67,68.82,111.54,107,148.88,36.35,35.52,70.52,55.07,96.21,55.07a40.57,40.57,0,0,0,12.22-1.77c18.45-14.52,26-49.7,20.69-98.23C2935.2,2368.28,2912.2,2299.41,2876.66,2231.74Z" class="colorffaf02 svgShape"/><path fill="#c94c16" d="M2869.26,2370.21l-10.74-17.46a88.13,88.13,0,0,0,11.33-47.81,95.84,95.84,0,0,0-14.88-47.78c-16.82-26.93-36.7-33.63-60.13-20.06l-21.64,12.59q-10.3,6.12-16.57,4.79t-10.68-8.63a30.37,30.37,0,0,1-4.14-19.77q1.24-10.83,12.56-22.47,10.08-10.35,19.11-13.93t14.88-4.13c4.85-.8,7.87-3.32,9.09-7.56a24.14,24.14,0,0,0-.45-13.85,31.42,31.42,0,0,0-7.4-12.86q-5.13-5.37-11.72-4.49a74.66,74.66,0,0,0-16.75,4.23q-9.4,3.39-19.43,11.73l-9.35-15.21q-3.95-6.42-9.49-8.2a9.2,9.2,0,0,0-9.83,2.37q-4.14,4-4.21,11.29a25.73,25.73,0,0,0,3.91,13.83l10,16.48a84.86,84.86,0,0,0-13.75,44.24q-.9,24.91,13.05,48.27,12.22,20.4,27.86,25.24t34.75-6.72l22-13.34q9.63-5.72,15.59-4.44t10.44,8.51a35.67,35.67,0,0,1,5.16,22.64q-1.17,12.51-10.38,23.16-7.53,8.68-14.24,12.18a54.5,54.5,0,0,1-13.36,4.94q-8,1.55-10.28,8.21a25.53,25.53,0,0,0-.4,14.55,31.38,31.38,0,0,0,6.85,13.52q4.93,5.63,11.5,5.23a39.76,39.76,0,0,0,17.24-3.83,68.49,68.49,0,0,0,15.44-9.63l10.3,16.9q4.29,7.07,10,8.72t9.65-3.2c2.72-3.34,4-7.74,3.72-13.17A30.82,30.82,0,0,0,2869.26,2370.21Z" class="colord36d11 svgShape"/><polygon fill="#fff" points="1383.55 1219.57 1290.49 1054.49 1288.1 1050.25 1193.91 1051.73 1187.04 1322.35 1277.77 1624.68 1365.96 1645.79 1418.81 1658.44 1411.18 1394.37 1383.55 1219.57" class="colorffffff svgShape"/><path fill="#f7e3da" d="M1383.55,1219.57l-93.06-165.08s105.76,319,75.47,591.3l52.85,12.65-7.63-264.07Z" class="colordaecf7 svgShape"/><path fill="#fcaa86" d="M1503.62,1885.23l-29.93,2.1,39.63,564.18c.55,7.82-3.35,12.2-4.62,12.44-90.61-19.77-179.63-21.48-224.63-20.74h0a3,3,0,0,1-1.32-.94c-1.71-1.75-3.61-5.71-3.35-11.07l25.44-533.34-30-1.43-25.45,533.35c-.61,12.85,3.68,25,11.78,33.37a31.72,31.72,0,0,0,22.86,10.06h.49c35.18-.58,126.82.23,217.75,20.06a30,30,0,0,0,6.38.69,31.37,31.37,0,0,0,20.53-7.86c9.8-8.48,15-22.19,14-36.68Z" class="color86bffc svgShape"/><path fill="#491701" d="M1488.83,1885.23l-29.92,2.1,39.63,564.18c.55,7.82-3.35,12.2-4.62,12.44-90.61-19.77-179.63-21.48-224.63-20.74h0a3,3,0,0,1-1.32-.94c-1.71-1.75-3.61-5.71-3.35-11.07l25.44-533.34-30-1.43-25.45,533.35c-.61,12.85,3.68,25,11.77,33.37a31.76,31.76,0,0,0,22.87,10.06h.49c35.18-.58,126.82.23,217.75,20.06a30,30,0,0,0,6.38.69,31.39,31.39,0,0,0,20.53-7.86c9.8-8.48,15-22.19,14-36.68Z" class="color011949 svgShape"/><path fill="#d66331" d="M1495,2401.45l-1.89-53.64-106.07-64.42-82.73,53.16-30.52,89.55-11.17,32.76s99.29,70.9,158.61,81.74h0c1.65.3,3.27.55,4.85.76,58.57,7.6,144.61,6.49,199.38-23.17,0,0-.55-14.88-8.71-33.61C1603.59,2454.3,1577.75,2405.21,1495,2401.45Z" class="color3175d6 svgShape"/><path fill="#fff" d="M1495,2401.45s-65.6,9.71-73.77,139.15h0c1.65.3,3.27.55,4.85.76,58.57,7.6,144.61,6.49,199.38-23.17,0,0-.55-14.88-8.71-33.61C1603.59,2454.3,1577.75,2405.21,1495,2401.45Z" class="colorffffff svgShape"/><path fill="#803515" d="M1459.4,2514.79c-93.37,2-185.59-88.69-185.59-88.69l-11.17,32.76s104.89,74.9,163.46,82.51,144.61,6.49,199.38-23.17c0,0-.55-14.88-8.71-33.61C1578.45,2505.05,1552.77,2512.81,1459.4,2514.79Z" class="color154180 svgShape"/><path fill="#d37146" d="M1439.91,1849.6l-151.82,468.61s62.09,95.74,210.93,50.23L1582.89,2072,1481.3,1772.47Z" class="colord36b46 svgShape"/><path fill="#a35a3a" d="M1589.09,2259.61,1529,2306.08l27,138.67c151.78-29.5,220.28-129.28,220.28-129.28s-10.09-37.15-25.84-93.33Z" class="colora3523a svgShape"/><path fill="#491701" d="M1754.72,2377.68,1699.58,2414l-67.45,76.89-24.76,65s24.17,27.93,173.16-70.14,157.46-131.66,154.29-135.53S1754.72,2377.68,1754.72,2377.68Z" class="color011949 svgShape"/><path fill="#d66331" d="M1914.62,2331.34c-23.2-16.37-67.45-34.71-138.34-15.87L1708,2275.84l-142,125.61,32.67,122h0l8.69,32.42s53.74-74.94,167.68-139.8a692,692,0,0,1,159.77-65.87S1928.48,2341.12,1914.62,2331.34Z" class="color3175d6 svgShape"/><path fill="#fff" d="M1914.62,2331.34c-23.2-16.37-67.45-34.71-138.34-15.87,0,0-20.91,21.72-14.83,71.67,1.19,9.81,6.25,19.57,13.6,28.92a692,692,0,0,1,159.77-65.87S1928.48,2341.12,1914.62,2331.34Z" class="colorffffff svgShape"/><path fill="#803515" d="M1914.62,2331.34s-205,37.55-315.94,192.09h0l8.69,32.42s103.41-144.2,327.45-205.67C1934.82,2350.19,1928.48,2341.12,1914.62,2331.34Z" class="color154180 svgShape"/><path fill="#fcaa86" d="M1385.68,1904.53l-30,1.5,32.22,642.25a30.93,30.93,0,0,1-27,32.17c-127.15,15.46-223.1-10.27-269-27a31,31,0,0,1-20.27-31.6l51.71-615.34-29.89-2.51-51.71,615.33a61.06,61.06,0,0,0,39.89,62.31c38,13.83,108.44,33.54,201.48,33.54a673.53,673.53,0,0,0,81.38-5,61,61,0,0,0,53.38-63.45Z" class="color86bffc svgShape"/><path fill="#491701" d="M1372.34,1904.34l-30,1.51,32.22,642.25a30.93,30.93,0,0,1-27,32.17c-127.15,15.45-223.1-10.27-269-27a31,31,0,0,1-20.27-31.6L1110,1906.35l-29.89-2.51-51.71,615.33a61,61,0,0,0,39.89,62.3c38,13.84,108.44,33.55,201.48,33.55a673.53,673.53,0,0,0,81.38-5,61,61,0,0,0,53.38-63.45Z" class="color011949 svgShape"/><path fill="#ad3e0e" d="M1102.06,1805.79a43.26,43.26,0,0,0-6,1.06c-13.74,3.29-45.81,16.34-36.54,65.49,11.2,59.4,163.07,65.37,333,50.06a60.66,60.66,0,0,0,17.36-4.19h0a58.76,58.76,0,0,0,33.43-34c6.24-16.91,5.41-38.31-17.31-61C1374.15,1771.42,1102.06,1805.79,1102.06,1805.79Z" class="color0e5ead svgShape"/><path fill="#803515" d="M1102.06,1805.79a43.26,43.26,0,0,0-6,1.06s-90.7,32.11,55.26,49.4,319-59.06,258.6,62a58.76,58.76,0,0,0,33.43-34c6.24-16.91,5.41-38.31-17.31-61C1374.15,1771.42,1102.06,1805.79,1102.06,1805.79Z" class="color154180 svgShape"/><path fill="#e2e2e2" d="M1393,955.51a37.08,37.08,0,1,0,52.24,4.53A37.09,37.09,0,0,0,1393,955.51Z" class="colore2e2e2 svgShape"/><path fill="#c9c9c9" d="M1410.45,989.28a37.09,37.09,0,0,1-4.61-40.8,37.08,37.08,0,1,0,44,52.35A37.08,37.08,0,0,1,1410.45,989.28Z" class="colorc9c9c9 svgShape"/><path fill="#51504f" d="M1446,960.54a1.09,1.09,0,0,0-2,.32c-2.35,10.68-11,20.44-23.68,29.53-12.12,8.72-23.53,13.87-34.18,13.16a1.1,1.1,0,0,0-.89,1.83,20,20,0,0,0,5.42,6.78,6.65,6.65,0,0,0,4.36,1.4c10-.32,21-6.28,31.84-14.06,11.52-8.28,20.95-17.58,24.08-27.51a6.73,6.73,0,0,0-.36-5.08A31.83,31.83,0,0,0,1446,960.54Z" class="color514f50 svgShape"/><path fill="#383635" d="M1398.68,1009.69a20.19,20.19,0,0,1-5.29-6.53,31.59,31.59,0,0,1-7.23.39,1.1,1.1,0,0,0-.89,1.83,20,20,0,0,0,5.42,6.78,6.65,6.65,0,0,0,4.36,1.4,37.87,37.87,0,0,0,13-3.08,31,31,0,0,1-5,.61A6.65,6.65,0,0,1,1398.68,1009.69Z" class="color383536 svgShape"/><path fill="#f5b397" d="M1534.48,1075.79a89.31,89.31,0,0,0-2.68-29.75c-.45-1.82-1-3.62-1.51-5.41l-.1-.33c-18.23-62.56-59.78-60.14-59.78-60.14l-14.11,12.78-.28.25h0a30.87,30.87,0,0,0-7.6.86h-.07c-13.14,3-23.19,13-23.19,13s-4.66.93-24.74,29.14c-20.45,28.74,25.93,71.1,25.93,71.1l13.9,37.32,103.12-25.71-9.5-38C1534.14,1079.19,1534.34,1077.49,1534.48,1075.79Z" class="colorf5ae97 svgShape"/><path fill="#ed946e" d="M1534.7,1072.39c0-.21,0-.42,0-.63q.12-3.4,0-6.84c0-.21,0-.43,0-.65-.12-2.31-.34-4.62-.64-6.93l-.06-.43a102,102,0,0,0-3.65-16.28l.15.56a34,34,0,0,1,1,5.63c-4.26,8.23-11.18,16-22.06,22-40,22.21-55.22-25.38-58.15-36.43,7.3-7.12,14.32-16.32,15.43-26.06,1.2-10.55-4.37-13.29-10.33-13.36a29.85,29.85,0,0,0-7.87,1.1l-.07,0a38.84,38.84,0,0,0-4.67,1.53c42.44,2.88-13.7,58.47-13.7,58.47,14.32,22.81,32.17,26.52,45.26,31.31,6.26,6.11,11.11,10.77,11.32,10.79s10.67-4.4,22.9-9.63c5.58.46,13.93,3.65,17.56,17.71l1.63,7,14.72,7.66-9.5-38A77.88,77.88,0,0,0,1534.7,1072.39Z" class="colored856e svgShape"/><path fill="#d66331" d="M1417.83,1120.48l14.82,131.24s-46.3-110.14-63.91-148.24-80.64-53.23-80.64-53.23,83.42,207.18,86,353.61S1405.82,1720,1405.82,1720l79.7-10.33c-16.68-43.56-46.72-283.62-46.72-283.62,64.48,39.41,96.92,6.37,111.87-53.06h0c27.6-109.7-3-284.65-3-284.65C1503.2,1122.67,1417.83,1120.48,1417.83,1120.48Z" class="color3175d6 svgShape"/><path fill="#ad3e0e" d="M1411.2,1289.26l27.6,136.83c64.48,39.41,96.92,6.37,111.87-53.06C1471.09,1486.8,1412.54,1293.32,1411.2,1289.26Z" class="color0e5ead svgShape"/><path fill="#ad3e0e" d="M1354.44,1110.92l-1.77,2.78c.82.89,1.65,1.78,2.47,2.68C1354.91,1114.56,1354.67,1112.74,1354.44,1110.92Z" class="color0e5ead svgShape"/><path fill="#ad3e0e" d="M1343.28,1140.63v4.54l1.5-2.35-1-1.5Z" class="color0e5ead svgShape"/><path fill="#ad3e0e" d="M1387.77,1296q-.23-13.58-.46-27.14l-.48-27.95-.39-23-.21-12.24a6.17,6.17,0,0,0-.92-3.43l-3.18-4.64-13.27-19.46-15.57-22.81-8.51-12.48-1.5,2.35v-4.54l.47.69,1,1.5,15.06-23.64,2.37-3.71a4.6,4.6,0,0,0-.7-5.46l-13.45-14.55-21.24-23-4.92-5.33a4.55,4.55,0,0,0-6.37,0,4.61,4.61,0,0,0,0,6.37l13.45,14.55,21.24,23,2.45,2.65,1.77-2.78c.23,1.82.47,3.64.7,5.46-.82-.9-1.65-1.79-2.47-2.68l-14.79,23.21-2.37,3.72a4.4,4.4,0,0,0,0,4.54l14.32,21,22.81,33.42,4.61,6.75,0-1.4.62,2.27-.59-.87q.09,5.25.17,10.5l.49,28.58q.3,17.29.59,34.58l.51,29.89c.08,4.84,0,9.7.24,14.54a1.41,1.41,0,0,0,0,.2,4.5,4.5,0,0,0,9,0q-.08-4.06-.14-8.13Z" class="color0e5ead svgShape"/><path fill="#ad3e0e" d="M1377.22,1204.93l0,1.4.59.87Z" class="color0e5ead svgShape"/><path fill="#51504f" d="M1502.18,1072.14c-7.64,2.9-14.26,3.08-20,1.5-18.42-5.07-27.28-28.52-30.32-38.72v-.05a4.38,4.38,0,0,1,1.06-4.26c4.57-4.7,8.84-10.19,11.39-16.07l-4.8-7.29c.19,6.91-4.61,15.9-10.39,24.15-2.07,2.94-9.07,11.35-11.21,14l64.79,84.84a3.08,3.08,0,0,0,.37.44,6.32,6.32,0,0,0,4.83,1.41l.2,0h.11l.44-.06a18.88,18.88,0,0,0,5.55-2l.71-.39c1-.6,1.29-.79,1.81-1.14l.62-.43c6.54-4.71,13.74-15.71,11.56-18.74Z" class="color514f50 svgShape"/><path fill="#383635" d="M1512.74,1126.43l-30.52-52.79c-18.42-5.07-27.28-28.52-30.32-38.72v0l-2.75-3.5c-2.07,2.94-9.07,11.35-11.21,14l64.79,84.84a3.08,3.08,0,0,0,.37.44,6.32,6.32,0,0,0,4.83,1.41,2.35,2.35,0,0,0,.34,0l.41,0a19.17,19.17,0,0,0,5.55-2l.71-.39c1-.59,1.24-.77,1.76-1.12l.25-.17A5,5,0,0,1,1512.74,1126.43Z" class="color383536 svgShape"/><path fill="#f08557" d="M1576.58,1693.33c-42.62-43.59-242.51-83.26-242.51-83.26l-142.56-57.31-145.43,55.84,9.66,103s1.51,136.51,148.76,129.16,235.41,8.82,235.41,8.82l89,456.48,27,138.67s55.7-114.59,220.28-129.28c0,0-10.09-37.15-25.84-93.33C1704,2056.62,1608.39,1725.87,1576.58,1693.33Z" class="colorf08557 svgShape"/><path fill="#d66331" d="M1193.9,1051.73s-51.77,20-100.33,55.59c0,0-93.16,622.21-57,612.61s177.29-116.31,245.61-113.49,56.12,24.26,36.7-30.49C1297.61,1516.07,1307.79,1188.1,1193.9,1051.73Z" class="color3175d6 svgShape"/><path fill="#f5b397" d="M1272.08,782l-6.88,10-70.6,102.25s-40.84-29.85-52.75,16.59c-5.57,21.86,7.35,37.56,21.16,47.57.07,0,.06.07.12.08,2.2,1.53,4.34,3.06,6.46,4.27a111.51,111.51,0,0,0,16.12,8.14,7.37,7.37,0,0,1,4.64,6.14c1.47,12.83,5.12,49.51,3.55,74.77,32.93,45.88,64,40.43,79.76,32.92a21.55,21.55,0,0,0,12.11-16.71l4.69-36.21c70.89,6.24,77.82-127,77.82-127l1.87-30,3.94-62.43L1282.45,785Z" class="colorf5ae97 svgShape"/><path fill="#ed946e" d="M1237.81,995.29s-4.66,37,50.28,55l2.39-18.49C1282.53,1031.14,1255.89,1026.93,1237.81,995.29Z" class="colored856e svgShape"/><path fill="#ed946e" d="M1182.32,915.66c0-.08.07-.17.11-.25,2.51-6-4.16-12-9.89-8.91-4.75,2.56-8.89,8.39-5.75,21.52,6.08,25.51,20.26,15,19.52,7.28S1178.72,924,1182.32,915.66Z" class="colored856e svgShape"/><path fill="#351507" d="M1277.66,889.09a22.39,22.39,0,0,0-10.68,6.06c-2.85,2.93-5.37,6.7-5.23,11,.06,2,1.11,3.85,3.32,4.07,1.81.18,4.13-1.31,4.07-3.32-.15-4.87,5.29-9.34,9.76-10.44a10.39,10.39,0,0,1,7,.5,8.37,8.37,0,0,1,4.3,4.13c2,4.33,8.76,1.19,6.73-3.15C1293.58,890.81,1285.15,887.26,1277.66,889.09Z" class="color072c35 svgShape"/><path fill="#351507" d="M1347.68,887c-7.39-1.91-15,2.77-19.38,8.48a3.79,3.79,0,0,0,.29,5.25,3.75,3.75,0,0,0,5.24-.29c2.85-3.72,7.48-7.25,11.94-6.26,3.86.85,8.54,5.1,8.85,9.13a3.71,3.71,0,1,0,7.41-.5C1361.47,895.4,1354.67,888.83,1347.68,887Z" class="color072c35 svgShape"/><path fill="#351507" d="M1345.41,911.65c-3.66-.09-6.74,4.55-6.9,10.38s2.69,10.64,6.34,10.73,6.74-4.55,6.9-10.38S1349.06,911.75,1345.41,911.65Z" class="color072c35 svgShape"/><path fill="#351507" d="M1284.77,909.48c-3.85-.1-7.11,4.8-7.27,10.95s2.83,11.21,6.69,11.31,7.11-4.8,7.27-11S1288.63,909.58,1284.77,909.48Z" class="color072c35 svgShape"/><path fill="#ed946e" d="M1169.58,962.7a110.29,110.29,0,0,0,16.14,8.09s15.83,1.79,18.78-13.06C1203.39,959.07,1191.5,972.73,1169.58,962.7Z" class="colored856e svgShape"/><path fill="#491701" d="M1135.3,787.62c-5.17-3.27-18.61-11-24.61-6.82-7.22,5,4.14,14.2,24.29,8.88A1.14,1.14,0,0,0,1135.3,787.62Z" class="color011949 svgShape"/><path fill="#491701" d="M1132.43,749.3c-11-4.71-13.39,15.11,7.41,34.51a1.57,1.57,0,0,0,2.62-1.13C1142.48,774.33,1141.59,753.2,1132.43,749.3Z" class="color011949 svgShape"/><path fill="#ed946e" d="M1265.2,791.92,1184,824.32l10.65,69.85s75-56.86,123.66-30.23c25.53,14,42,14,51.89,10.86l3.94-62.43L1282.45,785Z" class="colored856e svgShape"/><path fill="#491701" d="M1400.42,780.23s6.21-77.11-58.57-60.84c-13.85,3.47-31.41,12.15-41.09,12-38.77-.79-43.92-30.17-72-7.85-35,27.88-75.32,14.81-73.22,72.46,0,0-66.76,5.37-27.07,87.06h.06a252.67,252.67,0,0,0,14.06,25s11.52-38.53,52-13.94c0,0,55.42-53,105.88-47.55,9,1,17.55,4.55,25.33,9.28,11.93,7.2,44.12,21,68.2-4.92,30.71-33,8.19-68.14,6.46-70.62A.17.17,0,0,1,1400.42,780.23Z" class="color011949 svgShape"/><path fill="#210a00" d="M1365.18,849.05c-44.18,9.46-47.3-37.73-98.21-14.93s-90.42,13-99.91-14.72c0,0,4.82,70.92-38.5,63.69a252.67,252.67,0,0,0,14.06,25s11.52-38.53,52-13.94c0,0,55.42-53,105.88-47.55,9,1,17.55,4.55,25.33,9.28,11.93,7.2,44.12,21,68.2-4.92,30.71-33,8.19-68.14,6.46-70.62C1400.85,783.26,1408.22,839.78,1365.18,849.05Z" class="color000d21 svgShape"/><path fill="#210a00" d="M1184.22,821.76s-26.38-38.33,7.28-70.15C1191.5,751.61,1142,778.39,1184.22,821.76Z" class="color000d21 svgShape"/><path fill="#210a00" d="M1320.57,828.24c59.32,15.89,61.93-27.23,61.93-27.23C1359.94,834.57,1320.57,828.24,1320.57,828.24Z" class="color000d21 svgShape"/><path fill="#210a00" d="M1334.71,730.35s40-1.78,47.29,30.38C1382,760.73,1381.46,717.05,1334.71,730.35Z" class="color000d21 svgShape"/><path fill="#210a00" d="M1290.64,782.65C1264.15,832.47,1207,811.8,1207,811.8c61,32.45,90.35-23.56,90.35-23.56,29.75-6.65,24.09-27.92,24.09-27.92C1312.84,784.06,1290.64,782.65,1290.64,782.65Z" class="color000d21 svgShape"/><path fill="#cb7955" d="M1318,970.25c-7.67-2.06-15,.24-18.08,11.83s1.49,19.25,9.16,21.31,15.5-2.25,18.62-13.84S1325.69,972.31,1318,970.25Z" class="colorcb6655 svgShape"/><path fill="#ad3e0e" d="M1138.27,1228s-59.08,18.68-63.69,22.13-42.66,56.5-42.66,56.5l2,79.3,18.77,128.22,138.83,38.66L1094.18,1374C1116.66,1346.35,1138.27,1228,1138.27,1228Z" class="color0e5ead svgShape"/><path fill="#f5b397" d="M1124.11,1587.61,1085.62,1636l16.9,44.25,28.45,41.39c22.38-79.37,88.16-89,88.16-89l-52.86-52.25Z" class="colorf5ae97 svgShape"/><path fill="#fff" d="M1090.89,1579.5l-12.77,32.11v41.22l8.64,21.86,12.33,12.12s37.61-77.39,92.41-107.67L1162,1552.76Z" class="colorffffff svgShape"/><path fill="#d66331" d="M1148.89,1174.1c4.84-43-9-60.59-24-67.39-14.45-6.54-31.48-2.88-42.53,8.49-27.8,28.59-99.87,106.21-132,174-7,14.65-12,28.83-14.42,42-4.1,22.72,3.35,57.32,16.75,96.29,39.27,114.19,129.56,265.88,129.56,265.88,14-83.19,109.31-140.57,109.31-140.57l-109.31-177.5S1139.21,1260.16,1148.89,1174.1Z" class="color3175d6 svgShape"/><path fill="#ad3e0e" d="M950.31,1289.19c-7,14.65-12,28.83-14.42,42-4.1,22.72,3.35,57.32,16.75,96.29a76.51,76.51,0,0,0-2.33-138.26Z" class="color0e5ead svgShape"/><path fill="#ad3e0e" d="M1031.39,1553.6c-4.39,1.73-5.61,9-2.73,16.31s8.75,11.76,13.13,10,5.61-9,2.73-16.3S1035.77,1551.87,1031.39,1553.6Z" class="color0e5ead svgShape"/><path fill="#ad3e0e" d="M1049,1590.31c-4.39,1.73-5.61,9-2.73,16.3s8.75,11.77,13.13,10,5.61-9,2.73-16.31S1053.34,1588.57,1049,1590.31Z" class="color0e5ead svgShape"/><path fill="#ad3e0e" d="M1065.09,1624.73c-4.38,1.73-5.6,9-2.73,16.3s8.76,11.77,13.14,10,5.6-9,2.73-16.3S1069.47,1623,1065.09,1624.73Z" class="color0e5ead svgShape"/><path fill="#d37146" d="M1131,1721.59l12.42,27.32c19.33-90.2,88.35-106.46,88.35-106.46l-12.61-9.89C1143.93,1638.62,1131,1721.59,1131,1721.59Z" class="colord36b46 svgShape"/><path fill="#ad3e0e" d="M1193.59,1215.13l.45,3.47c.15-.7.31-1.41.46-2.12-.26-.37-.51-.76-.78-1.14A1.48,1.48,0,0,1,1193.59,1215.13Z" class="color0e5ead svgShape"/><path fill="#ad3e0e" d="M1265.33,1326.32q-9.51-14.71-19-29.45l-23-35.65-19.89-30.84c-3-4.6-5.79-9.39-8.93-13.9-.15.71-.31,1.42-.46,2.12l-.45-3.47a1.48,1.48,0,0,0,.13.21c.27.38.52.77.78,1.14l4.53-20.72,8-36.57,1.83-8.36a4.67,4.67,0,0,0-2.07-5.08l-30.63-20.29-1.39-.93-.83,3.17-2.07-5.08,2.9,1.91,4.11-15.78,7.89-30.24,1.83-7a4.5,4.5,0,0,0-8.68-2.39l-5,18.95q-3.93,15.12-7.88,30.24l-1.83,7a4.64,4.64,0,0,0,2.07,5.08l30.63,20.29,1.51,1c.23-1.08.47-2.16.71-3.24.69,1.69,1.38,3.39,2.06,5.08l-2.77-1.84q-1.29,5.92-2.59,11.84l-6.51,29.84-4.69,21.48c-.38,1.76-.65,3.45.34,5.13.65,1.09,1.38,2.14,2.07,3.2l9.67,15q7.4,11.46,14.78,22.91l17,26.35,16.35,25.34,12.84,19.9c2.16,3.34,4.29,6.7,6.47,10,.1.14.19.29.29.44a4.5,4.5,0,0,0,7.77-4.54Q1269.28,1332.46,1265.33,1326.32Z" class="color0e5ead svgShape"/><path fill="#ad3e0e" d="M1200.16,1148.44c-.24,1.08-.48,2.16-.71,3.24l2.77,1.84C1201.54,1151.83,1200.85,1150.13,1200.16,1148.44Z" class="color0e5ead svgShape"/><path fill="#ad3e0e" d="M1173.92,1127.7l.83-3.17-2.9-1.91Z" class="color0e5ead svgShape"/><path fill="#8c4526" d="M3277.34,1637c-30.35-54.79-82.64-151.52-82.64-151.52,1.38,24.16-11.84,97.24-31.26,211.59s20.32,255.39,20.32,255.39l5.81,95.81,94.35,43.09s51.37-62.86,51.54-65.42-6.61-59.64-6.61-59.64C3368.94,1855.29,3344.29,1757.86,3277.34,1637Z" class="color8c8226 svgShape"/><path fill="#682f16" d="M3262.67,2112.25l45.34-20.88c-60.6-142.71-99.3-463.42-99.3-463.42C3208.47,1809.28,3262.67,2112.25,3262.67,2112.25Z" class="color685e16 svgShape"/><path fill="#a17663" d="M3507.62,1822.05h0c-201.51,58-284.45,283.41-284.45,283.41l-.3,71.9-.31,79.83,27.07,4.46s10.87-11,27.15-25.6c25.12-22.45,63.09-53.39,93.83-65.4,50.65-19.8,129.93-96.66,190.35-234.48q3.21-7.28,6.6-13.88c62.12-121.62,174.4-90.43,174.4-90.43C3650.58,1802.1,3572.89,1803.27,3507.62,1822.05Z" class="color9aa163 svgShape"/><path fill="#895843" d="M3222.83,2177.35l-.31,79.83,27.07,4.46s10.87-11,27.15-25.6c182.84-356.52,298.21-400.94,301.83-402.27C3403.8,1874.49,3268.6,2093.94,3222.83,2177.35Z" class="color848943 svgShape"/><path fill="#a17663" d="M3126,1814h0c-55-33.88-125.84-54.81-217.11-50.89,0,0,110.81.12,136.64,127.38q1.42,6.93,2.5,14.41c20.13,141.67,73.11,232.33,114.43,263.4,25.09,18.86,52,56.9,69.24,83.88,11.18,17.53,18.33,30.39,18.33,30.39l25.93,2.83,20.11-73.2,18.1-65.94S3295.8,1918.57,3126,1814Z" class="color9aa163 svgShape"/><path fill="#895843" d="M3058,1806.61c3,2.14,97.3,72.3,173.68,445.57,11.18,17.53,18.33,30.39,18.33,30.39l25.93,2.83,20.11-73.2C3275.47,2124.1,3207.7,1888.55,3058,1806.61Z" class="color848943 svgShape"/><path fill="#473b36" d="M3267,2234.29s77-156.2,340.45-218.79C3607.47,2015.5,3355.76,2050.86,3267,2234.29Z" class="color364547 svgShape"/><path fill="#473b36" d="M3575.63,1978.92c-18.69,14-19.17,25.89-18.29,30.87a2.55,2.55,0,0,0,3.26,2c4.83-1.5,15.2-7.37,19.09-30.39A2.56,2.56,0,0,0,3575.63,1978.92Z" class="color364547 svgShape"/><path fill="#473b36" d="M3546.4,1986.52c-17.53,15.41-17.08,27.32-15.81,32.21a2.55,2.55,0,0,0,3.4,1.73c4.7-1.87,14.58-8.54,16.65-31.79A2.56,2.56,0,0,0,3546.4,1986.52Z" class="color364547 svgShape"/><path fill="#473b36" d="M3513.58,1999.52c-13.16,16.18-11,26.59-9.14,30.72a2.27,2.27,0,0,0,3.25,1c3.86-2.34,11.57-9.68,9.95-30.46A2.29,2.29,0,0,0,3513.58,1999.52Z" class="color364547 svgShape"/><path fill="#473b36" d="M3483.1,2010.06c-9.7,18.46-5.52,28.24-2.9,31.92a2.27,2.27,0,0,0,3.39.35c3.33-3.06,9.43-11.77,3.73-31.83A2.29,2.29,0,0,0,3483.1,2010.06Z" class="color364547 svgShape"/><path fill="#473b36" d="M3454.11,2022.83c-6.35,18.56-1.05,27.05,1.92,30.09a2.14,2.14,0,0,0,3.2-.16c2.65-3.33,7.07-12.31-1.13-30.14A2.15,2.15,0,0,0,3454.11,2022.83Z" class="color364547 svgShape"/><path fill="#473b36" d="M3422.48,2031.06a2.16,2.16,0,0,0-3.33,2.22c4,19.2,12.95,23.78,17,24.87a2.13,2.13,0,0,0,2.67-1.78C3439.45,2052.16,3438.64,2042.18,3422.48,2031.06Z" class="color364547 svgShape"/><path fill="#473b36" d="M3575.25,2034.67a2.56,2.56,0,0,0-1.37,3.57c2.35,4.49,10,13.64,33.37,13.32a2.56,2.56,0,0,0,1.71-4.44C3591.81,2031.23,3580,2032.91,3575.25,2034.67Z" class="color364547 svgShape"/><path fill="#473b36" d="M3548.85,2044a2.55,2.55,0,0,0-1.65,3.45c2,4.66,8.89,14.38,32.22,15.89a2.56,2.56,0,0,0,2-4.29C3565.62,2041.91,3553.72,2042.65,3548.85,2044Z" class="color364547 svgShape"/><path fill="#473b36" d="M3521.39,2051.54a2.28,2.28,0,0,0-2,2.79c1.05,4.4,5.7,14,26,18.78a2.29,2.29,0,0,0,2.45-3.47C3536.48,2052.15,3525.88,2051,3521.39,2051.54Z" class="color364547 svgShape"/><path fill="#473b36" d="M3495.5,2057.47a2.28,2.28,0,0,0-2.47,2.35c.17,4.52,2.82,14.84,21.79,23.55a2.28,2.28,0,0,0,3.08-2.92C3510.18,2061.05,3500,2057.87,3495.5,2057.47Z" class="color364547 svgShape"/><path fill="#473b36" d="M3474,2069a2.29,2.29,0,0,0-3.07,1.49c-1.21,4.36-1.8,15,13.65,29.05a2.29,2.29,0,0,0,3.82-1.86C3486.86,2076.82,3478.14,2070.71,3474,2069Z" class="color364547 svgShape"/><path fill="#473b36" d="M3447.68,2079.45a2.28,2.28,0,0,0-3.2,1.2c-1.62,4.22-3.21,14.76,10.84,30.2a2.29,2.29,0,0,0,4-1.49C3459.78,2088.49,3451.67,2081.58,3447.68,2079.45Z" class="color364547 svgShape"/><path fill="#473b36" d="M2932.06,1830.28c287.08,192.18,309.6,413.25,309.6,413.25C3217.27,1984.68,2932.06,1830.28,2932.06,1830.28Z" class="color364547 svgShape"/><path fill="#473b36" d="M2980.47,1801.87c-5.6,29.26,4.17,40.9,9.29,44.83a3.24,3.24,0,0,0,4.78-.92c3.27-5.56,8-20-8.12-45.06A3.26,3.26,0,0,0,2980.47,1801.87Z" class="color364547 svgShape"/><path fill="#473b36" d="M3012,1823.51c-7.88,28.73,1,41.1,5.74,45.43a3.26,3.26,0,0,0,4.84-.55c3.7-5.29,9.55-19.32-4.56-45.56A3.26,3.26,0,0,0,3012,1823.51Z" class="color364547 svgShape"/><path fill="#473b36" d="M3046,1852.7c-11.21,24.13-5.26,36.34-1.68,40.86a2.89,2.89,0,0,0,4.34.23c4-4.1,11.27-15.6,2.74-40.8A2.91,2.91,0,0,0,3046,1852.7Z" class="color364547 svgShape"/><path fill="#473b36" d="M3078,1877.82c-15.75,21.44-12.34,34.58-9.73,39.72a2.9,2.9,0,0,0,4.21,1.09c4.78-3.23,14.14-13.06,10.76-39.45A2.91,2.91,0,0,0,3078,1877.82Z" class="color364547 svgShape"/><path fill="#473b36" d="M3107.49,1905.33c-17.75,17.66-16.47,30.37-14.79,35.53a2.74,2.74,0,0,0,3.76,1.62c4.91-2.32,15-10.1,15.71-35.13A2.74,2.74,0,0,0,3107.49,1905.33Z" class="color364547 svgShape"/><path fill="#473b36" d="M3146.32,1931.29c-24.28,6.09-29.69,17.67-30.88,23a2.74,2.74,0,0,0,2.4,3.32c5.4.52,18.08-1,31.46-22.15A2.74,2.74,0,0,0,3146.32,1931.29Z" class="color364547 svgShape"/><path fill="#473b36" d="M2916.2,1867.42a3.27,3.27,0,0,0,.06,6.07c27.8,10.79,41,3.26,45.83-1.07a3.25,3.25,0,0,0-.05-4.87C2957.15,1863.32,2943.78,1856.06,2916.2,1867.42Z" class="color364547 svgShape"/><path fill="#473b36" d="M2989.44,1890.51c-5.2-3.83-19.1-10-45.71,3.46a3.27,3.27,0,0,0,.54,6c28.56,8.58,41.16,0,45.6-4.65A3.25,3.25,0,0,0,2989.44,1890.51Z" class="color364547 svgShape"/><path fill="#473b36" d="M3018.93,1911.72c-5.15-2.6-18.31-6-39.74,9.83a2.91,2.91,0,0,0,1.37,5.24c26.43,3.32,36.25-6.07,39.47-10.86A2.9,2.9,0,0,0,3018.93,1911.72Z" class="color364547 svgShape"/><path fill="#473b36" d="M3047.24,1930.34c-5.57-1.54-19.14-2.26-37,17.49a2.92,2.92,0,0,0,2.38,4.87c26.57-2,34.34-13.12,36.55-18.45A2.9,2.9,0,0,0,3047.24,1930.34Z" class="color364547 svgShape"/><path fill="#473b36" d="M3067.88,1953.67c-5.77.23-18.93,3.64-30,27.87a2.92,2.92,0,0,0,3.74,3.93c24.72-9.92,28.76-22.9,29.25-28.65A2.9,2.9,0,0,0,3067.88,1953.67Z" class="color364547 svgShape"/><path fill="#473b36" d="M3094.63,1977.93c-5.72.76-18.49,5.41-27.22,30.58a2.92,2.92,0,0,0,4.1,3.55c23.68-12.21,26.46-25.51,26.41-31.28A2.89,2.89,0,0,0,3094.63,1977.93Z" class="color364547 svgShape"/><path fill="#c78365" d="M3490.89,2123.78c-84.2-34.36-152.86,10.7-194.25,52.1a321.17,321.17,0,0,0-40.84,50,10.2,10.2,0,0,0-.61,10.32c2.23,4.06,6.48,4.62,9.74,4.35a18,18,0,0,0,6.19-1.8q8.27-4,16.54-7.18c147.6-56.79,290.94,83.42,333.67,130.53a6.61,6.61,0,0,0,11.46-5.11C3627.69,2305.67,3603.66,2169.79,3490.89,2123.78Z" class="colorc7c365 svgShape"/><path fill="#ad5d3a" d="M3572,2244.14l.32.43Z" class="colorada43a svgShape"/><path fill="#ad5d3a" d="M3255.8,2225.88a10.2,10.2,0,0,0-.61,10.32c2.23,4.06,6.48,4.62,9.74,4.35a18,18,0,0,0,6.19-1.8q8.27-4,16.54-7.18c155.15-147.24,273.7-1.9,284.36,12.57C3424.5,2039.15,3255.8,2225.88,3255.8,2225.88Z" class="colorada43a svgShape"/><path fill="#723419" d="M3572.78,2245.19c-.08-.11-.2-.31-.44-.62C3572.5,2244.77,3572.63,2245,3572.78,2245.19Z" class="color3c7219 svgShape"/><path fill="#c78365" d="M3106.67,2044.1c-127.85-31.73-235.5,71.64-272.69,113.21a7.15,7.15,0,0,0,6.76,11.78c67.37-13.91,282-45,374.71,98.78q5.21,8,9.87,16.82a19.26,19.26,0,0,0,4.26,5.51c2.67,2.32,6.73,4.54,11.28,2.42a11,11,0,0,0,6-9.4,346.79,346.79,0,0,0-3.78-69.72C3233.37,2150.93,3202.13,2067.79,3106.67,2044.1Z" class="colorc7c365 svgShape"/><path fill="#ad5d3a" d="M2958.49,2097.67c14.9-4.47,214.88-59.84,257,170.2q5.21,8,9.87,16.82a19.26,19.26,0,0,0,4.26,5.51c2.67,2.32,6.73,4.54,11.28,2.42a11,11,0,0,0,6-9.4,346.79,346.79,0,0,0-3.78-69.72C3215.69,2136.94,3143.92,2035.84,2958.49,2097.67Z" class="colorada43a svgShape"/><path fill="#473b36" d="M3272.22,2391.83s-95.83-334.13,209.3-780.14C3481.52,1611.69,3157.13,2001.75,3272.22,2391.83Z" class="color364547 svgShape"/><path fill="#473b36" d="M3385.39,1600.37c-8.84,45.75,6.43,64,14.42,70.16a5.09,5.09,0,0,0,7.48-1.44c5.13-8.69,12.57-31.28-12.58-70.51A5.11,5.11,0,0,0,3385.39,1600.37Z" class="color364547 svgShape"/><path fill="#473b36" d="M3352.41,1650.83c-5.22,46.31,11.43,63.28,19.88,68.81a5.09,5.09,0,0,0,7.34-2c4.44-9.07,10.08-32.17-18.07-69.31A5.11,5.11,0,0,0,3352.41,1650.83Z" class="color364547 svgShape"/><path fill="#473b36" d="M3329.06,1710.52a4.56,4.56,0,0,0-7.68,3.57c2.27,41.55,19.45,54,27.71,57.65a4.53,4.53,0,0,0,6.17-2.86C3357.82,1760.23,3359.36,1739.05,3329.06,1710.52Z" class="color364547 svgShape"/><path fill="#473b36" d="M3297.31,1765.56a4.56,4.56,0,0,0-6.82,5c10.44,40.28,29.75,49.12,38.56,51a4.54,4.54,0,0,0,5.48-4C3335.33,1808.6,3332.66,1787.53,3297.31,1765.56Z" class="color364547 svgShape"/><path fill="#473b36" d="M3270.41,1822.69a4.29,4.29,0,0,0-5.62,5.65c15.53,36,34.77,41.37,43.24,41.88a4.27,4.27,0,0,0,4.51-4.54C3312,1857.21,3306.45,1838,3270.41,1822.69Z" class="color364547 svgShape"/><path fill="#473b36" d="M3229.12,1883a4.3,4.3,0,0,0-1.93,7.74c31.73,22.94,51,17.76,58.57,13.86a4.28,4.28,0,0,0,1.56-6.21C3282.51,1891.36,3267.93,1877.69,3229.12,1883Z" class="color364547 svgShape"/><path fill="#473b36" d="M3526.15,1656.4c-46.65-.46-61.85,17.87-66.49,26.84a5.1,5.1,0,0,0,2.76,7.11c9.49,3.49,33.07,6.74,67.17-25.1A5.11,5.11,0,0,0,3526.15,1656.4Z" class="color364547 svgShape"/><path fill="#473b36" d="M3501.61,1711c-46.47-4.11-63.06,13-68.39,21.56a5.09,5.09,0,0,0,2.2,7.3c9.18,4.22,32.44,9.31,68.92-19.76A5.11,5.11,0,0,0,3501.61,1711Z" class="color364547 svgShape"/><path fill="#473b36" d="M3466.16,1771.63c-40.32-10.52-57.47,2.06-63.44,8.84a4.54,4.54,0,0,0,.86,6.75c7.46,5.08,27.19,13,63.64-7.18A4.57,4.57,0,0,0,3466.16,1771.63Z" class="color364547 svgShape"/><path fill="#473b36" d="M3436.37,1827.84c-37.44-18.28-56.73-9.34-63.92-3.88a4.55,4.55,0,0,0-.51,6.79c6.32,6.46,24.09,18.14,63.81,5.55A4.57,4.57,0,0,0,3436.37,1827.84Z" class="color364547 svgShape"/><path fill="#473b36" d="M3356.05,1869.85a4.56,4.56,0,0,0-2.54,6.32c4.07,8.07,17.47,24.57,59.14,24.59a4.56,4.56,0,0,0,3.15-7.87C3385.64,1864.14,3364.55,1866.83,3356.05,1869.85Z" class="color364547 svgShape"/><path fill="#473b36" d="M3331.29,1920.63a4.55,4.55,0,0,0-3.11,6.06c3.28,8.41,15.06,26.1,56.54,30.07a4.57,4.57,0,0,0,3.89-7.54C3361.3,1917.74,3340.05,1918.42,3331.29,1920.63Z" class="color364547 svgShape"/><path fill="#f08557" d="M3360.7,2214c-68.92,8.79-135.33,5.53-170.26,2.6-16-1.34-25.4-2.6-25.4-2.6a18.08,18.08,0,0,0-18.09,18.09v304.43a18.1,18.1,0,0,0,18.09,18.09,839.84,839.84,0,0,0,191.35.48l4.31-.48a18.09,18.09,0,0,0,18.1-18.09V2232.06A18.08,18.08,0,0,0,3360.7,2214Z" class="colorf08557 svgShape"/><path fill="#d37146" d="M3190.44,2216.57c-16-1.34-25.4-2.6-25.4-2.6a18.08,18.08,0,0,0-18.09,18.09v304.43a18.1,18.1,0,0,0,18.09,18.09,839.84,839.84,0,0,0,191.35.48l4.31-.48a18.09,18.09,0,0,0,18.1-18.09v-23.58C3126.48,2545.21,3190.44,2216.57,3190.44,2216.57Z" class="colord36b46 svgShape"/></g></svg>