<svg xmlns="http://www.w3.org/2000/svg" enable-background="new 0 0 64 64" viewBox="0 0 64 64"><path fill="#c94c16" d="M61.6728516,39.7597656c-0.409668-0.3701172-1.0405273-0.3398438-1.4125977,0.0673828l-2.6455688,2.9102173
		C56.3261108,41.649292,54.7470703,40.8918457,53,40.6143799V20.5v-2.5400391C53,16.0517578,51.4477539,14.5,49.5400391,14.5H34v-4
		v-0.2001953c0-0.5527344-0.4477539-1-1-1h-9V5.5c0-0.5527344-0.4477539-1-1-1H13c-0.5522461,0-1,0.4472656-1,1v3.7998047H3
		c-0.5522461,0-1,0.4472656-1,1V10.5v8v11c0,0.5527344,0.4477539,1,1,1h22v20v2.5400391
		C25,54.9482422,26.5522461,56.5,28.4599609,56.5h16.1330566c1.7982788,1.9055176,4.2828979,3,6.9069824,3
		c5.2382813,0,9.5-4.2617188,9.5-9.5c0-2.1854248-0.7433472-4.2072144-1.9940186-5.8200073l2.7337646-3.0071411
		C62.1113281,40.7636719,62.081543,40.1318359,61.6728516,39.7597656z M34,18.5v-2h15.5400391
		C50.3452148,16.5,51,17.1552734,51,17.9599609V19.5H34V18.5z M14,6.5h8v2.7998047h-8V6.5z M4,11.2998047h9h10h9V15.5v2h-8v-2
		c0-0.5527344-0.4477539-1-1-1H13c-0.5522461,0-1,0.4472656-1,1v2H4V11.2998047z M22,16.5v4h-8v-4H22z M26,28.5H4v-9h8v2
		c0,0.5527344,0.4477539,1,1,1h10c0.5522461,0,1-0.4472656,1-1v-2h8v1v8H26z M28.4599609,54.5
		C27.6547852,54.5,27,53.8447266,27,53.0400391V51.5h15.1132813c0.0135498,0.0853882,0.0354004,0.1686401,0.0512085,0.253418
		c0.0269165,0.1437988,0.0534058,0.2875977,0.086853,0.4295654c0.0272827,0.1157837,0.0601196,0.2297363,0.0916748,0.3442383
		c0.0371704,0.1345215,0.0742798,0.2688599,0.1173706,0.4014893c0.0379639,0.1168213,0.0808716,0.2318115,0.1233521,0.3470459
		c0.046936,0.1271362,0.0942993,0.2540894,0.1467285,0.3791504c0.0484009,0.1156006,0.1011353,0.229187,0.1542358,0.3428345
		c0.0567017,0.1213989,0.1144409,0.2422485,0.1764526,0.3614502c0.0241699,0.0463867,0.0437622,0.0947876,0.0687256,0.1408081
		H28.4599609z M43.6616211,44.6428223c-0.0720215,0.1049805-0.1358643,0.2155151-0.2036743,0.3234863
		c-0.0897217,0.1428223-0.1806641,0.2844849-0.2628784,0.432251c-0.0644531,0.1158447-0.1211548,0.236084-0.1808472,0.3548584
		c-0.0740356,0.1473389-0.1484985,0.2940063-0.2149658,0.4455566c-0.0546265,0.1244507-0.1021729,0.2521973-0.1514893,0.3793335
		c-0.0592041,0.1525269-0.1177368,0.3049316-0.1691284,0.4611206c-0.0432739,0.1315308-0.0804443,0.2654419-0.118042,0.3994141
		c-0.0443726,0.1580811-0.086853,0.3164673-0.1231079,0.4777222c-0.0308228,0.1370239-0.0565186,0.2755127-0.0813599,0.4146729
		c-0.0291748,0.1635742-0.0549316,0.3278198-0.0756226,0.4940796c-0.0175781,0.1416016-0.0314331,0.2838135-0.0426636,0.4272461
		C42.031311,49.3355713,42.0175171,49.4164429,42.0131836,49.5H27v-19h6c0.5522461,0,1-0.4472656,1-1v-8h17v19.0126953
		c-0.086792,0.0045166-0.1708374,0.0187988-0.257019,0.0256348c-0.1373901,0.0109253-0.2736816,0.0241699-0.4093628,0.0408936
		c-0.1721191,0.0212402-0.3421631,0.0479126-0.5113525,0.0782471c-0.1342773,0.0241089-0.2680054,0.0489502-0.4003296,0.0786133
		c-0.1655884,0.0371704-0.3283691,0.0807495-0.4906006,0.1264648c-0.130249,0.0366821-0.260376,0.0727539-0.3883057,0.1148071
		c-0.1599121,0.0526123-0.315918,0.1124268-0.4719238,0.1730957c-0.1237793,0.0480957-0.24823,0.0944214-0.3694458,0.147522
		c-0.1549683,0.0679321-0.3050537,0.1439819-0.4555664,0.2197876c-0.1156616,0.0582275-0.2327271,0.1134033-0.3456421,0.1761475
		c-0.1508789,0.0838623-0.2955933,0.1766968-0.4412842,0.2684326c-0.1051636,0.0662231-0.2128906,0.1283569-0.3153076,0.1984863
		c-0.1517334,0.1040039-0.2957764,0.2176514-0.44104,0.3300171c-0.0883179,0.0682983-0.1804199,0.1317139-0.2662354,0.203064
		c-0.1933594,0.1608276-0.3777466,0.331665-0.5577393,0.507019c-0.0604248,0.0588989-0.1199341,0.1183472-0.178772,0.178833
		c-0.1749878,0.1796875-0.3455811,0.3636475-0.5060425,0.5567017c-0.0725098,0.0872192-0.1369019,0.1807251-0.2062988,0.2705078
		C43.87677,44.3505249,43.7644043,44.4929199,43.6616211,44.6428223z M51.5,57.5
		c-2.199707,0-4.2841797-0.9658203-5.7167969-2.6464844c-1.0668945-1.2597656-1.6806641-2.7851563-1.7749023-4.4111328
		C43.9995117,50.2919922,44,50.1503906,44,50c0-4.1357422,3.3642578-7.5,7.5-7.5
		c0.1499023,0.0009766,0.2897339-0.0008545,0.4380493,0.0077515c0.0012817,0.000061,0.0025635,0,0.0038452,0.000061
		c1.6460571,0.0958252,3.1390991,0.7265625,4.3270874,1.7098389l-5.3036499,5.8341064l-2.2583008-2.2587891
		c-0.390625-0.390625-1.0234375-0.390625-1.4140625,0s-0.390625,1.0234375,0,1.4140625l3,3
		C50.4804688,52.3945313,50.7348633,52.5,51,52.5c0.0078125,0,0.015625,0,0.0239258,0
		c0.2734375-0.0068359,0.5322266-0.125,0.7158203-0.3271484l5.8911743-6.4802856C58.4905396,46.9158936,59,48.4003906,59,50
		C59,54.1357422,55.6357422,57.5,51.5,57.5z" class="color000000 svgShape"/></svg>