<svg xmlns="http://www.w3.org/2000/svg" enable-background="new 0 0 512 512" viewBox="0 0 512 512"><path fill="#c94c16" d="M400.121 336.999c-6.145-1.828-12.634-1.153-18.271 1.9l-64.297 34.816c-3.959 2.144-8.034 3.997-12.21 5.556 1.753-5.921 1.573-12.455-.959-18.594-2.851-6.915-8.225-12.305-15.13-15.177s-14.515-2.885-21.43-.034l-45.771 18.875c-12.404-3.944-25.822-3.758-38.13.583l-24.587 8.671-.718-7.503c-.421-4.398-4.324-7.624-8.726-7.201l-47.782 4.572c-2.112.202-4.058 1.235-5.408 2.871s-1.996 3.742-1.794 5.854l0 0-71.672 6.858c-2.112.202-4.058 1.235-5.408 2.872s-1.996 3.742-1.794 5.854l9.146 95.563c.396 4.139 3.88 7.238 7.954 7.238.256 0 .513-.012.771-.037l71.672-6.859v0c.202 2.112 1.235 4.057 2.872 5.408 1.438 1.188 3.241 1.83 5.092 1.83.253 0 .508-.012.762-.036l47.782-4.573c4.398-.421 7.623-4.327 7.202-8.726l-.628-6.559 110.333-13.345c3.058-.37 6.098-1.031 9.035-1.966l18.043-5.746c13.578-4.323 26.117-11.014 37.27-19.885l62.039-49.351c5.291-3.083 9.147-7.986 10.902-13.883 1.827-6.145 1.153-12.633-1.899-18.271S406.267 338.827 400.121 336.999zM40.347 473.848l-7.621-79.636 63.709-6.097 7.621 79.636L40.347 473.848zM120.744 474.191l-9.145-95.563 31.855-3.048 9.145 95.563L120.744 474.191zM400.947 362.284c-.609 2.048-1.979 3.737-3.859 4.754-.412.223-.804.482-1.171.774l-62.536 49.747c-9.624 7.656-20.445 13.43-32.163 17.161l-18.043 5.746c-1.983.631-4.036 1.078-6.102 1.328l-107.328 12.982-7.875-65.108 27.376-9.655c9.776-3.446 20.506-3.318 30.218.362 1.9.719 4.005.69 5.885-.085l48.576-20.032c2.963-1.222 6.226-1.217 9.185.014s5.262 3.541 6.484 6.504c2.522 6.117-.402 13.146-6.52 15.669l-8.604 3.549c-3.699 1.525-5.702 5.549-4.689 9.419 1.013 3.872 4.741 6.401 8.7 5.918l6.703-.811c14.071-1.702 27.525-5.987 39.989-12.736l64.297-34.816c1.878-1.018 4.04-1.243 6.09-.633 2.049.609 3.736 1.979 4.754 3.858 0 0 0 0 0 .001C401.331 358.073 401.557 360.236 400.947 362.284zM489.94 212.81l-14.875-3.718c-.971-2.842-2.121-5.62-3.445-8.314l7.89-13.149c1.889-3.147 1.393-7.177-1.203-9.772l-16.162-16.163c-2.597-2.596-6.625-3.091-9.773-1.203l-13.148 7.89c-2.695-1.324-5.473-2.475-8.314-3.445l-3.719-14.875c-.89-3.562-4.09-6.06-7.761-6.06h-19.586l-22.035-5.509c-2.349-7.636-5.415-15.036-9.156-22.096l17.044-28.405c1.889-3.148 1.393-7.177-1.203-9.773l-30.709-30.708c-2.596-2.595-6.624-3.091-9.773-1.203l-28.405 17.043c-7.059-3.741-14.46-6.808-22.096-9.156l-8.034-32.133c-.89-3.561-4.09-6.06-7.761-6.06h-43.428c-3.671 0-6.871 2.499-7.761 6.06l-8.034 32.133c-7.636 2.348-15.037 5.415-22.096 9.156L167.99 46.306c-3.15-1.889-7.177-1.392-9.773 1.203l-30.709 30.708c-2.596 2.596-3.092 6.625-1.203 9.773l17.044 28.405c-3.741 7.06-6.808 14.46-9.156 22.096L112.157 144H92.571c-3.671 0-6.871 2.499-7.761 6.06l-3.719 14.875c-2.842.97-5.619 2.121-8.314 3.445l-13.148-7.89c-3.148-1.889-7.178-1.393-9.773 1.203l-16.162 16.163c-2.596 2.596-3.092 6.625-1.203 9.772l7.89 13.149c-1.324 2.694-2.475 5.472-3.445 8.314L22.06 212.81c-3.562.89-6.06 4.09-6.06 7.761v22.857c0 3.671 2.498 6.871 6.06 7.761l14.875 3.718c.971 2.842 2.121 5.62 3.445 8.314l-7.89 13.149c-1.889 3.147-1.393 7.177 1.203 9.772l16.162 16.163c2.597 2.596 6.626 3.093 9.773 1.203l13.148-7.89c2.695 1.324 5.473 2.475 8.314 3.445l3.719 14.875c.89 3.562 4.09 6.06 7.761 6.06h22.857c3.671 0 6.871-2.499 7.761-6.06l3.719-14.875c2.842-.97 5.619-2.121 8.314-3.445l13.148 7.89c2.711 1.627 6.07 1.474 8.61-.254l1.236 1.235c2.598 2.597 6.626 3.093 9.773 1.203l28.405-17.043c7.061 3.742 14.46 6.809 22.096 9.157l8.034 32.133c.89 3.561 4.09 6.06 7.761 6.06h43.428c3.671 0 6.871-2.499 7.761-6.06l8.034-32.133c7.636-2.348 15.035-5.415 22.096-9.157l28.405 17.043c3.15 1.89 7.178 1.393 9.773-1.203l1.235-1.235c2.541 1.729 5.9 1.881 8.61.254l13.148-7.89c2.695 1.324 5.473 2.475 8.314 3.445l3.719 14.875c.89 3.562 4.09 6.06 7.761 6.06h22.857c3.671 0 6.871-2.499 7.761-6.06l3.719-14.875c2.842-.97 5.619-2.121 8.314-3.445l13.148 7.89c3.147 1.889 7.177 1.392 9.773-1.203l16.162-16.163c2.596-2.596 3.092-6.625 1.203-9.772l-7.89-13.149c1.324-2.694 2.475-5.472 3.445-8.314l14.875-3.718c3.562-.89 6.06-4.09 6.06-7.761v-22.857C496 216.9 493.502 213.7 489.94 212.81zM376 232c0-7.45 2.566-14.308 6.852-19.752l27.089-6.772c2.485-.621 4.449-2.368 5.411-4.614C429.463 204.194 440 216.885 440 232c0 17.645-14.355 32-32 32S376 249.645 376 232zM129.115 212.24C133.416 217.682 136 224.538 136 232c0 17.645-14.355 32-32 32s-32-14.355-32-32c0-15.115 10.537-27.806 24.648-31.138.962 2.245 2.926 3.992 5.411 4.614L129.115 212.24zM131.445 279.507c-4.158 2.409-8.62 4.258-13.262 5.496-2.812.75-4.994 2.967-5.699 5.79L109.183 304H98.817l-3.302-13.207c-.705-2.823-2.888-5.04-5.699-5.79-4.642-1.238-9.104-3.087-13.262-5.496-2.52-1.458-5.63-1.435-8.126.063l-11.676 7.006-7.329-7.329 7.006-11.676c1.497-2.495 1.521-5.607.062-8.125-2.407-4.157-4.257-8.619-5.496-13.264-.75-2.811-2.967-4.993-5.789-5.698L32 237.183v-10.365l13.207-3.301c2.822-.706 5.039-2.887 5.789-5.698 1.239-4.645 3.089-9.107 5.496-13.264 1.458-2.518 1.435-5.63-.062-8.125l-7.006-11.676 7.329-7.329 11.676 7.006c2.496 1.498 5.608 1.521 8.126.063 4.157-2.409 8.62-4.257 13.262-5.496 2.812-.75 4.994-2.967 5.699-5.79L96 171.27v13.41C73.329 188.5 56 208.259 56 232c0 26.467 21.532 48 48 48 8.549 0 16.575-2.257 23.535-6.19l5.135 5.135C132.251 279.1 131.839 279.279 131.445 279.507zM311.756 272.495c-8.452 4.895-17.52 8.652-26.952 11.169-2.811.75-4.993 2.967-5.698 5.789L271.468 320h-30.936l-7.638-30.547c-.705-2.822-2.888-5.039-5.698-5.789-9.433-2.517-18.5-6.274-26.952-11.169-2.518-1.459-5.628-1.435-8.125.063l-27.005 16.203-21.876-21.875 16.204-27.006c1.497-2.495 1.521-5.607.062-8.125-4.894-8.45-8.651-17.518-11.168-26.951-.75-2.811-2.967-4.994-5.789-5.699L112 191.468v-30.937l30.548-7.637c2.822-.706 5.039-2.888 5.789-5.699 2.517-9.433 6.274-18.5 11.168-26.951 1.458-2.518 1.435-5.63-.062-8.125l-16.204-27.006 21.876-21.875 27.005 16.203c2.496 1.497 5.606 1.521 8.126.063 8.45-4.894 17.518-8.652 26.951-11.169 2.811-.75 4.993-2.967 5.698-5.789L240.532 32h30.936l7.638 30.547c.705 2.822 2.888 5.039 5.698 5.789 9.434 2.517 18.501 6.275 26.951 11.169 2.52 1.458 5.63 1.435 8.126-.063l27.005-16.203 21.876 21.875-16.204 27.006c-1.497 2.495-1.521 5.607-.062 8.125 4.894 8.45 8.651 17.518 11.168 26.951.75 2.811 2.967 4.994 5.789 5.699L400 160.532v30.937l-30.548 7.637c-2.822.706-5.039 2.888-5.789 5.699-2.517 9.433-6.274 18.5-11.168 26.951-1.458 2.518-1.435 5.63.062 8.125l16.204 27.006-21.876 21.875-27.005-16.203C317.385 271.061 314.274 271.037 311.756 272.495zM480 237.183l-13.207 3.301c-2.822.706-5.039 2.887-5.789 5.698-1.239 4.645-3.089 9.107-5.496 13.264-1.458 2.518-1.435 5.63.062 8.125l7.006 11.676-7.329 7.329-11.676-7.006c-2.496-1.497-5.607-1.521-8.126-.063-4.158 2.409-8.62 4.258-13.262 5.496-2.812.75-4.994 2.967-5.699 5.79L413.183 304h-10.365l-3.302-13.207c-.705-2.823-2.888-5.04-5.699-5.79-4.642-1.238-9.104-3.087-13.262-5.496-.394-.228-.806-.407-1.225-.562l5.132-5.131C391.421 277.748 399.451 280 408 280c26.468 0 48-21.533 48-48 0-23.741-17.329-43.5-40-47.321v-13.41l.484 1.938c.705 2.823 2.888 5.04 5.699 5.79 4.642 1.239 9.104 3.087 13.262 5.496 2.52 1.458 5.629 1.435 8.126-.063l11.676-7.006 7.329 7.329-7.006 11.676c-1.497 2.495-1.521 5.607-.062 8.125 2.407 4.157 4.257 8.619 5.496 13.264.75 2.811 2.967 4.993 5.789 5.698L480 226.817V237.183z" class="color000000 svgShape"/><path fill="#c94c16" d="M256,80c-52.935,0-96,43.065-96,96s43.065,96,96,96s96-43.065,96-96S308.935,80,256,80z M248,255.599V196.66
		c0-3.18-1.883-6.058-4.797-7.331C231.538,184.232,224,172.72,224,160c0-7.949,2.944-15.427,8-21.162V160c0,4.418,3.582,8,8,8h32
		c4.418,0,8-3.582,8-8v-21.162c5.056,5.735,8,13.213,8,21.162c0,12.72-7.538,24.232-19.203,29.33
		c-2.914,1.273-4.797,4.151-4.797,7.331v58.939c-2.632,0.263-5.3,0.401-8,0.401S250.632,255.862,248,255.599z M280,252.317v-50.749
		c14.734-8.506,24-24.295,24-41.568c0-19.08-11.304-36.347-28.797-43.991c-2.474-1.082-5.327-0.841-7.583,0.636
		c-2.259,1.478-3.62,3.995-3.62,6.694V152h-16v-28.66c0-2.699-1.361-5.216-3.62-6.694c-2.256-1.478-5.109-1.718-7.583-0.636
		C219.304,123.653,208,140.92,208,160c0,17.273,9.266,33.062,24,41.568v50.749c-32.422-10.219-56-40.564-56-76.317
		c0-44.112,35.888-80,80-80s80,35.888,80,80C336,211.753,312.422,242.099,280,252.317z" class="color000000 svgShape"/></svg>