<svg xmlns="http://www.w3.org/2000/svg" viewBox="0 0 48 48"><path fill="#c94c16" d="M30,13v3.5859L23.293,23.293a1,1,0,1,0,1.414,1.414L31.4141,18H35a.9993.9993,0,0,0,.707-.293l6-6A1,1,0,0,0,41,10H38V7a1,1,0,0,0-1.707-.707l-6,6A.9993.9993,0,0,0,30,13Z" class="color646464 svgShape"/><path fill="#c94c16" d="M27.1223,16.6355a8.0031,8.0031,0,1,0,4.2422,4.2422l-5.2434,5.2434a3,3,0,1,1-4.2422-4.2422Z" class="color646464 svgShape"/><path fill="#c94c16" d="M41.6426,14.6l-2.992,2.992a16.0289,16.0289,0,1,1-8.2422-8.2422L33.4,6.3574A20.0264,20.0264,0,1,0,41.6426,14.6Z" class="color646464 svgShape"/><path fill="#c94c16" d="M28,13a2.9809,2.9809,0,0,1,.8689-2.1089,14.0567,14.0567,0,1,0,8.24,8.24A2.9809,2.9809,0,0,1,35,20H33.1523A10.0374,10.0374,0,1,1,28,14.8477Z" class="color646464 svgShape"/></svg>