<svg xmlns="http://www.w3.org/2000/svg" viewBox="0 0 32 32"><g fill="#c94c16" class="color000000 svgShape" data-name="14 Mobile Development"><path d="M31,18.235l-.972-.188a7.113,7.113,0,0,0-.588-1.417l.555-.815a.5.5,0,0,0-.059-.635l-1.858-1.858a.5.5,0,0,0-.634-.06l-.818.554a7.152,7.152,0,0,0-1.417-.588l-.187-.969a.5.5,0,0,0-.491-.405h-.811V3.959a2.585,2.585,0,0,0-2.583-2.582H8.246A2.585,2.585,0,0,0,5.664,3.959V7.17l-.118.617a5.619,5.619,0,0,0-1.036.432l-.6-.407a.5.5,0,0,0-.635.06L1.8,9.351a.5.5,0,0,0-.061.633l.405.6a5.791,5.791,0,0,0-.43,1.035L1,11.756a.5.5,0,0,0-.4.491v2.088A.5.5,0,0,0,1,14.826l.71.136A5.749,5.749,0,0,0,2.144,16l-.4.6a.5.5,0,0,0,.061.633l1.476,1.477a.5.5,0,0,0,.634.061l.6-.406a5.588,5.588,0,0,0,1.037.432l.118.617v8.629a2.585,2.585,0,0,0,2.582,2.582H21.134a2.577,2.577,0,0,0,2.564-2.4h.83a.5.5,0,0,0,.491-.406l.187-.968a7.067,7.067,0,0,0,1.418-.588l.817.554a.5.5,0,0,0,.634-.061L29.933,24.9a.5.5,0,0,0,.059-.635l-.555-.816a7.023,7.023,0,0,0,.588-1.419L31,21.841a.5.5,0,0,0,.405-.491V18.727A.5.5,0,0,0,31,18.235Zm-7.28-.905a2.753,2.753,0,0,1,0,5.416Zm-18.971.018a.5.5,0,0,0-.54.012l-.515.349L2.8,16.817l.348-.514a.5.5,0,0,0,.014-.539,4.73,4.73,0,0,1-.56-1.35.5.5,0,0,0-.391-.375L1.6,13.922V12.659l.612-.118a.5.5,0,0,0,.39-.375,4.725,4.725,0,0,1,.56-1.348.5.5,0,0,0-.014-.539L2.8,9.766l.892-.894.514.349a.5.5,0,0,0,.541.013,4.7,4.7,0,0,1,1.348-.559.5.5,0,0,0,.375-.392l.117-.61H7.849l.118.61a.5.5,0,0,0,.375.392,4.641,4.641,0,0,1,1.345.559.5.5,0,0,0,.542-.013l.514-.349.894.893-.35.513a.5.5,0,0,0-.014.54,4.714,4.714,0,0,1,.559,1.348.5.5,0,0,0,.392.375l.612.118v1.263l-.612.117a.5.5,0,0,0-.392.375,4.719,4.719,0,0,1-.559,1.35.5.5,0,0,0,.014.54l.349.513-.893.892-.515-.349a.5.5,0,0,0-.541-.012,4.641,4.641,0,0,1-1.345.559.5.5,0,0,0-.375.392l-.118.61H6.586l-.117-.61a.5.5,0,0,0-.375-.392A4.7,4.7,0,0,1,4.746,17.348Zm4,2.174a.1.1,0,0,0,.007-.018L8.89,18.8a5.58,5.58,0,0,0,1.036-.432l.6.406a.5.5,0,0,0,.634-.061l1.478-1.477a.5.5,0,0,0,.06-.634L12.29,16a5.718,5.718,0,0,0,.429-1.036l.712-.137a.5.5,0,0,0,.405-.491V12.247a.5.5,0,0,0-.405-.491l-.712-.138a5.738,5.738,0,0,0-.429-1.035l.406-.6a.5.5,0,0,0-.06-.634L11.158,7.872a.5.5,0,0,0-.635-.06l-.6.407A5.677,5.677,0,0,0,8.89,7.787l-.137-.709a.087.087,0,0,0-.007-.017V6.543h1.442a1.668,1.668,0,0,0,1.211.524h6.583a1.675,1.675,0,0,0,1.212-.524h1.44V25.459H8.746Zm13.971,8.519a1.584,1.584,0,0,1-1.583,1.582H8.246a1.584,1.584,0,0,1-1.582-1.582V19.909H7.746v6.05a.5.5,0,0,0,.5.5H21.134a.5.5,0,0,0,.5-.5V6.043a.5.5,0,0,0-.5-.5H18.962a.5.5,0,0,0-.405.207.717.717,0,0,1-.575.317H11.4a.705.705,0,0,1-.57-.314.5.5,0,0,0-.407-.21H8.246a.5.5,0,0,0-.5.5v.63H6.664V3.959A1.584,1.584,0,0,1,8.246,2.377H21.134a1.584,1.584,0,0,1,1.583,1.582V28.041Zm7.684-7.1-.873.167a.5.5,0,0,0-.391.375,6.081,6.081,0,0,1-.717,1.73.5.5,0,0,0,.014.541l.5.733L27.66,25.755l-.734-.5a.5.5,0,0,0-.539-.014,6.04,6.04,0,0,1-1.729.715.5.5,0,0,0-.375.392l-.168.872h-.4V23.746a3.739,3.739,0,0,0,0-7.416V12.854h.4l.168.87a.5.5,0,0,0,.372.39,6.261,6.261,0,0,1,1.733.719.5.5,0,0,0,.538-.015l.734-.5,1.273,1.273-.5.732a.5.5,0,0,0-.014.541,6.081,6.081,0,0,1,.717,1.73.5.5,0,0,0,.39.373l.874.169Z" class="color000000 svgShape"/><path d="M18.219 3.412H14.706a.5.5 0 0 0 0 1h3.513a.5.5 0 0 0 0-1zM11.857 3.412h-.693a.5.5 0 0 0 0 1h.693a.5.5 0 0 0 0-1zM15.688 27.5h-2a.5.5 0 0 0 0 1h2a.5.5 0 0 0 0-1zM10.851 27.5H10.07a.5.5 0 0 0 0 1h.781a.5.5 0 1 0 0-1zM19.311 27.5H18.53a.5.5 0 0 0 0 1h.781a.5.5 0 0 0 0-1zM10.427 13.29A3.21 3.21 0 1 0 7.218 16.5 3.213 3.213 0 0 0 10.427 13.29zm-5.419 0a2.21 2.21 0 1 1 2.21 2.21A2.211 2.211 0 0 1 5.008 13.29z" class="color000000 svgShape"/></g></svg>