<svg xmlns="http://www.w3.org/2000/svg" viewBox="0 0 32 32"><path fill="#c94c16" d="M8.5 17c-.827 0-1.5-.673-1.5-1.5V11c0-1.103.897-2 2-2h4.586l-.293.293a1 1 0 1 0 1.414 1.414l2-2a1 1 0 0 0 0-1.414l-2-2a1 1 0 1 0-1.414 1.414l.293.293H9c-2.206 0-4 1.794-4 4v4.5C5 17.43 6.57 19 8.5 19c.827 0 1.5.673 1.5 1.5V22c0 1.103-.897 2-2 2H6a1 1 0 1 0 0 2h2c2.206 0 4-1.794 4-4v-1.5c0-1.93-1.57-3.5-3.5-3.5z" class="color000000 svgShape"/><path fill="#c94c16" d="M11.707 11.293a1 1 0 0 0-1.414 0l-.293.293-.293-.293a1 1 0 1 0-1.414 1.414l.293.293-.293.293a1 1 0 1 0 1.414 1.414l.293-.293.293.293a.997.997 0 0 0 1.414 0 1 1 0 0 0 0-1.414L11.414 13l.293-.293a1 1 0 0 0 0-1.414z" class="color000000 svgShape"/><circle cx="7.5" cy="21.5" r="1.5" fill="#c94c16" class="color000000 svgShape"/><path fill="#c94c16" d="M21 15c.551 0 1 .448 1 1a1 1 0 1 0 2 0 2.995 2.995 0 0 0-2-2.816V13a1 1 0 1 0-2 0v.184A2.995 2.995 0 0 0 18 16c0 1.654 1.346 3 3 3a1 1 0 1 1-1 1 1 1 0 1 0-2 0c0 1.302.839 2.402 2 2.816V23a1 1 0 1 0 2 0v-.184A2.995 2.995 0 0 0 24 20c0-1.654-1.346-3-3-3a1.001 1.001 0 0 1 0-2z" class="color000000 svgShape"/><path fill="#c94c16" d="M30 18c0-4.629-3.513-8.449-8.012-8.943C21.99 9.037 22 9.02 22 9V3a1 1 0 0 0-1-1H3a1 1 0 0 0-1 1v26a1 1 0 0 0 1 1h18a1 1 0 0 0 1-1v-2c0-.02-.01-.037-.012-.057C26.488 26.449 30 22.629 30 18zM20 28H4V4h16v5c0 .02.01.037.012.057C15.512 9.551 12 13.371 12 18s3.513 8.449 8.012 8.943c-.002.02-.012.037-.012.057v1zm1-3c-3.86 0-7-3.14-7-7s3.14-7 7-7 7 3.14 7 7-3.14 7-7 7z" class="color000000 svgShape"/></svg>