<svg xmlns="http://www.w3.org/2000/svg" viewBox="-42 176 510 489.9"><path fill="#e89a79" d="M18.1 287.9c-35.6 6.3-74.7 69.9-29.4 135.9 45.3 66 195.7-2.9 226.8 51.5S379.8 598.4 405 438.6c17.6-111.8 42.2-153.2-18.2-210.8-80.4-76.7-201.9-60.9-243.4.1s-72.2 50.7-125.3 60z" class="color79a1e8 svgShape"/><path fill="#aa5631" d="M13.8 665.9c-17.1 0-31-13.9-31-31V348.5c0-2.3 1.8-4.1 4.1-4.1s4.1 1.8 4.1 4.1v286.3c0 12.6 10.2 22.8 22.8 22.8 12.6 0 22.8-10.2 22.8-22.8v-70.7c0-18.9 15.3-34.2 34.2-34.2s34.2 15.3 34.2 34.2v27c0 14.3 11.6 25.9 25.9 25.9h2.4c14.3 0 25.9-11.6 25.9-25.9v-84.7c0-2.3 1.8-4.1 4.1-4.1s4.1 1.8 4.1 4.1v84.7c0 18.9-15.3 34.2-34.2 34.2h-2.4c-18.9 0-34.2-15.3-34.2-34.2v-27c0-14.3-11.6-25.9-25.9-25.9-14.3 0-25.9 11.6-25.9 25.9v70.7c0 17.2-13.9 31.1-31 31.1z" class="color4b31aa svgShape"/><ellipse cx="292.9" cy="639.5" fill="#ba623c" class="color473cba svgShape" rx="108.3" ry="9.5"/><path fill="#ba623c" d="M143.8 295h285.3v160.1H143.8z" class="color473cba svgShape"/><path fill="#aa5631" d="M429.1 459.2H143.8c-2.2 0-4-1.8-4-4V295c0-2.2 1.8-4 4-4h285.3c2.2 0 4 1.8 4 4v160.1c0 2.3-1.8 4.1-4 4.1zm-281.2-8.1h277.2v-152H147.9v152z" class="color4b31aa svgShape"/><path fill="#f7dbcf" d="M445.2 301.9c0-13.1-10.7-23.8-23.8-23.8h-27.9L227.3 457.2h217.9V301.9z" class="colorcfddf7 svgShape"/><path fill="#dd9576" d="M464.1 509.7c0 14.4-11.7 26.1-26.1 26.1h-29.7c-14.4 0-26.1-11.7-26.1-26.1V286.5c0-14.4 11.7-26.1 26.1-26.1H438c14.4 0 26.1 11.7 26.1 26.1v223.2z" class="color7693dd svgShape"/><path fill="#fff" d="M442.3 285.6c0-13.9-11.2-25.1-25.1-25.1H130.9c-13.9 0-25.4 11.2-25.4 25.1v163.7h336.7l.1-163.7z" class="colorffffff svgShape"/><path fill="#fff" d="M105.6 449.3v61.2c0 13.9 11.5 25.3 25.4 25.3h286.3c13.9 0 25.1-11.5 25.1-25.3v-61.2H105.6z" class="colorffffff svgShape"/><path fill="#f7dbcf" d="m380.4 449.3-86.5 86.5h123.2c13.9 0 25.1-11.5 25.1-25.3v-61.2h-61.8z" class="colorcfddf7 svgShape"/><circle cx="274" cy="484.9" r="13.9" fill="#fff" class="colorffffff svgShape"/><path fill="#aa5631" d="M274 502.7c-9.8 0-17.7-8-17.7-17.7s8-17.7 17.7-17.7c9.8 0 17.7 8 17.7 17.7s-7.9 17.7-17.7 17.7zm0-27.7c-5.5 0-10 4.5-10 10s4.5 10 10 10 10-4.5 10-10c0-5.6-4.4-10-10-10z" class="color4b31aa svgShape"/><path fill="#fff" d="M347.9 584.6h-87.2l-9.2-48.8h87.1z" class="colorffffff svgShape"/><path fill="#f9e1d7" d="M330 584.6H221.5l12.1-48.8h87.2z" class="colord7ecf9 svgShape"/><path fill="#fff" d="M372.6 591.6c0-3.8-4.2-6.9-9.5-6.9H197.7c-5.2 0-9.5 3.1-9.5 6.9 0 3.8 4.2 6.9 9.5 6.9h165.4c5.3 0 9.5-3.1 9.5-6.9z" class="colorffffff svgShape"/><path fill="#f7dbcf" d="M442.3 285.6c0-13.9-11.2-25.1-25.1-25.1h-29.4L212.5 449.3h229.8V285.6z" class="colorcfddf7 svgShape"/><path fill="#cc7a56" d="M124.5 278.3h300.8v168.8H124.5z" class="color5956cc svgShape"/><path fill="#ba623c" d="M214.5 447.1h210.8V278.3h-54.1z" class="color473cba svgShape"/><path fill="#aa5631" d="M425.3 451H124.5c-2.1 0-3.9-1.7-3.9-3.9V278.3c0-2.1 1.7-3.9 3.9-3.9h300.8c2.1 0 3.9 1.7 3.9 3.9v168.8c0 2.2-1.8 3.9-3.9 3.9zm-296.9-7.8h293.1V282.1H128.4v161.1z" class="color4b31aa svgShape"/><path fill="#aa5631" d="M130.9 256.6c-16.1 0-29.2 13-29.2 29v224.9c0 16.1 13.1 29.2 29.2 29.2h97.8l-10.3 41.1h-20.7c-7.5 0-13.4 4.8-13.4 10.8s5.9 10.8 13.4 10.8h165.4c7.5 0 13.4-4.8 13.4-10.8s-5.9-10.8-13.4-10.8h-12l-7.8-41.1H438c16.5 0 30-13.4 30-30V286.5c0-16.5-13.4-30-30-30l-307.1.1zm-21.5 29c0-11.7 9.6-21.2 21.5-21.2h286.3c11.7 0 21.2 9.5 21.2 21.2v159.8h-329V285.6zm127.3 254.1h80.9l7.8 41.1h-98.9l10.2-41.1zm132 51.9c0 1.2-2.2 3.1-5.6 3.1H197.7c-3.4 0-5.6-1.8-5.6-3.1 0-1.2 2.2-3.1 5.6-3.1h165.4c3.4 0 5.6 1.8 5.6 3.1zm-25.5-10.9h-9.9l-7.8-41.1h9.9l7.8 41.1zm-212.3-48.8c-11.6 0-21.5-9.8-21.5-21.4v-57.3h328.9v57.3c0 11.8-9.5 21.4-21.2 21.4H130.9zm329.3-22.2c0 12.2-10 22.2-22.2 22.2h-1.2c5.7-5.3 9.3-13 9.3-21.4V285.6c0-8.4-3.6-15.9-9.3-21.2h1.2c12.2 0 22.2 10 22.2 22.2v223.1z" class="color4b31aa svgShape"/><path fill="#e89a79" d="M70.8 369.3H-8.7c-8.3 0-15.1-6.7-15.1-15.1V201.7c0-8.3 6.7-15.1 15.1-15.1h79.5c8.3 0 15.1 6.7 15.1 15.1v152.5c-.1 8.3-6.8 15.1-15.1 15.1z" class="color79a1e8 svgShape"/><path fill="#fae9e1" d="M56.6 369.3h-79.5c-8.3 0-15.1-6.7-15.1-15.1V201.7c0-8.3 6.7-15.1 15.1-15.1h79.5c8.3 0 15.1 6.7 15.1 15.1v152.5c0 8.3-6.7 15.1-15.1 15.1z" class="colore1f0fa svgShape"/><path fill="#f7dbcf" d="M-39.4 337.7v16.6c0 8.3 6.7 15.1 15.1 15.1h79.5c8.3 0 15.1-6.7 15.1-15.1V228.1L-39.4 337.7z" class="colorcfddf7 svgShape"/><path fill="#fb753b" d="M-22.6 204.5h79.1v135.6h-79.1z" class="colorfbb03b svgShape"/><path fill="#c94c16" d="m56.5 241.8-79.1 79.1v19.2h79.1z" class="colordd912c svgShape"/><path fill="#fae9e1" d="M-19.6 303.7h73v32.6h-73z" class="colore1f0fa svgShape"/><path fill="#e2cec5" d="M-19.6 336.3h73v-32.6H-5.5l-14.1 14.2z" class="colorc5d7e2 svgShape"/><path fill="#ba623c" d="M2.5 219.6H-8.1c-1.7 0-3.1 1.4-3.1 3.1v10.6c0 1.7 1.4 3.1 3.1 3.1H2.5c1.7 0 3.1-1.4 3.1-3.1v-10.6c0-1.7-1.4-3.1-3.1-3.1z" class="color473cba svgShape"/><path fill="#fae9e1" d="M22.2 219.6H11.6c-1.7 0-3.1 1.4-3.1 3.1v10.6c0 1.7 1.4 3.1 3.1 3.1h10.6c1.7 0 3.1-1.4 3.1-3.1v-10.6c0-1.7-1.4-3.1-3.1-3.1z" class="colore1f0fa svgShape"/><path fill="#ce4b13" d="M41.9 219.6H31.3c-1.7 0-3.1 1.4-3.1 3.1v10.6c0 .8.3 1.6.9 2.2s1.4.9 2.2.9h10.6c1.7 0 3.1-1.4 3.1-3.1v-10.6c0-1.7-1.4-3.1-3.1-3.1z" class="color13cece svgShape"/><path fill="#f95a15" d="M2.5 246.1H-8.1c-1.7 0-3.1 1.4-3.1 3.1v10.6c0 1.7 1.4 3.1 3.1 3.1H2.5c1.7 0 3.1-1.4 3.1-3.1v-10.6c0-1.7-1.4-3.1-3.1-3.1z" class="colorf9d015 svgShape"/><path fill="#ce4b13" d="M22.2 246.1H11.6c-1.7 0-3.1 1.4-3.1 3.1v10.6c0 1.7 1.4 3.1 3.1 3.1h10.6c1.7 0 3.1-1.4 3.1-3.1v-10.6c0-1.7-1.4-3.1-3.1-3.1z" class="color13cece svgShape"/><path fill="#f95a15" d="M41.9 246.1H31.3c-1.7 0-3.1 1.4-3.1 3.1v10.6c0 .8.3 1.6.9 2.2s1.4.9 2.2.9h10.6c1.7 0 3.1-1.4 3.1-3.1v-10.6c0-1.7-1.4-3.1-3.1-3.1zM2.5 271.7H-8.1c-1.7 0-3.1 1.4-3.1 3.1v10.6c0 1.7 1.4 3.1 3.1 3.1H2.5c1.7 0 3.1-1.4 3.1-3.1v-10.6c0-1.7-1.4-3.1-3.1-3.1z" class="colorf9d015 svgShape"/><path fill="#fae9e1" d="M22.2 271.7H11.6c-1.7 0-3.1 1.4-3.1 3.1v10.6c0 1.7 1.4 3.1 3.1 3.1h10.6c1.7 0 3.1-1.4 3.1-3.1v-10.6c0-1.7-1.4-3.1-3.1-3.1z" class="colore1f0fa svgShape"/><path fill="#ba623c" d="M41.9 271.7H31.3c-1.7 0-3.1 1.4-3.1 3.1v10.6c0 .8.3 1.6.9 2.2s1.4.9 2.2.9h10.6c1.7 0 3.1-1.4 3.1-3.1v-10.6c0-1.7-1.4-3.1-3.1-3.1z" class="color473cba svgShape"/><path fill="#e89a79" d="M2.5 310.4H-8.1c-1.7 0-3.1 1.4-3.1 3.1v10.6c0 1.7 1.4 3.1 3.1 3.1H2.5c1.7 0 3.1-1.4 3.1-3.1v-10.6c0-1.7-1.4-3.1-3.1-3.1z" class="color79a1e8 svgShape"/><path fill="#f95a15" d="M22.2 310.4H11.6c-1.7 0-3.1 1.4-3.1 3.1v10.6c0 1.7 1.4 3.1 3.1 3.1h10.6c1.7 0 3.1-1.4 3.1-3.1v-10.6c0-1.7-1.4-3.1-3.1-3.1z" class="colorf9d015 svgShape"/><path fill="#ce4b13" d="M41.9 310.4H31.3c-1.7 0-3.1 1.4-3.1 3.1v10.6c0 .8.3 1.6.9 2.2s1.4.9 2.2.9h10.6c1.7 0 3.1-1.4 3.1-3.1v-10.6c0-1.7-1.4-3.1-3.1-3.1z" class="color13cece svgShape"/><path fill="#aa5631" d="M56.5 344.2h-79.1c-2.3 0-4.1-1.8-4.1-4.1V204.5c0-2.3 1.8-4.1 4.1-4.1h79.1c2.3 0 4.1 1.8 4.1 4.1v135.6c0 2.3-1.9 4.1-4.1 4.1zm-75-8.2h70.8V208.7h-70.8V336z" class="color4b31aa svgShape"/><path fill="#dd8d6b" d="M334.1 362.9H225.2l20.1-27.7H314z" class="color6bddda svgShape"/><path fill="#ce4b13" d="m279.6 416.1-54.4-53.2h108.9z" class="color13cece svgShape"/><path fill="#dd8d6b" d="m298.7 362.9-19.1 53.2-19-53.2z" class="color6bddda svgShape"/><path fill="#e89a79" d="m314 335.2-15.3 27.7h-38.1l-15.3-27.7z" class="color79a1e8 svgShape"/><path fill="#ce4b13" d="m260.6 362.9 19-27.5 19.1 27.5z" class="color13cece svgShape"/><path fill="#fff" d="M337.9 361.3c-.1-.3-.3-.5-.4-.8v-.1l-20.1-27.7c-.8-1.1-2-1.7-3.3-1.7h-68.6c-1.3 0-2.6.6-3.3 1.7l-20.1 27.7v.1c-.2.3-.3.5-.5.8-.6 1.6-.3 3.3.9 4.5l54.4 53.2c.8.8 1.8 1.2 2.9 1.2s2.1-.4 2.9-1.2l54.4-53.2c1.1-1.1 1.4-2.9.8-4.5zm-58.3 42.5L266.4 367h26.4l-13.2 36.8zm27.4-64.5-8.7 15.8-10.9-15.8H307zm-35.1 0L261 355.1l-8.7-15.8h19.6zm7.7 3.3 11.2 16.1h-22.4l11.2-16.1zm26.1 16.2 8.8-15.9 11.6 15.9h-20.4zm-60.9-16 8.8 15.9h-20.3l11.5-15.9zm12.9 24.2 12 33.6-34.4-33.6h22.4zm31.8 33.6 12-33.6H324l-34.5 33.6z" class="colorffffff svgShape"/><path fill="none" d="M279.6 314.6v7.3"/><path fill="#f95a15" d="M279.6 326c-2.3 0-4.1-1.8-4.1-4.1v-7.3c0-2.3 1.8-4.1 4.1-4.1s4.1 1.8 4.1 4.1v7.3c.1 2.3-1.8 4.1-4.1 4.1z" class="colorf9d015 svgShape"/><path fill="none" d="m258.5 319.1 3.7 5.1"/><path fill="#f95a15" d="M262.2 328.3c-1.3 0-2.5-.6-3.3-1.7l-3.7-5c-1.3-1.8-.9-4.4.9-5.8 1.8-1.3 4.4-.9 5.8.9l3.7 5c1.3 1.8.9 4.4-.9 5.8-.8.5-1.7.8-2.5.8z" class="colorf9d015 svgShape"/><path fill="none" d="m301 319.1-3.7 5.1"/><path fill="#f95a15" d="M297.3 328.3c-.8 0-1.7-.3-2.4-.8-1.8-1.3-2.2-3.9-.9-5.8l3.7-5c1.3-1.8 3.9-2.2 5.8-.9s2.2 3.9.9 5.8l-3.7 5c-.9 1.1-2.1 1.7-3.4 1.7z" class="colorf9d015 svgShape"/><path fill="#aa5631" d="M70.8 182.5h-93.6c-10.6 0-19.2 8.6-19.2 19.2v152.5c0 10.6 8.6 19.2 19.2 19.2h93.6c10.6 0 19.2-8.6 19.2-19.2V201.7c-.1-10.6-8.7-19.2-19.2-19.2zM-33.8 354.2V201.7c0-6 4.9-10.9 10.9-10.9h79.5c6 0 10.9 4.9 10.9 10.9v152.5c0 6-4.9 10.9-10.9 10.9h-79.5c-5.9.1-10.9-4.8-10.9-10.9zm115.5 0c0 5.4-4 10-9.2 10.8 2.1-3.1 3.3-6.8 3.3-10.8V201.7c0-4-1.2-7.7-3.3-10.8 5.2.8 9.2 5.3 9.2 10.8v152.5z" class="color4b31aa svgShape"/></svg>